<svg width="24" height="24" viewBox="0 0 24 24" fill="none" xmlns="http://www.w3.org/2000/svg">
<path d="M4 8C4 6.89543 4.89543 6 6 6H12H18C19.1046 6 20 6.89543 20 8C20 9.10457 19.1046 10 18 10H12H6C4.89543 10 4 9.10457 4 8Z" fill="black"/>
<path d="M7 16C7 14.8954 7.89543 14 9 14H12H15C16.1046 14 17 14.8954 17 16C17 17.1046 16.1046 18 15 18H12H9C7.89543 18 7 17.1046 7 16Z" fill="black"/>
<path d="M12 6H6C4.89543 6 4 6.89543 4 8C4 9.10457 4.89543 10 6 10H12M12 6H18C19.1046 6 20 6.89543 20 8C20 9.10457 19.1046 10 18 10H12M12 6V3M12 10V14M12 14H9C7.89543 14 7 14.8954 7 16C7 17.1046 7.89543 18 9 18H12M12 14H15C16.1046 14 17 14.8954 17 16C17 17.1046 16.1046 18 15 18H12M12 18V21" stroke="black" stroke-width="2" stroke-linecap="round" stroke-linejoin="round"/>
</svg>
