<svg width="24" height="24" viewBox="0 0 24 24" fill="none" xmlns="http://www.w3.org/2000/svg">
<path d="M8 20C6.89543 20 6 19.1046 6 18L6 12L6 6C6 4.89543 6.89543 4 8 4C9.10457 4 10 4.89543 10 6L10 12L10 18C10 19.1046 9.10457 20 8 20Z" fill="black"/>
<path d="M16 17C14.8954 17 14 16.1046 14 15L14 12L14 9C14 7.89543 14.8954 7 16 7C17.1046 7 18 7.89543 18 9L18 12L18 15C18 16.1046 17.1046 17 16 17Z" fill="black"/>
<path d="M6 12L6 18C6 19.1046 6.89543 20 8 20C9.10457 20 10 19.1046 10 18L10 12M6 12L6 6C6 4.89543 6.89543 4 8 4C9.10457 4 10 4.89543 10 6L10 12M6 12L3 12M10 12L14 12M14 12L14 15C14 16.1046 14.8954 17 16 17C17.1046 17 18 16.1046 18 15L18 12M14 12L14 9C14 7.89543 14.8954 7 16 7C17.1046 7 18 7.89543 18 9L18 12M18 12L21 12" stroke="black" stroke-width="2" stroke-linecap="round" stroke-linejoin="round"/>
</svg>
