<svg width="24" height="24" viewBox="0 0 24 24" fill="none" xmlns="http://www.w3.org/2000/svg">
<path fill-rule="evenodd" clip-rule="evenodd" d="M3.12129 17.8492C1.94972 16.6776 1.94972 14.7781 3.12129 13.6065L10.1924 6.53548L18.6776 15.0208L15.435 18.2634H20C20.5523 18.2634 21 18.7111 21 19.2634C21 19.8157 20.5523 20.2634 20 20.2634H6.77815C5.9825 20.2634 5.21944 19.9473 4.65683 19.3847L3.12129 17.8492ZM20.0919 13.6065L21.5061 12.1923C22.6776 11.0208 22.6776 9.12126 21.5061 7.94969L17.2634 3.70705C16.0919 2.53548 14.1924 2.53548 13.0208 3.70705L11.6066 5.12127L20.0919 13.6065Z" fill="black"/>
</svg>
