<svg width="24" height="24" viewBox="0 0 24 24" fill="none" xmlns="http://www.w3.org/2000/svg">
<path d="M11.5 22C4.7 22 3 16.3333 3 13.5V10C3 9.66667 3.2 9 4 9C4.8 9 5 9.66667 5 10V12C5 12.5 5.3 13.5 6.5 13.5C7.7 13.5 8 12.5 8 12V11V3C8 2.66667 8.2 2 9 2C9.8 2 10 2.66667 10 3V10C10.5 10.5 10.8 11.2 12 10V8C12 7.66667 12.2 7 13 7C13.8 7 14 7.66667 14 8V9H15C15 8.66667 15.2 8 16 8C16.8 8 17 8.66667 17 9V10H18C18 9.66667 18.2 9 19 9C19.8 9 20 9.66667 20 10V11V13.5C20 16.3333 18.3 22 11.5 22Z" fill="black" stroke="black" stroke-width="2" stroke-linecap="round" stroke-linejoin="round"/>
</svg>
