<svg width="24" height="24" viewBox="0 0 24 24" fill="none" xmlns="http://www.w3.org/2000/svg">
<path d="M11.5 22C4.7 22 3 16.3333 3 13.5V10C3 9.83333 3.1 9.5 3.5 9.5C3.9 9.5 4 9.83333 4 10V12C5.21487 12.7218 5.87703 12.699 7 12V4C7 3.83333 7.1 3.5 7.5 3.5C7.9 3.5 8 3.83333 8 4V12C9.92956 11.1181 10.7297 10.516 11 9V3C11 2.83333 11.1 2.5 11.5 2.5C11.9 2.5 12 2.83333 12 3V9C12.6219 10.7389 13.2597 11.1684 15 11V4C15 3.83333 15.1 3.5 15.5 3.5C15.9 3.5 16 3.83333 16 4V11C16.7279 11.9627 17.4554 12.0893 19 12V9C19 8.83333 19.1 8.5 19.5 8.5C19.9 8.5 20 8.83333 20 9V13.5C20 16.3333 18.3 22 11.5 22Z" fill="black" stroke="black" stroke-width="2" stroke-linecap="round" stroke-linejoin="round"/>
</svg>
