<svg width="24" height="24" viewBox="0 0 24 24" fill="none" xmlns="http://www.w3.org/2000/svg">
<path d="M15 15H16C18.2091 15 20 16.7909 20 19C20 20.1046 19.1046 21 18 21H8.13238C7.42986 21 6.77884 20.6314 6.41739 20.029L4.22319 16.372C4.07715 16.1286 4 15.8501 4 15.5662C4 14.7012 4.70121 14 5.56619 14H6C6.62951 14 7.22229 14.2964 7.6 14.8L10 18V9C10 7.89543 10.8954 7 12 7C13.1046 7 14 7.89543 14 9V14C14 14.5523 14.4477 15 15 15Z" fill="black" stroke="black" stroke-width="2" stroke-linecap="round" stroke-linejoin="round"/>
<path d="M12 4V3" stroke="black" stroke-width="2" stroke-linecap="round" stroke-linejoin="round"/>
<path d="M18 10L19 10" stroke="black" stroke-width="2" stroke-linecap="round" stroke-linejoin="round"/>
<path d="M5 10L6 10" stroke="black" stroke-width="2" stroke-linecap="round" stroke-linejoin="round"/>
<path d="M7.34334 5.34309L6.63623 4.63599" stroke="black" stroke-width="2" stroke-linecap="round" stroke-linejoin="round"/>
<path d="M16.6567 5.34309L17.3638 4.63599" stroke="black" stroke-width="2" stroke-linecap="round" stroke-linejoin="round"/>
</svg>
