<svg width="24" height="24" viewBox="0 0 24 24" fill="none" xmlns="http://www.w3.org/2000/svg">
<path d="M20 17V18C20 19.1046 19.1046 20 18 20H8.23607C7.47852 20 6.786 19.572 6.44721 18.8944L4.17082 14.3416C4.05848 14.117 4 13.8692 4 13.618C4 12.7244 4.72442 12 5.61803 12H6C6.62951 12 7.22229 12.2964 7.6 12.8L10 16V6C10 4.89543 10.8954 4 12 4C13.1046 4 14 4.89608 14 6.00065V11.9995C14 12.5518 14.4477 13 15 13H16C18.2091 13 20 14.7909 20 17Z" fill="black" stroke="black" stroke-width="2" stroke-linecap="round" stroke-linejoin="round"/>
</svg>
