<svg width="24" height="24" viewBox="0 0 24 24" fill="none" xmlns="http://www.w3.org/2000/svg">
<path fill-rule="evenodd" clip-rule="evenodd" d="M12.8786 3.70711C14.0502 2.53554 15.9497 2.53554 17.1213 3.70711L20.2928 6.87868C21.4644 8.05026 21.4644 9.94975 20.2928 11.1213L11.1213 20.2929C9.94969 21.4645 8.05019 21.4645 6.87862 20.2929L3.70705 17.1213C2.53547 15.9497 2.53548 14.0503 3.70705 12.8787L4.58576 12L6.29289 13.7071C6.68342 14.0976 7.31658 14.0976 7.70711 13.7071C8.09763 13.3166 8.09763 12.6834 7.70711 12.2929L5.99997 10.5858L7.58576 8.99997L10.2929 11.7071C10.6834 12.0976 11.3166 12.0976 11.7071 11.7071C12.0976 11.3166 12.0976 10.6834 11.7071 10.2929L8.99997 7.58576L10.5858 5.99997L12.2929 7.70711C12.6834 8.09763 13.3166 8.09763 13.7071 7.70711C14.0976 7.31658 14.0976 6.68342 13.7071 6.2929L12 4.58576L12.8786 3.70711Z" fill="black"/>
</svg>
