<svg width="24" height="24" viewBox="0 0 24 24" fill="none" xmlns="http://www.w3.org/2000/svg">
<path fill-rule="evenodd" clip-rule="evenodd" d="M12 1C18.0751 1 23 5.92487 23 12C23 18.0751 18.0751 23 12 23C5.92487 23 1 18.0751 1 12C1 5.92487 5.92487 1 12 1ZM17.4927 8.1298C17.1792 7.95229 16.7944 7.95715 16.4855 8.14251L12 10.8338V9C12 8.63973 11.8062 8.30731 11.4927 8.1298C11.1792 7.95229 10.7944 7.95715 10.4855 8.14251L5.4855 11.1425C5.1843 11.3232 5 11.6487 5 12C5 12.3513 5.1843 12.6768 5.4855 12.8575L10.4855 15.8575C10.7944 16.0429 11.1792 16.0477 11.4927 15.8702C11.8062 15.6927 12 15.3603 12 15V13.1662L16.4855 15.8575C16.7944 16.0429 17.1792 16.0477 17.4927 15.8702C17.8062 15.6927 18 15.3603 18 15V9C18 8.63973 17.8062 8.30731 17.4927 8.1298ZM16 13.2338L13.9437 12L16 10.7662V13.2338ZM7.94365 12L10 13.2338V10.7662L7.94365 12Z" fill="black"/>
</svg>
