<svg width="24" height="24" viewBox="0 0 24 24" fill="none" xmlns="http://www.w3.org/2000/svg">
<path fill-rule="evenodd" clip-rule="evenodd" d="M23 12C23 5.92487 18.0751 1 12 1C5.92487 1 1 5.92487 1 12C1 18.0751 5.92487 23 12 23C18.0751 23 23 18.0751 23 12ZM15.5039 7.13176C15.8134 6.9549 16.1936 6.95617 16.5019 7.13509C16.8102 7.31401 17 7.64353 17 8V16C17 16.3565 16.8102 16.686 16.5019 16.8649C16.1936 17.0438 15.8134 17.0451 15.5039 16.8682L9 13.1518V16C9 16.5523 8.55228 17 8 17C7.44771 17 7 16.5523 7 16V8C7 7.44772 7.44771 7 8 7C8.55228 7 9 7.44772 9 8V10.8482L15.5039 7.13176ZM15 9.72318L11.0156 12L15 14.2768V9.72318Z" fill="black"/>
</svg>
