<svg width="24" height="24" viewBox="0 0 24 24" fill="none" xmlns="http://www.w3.org/2000/svg">
<path fill-rule="evenodd" clip-rule="evenodd" d="M12 1C18.0751 1 23 5.92487 23 12C23 18.0751 18.0751 23 12 23C5.92487 23 1 18.0751 1 12C1 5.92487 5.92487 1 12 1ZM17.4927 8.1298C17.1792 7.95229 16.7944 7.95715 16.4855 8.14251L13 10.2338V9C13 8.63973 12.8062 8.30731 12.4927 8.1298C12.1792 7.95229 11.7944 7.95715 11.4855 8.14251L8 10.2338V9C8 8.44772 7.55228 8 7 8C6.44772 8 6 8.44772 6 9V12V15C6 15.5523 6.44772 16 7 16C7.55228 16 8 15.5523 8 15V13.7662L11.4855 15.8575C11.7944 16.0429 12.1792 16.0477 12.4927 15.8702C12.8062 15.6927 13 15.3603 13 15V13.7662L16.4855 15.8575C16.7944 16.0429 17.1792 16.0477 17.4927 15.8702C17.8062 15.6927 18 15.3603 18 15V9C18 8.63973 17.8062 8.30731 17.4927 8.1298ZM11 12V10.7662L8.94365 12L11 13.2338V12ZM16 13.2338L13.9437 12L16 10.7662V13.2338Z" fill="black"/>
</svg>
