<svg width="24" height="24" viewBox="0 0 24 24" fill="none" xmlns="http://www.w3.org/2000/svg">
<path d="M3 3L21 21" stroke="black" stroke-width="2" stroke-linecap="round" stroke-linejoin="round"/>
<path fill-rule="evenodd" clip-rule="evenodd" d="M5.17157 6H5C3.34315 6 2 7.34315 2 9V18C2 19.6569 3.34315 21 5 21H19C19.3509 21 19.6877 20.9398 20.0006 20.8291L14.9129 15.7413C14.1834 16.5162 13.1482 17 12 17C9.79086 17 8 15.2091 8 13C8 11.8518 8.48379 10.8166 9.25865 10.0871L5.17157 6ZM10.6742 11.5026C10.2606 11.869 10 12.4041 10 13C10 14.1046 10.8954 15 12 15C12.5959 15 13.131 14.7394 13.4974 14.3258L10.6742 11.5026ZM22 17.1716V9C22 7.34315 20.6569 6 19 6H18.0704C17.736 6 17.4238 5.8329 17.2383 5.5547L16.4258 4.3359C15.8694 3.5013 14.9327 3 13.9296 3H10.0704C9.45105 3 8.85703 3.19111 8.3622 3.53377L22 17.1716Z" fill="black"/>
</svg>
