<svg width="24" height="24" viewBox="0 0 24 24" fill="none" xmlns="http://www.w3.org/2000/svg">
<path fill-rule="evenodd" clip-rule="evenodd" d="M12 1C5.92487 1 1 5.92487 1 12C1 18.0751 5.92487 23 12 23C18.0751 23 23 18.0751 23 12C23 5.92487 18.0751 1 12 1ZM6.5073 8.1298C6.82081 7.95229 7.20556 7.95715 7.5145 8.14251L11 10.2338V9C11 8.63973 11.1938 8.30731 11.5073 8.1298C11.8208 7.95229 12.2056 7.95715 12.5145 8.14251L16 10.2338V9C16 8.44772 16.4477 8 17 8C17.5523 8 18 8.44772 18 9V12V15C18 15.5523 17.5523 16 17 16C16.4477 16 16 15.5523 16 15V13.7662L12.5145 15.8575C12.2056 16.0429 11.8208 16.0477 11.5073 15.8702C11.1938 15.6927 11 15.3603 11 15V13.7662L7.5145 15.8575C7.20556 16.0429 6.82081 16.0477 6.5073 15.8702C6.19379 15.6927 6 15.3603 6 15V9C6 8.63973 6.19379 8.30731 6.5073 8.1298ZM13 12V13.2338L15.0563 12L13 10.7662V12ZM8 13.2338L10.0563 12L8 10.7662V13.2338Z" fill="black"/>
</svg>
