<svg width="24" height="24" viewBox="0 0 24 24" fill="none" xmlns="http://www.w3.org/2000/svg">
<path fill-rule="evenodd" clip-rule="evenodd" d="M12 1C5.92487 1 1 5.92487 1 12C1 18.0751 5.92487 23 12 23C18.0751 23 23 18.0751 23 12C23 5.92487 18.0751 1 12 1ZM6.5073 8.1298C6.82081 7.95229 7.20556 7.95715 7.5145 8.14251L12 10.8338V9C12 8.63973 12.1938 8.30731 12.5073 8.1298C12.8208 7.95229 13.2056 7.95715 13.5145 8.14251L18.5145 11.1425C18.8157 11.3232 19 11.6487 19 12C19 12.3513 18.8157 12.6768 18.5145 12.8575L13.5145 15.8575C13.2056 16.0429 12.8208 16.0477 12.5073 15.8702C12.1938 15.6927 12 15.3603 12 15V13.1662L7.5145 15.8575C7.20556 16.0429 6.82081 16.0477 6.5073 15.8702C6.19379 15.6927 6 15.3603 6 15V9C6 8.63973 6.19379 8.30731 6.5073 8.1298ZM8 13.2338L10.0563 12L8 10.7662V13.2338ZM16.0563 12L14 13.2338V10.7662L16.0563 12Z" fill="black"/>
</svg>
