<svg width="24" height="24" viewBox="0 0 24 24" fill="none" xmlns="http://www.w3.org/2000/svg">
<path fill-rule="evenodd" clip-rule="evenodd" d="M6.9782 6.48847C7.4972 6.11478 8.08998 6 8.5 6C8.91002 6 9.5028 6.11478 10.0218 6.48847C10.5918 6.89886 11 7.57408 11 8.5C11 9.42592 10.5918 10.1011 10.0218 10.5115C9.5028 10.8852 8.91002 11 8.5 11C8.08998 11 7.4972 10.8852 6.9782 10.5115C6.4082 10.1011 6 9.42592 6 8.5C6 7.57408 6.4082 6.89886 6.9782 6.48847ZM16.3315 21.9436C18.6105 21.1769 23 18.1426 23 12C23 11.4477 22.5523 11 22 11H21C16.1967 11 12.7903 12.0725 10.4447 13.6218C12.4802 14.2839 14.5206 15.4415 16.0741 17.3733C16.4202 17.8037 16.3519 18.4331 15.9216 18.7793C15.4912 19.1254 14.8617 19.0571 14.5156 18.6267C13.0004 16.7426 10.8656 15.7147 8.71909 15.2168C7.52478 14.9398 6.35109 14.833 5.32281 14.8288C5.27754 14.8286 5.2325 14.8286 5.1877 14.8288C4.40427 14.8324 3.71072 14.8953 3.1644 14.9864C3.08604 14.9994 3.0083 15.003 2.93234 14.9979C2.89973 15.0031 2.86748 15.0083 2.8356 15.0136C2.53523 15.0637 2.27404 15.2479 2.12605 15.514C1.97805 15.7801 1.95938 16.0992 2.07532 16.3807C2.72782 17.9654 4.21056 20.1039 6.58686 21.4782C9.00507 22.8767 12.2697 23.4359 16.3315 21.9436Z" fill="black"/>
<circle cx="12" cy="12" r="10" stroke="black" stroke-width="2" stroke-linecap="round" stroke-linejoin="round"/>
</svg>
