<svg width="24" height="24" viewBox="0 0 24 24" fill="none" xmlns="http://www.w3.org/2000/svg">
<path d="M2 2L22 22" stroke="black" stroke-width="2" stroke-linecap="round" stroke-linejoin="round"/>
<path fill-rule="evenodd" clip-rule="evenodd" d="M2.50507 3.3335C2.18605 3.81017 2 4.38336 2 5V15.5C2 15.5864 2.01096 15.6702 2.03156 15.7502C2.01093 15.8303 2 15.914 2 16V19C2 20.6569 3.34315 22 5 22H19C19.6166 22 20.1898 21.814 20.6665 21.4949L11.9441 12.7725C11.392 13.0393 10.8845 13.3296 10.4191 13.6388C11.2464 13.9325 12.1691 14.3499 13.076 14.8947C14.475 15.7351 15.8971 16.9152 16.8536 18.478C17.142 18.949 16.9938 19.5646 16.5228 19.8529C16.0517 20.1412 15.4361 19.9931 15.1478 19.522C14.4115 18.3191 13.2698 17.3442 12.0461 16.6091C10.824 15.875 9.58076 15.4167 8.71909 15.2168C7.52807 14.9406 6.35294 14.8326 5.31679 14.8288C5.27722 14.8287 5.23783 14.8287 5.19861 14.8288C5.13717 14.829 5.07623 14.8296 5.01584 14.8306L4.99411 14.8307C4.6462 14.836 4.31362 14.8517 4 14.8756V13.8328V13.828V5C4 4.94589 4.0043 4.89278 4.01257 4.841L2.50507 3.3335ZM16.2366 11.4082C17.3749 11.1964 18.6264 11.0604 20 11.0159V5C20 4.44772 19.5523 4 19 4H8.82843L6.82843 2H19C20.6569 2 22 3.34315 22 5V11.5C22 11.5863 21.9891 11.6701 21.9685 11.75C21.9891 11.8299 22 11.9137 22 12V17.1716L16.2366 11.4082ZM6.34584 7.17427C6.13005 7.53461 6 7.97737 6 8.5C6 9.42592 6.4082 10.1011 6.9782 10.5115C7.4972 10.8852 8.08998 11 8.5 11C8.85669 11 9.35168 10.9131 9.8161 10.6445L6.34584 7.17427Z" fill="black"/>
</svg>
