<svg width="24" height="24" viewBox="0 0 24 24" fill="none" xmlns="http://www.w3.org/2000/svg">
<path fill-rule="evenodd" clip-rule="evenodd" d="M2 5C2 3.34315 3.34315 2 5 2H19C20.6569 2 22 3.34315 22 5V11.5C22 11.5863 21.9891 11.6701 21.9685 11.75C21.9891 11.8299 22 11.9137 22 12V19C22 20.6569 20.6569 22 19 22H5C3.34315 22 2 20.6569 2 19V16C2 15.914 2.01093 15.8303 2.03156 15.7502C2.01096 15.6702 2 15.5864 2 15.5V5ZM4.99411 14.8307C4.6462 14.836 4.31362 14.8517 4 14.8756V13.8328C4 13.8312 4 13.8296 4 13.828V5C4 4.44772 4.44772 4 5 4H19C19.5523 4 20 4.44772 20 5V11.0159C15.7025 11.1549 12.5999 12.1904 10.4191 13.6388C11.2464 13.9325 12.1691 14.3499 13.076 14.8947C14.475 15.7351 15.8971 16.9152 16.8536 18.478C17.142 18.949 16.9938 19.5646 16.5228 19.8529C16.0517 20.1412 15.4361 19.9931 15.1478 19.522C14.4115 18.3191 13.2698 17.3442 12.0461 16.6091C10.824 15.875 9.58076 15.4167 8.71909 15.2168C7.52807 14.9406 6.35294 14.8326 5.31679 14.8288C5.27722 14.8287 5.23783 14.8287 5.19861 14.8288C5.13717 14.829 5.07623 14.8296 5.01584 14.8306C5.00858 14.8307 5.00133 14.8307 4.99411 14.8307ZM6.9782 6.48847C7.4972 6.11478 8.08998 6 8.5 6C8.91002 6 9.5028 6.11478 10.0218 6.48847C10.5918 6.89886 11 7.57408 11 8.5C11 9.42592 10.5918 10.1011 10.0218 10.5115C9.5028 10.8852 8.91002 11 8.5 11C8.08998 11 7.4972 10.8852 6.9782 10.5115C6.4082 10.1011 6 9.42592 6 8.5C6 7.57408 6.4082 6.89886 6.9782 6.48847Z" fill="black"/>
</svg>
