<svg width="24" height="24" viewBox="0 0 24 24" fill="none" xmlns="http://www.w3.org/2000/svg">
<path d="M4.85857 5C3.09032 6.80375 2 9.27455 2 12C2 17.5228 6.47715 22 12 22C14.7255 22 17.1962 20.9097 19 19.1414M21.5422 15C21.8396 14.053 22 13.0452 22 12C22 6.47715 17.5228 2 12 2C10.5778 2 9.22492 2.29689 8 2.83209" stroke="black" stroke-width="2" stroke-linecap="round" stroke-linejoin="round"/>
<path d="M2 2L22 22" stroke="black" stroke-width="2" stroke-linecap="round" stroke-linejoin="round"/>
<path fill-rule="evenodd" clip-rule="evenodd" d="M6.34584 7.17426C6.13005 7.5346 6 7.97736 6 8.49999C6 9.42591 6.4082 10.1011 6.9782 10.5115C7.4972 10.8852 8.08998 11 8.5 11C8.85669 11 9.35168 10.9131 9.8161 10.6445L6.34584 7.17426ZM11.9441 12.7725C11.4021 13.0344 10.9031 13.319 10.4447 13.6218C12.4802 14.2838 14.5206 15.4415 16.0741 17.3733C16.4202 17.8037 16.3519 18.4331 15.9216 18.7792C15.4912 19.1254 14.8617 19.0571 14.5156 18.6267C13.0004 16.7426 10.8656 15.7147 8.71909 15.2168C7.52478 14.9398 6.35109 14.833 5.32281 14.8288C5.27754 14.8286 5.2325 14.8286 5.1877 14.8288C4.40427 14.8324 3.71072 14.8953 3.1644 14.9864C3.08604 14.9994 3.0083 15.003 2.93234 14.9979C2.89973 15.0031 2.86748 15.0083 2.8356 15.0136C2.53523 15.0637 2.27404 15.2478 2.12605 15.514C1.97805 15.7801 1.95938 16.0992 2.07532 16.3807C2.72782 17.9654 4.21056 20.1038 6.58686 21.4781C9.00507 22.8767 12.2697 23.4359 16.3315 21.9435C17.1598 21.6649 18.2667 21.0868 19.3404 20.1689L11.9441 12.7725ZM21.8421 17.0137C22.5407 15.6487 23 13.987 23 12C23 11.4477 22.5523 11 22 11H21C19.2276 11 17.6454 11.146 16.2366 11.4081L21.8421 17.0137Z" fill="black"/>
</svg>
