<svg width="24" height="24" viewBox="0 0 24 24" fill="none" xmlns="http://www.w3.org/2000/svg">
<path fill-rule="evenodd" clip-rule="evenodd" d="M1 12C1 5.92487 5.92487 1 12 1C18.0751 1 23 5.92487 23 12C23 18.0751 18.0751 23 12 23C5.92487 23 1 18.0751 1 12ZM7.49807 7.13509C7.80639 6.95617 8.18664 6.9549 8.49614 7.13176L15 10.8482V8C15 7.44772 15.4477 7 16 7C16.5523 7 17 7.44772 17 8V16C17 16.5523 16.5523 17 16 17C15.4477 17 15 16.5523 15 16V13.1518L8.49614 16.8682C8.18664 17.0451 7.80639 17.0438 7.49807 16.8649C7.18976 16.686 7 16.3565 7 16V8C7 7.64353 7.18976 7.31401 7.49807 7.13509Z" fill="black"/>
</svg>
