<svg width="24" height="24" viewBox="0 0 24 24" fill="none" xmlns="http://www.w3.org/2000/svg">
<path fill-rule="evenodd" clip-rule="evenodd" d="M12 1C18.0751 1 23 5.92487 23 12C23 18.0751 18.0751 23 12 23C5.92487 23 1 18.0751 1 12C1 5.92487 5.92487 1 12 1ZM6 9C6 8.44772 6.44772 8 7 8H10C10.5523 8 11 8.44772 11 9V15C11 15.5523 10.5523 16 10 16H7C6.44772 16 6 15.5523 6 15V9ZM8 14H9V10H8V14ZM14 8C13.4477 8 13 8.44772 13 9V15C13 15.5523 13.4477 16 14 16H17C17.5523 16 18 15.5523 18 15V9C18 8.44772 17.5523 8 17 8H14ZM16 14H15V10H16V14Z" fill="black"/>
</svg>
