<svg width="24" height="24" viewBox="0 0 24 24" fill="none" xmlns="http://www.w3.org/2000/svg">
<path fill-rule="evenodd" clip-rule="evenodd" d="M23 12C23 5.92487 18.0751 1 12 1C5.92487 1 1 5.92487 1 12C1 18.0751 5.92487 23 12 23C18.0751 23 23 18.0751 23 12ZM10.7071 6.70711C11.0976 6.31658 11.0976 5.68342 10.7071 5.29289C10.3166 4.90237 9.68342 4.90237 9.29289 5.29289L7.29289 7.29289C6.90237 7.68342 6.90237 8.31658 7.29289 8.70711L9.29289 10.7071C9.68342 11.0976 10.3166 11.0976 10.7071 10.7071C11.0976 10.3166 11.0976 9.68342 10.7071 9.29289L10.4142 9H14C14.5523 9 15 9.44772 15 10V11C15 11.5523 15.4477 12 16 12C16.5523 12 17 11.5523 17 11V10C17 8.34315 15.6569 7 14 7H10.4142L10.7071 6.70711ZM9 13C9 12.4477 8.55228 12 8 12C7.44772 12 7 12.4477 7 13V14C7 15.6569 8.34315 17 10 17H13.5858L13.2929 17.2929C12.9024 17.6834 12.9024 18.3166 13.2929 18.7071C13.6834 19.0976 14.3166 19.0976 14.7071 18.7071L16.7071 16.7071C17.0976 16.3166 17.0976 15.6834 16.7071 15.2929L14.7071 13.2929C14.3166 12.9024 13.6834 12.9024 13.2929 13.2929C12.9024 13.6834 12.9024 14.3166 13.2929 14.7071L13.5858 15H10C9.44772 15 9 14.5523 9 14V13Z" fill="black"/>
</svg>
