<svg width="24" height="24" viewBox="0 0 24 24" fill="none" xmlns="http://www.w3.org/2000/svg">
<path fill-rule="evenodd" clip-rule="evenodd" d="M9.61153 6.0843C9.16022 6.71113 9 7.49336 9 8V9H15V8C15 7.49336 14.8398 6.71113 14.3885 6.0843C13.9739 5.50847 13.2741 5 12 5C10.7259 5 10.0261 5.50847 9.61153 6.0843ZM17 9V8C17 7.17331 16.7602 5.95553 16.0115 4.9157C15.2261 3.82487 13.9259 3 12 3C10.0741 3 8.77386 3.82487 7.98847 4.9157C7.23978 5.95553 7 7.17331 7 8V9H3C2.44772 9 2 9.44772 2 10C2 10.5523 2.44772 11 3 11H3.09501L4.00496 20.0995C4.05608 20.6107 4.48625 21 5 21H19C19.5138 21 19.9439 20.6107 19.995 20.0995L20.905 11H21C21.5523 11 22 10.5523 22 10C22 9.44772 21.5523 9 21 9H17ZM9 14C9 13.4477 8.55228 13 8 13C7.44772 13 7 13.4477 7 14V16C7 16.5523 7.44772 17 8 17C8.55228 17 9 16.5523 9 16V14ZM13 14C13 13.4477 12.5523 13 12 13C11.4477 13 11 13.4477 11 14V16C11 16.5523 11.4477 17 12 17C12.5523 17 13 16.5523 13 16V14ZM17 14C17 13.4477 16.5523 13 16 13C15.4477 13 15 13.4477 15 14V16C15 16.5523 15.4477 17 16 17C16.5523 17 17 16.5523 17 16V14Z" fill="black"/>
</svg>
