<svg width="24" height="24" viewBox="0 0 24 24" fill="none" xmlns="http://www.w3.org/2000/svg">
<path fill-rule="evenodd" clip-rule="evenodd" d="M1 12C1 5.92487 5.92487 1 12 1C18.0751 1 23 5.92487 23 12C23 18.0751 18.0751 23 12 23C5.92487 23 1 18.0751 1 12ZM11 6C11 5.44772 10.5523 5 10 5C9.44772 5 9 5.44772 9 6V7H8C7.44772 7 7 7.44772 7 8C7 8.55228 7.44772 9 8 9H9V12V15H8C7.44772 15 7 15.4477 7 16C7 16.5523 7.44772 17 8 17H9V18C9 18.5523 9.44772 19 10 19C10.5523 19 11 18.5523 11 18V17H12V18C12 18.5523 12.4477 19 13 19C13.5523 19 14 18.5523 14 18V17C14.4934 17 15.2111 16.8602 15.8343 16.4115C16.5085 15.9261 17 15.1259 17 14C17 13.1487 16.719 12.4836 16.2905 12C16.719 11.5164 17 10.8513 17 10C17 8.87408 16.5085 8.07386 15.8343 7.58847C15.2111 7.13978 14.4934 7 14 7V6C14 5.44772 13.5523 5 13 5C12.4477 5 12 5.44772 12 6V7H11V6ZM11 11V9H13H14C14.1733 9 14.4555 9.06022 14.6657 9.21153C14.8249 9.32614 15 9.52592 15 10C15 10.4741 14.8249 10.6739 14.6657 10.7885C14.4555 10.9398 14.1733 11 14 11H11ZM11 13H14C14.1733 13 14.4555 13.0602 14.6657 13.2115C14.8249 13.3261 15 13.5259 15 14C15 14.4741 14.8249 14.6739 14.6657 14.7885C14.4555 14.9398 14.1733 15 14 15H13H11V13Z" fill="black"/>
</svg>
