<svg width="24" height="24" viewBox="0 0 24 24" fill="none" xmlns="http://www.w3.org/2000/svg">
<path fill-rule="evenodd" clip-rule="evenodd" d="M1 12C1 5.92487 5.92487 1 12 1C18.0751 1 23 5.92487 23 12C23 18.0751 18.0751 23 12 23C5.92487 23 1 18.0751 1 12ZM13 6C13 5.44772 12.5523 5 12 5C11.4477 5 11 5.44772 11 6V7.10002C8.71776 7.56329 7 9.58104 7 12C7 14.419 8.71776 16.4367 11 16.9V18C11 18.5523 11.4477 19 12 19C12.5523 19 13 18.5523 13 18V16.8998C13.9798 16.7007 14.856 16.2151 15.5355 15.5355C15.9261 15.145 15.9261 14.5118 15.5355 14.1213C15.145 13.7308 14.5118 13.7308 14.1213 14.1213C13.5773 14.6653 12.8287 15 12 15C10.3431 15 9 13.6569 9 12C9 10.3431 10.3431 9 12 9C12.8287 9 13.5773 9.33469 14.1213 9.87868C14.5118 10.2692 15.145 10.2692 15.5355 9.87868C15.9261 9.48816 15.9261 8.85499 15.5355 8.46447C14.856 7.78489 13.9798 7.29926 13 7.10016V6Z" fill="black"/>
</svg>
