<svg width="24" height="24" viewBox="0 0 24 24" fill="none" xmlns="http://www.w3.org/2000/svg">
<path d="M18 15V18M18 21V18M18 18H15M18 18H21" stroke="black" stroke-width="2" stroke-linecap="round" stroke-linejoin="round"/>
<path fill-rule="evenodd" clip-rule="evenodd" d="M5 4C3.34315 4 2 5.34315 2 7V8H22V7C22 5.34315 20.6569 4 19 4H5ZM2 17V10H22V13.5278C20.9385 12.5777 19.5367 12 18 12C14.6863 12 12 14.6863 12 18C12 18.7013 12.1203 19.3744 12.3414 20H5C3.34315 20 2 18.6569 2 17ZM6 13C6 12.4477 6.44772 12 7 12H12C12.5523 12 13 12.4477 13 13C13 13.5523 12.5523 14 12 14H7C6.44772 14 6 13.5523 6 13Z" fill="black"/>
</svg>
