<svg width="24" height="24" viewBox="0 0 24 24" fill="none" xmlns="http://www.w3.org/2000/svg">
<path fill-rule="evenodd" clip-rule="evenodd" d="M1 12C1 5.92487 5.92487 1 12 1C18.0751 1 23 5.92487 23 12C23 18.0751 18.0751 23 12 23C5.92487 23 1 18.0751 1 12ZM12.8137 4.41876C12.626 4.15597 12.323 4 12 4C11.677 4 11.374 4.15597 11.1863 4.41876L6.18627 11.4188C5.93791 11.7665 5.93791 12.2335 6.18627 12.5812L11.1863 19.5812C11.374 19.844 11.677 20 12 20C12.323 20 12.626 19.844 12.8137 19.5812L17.8137 12.5812C18.0621 12.2335 18.0621 11.7665 17.8137 11.4188L12.8137 4.41876ZM12 12.923L9.69258 12L12 11.077L14.3074 12L12 12.923ZM12.3714 14.9285L14.2025 14.196L12 17.2795L9.7975 14.196L11.6286 14.9285C11.867 15.0238 12.133 15.0238 12.3714 14.9285ZM12 6.72047L9.7975 9.80397L11.6286 9.07152C11.867 8.97616 12.133 8.97616 12.3714 9.07152L14.2025 9.80397L12 6.72047Z" fill="black"/>
</svg>
