<svg width="24" height="24" viewBox="0 0 24 24" fill="none" xmlns="http://www.w3.org/2000/svg">
<path fill-rule="evenodd" clip-rule="evenodd" d="M1 12C1 5.92487 5.92487 1 12 1C18.0751 1 23 5.92487 23 12C23 18.0751 18.0751 23 12 23C5.92487 23 1 18.0751 1 12ZM9 12C9 11.8307 9.01052 11.6638 9.03095 11.5H12C12.5523 11.5 13 11.0523 13 10.5C13 9.94772 12.5523 9.5 12 9.5H9.87731C10.6104 8.58554 11.7368 8 13 8C13.9018 8 14.7313 8.29723 15.3998 8.79949C15.8414 9.13124 16.4682 9.04222 16.8 8.60067C17.1317 8.15913 17.0427 7.53225 16.6012 7.20051C15.5982 6.44694 14.3498 6 13 6C10.5785 6 8.49205 7.43447 7.54404 9.5H7C6.44772 9.5 6 9.94772 6 10.5C6 11.0523 6.44772 11.5 7 11.5H7.02054C7.00694 11.6649 7 11.8316 7 12C7 12.1684 7.00694 12.3351 7.02054 12.5H7C6.44772 12.5 6 12.9477 6 13.5C6 14.0523 6.44772 14.5 7 14.5H7.54404C8.49205 16.5655 10.5785 18 13 18C14.3498 18 15.5982 17.5531 16.6012 16.7995C17.0427 16.4677 17.1317 15.8409 16.8 15.3993C16.4682 14.9578 15.8414 14.8688 15.3998 15.2005C14.7313 15.7028 13.9018 16 13 16C11.7368 16 10.6104 15.4145 9.87731 14.5H12C12.5523 14.5 13 14.0523 13 13.5C13 12.9477 12.5523 12.5 12 12.5H9.03095C9.01052 12.3362 9 12.1693 9 12Z" fill="black"/>
</svg>
