<svg width="24" height="24" viewBox="0 0 24 24" fill="none" xmlns="http://www.w3.org/2000/svg">
<path fill-rule="evenodd" clip-rule="evenodd" d="M1 12C1 5.92487 5.92487 1 12 1C18.0751 1 23 5.92487 23 12C23 18.0751 18.0751 23 12 23C5.92487 23 1 18.0751 1 12ZM12 6C12 5.44772 11.5523 5 11 5C10.4477 5 10 5.44772 10 6V7.27924L7.68377 8.05132C7.15983 8.22596 6.87667 8.79228 7.05132 9.31623C7.22596 9.84017 7.79228 10.1233 8.31623 9.94868L10 9.38743V10.2792L7.68377 11.0513C7.15983 11.226 6.87667 11.7923 7.05132 12.3162C7.22596 12.8402 7.79228 13.1233 8.31623 12.9487L10 12.3874V17C10 17.5523 10.4477 18 11 18C11.9934 18 13.4611 17.7102 14.7093 16.8115C16.0085 15.8761 17 14.3259 17 12C17 11.4477 16.5523 11 16 11C15.4477 11 15 11.4477 15 12C15 13.6741 14.3249 14.6239 13.5407 15.1885C13.0572 15.5366 12.5077 15.7536 12 15.8747V11.7208L14.3162 10.9487C14.8402 10.774 15.1233 10.2077 14.9487 9.68377C14.774 9.15983 14.2077 8.87667 13.6838 9.05132L12 9.61257V8.72076L14.3162 7.94868C14.8402 7.77404 15.1233 7.20772 14.9487 6.68377C14.774 6.15983 14.2077 5.87667 13.6838 6.05132L12 6.61257V6Z" fill="black"/>
</svg>
