<svg width="24" height="24" viewBox="0 0 24 24" fill="none" xmlns="http://www.w3.org/2000/svg">
<path d="M16.9482 9.94949L14.9975 8V14.5868C14.9975 15.4776 13.9207 15.9238 13.2906 15.2942L11.9957 14C11.4954 13.5 10.2946 13.2 9.49413 14C8.69364 14.8 8.99382 16 9.49413 16.5L13.0973 20.9006C13.6671 21.5965 14.5191 22 15.4185 22H18C18.5523 22 19 21.5523 19 21V14.9008C19 13.0435 18.2619 11.2624 16.9482 9.94949Z" fill="black" stroke="black" stroke-width="2" stroke-linecap="round" stroke-linejoin="round"/>
<path d="M11 2L13 2C14.1046 2 15 2.89543 15 4L15 6M11 2C11 3.33333 11.8 6 15 6M11 2L9 2M15 6L15 12M5 12L5 14C5 15.1046 5.89543 16 7 16L9 16C9 14.6667 8.2 12 5 12ZM5 12L5 6M9 2L7 2C5.89543 2 5 2.89543 5 4L5 6M9 2C9 3.33333 8.2 6 5 6" stroke="black" stroke-width="2" stroke-linecap="round" stroke-linejoin="round"/>
<circle cx="10" cy="9" r="1" transform="rotate(90 10 9)" stroke="black" stroke-width="2" stroke-linecap="round" stroke-linejoin="round"/>
</svg>
