<svg width="24" height="24" viewBox="0 0 24 24" fill="none" xmlns="http://www.w3.org/2000/svg">
<path fill-rule="evenodd" clip-rule="evenodd" d="M1 12C1 5.92487 5.92487 1 12 1C18.0751 1 23 5.92487 23 12C23 18.0751 18.0751 23 12 23C5.92487 23 1 18.0751 1 12ZM13 6C12.5066 6 11.7889 6.13978 11.1657 6.58847C10.4915 7.07386 10 7.87408 10 9V9.00937V9.01873V9.02807V9.0374V9.04672V9.05603V9.06533V9.07461V9.08388V9.09314V9.10238V9.11162V9.12084V9.13005V9.13925V9.14843V9.1576V9.16676V9.17591V9.18505V9.19417V9.20328V9.21238V9.22146V9.23054V9.2396V9.24865V9.25768V9.26671V9.27572V9.28472V9.2937V9.30268V9.31164V9.32058V9.32952V9.33844V9.34735V9.35625V9.36514V9.37401V9.38287V9.39172V9.40056V9.40938V9.41819V9.42699V9.43577V9.44455V9.45331V9.46205V9.47079V9.47951V9.48822V9.49691V9.5056V9.51427V9.52293V9.53157V9.54021V9.54883V9.55743V9.56603V9.57461V9.58318V9.59173V9.60028V9.60881V9.61733V9.62583V9.63432V9.6428V9.65127V9.65972V9.66816V9.67659V9.68501V9.69341V9.7018V9.71017V9.71854V9.72689V9.73523V9.74355V9.75186V9.76016V9.76845V9.77672V9.78498V9.79323V9.80146V9.80968V9.81789V9.82608V9.83426V9.84243V9.85059V9.85873V9.86686V9.87498V9.88308V9.89117V9.89924V9.90731V9.91536V9.9234V9.93142V9.93943V9.94743V9.95541V9.96339V9.97134V9.97929V9.98722V9.99514V10.003V10.0109V10.0188V10.0267V10.0345V10.0424V10.0502V10.058V10.0658V10.0736V10.0814V10.0891V10.0969V10.1046V10.1123V10.12V10.1277V10.1354V10.1431V10.1507V10.1584V10.166V10.1736V10.1812V10.1888V10.1964V10.2039V10.2115V10.219V10.2265V10.234V10.2415V10.249V10.2564V10.2639V10.2713V10.2788V10.2862V10.2936V10.3009V10.3083V10.3157V10.323V10.3303V10.3376V10.3449V10.3522V10.3595V10.3668V10.374V10.3812V10.3885V10.3957V10.4029V10.41V10.4172V10.4244V10.4315V10.4386V10.4457V10.4528V10.4599V10.467V10.474V10.4811V10.4881V10.4951V10.5021V10.5091V10.516V10.523V10.5299V10.5369V10.5438V10.5507V10.5576V10.5645V10.5713V10.5782V10.585V10.5918V10.5986V10.6054V10.6122V10.6189V10.6257V10.6324V10.6391V10.6458V10.6525V10.6592V10.6659V10.6725V10.6792V10.6858V10.6924V10.699V10.7056V10.7121V10.7187V10.7252V10.7317V10.7382V10.7447V10.7512V10.7577V10.7641V10.7706V10.777V10.7834V10.7898V10.7962V10.8026V10.8089V10.8152V10.8216V10.8279V10.8342V10.8405V10.8467V10.853V10.8592V10.8654V10.8716V10.8778V10.884V10.8902V10.8963V10.9025V10.9086V10.9147V10.9208V10.9269V10.9329V10.939V10.945V10.9511V10.9571V10.9631V10.969V10.975V10.9809V10.9869V10.9928V10.9987V11H9C8.44772 11 8 11.4477 8 12C8 12.5523 8.44772 13 9 13H10V14C10 14.1733 9.93978 14.4555 9.78847 14.6657C9.67386 14.8249 9.47408 15 9 15C8.44772 15 8 15.4477 8 16C8 16.5523 8.44772 17 9 17H15C15.5523 17 16 16.5523 16 16C16 15.4477 15.5523 15 15 15H11.8335C11.9549 14.6332 12 14.2804 12 14V13H13C13.5523 13 14 12.5523 14 12C14 11.4477 13.5523 11 13 11H12V10.9987V10.9928V10.9869V10.9809V10.975V10.969V10.9631V10.9571V10.9511V10.945V10.939V10.9329V10.9269V10.9208V10.9147V10.9086V10.9025V10.8963V10.8902V10.884V10.8778V10.8716V10.8654V10.8592V10.853V10.8467V10.8405V10.8342V10.8279V10.8216V10.8152V10.8089V10.8026V10.7962V10.7898V10.7834V10.777V10.7706V10.7641V10.7577V10.7512V10.7447V10.7382V10.7317V10.7252V10.7187V10.7121V10.7056V10.699V10.6924V10.6858V10.6792V10.6725V10.6659V10.6592V10.6525V10.6458V10.6391V10.6324V10.6257V10.6189V10.6122V10.6054V10.5986V10.5918V10.585V10.5782V10.5713V10.5645V10.5576V10.5507V10.5438V10.5369V10.5299V10.523V10.516V10.5091V10.5021V10.4951V10.4881V10.4811V10.474V10.467V10.4599V10.4528V10.4457V10.4386V10.4315V10.4244V10.4172V10.41V10.4029V10.3957V10.3885V10.3812V10.374V10.3668V10.3595V10.3522V10.3449V10.3376V10.3303V10.323V10.3157V10.3083V10.3009V10.2936V10.2862V10.2788V10.2713V10.2639V10.2564V10.249V10.2415V10.234V10.2265V10.219V10.2115V10.2039V10.1964V10.1888V10.1812V10.1736V10.166V10.1584V10.1507V10.1431V10.1354V10.1277V10.12V10.1123V10.1046V10.0969V10.0891V10.0814V10.0736V10.0658V10.058V10.0502V10.0424V10.0345V10.0267V10.0188V10.0109V10.003V9.99514V9.98722V9.97929V9.97134V9.96339V9.95541V9.94743V9.93943V9.93142V9.9234V9.91536V9.90731V9.89924V9.89117V9.88308V9.87498V9.86686V9.85873V9.85059V9.84243V9.83426V9.82608V9.81789V9.80968V9.80146V9.79323V9.78498V9.77672V9.76845V9.76016V9.75186V9.74355V9.73523V9.72689V9.71854V9.71017V9.7018V9.69341V9.68501V9.67659V9.66816V9.65972V9.65127V9.6428V9.63432V9.62583V9.61733V9.60881V9.60028V9.59173V9.58318V9.57461V9.56603V9.55743V9.54883V9.54021V9.53157V9.52293V9.51427V9.5056V9.49691V9.48822V9.47951V9.47079V9.46205V9.45331V9.44455V9.43577V9.42699V9.41819V9.40938V9.40056V9.39172V9.38287V9.37401V9.36514V9.35625V9.34735V9.33844V9.32952V9.32058V9.31164V9.30268V9.2937V9.28472V9.27572V9.26671V9.25768V9.24865V9.2396V9.23054V9.22146V9.21238V9.20328V9.19417V9.18505V9.17591V9.16676V9.1576V9.14843V9.13925V9.13005V9.12084V9.11162V9.10238V9.09314V9.08388V9.07461V9.06533V9.05603V9.04672V9.0374V9.02807V9.01873V9.00937V9C12 8.52592 12.1751 8.32614 12.3343 8.21153C12.5445 8.06022 12.8267 8 13 8C13.1733 8 13.4555 8.06022 13.6657 8.21153C13.8249 8.32614 14 8.52592 14 9C14 9.55228 14.4477 10 15 10C15.5523 10 16 9.55228 16 9C16 7.87408 15.5085 7.07386 14.8343 6.58847C14.2111 6.13978 13.4934 6 13 6Z" fill="black"/>
</svg>
