<svg width="24" height="24" viewBox="0 0 24 24" fill="none" xmlns="http://www.w3.org/2000/svg">
<path fill-rule="evenodd" clip-rule="evenodd" d="M1 12C1 5.92487 5.92487 1 12 1C18.0751 1 23 5.92487 23 12C23 18.0751 18.0751 23 12 23C5.92487 23 1 18.0751 1 12ZM10 6C9.44772 6 9 6.44772 9 7V10H8C7.44772 10 7 10.4477 7 11C7 11.5523 7.44772 12 8 12H9V13H8C7.44772 13 7 13.4477 7 14C7 14.5523 7.44772 15 8 15H9V17C9 17.5523 9.44772 18 10 18C10.5523 18 11 17.5523 11 17V15H13C13.5523 15 14 14.5523 14 14C14 13.4477 13.5523 13 13 13H11V12H14C15.6569 12 17 10.6569 17 9C17 7.34315 15.6569 6 14 6H10ZM14 10H11V8H14C14.5523 8 15 8.44772 15 9C15 9.55228 14.5523 10 14 10Z" fill="black"/>
</svg>
