<svg width="24" height="24" viewBox="0 0 24 24" fill="none" xmlns="http://www.w3.org/2000/svg">
<path fill-rule="evenodd" clip-rule="evenodd" d="M1 12C1 5.92487 5.92487 1 12 1C18.0751 1 23 5.92487 23 12C23 18.0751 18.0751 23 12 23C5.92487 23 1 18.0751 1 12ZM8 6C7.44772 6 7 6.44772 7 7C7 7.55228 7.44772 8 8 8H10.9999C11.3399 8 11.8721 8.11022 12.2906 8.41153C12.4798 8.54775 12.6622 8.73303 12.7946 9H7.99695C7.44466 9 6.99695 9.44772 6.99695 10C6.99695 10.5523 7.44466 11 7.99695 11H12.7946C12.6622 11.267 12.4798 11.4523 12.2906 11.5885C11.8721 11.8898 11.3399 12 10.9999 12H7.99695C7.57221 12 7.19381 12.2683 7.05327 12.6691C6.91274 13.0699 7.04073 13.5158 7.37248 13.781L12.3754 17.781C12.8068 18.1259 13.436 18.0558 13.7809 17.6245C14.1258 17.1931 14.0557 16.5638 13.6243 16.219L10.849 14H10.9999C11.66 14 12.6277 13.8102 13.4592 13.2115C14.1338 12.7258 14.6774 11.9977 14.896 11H15.9999C16.5522 11 16.9999 10.5523 16.9999 10C16.9999 9.44772 16.5522 9 15.9999 9H14.896C14.815 8.63006 14.6892 8.29719 14.5287 8H16C16.5523 8 17 7.55228 17 7C17 6.44772 16.5523 6 16 6H10.9999H8Z" fill="black"/>
</svg>
