<svg width="24" height="24" viewBox="0 0 24 24" fill="none" xmlns="http://www.w3.org/2000/svg">
<path d="M21 3L3 21" stroke="black" stroke-width="2" stroke-linecap="round" stroke-linejoin="round"/>
<path fill-rule="evenodd" clip-rule="evenodd" d="M13.2929 2.87868L14.7929 4.37868L4.37868 14.7929L2.87868 13.2929C2.31607 12.7303 2 11.9672 2 11.1716V5C2 3.34315 3.34315 2 5 2H11.1716C11.9672 2 12.7303 2.31607 13.2929 2.87868ZM17.6213 7.20711L7.20711 17.6213L10.8787 21.2929C12.0503 22.4645 13.9497 22.4645 15.1213 21.2929L21.2929 15.1213C22.4645 13.9497 22.4645 12.0503 21.2929 10.8787L17.6213 7.20711ZM7 6C6.44772 6 6 6.44772 6 7C6 7.55228 6.44772 8 7 8H7.001C7.55328 8 8.001 7.55228 8.001 7C8.001 6.44772 7.55328 6 7.001 6H7Z" fill="black"/>
</svg>
