<svg width="24" height="24" viewBox="0 0 24 24" fill="none" xmlns="http://www.w3.org/2000/svg">
<path fill-rule="evenodd" clip-rule="evenodd" d="M2 5C2 3.34315 3.34315 2 5 2H11.1716C11.9672 2 12.7303 2.31607 13.2929 2.87868L21.2929 10.8787C22.4645 12.0503 22.4645 13.9497 21.2929 15.1213L15.1213 21.2929C13.9497 22.4645 12.0503 22.4645 10.8787 21.2929L2.87868 13.2929C2.31607 12.7303 2 11.9672 2 11.1716V5ZM7 6C6.44772 6 6 6.44772 6 7C6 7.55228 6.44772 8 7 8H7.001C7.55328 8 8.001 7.55228 8.001 7C8.001 6.44772 7.55328 6 7.001 6H7Z" fill="black"/>
</svg>
