<svg width="24" height="24" viewBox="0 0 24 24" fill="none" xmlns="http://www.w3.org/2000/svg">
<path fill-rule="evenodd" clip-rule="evenodd" d="M4 4H16C16 4.55228 16.4477 5 17 5C17.5523 5 18 4.55228 18 4H20C21.1046 4 22 4.89543 22 6V18C22 19.1046 21.1046 20 20 20H18C18 19.4477 17.5523 19 17 19C16.4477 19 16 19.4477 16 20H4C2.89543 20 2 19.1046 2 18V6C2 4.89543 2.89543 4 4 4ZM18 8.00098C18 8.55326 17.5523 9.00098 17 9.00098C16.4477 9.00098 16 8.55326 16 8.00098V7.99998C16 7.44769 16.4477 6.99998 17 6.99998C17.5523 6.99998 18 7.44769 18 7.99998V8.00098ZM17 13.001C17.5523 13.001 18 12.5533 18 12.001V12C18 11.4477 17.5523 11 17 11C16.4477 11 16 11.4477 16 12V12.001C16 12.5533 16.4477 13.001 17 13.001ZM18 16.001C18 16.5533 17.5523 17.001 17 17.001C16.4477 17.001 16 16.5533 16 16.001V16C16 15.4477 16.4477 15 17 15C17.5523 15 18 15.4477 18 16V16.001Z" fill="black"/>
</svg>
