<svg width="24" height="24" viewBox="0 0 24 24" fill="none" xmlns="http://www.w3.org/2000/svg">
<path fill-rule="evenodd" clip-rule="evenodd" d="M1 12C1 5.92487 5.92487 1 12 1C18.0751 1 23 5.92487 23 12C23 18.0751 18.0751 23 12 23C5.92487 23 1 18.0751 1 12ZM9.31923 6.42654C9.00252 5.97409 8.37899 5.86405 7.92654 6.18077C7.47409 6.49748 7.36405 7.12101 7.68077 7.57346L10.0793 11H9C8.44772 11 8 11.4477 8 12C8 12.5523 8.44772 13 9 13H11V14H9C8.44772 14 8 14.4477 8 15C8 15.5523 8.44772 16 9 16H11V18C11 18.5523 11.4477 19 12 19C12.5523 19 13 18.5523 13 18V16H15C15.5523 16 16 15.5523 16 15C16 14.4477 15.5523 14 15 14H13V13H15C15.5523 13 16 12.5523 16 12C16 11.4477 15.5523 11 15 11H13.9207L16.3192 7.57346C16.6359 7.12101 16.5259 6.49748 16.0735 6.18077C15.621 5.86405 14.9975 5.97409 14.6808 6.42654L12 10.2562L9.31923 6.42654Z" fill="black"/>
</svg>
