<svg width="24" height="24" viewBox="0 0 24 24" fill="none" xmlns="http://www.w3.org/2000/svg">
<path fill-rule="evenodd" clip-rule="evenodd" d="M10 2C8.69378 2 7.58254 2.83481 7.17071 4H6C4.34315 4 3 5.34315 3 7V19C3 20.6569 4.34315 22 6 22H18C19.6569 22 21 20.6569 21 19V7C21 5.34315 19.6569 4 18 4H16.8293C16.4175 2.83481 15.3062 2 14 2H10ZM9 5C9 4.44772 9.44772 4 10 4H14C14.5523 4 15 4.44772 15 5C15 5.55228 14.5523 6 14 6H10C9.44772 6 9 5.55228 9 5ZM15.7809 11.6247C16.1259 11.1934 16.056 10.5641 15.6247 10.2191C15.1934 9.87412 14.5641 9.94404 14.2191 10.3753L10.9171 14.5029L9.70711 13.2929C9.31658 12.9024 8.68342 12.9024 8.29289 13.2929C7.90237 13.6834 7.90237 14.3166 8.29289 14.7071L10.2929 16.7071C10.494 16.9082 10.7713 17.0142 11.0553 16.9985C11.3393 16.9827 11.6032 16.8468 11.7809 16.6247L15.7809 11.6247Z" fill="black"/>
</svg>
