<svg width="24" height="24" viewBox="0 0 24 24" fill="none" xmlns="http://www.w3.org/2000/svg">
<path fill-rule="evenodd" clip-rule="evenodd" d="M19 21H5C3.87408 21 3.07386 20.5085 2.58847 19.8343C2.13978 19.2111 2 18.4934 2 18V6C2 4.34315 3.34315 3 5 3H15C16.6566 3 18 4.34253 18 5.99963V11H21C21.5523 11 22 11.4477 22 12V18C22 18.4934 21.8602 19.2111 21.4115 19.8343C20.9261 20.5085 20.1259 21 19 21ZM20 14C20 13.4477 19.5523 13 19 13C18.4477 13 18 13.4477 18 14V18C18 18.5523 18.4477 19 19 19C19.5523 19 20 18.5523 20 18V14Z" fill="black"/>
</svg>
