<svg width="24" height="24" viewBox="0 0 24 24" fill="none" xmlns="http://www.w3.org/2000/svg">
<path fill-rule="evenodd" clip-rule="evenodd" d="M5 21H19C20.1259 21 20.9261 20.5085 21.4115 19.8343C21.8602 19.2111 22 18.4934 22 18V12C22 11.4477 21.5523 11 21 11H18V5.99963C18 4.34253 16.6566 3 15 3H5C3.34315 3 2 4.34315 2 6V18C2 18.4934 2.13978 19.2111 2.58847 19.8343C3.07386 20.5085 3.87408 21 5 21ZM19 13C19.5523 13 20 13.4477 20 14V18C20 18.5523 19.5523 19 19 19C18.4477 19 18 18.5523 18 18V14C18 13.4477 18.4477 13 19 13ZM9 10C9 9.44772 9.44772 9 10 9C10.5523 9 11 9.44772 11 10C11 10.5523 10.5523 11 10 11C9.44772 11 9 10.5523 9 10ZM10 7C8.34315 7 7 8.34315 7 10C7 11.6569 8.34315 13 10 13C11.6569 13 13 11.6569 13 10C13 8.34315 11.6569 7 10 7ZM7 15C6.44772 15 6 15.4477 6 16C6 16.5523 6.44772 17 7 17H13C13.5523 17 14 16.5523 14 16C14 15.4477 13.5523 15 13 15H7Z" fill="black"/>
</svg>
