<svg width="24" height="24" viewBox="0 0 24 24" fill="none" xmlns="http://www.w3.org/2000/svg">
<path d="M19 16V19M19 19V22M19 19H22M19 19H16" stroke="black" stroke-width="2" stroke-linecap="round" stroke-linejoin="round"/>
<path fill-rule="evenodd" clip-rule="evenodd" d="M6 2H12V8C12 9.65685 13.3431 11 15 11H21V13.3414C20.3744 13.1203 19.7013 13 19 13C15.6863 13 13 15.6863 13 19C13 20.0929 13.2922 21.1175 13.8027 22H6C4.34315 22 3 20.6569 3 19V5C3 3.34315 4.34315 2 6 2ZM21 8.82843V9H15C14.4477 9 14 8.55228 14 8V2H14.1716C14.9672 2 15.7303 2.31607 16.2929 2.87868L20.1213 6.70711C20.6839 7.26972 21 8.03278 21 8.82843Z" fill="black"/>
</svg>
