<svg width="24" height="24" viewBox="0 0 24 24" fill="none" xmlns="http://www.w3.org/2000/svg">
<path fill-rule="evenodd" clip-rule="evenodd" d="M5 4C3.89543 4 3 4.89543 3 6V18C3 19.1046 3.89543 20 5 20H11.2899C11.1013 19.3663 11 18.695 11 18C11 14.134 14.134 11 18 11C19.0736 11 20.0907 11.2417 21 11.6736V9C21 7.89543 20.1046 7 19 7H13.0704C12.4017 7 11.7772 6.6658 11.4063 6.1094L10.5937 4.8906C10.2228 4.3342 9.59834 4 8.92963 4H5Z" fill="black"/>
<path d="M11.2899 20V21C11.6056 21 11.9028 20.8509 12.0915 20.5978C12.2803 20.3447 12.3384 20.0174 12.2483 19.7147L11.2899 20ZM21 11.6736L20.5709 12.5769C20.8807 12.7241 21.2443 12.7022 21.5343 12.5189C21.8242 12.3357 22 12.0166 22 11.6736H21ZM11.4063 6.1094L12.2383 5.5547L11.4063 6.1094ZM10.5937 4.8906L9.76168 5.4453L9.76168 5.4453L10.5937 4.8906ZM4 6C4 5.44772 4.44772 5 5 5V3C3.34315 3 2 4.34315 2 6H4ZM4 18V6H2V18H4ZM5 19C4.44772 19 4 18.5523 4 18H2C2 19.6569 3.34315 21 5 21V19ZM11.2899 19H5V21H11.2899V19ZM12.2483 19.7147C12.087 19.1726 12 18.5974 12 18H10C10 18.7926 10.1156 19.5599 10.3314 20.2852L12.2483 19.7147ZM12 18C12 14.6863 14.6863 12 18 12V10C13.5817 10 10 13.5817 10 18H12ZM18 12C18.9221 12 19.7929 12.2073 20.5709 12.5769L21.4291 10.7704C20.3886 10.2761 19.2251 10 18 10V12ZM20 9V11.6736H22V9H20ZM19 8C19.5523 8 20 8.44771 20 9H22C22 7.34315 20.6569 6 19 6V8ZM13.0704 8H19V6H13.0704V8ZM10.5742 6.6641C11.1306 7.4987 12.0673 8 13.0704 8V6C12.736 6 12.4238 5.8329 12.2383 5.5547L10.5742 6.6641ZM9.76168 5.4453L10.5742 6.6641L12.2383 5.5547L11.4258 4.3359L9.76168 5.4453ZM8.92963 5C9.26399 5 9.57622 5.1671 9.76168 5.4453L11.4258 4.3359C10.8694 3.5013 9.93269 3 8.92963 3V5ZM5 5H8.92963V3H5V5Z" fill="black"/>
<path d="M18 15V18M18 21V18M18 18H15M18 18H21" stroke="black" stroke-width="2" stroke-linecap="round" stroke-linejoin="round"/>
</svg>
