<svg width="24" height="24" viewBox="0 0 24 24" fill="none" xmlns="http://www.w3.org/2000/svg">
<path fill-rule="evenodd" clip-rule="evenodd" d="M5 4C3.89543 4 3 4.89543 3 6V18C3 19.1046 3.89543 20 5 20H12.1739C12.0602 19.5185 12 19.0163 12 18.5C12 14.9101 14.9101 12 18.5 12C19.3859 12 20.2304 12.1772 21 12.4982V9C21 7.89543 20.1046 7 19 7H13.0704C12.4017 7 11.7772 6.6658 11.4063 6.1094L10.5937 4.8906C10.2228 4.3342 9.59834 4 8.92963 4H5Z" fill="black"/>
<path d="M12.1739 20V21C12.4796 21 12.7685 20.8602 12.9581 20.6205C13.1478 20.3808 13.2174 20.0676 13.1471 19.7701L12.1739 20ZM21 12.4982L20.6151 13.4211C20.9238 13.5498 21.2763 13.5158 21.5546 13.3303C21.8328 13.1448 22 12.8326 22 12.4982H21ZM11.4063 6.1094L12.2383 5.5547L11.4063 6.1094ZM10.5937 4.8906L9.76168 5.4453L9.76168 5.4453L10.5937 4.8906ZM4 6C4 5.44772 4.44772 5 5 5V3C3.34315 3 2 4.34315 2 6H4ZM4 18V6H2V18H4ZM5 19C4.44772 19 4 18.5523 4 18H2C2 19.6569 3.34315 21 5 21V19ZM12.1739 19H5V21H12.1739V19ZM13.1471 19.7701C13.0511 19.3634 13 18.9383 13 18.5H11C11 19.0942 11.0693 19.6736 11.2007 20.2299L13.1471 19.7701ZM13 18.5C13 15.4624 15.4624 13 18.5 13V11C14.3579 11 11 14.3579 11 18.5H13ZM18.5 13C19.2515 13 19.9653 13.1501 20.6151 13.4211L21.3849 11.5752C20.4955 11.2043 19.5203 11 18.5 11V13ZM20 9V12.4982H22V9H20ZM19 8C19.5523 8 20 8.44771 20 9H22C22 7.34315 20.6569 6 19 6V8ZM13.0704 8H19V6H13.0704V8ZM10.5742 6.6641C11.1306 7.4987 12.0673 8 13.0704 8V6C12.736 6 12.4238 5.8329 12.2383 5.5547L10.5742 6.6641ZM9.76168 5.4453L10.5742 6.6641L12.2383 5.5547L11.4258 4.3359L9.76168 5.4453ZM8.92963 5C9.26399 5 9.57622 5.1671 9.76168 5.4453L11.4258 4.3359C10.8694 3.5013 9.93269 3 8.92963 3V5ZM5 5H8.92963V3H5V5Z" fill="black"/>
<path d="M16 19L18 21L22 16" stroke="black" stroke-width="2" stroke-linecap="round" stroke-linejoin="round"/>
</svg>
