<svg width="24" height="24" viewBox="0 0 24 24" fill="none" xmlns="http://www.w3.org/2000/svg">
<path fill-rule="evenodd" clip-rule="evenodd" d="M5 4C3.89543 4 3 4.89543 3 6V18C3 19.1046 3.89543 20 5 20H11.4982C11.1772 19.2304 11 18.3859 11 17.5C11 13.9101 13.9101 11 17.5 11C18.7886 11 19.9897 11.375 21 12.0218V9C21 7.89543 20.1046 7 19 7H13.0704C12.4017 7 11.7772 6.6658 11.4063 6.1094L10.5937 4.8906C10.2228 4.3342 9.59834 4 8.92963 4H5Z" fill="black"/>
<path d="M11.4982 20V21C11.8326 21 12.1448 20.8328 12.3303 20.5546C12.5158 20.2763 12.5498 19.9238 12.4211 19.6151L11.4982 20ZM21 12.0218L20.4608 12.864C20.7686 13.0611 21.1594 13.0745 21.48 12.8991C21.8006 12.7237 22 12.3873 22 12.0218H21ZM11.4063 6.1094L12.2383 5.5547L11.4063 6.1094ZM10.5937 4.8906L9.76168 5.4453L9.76168 5.4453L10.5937 4.8906ZM4 6C4 5.44772 4.44772 5 5 5V3C3.34315 3 2 4.34315 2 6H4ZM4 18V6H2V18H4ZM5 19C4.44772 19 4 18.5523 4 18H2C2 19.6569 3.34315 21 5 21V19ZM11.4982 19H5V21H11.4982V19ZM12.4211 19.6151C12.1501 18.9653 12 18.2515 12 17.5H10C10 18.5203 10.2043 19.4955 10.5752 20.3849L12.4211 19.6151ZM12 17.5C12 14.4624 14.4624 12 17.5 12V10C13.3579 10 10 13.3579 10 17.5H12ZM17.5 12C18.5919 12 19.6067 12.3172 20.4608 12.864L21.5392 11.1796C20.3727 10.4328 18.9854 10 17.5 10V12ZM20 9V12.0218H22V9H20ZM19 8C19.5523 8 20 8.44771 20 9H22C22 7.34315 20.6569 6 19 6V8ZM13.0704 8H19V6H13.0704V8ZM10.5742 6.6641C11.1306 7.4987 12.0673 8 13.0704 8V6C12.736 6 12.4238 5.8329 12.2383 5.5547L10.5742 6.6641ZM9.76168 5.4453L10.5742 6.6641L12.2383 5.5547L11.4258 4.3359L9.76168 5.4453ZM8.92963 5C9.26399 5 9.57622 5.1671 9.76168 5.4453L11.4258 4.3359C10.8694 3.5013 9.93269 3 8.92963 3V5ZM5 5H8.92963V3H5V5Z" fill="black"/>
<path d="M15 18H18H21" stroke="black" stroke-width="2" stroke-linecap="round" stroke-linejoin="round"/>
</svg>
