<svg width="24" height="24" viewBox="0 0 24 24" fill="none" xmlns="http://www.w3.org/2000/svg">
<path fill-rule="evenodd" clip-rule="evenodd" d="M6 3C4.34315 3 3 4.34315 3 6V18C3 19.6569 4.34315 21 6 21H18C19.6569 21 21 19.6569 21 18V6C21 4.34315 19.6569 3 18 3H6ZM10 8C10 7.44772 10.4477 7 11 7H17C17.5523 7 18 7.44772 18 8C18 8.55228 17.5523 9 17 9H11C10.4477 9 10 8.55228 10 8ZM10 12C10 11.4477 10.4477 11 11 11H17C17.5523 11 18 11.4477 18 12C18 12.5523 17.5523 13 17 13H11C10.4477 13 10 12.5523 10 12ZM10 16C10 15.4477 10.4477 15 11 15H17C17.5523 15 18 15.4477 18 16C18 16.5523 17.5523 17 17 17H11C10.4477 17 10 16.5523 10 16ZM7 7C6.44772 7 6 7.44772 6 8C6 8.55228 6.44772 9 7 9H7.001C7.55328 9 8.001 8.55228 8.001 8C8.001 7.44772 7.55328 7 7.001 7H7ZM6 12C6 11.4477 6.44772 11 7 11H7.001C7.55328 11 8.001 11.4477 8.001 12C8.001 12.5523 7.55328 13 7.001 13H7C6.44772 13 6 12.5523 6 12ZM7 15C6.44772 15 6 15.4477 6 16C6 16.5523 6.44772 17 7 17H7.001C7.55328 17 8.001 16.5523 8.001 16C8.001 15.4477 7.55328 15 7.001 15H7Z" fill="black"/>
</svg>
