<svg width="24" height="24" viewBox="0 0 24 24" fill="none" xmlns="http://www.w3.org/2000/svg">
<path fill-rule="evenodd" clip-rule="evenodd" d="M5 2C3.34315 2 2 3.34315 2 5V19C2 20.6569 3.34315 22 5 22H14V17C14 15.3431 15.3431 14 17 14H22V5C22 3.34315 20.6569 2 19 2H5ZM17.2929 21.1213C16.9302 21.484 16.4843 21.7442 16 21.8834V17C16 16.4477 16.4477 16 17 16H21.8834C21.7442 16.4843 21.484 16.9302 21.1213 17.2929L17.2929 21.1213ZM7 6C6.44772 6 6 6.44772 6 7C6 7.55228 6.44772 8 7 8H17C17.5523 8 18 7.55228 18 7C18 6.44772 17.5523 6 17 6H7ZM7 10C6.44772 10 6 10.4477 6 11C6 11.5523 6.44772 12 7 12H17C17.5523 12 18 11.5523 18 11C18 10.4477 17.5523 10 17 10H7ZM7 14C6.44772 14 6 14.4477 6 15C6 15.5523 6.44772 16 7 16H11C11.5523 16 12 15.5523 12 15C12 14.4477 11.5523 14 11 14H7Z" fill="black"/>
</svg>
