<svg width="24" height="24" viewBox="0 0 24 24" fill="none" xmlns="http://www.w3.org/2000/svg">
<path fill-rule="evenodd" clip-rule="evenodd" d="M8 2C8.55228 2 9 2.44772 9 3V4H7V3C7 2.44772 7.44772 2 8 2ZM17 4H18C19.6569 4 21 5.34315 21 7V19C21 20.6569 19.6569 22 18 22H6C4.34315 22 3 20.6569 3 19V7C3 5.34315 4.34315 4 6 4H7V7C7 7.55228 7.44772 8 8 8C8.55228 8 9 7.55228 9 7V4H11V7C11 7.55228 11.4477 8 12 8C12.5523 8 13 7.55228 13 7V4H15V7C15 7.55228 15.4477 8 16 8C16.5523 8 17 7.55228 17 7V4ZM17 4H15V3C15 2.44772 15.4477 2 16 2C16.5523 2 17 2.44772 17 3V4ZM13 4V3C13 2.44772 12.5523 2 12 2C11.4477 2 11 2.44772 11 3V4H13Z" fill="black"/>
</svg>
