<svg width="24" height="24" viewBox="0 0 24 24" fill="none" xmlns="http://www.w3.org/2000/svg">
<path fill-rule="evenodd" clip-rule="evenodd" d="M9 3C9 2.44772 8.55228 2 8 2C7.44772 2 7 2.44772 7 3V4H6C4.34315 4 3 5.34315 3 7V19C3 20.6569 4.34315 22 6 22H18C19.6569 22 21 20.6569 21 19V7C21 5.34315 19.6569 4 18 4H17V3C17 2.44772 16.5523 2 16 2C15.4477 2 15 2.44772 15 3V4H13V3C13 2.44772 12.5523 2 12 2C11.4477 2 11 2.44772 11 3V4H9V3ZM11 4V7C11 7.55228 11.4477 8 12 8C12.5523 8 13 7.55228 13 7V4H11ZM15 4H17V7C17 7.55228 16.5523 8 16 8C15.4477 8 15 7.55228 15 7V4ZM9 4V7C9 7.55228 8.55228 8 8 8C7.44772 8 7 7.55228 7 7V4H9ZM8 10C7.44772 10 7 10.4477 7 11C7 11.5523 7.44772 12 8 12H16C16.5523 12 17 11.5523 17 11C17 10.4477 16.5523 10 16 10H8ZM8 14C7.44772 14 7 14.4477 7 15C7 15.5523 7.44772 16 8 16H12C12.5523 16 13 15.5523 13 15C13 14.4477 12.5523 14 12 14H8Z" fill="black"/>
</svg>
