<svg width="24" height="24" viewBox="0 0 24 24" fill="none" xmlns="http://www.w3.org/2000/svg">
<path fill-rule="evenodd" clip-rule="evenodd" d="M16.4806 14H20.5C21.8807 14 23 12.8807 23 11.5C23 10.1193 21.8807 9 20.5 9H17H15H10H8.00001H6.61804C6.23927 9 5.89301 8.786 5.72362 8.44721L5.2764 7.55279C5.10701 7.214 4.76075 7 4.38198 7H2.51655C1.79863 7 1.3146 7.73405 1.5974 8.39392L3.74026 13.3939C3.89784 13.7616 4.25938 14 4.65941 14H8.52298C9.23044 14 9.7142 14.7145 9.45145 15.3714L8.54857 17.6286C8.28582 18.2855 8.76958 19 9.47704 19H11.5194C11.8232 19 12.1105 18.8619 12.3003 18.6247L15.6998 14.3753C15.8895 14.1381 16.1769 14 16.4806 14ZM9.50001 8H14.25L12.3 5.4C12.1112 5.14819 11.8148 5 11.5 5H9.61804C8.87466 5 8.39117 5.78231 8.72362 6.44721L9.50001 8Z" fill="black"/>
</svg>
