<svg width="24" height="24" viewBox="0 0 24 24" fill="none" xmlns="http://www.w3.org/2000/svg">
<path fill-rule="evenodd" clip-rule="evenodd" d="M8 6C8 4.34315 9.34315 3 11 3H13C14.6569 3 16 4.34315 16 6V7H19C20.6569 7 22 8.34315 22 10V12H15V11C15 10.4477 14.5523 10 14 10H10C9.44772 10 9 10.4477 9 11V12H2V10C2 8.34315 3.34315 7 5 7H8V6ZM2 14V18C2 19.6569 3.34315 21 5 21H19C20.6569 21 22 19.6569 22 18V14H15V15C15 15.5523 14.5523 16 14 16H10C9.44772 16 9 15.5523 9 15V14H2ZM10 7H14V6C14 5.44772 13.5523 5 13 5H11C10.4477 5 10 5.44772 10 6V7ZM13 14H11V13V12H13V13V14Z" fill="black"/>
</svg>
