<svg width="24" height="24" viewBox="0 0 24 24" fill="none" xmlns="http://www.w3.org/2000/svg">
<path d="M14 15L17.1716 11.8284C17.702 11.298 18.4214 11 19.1716 11H20C21.1046 11 22 11.8954 22 13V13C22 14.1046 21.1046 15 20 15H4C2.89543 15 2 14.1046 2 13V13C2 11.8954 2.89543 11 4 11L7.65685 11C9.15715 11 10.596 11.596 11.6569 12.6569L14 15Z" stroke="black" stroke-width="2" stroke-linecap="round" stroke-linejoin="round"/>
<path d="M3 15H21V17C21 18.6569 19.6569 20 18 20H6C4.34315 20 3 18.6569 3 17V15Z" fill="black" stroke="black" stroke-width="2" stroke-linecap="round" stroke-linejoin="round"/>
<path fill-rule="evenodd" clip-rule="evenodd" d="M5.46668 4.55418C7.27063 3.45681 9.57977 3 12 3C14.4202 3 16.7294 3.45681 18.5333 4.55418C20.3766 5.67546 21.6417 7.43991 21.9349 9.8817C22.082 11.1064 21.0671 12 20 12H4.00001C2.9329 12 1.91805 11.1064 2.06509 9.8817C2.35827 7.43991 3.62343 5.67546 5.46668 4.55418ZM7 6C6.44772 6 6 6.44772 6 7C6 7.55228 6.44772 8 7 8H7.001C7.55328 8 8.001 7.55228 8.001 7C8.001 6.44772 7.55328 6 7.001 6H7ZM15 7C15 6.44772 15.4477 6 16 6H16.001C16.5533 6 17.001 6.44772 17.001 7C17.001 7.55228 16.5533 8 16.001 8H16C15.4477 8 15 7.55228 15 7ZM11 8C10.4477 8 10 8.44772 10 9C10 9.55228 10.4477 10 11 10H11.001C11.5533 10 12.001 9.55228 12.001 9C12.001 8.44772 11.5533 8 11.001 8H11Z" fill="black"/>
</svg>
