<svg width="24" height="24" viewBox="0 0 24 24" fill="none" xmlns="http://www.w3.org/2000/svg">
<path d="M6 19V19C4.89543 19 4 18.1046 4 17V13M6 19V20.5C6 20.7761 6.22386 21 6.5 21V21C6.77614 21 7 20.7761 7 20.5V19M6 19H7M18 19V19C19.1046 19 20 18.1046 20 17V13M18 19V20.5C18 20.7761 17.7761 21 17.5 21V21C17.2239 21 17 20.7761 17 20.5V19M18 19H17M4 13V7M4 13H12M20 13V7M20 13H12M7 19H17M4 7V5C4 3.89543 4.89543 3 6 3H18C19.1046 3 20 3.89543 20 5V7M4 7H12M20 7H12M12 7V13" stroke="black" stroke-width="2" stroke-linecap="round" stroke-linejoin="round"/>
<path fill-rule="evenodd" clip-rule="evenodd" d="M4 13H20V19H4V13ZM7 16C7 15.4477 7.44772 15 8 15H8.001C8.55328 15 9.001 15.4477 9.001 16C9.001 16.5523 8.55328 17 8.001 17H8C7.44772 17 7 16.5523 7 16ZM16 15C15.4477 15 15 15.4477 15 16C15 16.5523 15.4477 17 16 17H16.001C16.5533 17 17.001 16.5523 17.001 16C17.001 15.4477 16.5533 15 16.001 15H16Z" fill="black"/>
<path d="M4 5C4 3.89543 4.89543 3 6 3H18C19.1046 3 20 3.89543 20 5V7H4V5Z" fill="black"/>
</svg>
