<svg width="24" height="24" viewBox="0 0 24 24" fill="none" xmlns="http://www.w3.org/2000/svg">
<path d="M12 3H12.01" stroke="black" stroke-width="2" stroke-linecap="round" stroke-linejoin="round"/>
<path d="M7 3H7.01" stroke="black" stroke-width="2" stroke-linecap="round" stroke-linejoin="round"/>
<path d="M17 3H17.01" stroke="black" stroke-width="2" stroke-linecap="round" stroke-linejoin="round"/>
<path fill-rule="evenodd" clip-rule="evenodd" d="M7 5C7.55228 5 8 5.44772 8 6V8H11V6C11 5.44772 11.4477 5 12 5C12.5523 5 13 5.44772 13 6V8H16V6C16 5.44772 16.4477 5 17 5C17.5523 5 18 5.44772 18 6V8.10002C20.026 8.51128 21.6072 10.1476 21.9367 12.2021C21.537 12.357 21.1874 12.5855 20.89 12.8316C20.3577 13.2722 19.9237 13.8256 19.5879 14.2914C19.3233 14.6586 18.8736 15 18 15C17.1259 15 16.6761 14.6582 16.4115 14.2907C16.1102 13.8722 16 13.34 16 13C16 12.4477 15.5523 12 15 12C14.4477 12 14 12.4477 14 13C14 13.34 13.8898 13.8722 13.5885 14.2907C13.3239 14.6582 12.8741 15 12 15C11.1259 15 10.6761 14.6582 10.4115 14.2907C10.1102 13.8722 10 13.34 10 13C10 12.4477 9.55229 12 9 12C8.44772 12 8 12.4477 8 13C8 13.34 7.88978 13.8722 7.58847 14.2907C7.32386 14.6582 6.87408 15 6 15C5.12638 15 4.67667 14.6586 4.41205 14.2914C4.07634 13.8256 3.64233 13.2722 3.10999 12.8316C2.81258 12.5855 2.463 12.357 2.06333 12.2021C2.39283 10.1476 3.97399 8.51128 6 8.10002V6C6 5.44772 6.44772 5 7 5ZM2 14.5193V19C2 20.6569 3.34315 22 5 22H19C20.6569 22 22 20.6569 22 19V14.5193C21.7293 14.7764 21.4685 15.1028 21.2104 15.4608C20.5749 16.3426 19.5249 17 18 17C16.6326 17 15.6472 16.4715 15 15.7266C14.3528 16.4715 13.3674 17 12 17C10.6326 17 9.64721 16.4715 9 15.7266C8.35279 16.4715 7.36739 17 6 17C4.47505 17 3.42512 16.3426 2.78956 15.4608C2.5315 15.1028 2.27069 14.7764 2 14.5193Z" fill="black"/>
</svg>
