<svg width="24" height="24" viewBox="0 0 24 24" fill="none" xmlns="http://www.w3.org/2000/svg">
<path d="M3 11L5.4805 5.21216C5.79566 4.47679 6.51874 4 7.31879 4H16.6812C17.4813 4 18.2043 4.47679 18.5195 5.21216L21 11M3 11H21M3 11V18M21 11V18M18 18V18.5C18 19.3284 18.6716 20 19.5 20V20C20.3284 20 21 19.3284 21 18.5V18M18 18H6M18 18H21M6 18V18.5C6 19.3284 5.32843 20 4.5 20V20C3.67157 20 3 19.3284 3 18.5V18M6 18H3" stroke="black" stroke-width="2" stroke-linecap="round" stroke-linejoin="round"/>
<path fill-rule="evenodd" clip-rule="evenodd" d="M3 11H21V18H3V11ZM6 14C6 13.4477 6.44772 13 7 13H7.001C7.55328 13 8.001 13.4477 8.001 14C8.001 14.5523 7.55328 15 7.001 15H7C6.44772 15 6 14.5523 6 14ZM17 13C16.4477 13 16 13.4477 16 14C16 14.5523 16.4477 15 17 15H17.001C17.5533 15 18.001 14.5523 18.001 14C18.001 13.4477 17.5533 13 17.001 13H17Z" fill="black"/>
</svg>
