<svg width="24" height="24" viewBox="0 0 24 24" fill="none" xmlns="http://www.w3.org/2000/svg">
<path fill-rule="evenodd" clip-rule="evenodd" d="M10.783 3.02381C11.0072 2.97399 11.2417 3.00286 11.4471 3.10557L21.4472 8.10557C21.786 8.27497 22 8.62123 22 9V13C22 13.5523 21.5522 14 21 14C20.8266 14 20.5444 14.0602 20.3343 14.2115C20.1751 14.3261 20 14.5259 20 15C20 15.4741 20.1751 15.6739 20.3343 15.7885C20.5444 15.9398 20.8266 16 21 16C21.5522 16 22 16.4477 22 17V20C22 20.5523 21.5522 21 21 21H4.49995C4.12118 21 3.77491 20.786 3.60552 20.4472C2.266 17.7681 1.58654 14.02 2.46966 10.6234C3.37337 7.14755 5.90414 4.10801 10.783 3.02381ZM8 17C7.44772 17 7 16.5523 7 16C7 15.4477 7.44772 15 8 15H8.001C8.55328 15 9.001 15.4477 9.001 16C9.001 16.5523 8.55328 17 8.001 17H8ZM12 13C12 13.5523 12.4477 14 13 14H13.001C13.5533 14 14.001 13.5523 14.001 13C14.001 12.4477 13.5533 12 13.001 12H13C12.4477 12 12 12.4477 12 13ZM15 17C14.4477 17 14 16.5523 14 16C14 15.4477 14.4477 15 15 15H15.001C15.5533 15 16.001 15.4477 16.001 16C16.001 16.5523 15.5533 17 15.001 17H15Z" fill="black"/>
</svg>
