<svg width="24" height="24" viewBox="0 0 24 24" fill="none" xmlns="http://www.w3.org/2000/svg">
<path fill-rule="evenodd" clip-rule="evenodd" d="M12 3C12.5523 3 13 3.44772 13 4V5H14C14.5523 5 15 5.44772 15 6C15 6.55228 14.5523 7 14 7H13V8.5L20.6 14.2C20.9443 14.4583 21.0848 14.9079 20.9487 15.3162C20.8126 15.7246 20.4304 16 20 16H19V19H21C21.5523 19 22 19.4477 22 20C22 20.5523 21.5523 21 21 21H14V18C14 16.8954 13.1046 16 12 16C10.8954 16 10 16.8954 10 18V21H3C2.44772 21 2 20.5523 2 20C2 19.4477 2.44772 19 3 19H5V16H4C3.56957 16 3.18743 15.7246 3.05132 15.3162C2.9152 14.9079 3.05566 14.4583 3.4 14.2L11 8.5V7H10C9.44772 7 9 6.55228 9 6C9 5.44772 9.44772 5 10 5H11V4C11 3.44772 11.4477 3 12 3Z" fill="black"/>
</svg>
