<svg width="24" height="24" viewBox="0 0 24 24" fill="none" xmlns="http://www.w3.org/2000/svg">
<path fill-rule="evenodd" clip-rule="evenodd" d="M6 6C6 4.34315 7.34315 3 9 3H19C20.6569 3 22 4.34315 22 6V18C22 19.6569 20.6569 21 19 21H15.4908C15.8151 20.4349 16 19.783 16 19.089V13.6505C16 12.6133 15.5786 11.6185 14.8284 10.885L10.8284 6.97395C9.5197 5.69433 7.52972 5.48677 6 6.35129V6ZM17 7C17 6.44772 17.4477 6 18 6H18.001C18.5533 6 19.001 6.44772 19.001 7C19.001 7.55228 18.5533 8 18.001 8H18C17.4477 8 17 7.55228 17 7ZM14 6C13.4477 6 13 6.44772 13 7C13 7.55228 13.4477 8 14 8H14.001C14.5533 8 15.001 7.55228 15.001 7C15.001 6.44772 14.5533 6 14.001 6H14ZM17 12C17 11.4477 17.4477 11 18 11H18.001C18.5533 11 19.001 11.4477 19.001 12C19.001 12.5523 18.5533 13 18.001 13H18C17.4477 13 17 12.5523 17 12ZM18 16C17.4477 16 17 16.4477 17 17C17 17.5523 17.4477 18 18 18H18.001C18.5533 18 19.001 17.5523 19.001 17C19.001 16.4477 18.5533 16 18.001 16H18Z" fill="black"/>
<path fill-rule="evenodd" clip-rule="evenodd" d="M5.87868 8.70711C7.05026 7.53554 8.94975 7.53554 10.1213 8.70711L13.1213 11.7071C13.6839 12.2697 14 13.0328 14 13.8284V18C14 19.6569 12.6569 21 11 21H9V18C9 17.4477 8.55228 17 8 17C7.44772 17 7 17.4477 7 18V21H5C3.34315 21 2 19.6569 2 18V13.8284C2 13.0328 2.31607 12.2697 2.87868 11.7071L5.87868 8.70711Z" fill="black"/>
</svg>
