<svg width="25" height="24" viewBox="0 0 25 24" fill="none" xmlns="http://www.w3.org/2000/svg">
<path fill-rule="evenodd" clip-rule="evenodd" d="M6.8503 4.78717C8.73109 3.43931 10.9576 3 12.4562 3H13.4609C14.0132 3 14.4609 3.44772 14.4609 4V7H16.4749C17.0272 7 17.4749 7.44772 17.4749 8V10H20.4937C21.0459 10 21.4937 10.4477 21.4937 11V12C21.4937 15.5028 20.0985 17.8084 18.1974 19.2058C16.3463 20.5664 14.1097 21 12.4562 21C10.8027 21 8.56612 20.5664 6.71497 19.2058C4.81392 17.8084 3.41876 15.5028 3.41876 12C3.41876 8.47211 4.91827 6.17175 6.8503 4.78717ZM9.44214 7C8.88985 7 8.44214 7.44772 8.44214 8C8.44214 8.55228 8.88985 9 9.44214 9H9.44314C9.99542 9 10.4431 8.55228 10.4431 8C10.4431 7.44772 9.99542 7 9.44314 7H9.44214ZM6.43274 12C6.43274 11.4477 6.88045 11 7.43274 11H7.43374C7.98602 11 8.43374 11.4477 8.43374 12C8.43374 12.5523 7.98602 13 7.43374 13H7.43274C6.88045 13 6.43274 12.5523 6.43274 12ZM12.4562 12C11.9039 12 11.4562 12.4477 11.4562 13C11.4562 13.5523 11.9039 14 12.4562 14H12.4572C13.0095 14 13.4572 13.5523 13.4572 13C13.4572 12.4477 13.0095 12 12.4572 12H12.4562ZM9.44684 16C9.44684 15.4477 9.89455 15 10.4468 15H10.4478C11.0001 15 11.4478 15.4477 11.4478 16C11.4478 16.5523 11.0001 17 10.4478 17H10.4468C9.89455 17 9.44684 16.5523 9.44684 16ZM16.4749 14C15.9226 14 15.4749 14.4477 15.4749 15C15.4749 15.5523 15.9226 16 16.4749 16H16.4759C17.0282 16 17.4759 15.5523 17.4759 15C17.4759 14.4477 17.0282 14 16.4759 14H16.4749Z" fill="black"/>
</svg>
