<svg width="24" height="24" viewBox="0 0 24 24" fill="none" xmlns="http://www.w3.org/2000/svg">
<path d="M4 14C4 16.3333 5.4 21 11 21C11 18.6667 9.6 14 4 14Z" fill="black"/>
<path d="M7 8V4L9.5 6L12 3L14.5 6L17 4V8C17 9.66667 16 13 12 13C8 13 7 9.66667 7 8Z" fill="black"/>
<path d="M20 14C20 16.3333 18.6 21 13 21C13 18.6667 14.4 14 20 14Z" fill="black"/>
<path d="M11 21C5.4 21 4 16.3333 4 14C9.6 14 11 18.6667 11 21ZM11 21H12M12 21V13M12 21H13M12 13C8 13 7 9.66667 7 8V4L9.5 6L12 3L14.5 6L17 4V8C17 9.66667 16 13 12 13ZM13 21C18.6 21 20 16.3333 20 14C14.4 14 13 18.6667 13 21Z" stroke="black" stroke-width="2" stroke-linecap="round" stroke-linejoin="round"/>
</svg>
