<svg width="24" height="24" viewBox="0 0 24 24" fill="none" xmlns="http://www.w3.org/2000/svg">
<path d="M15.2344 20H8.76556C7.75692 20 6.90612 19.2489 6.78101 18.2481L6 12L8.07203 11.3093C8.65754 11.1142 9.30036 11.2002 9.81388 11.5426L10.8906 12.2604C11.5624 12.7083 12.4376 12.7083 13.1094 12.2604L14.1861 11.5426C14.6996 11.2002 15.3425 11.1142 15.928 11.3093L18 12L17.219 18.2481C17.0939 19.2489 16.2431 20 15.2344 20Z" fill="black"/>
<path d="M4.5 4H5H19H19.5M6 12L6.78101 18.2481C6.90612 19.2489 7.75692 20 8.76556 20H15.2344C16.2431 20 17.0939 19.2489 17.219 18.2481L18 12M6 12L8.07203 11.3093C8.65754 11.1142 9.30036 11.2002 9.81388 11.5426L10.8906 12.2604C11.5624 12.7083 12.4376 12.7083 13.1094 12.2604L14.1861 11.5426C14.6996 11.2002 15.3425 11.1142 15.928 11.3093L18 12M6 12L5.0625 4.5M18 12L18.9375 4.5" stroke="black" stroke-width="2" stroke-linecap="round" stroke-linejoin="round"/>
</svg>
