<svg width="24" height="24" viewBox="0 0 24 24" fill="none" xmlns="http://www.w3.org/2000/svg">
<path fill-rule="evenodd" clip-rule="evenodd" d="M20.1556 6.47322C20.1397 5.0133 18.9866 3.86012 17.5266 3.84425C15.0477 3.81731 9.9075 4.19286 6.50015 7.60021C3.70416 10.3962 3.58533 14.8992 6.34302 17.6568C9.1007 20.4145 13.6037 20.2957 16.3996 17.4997C19.807 14.0924 20.1825 8.95217 20.1556 6.47322ZM15.5354 8.46446C15.9259 8.85499 15.9259 9.48815 15.5354 9.87867L14.5582 10.8559L15.1445 11.0513C15.6685 11.226 15.9516 11.7923 15.777 12.3162C15.6023 12.8402 15.036 13.1233 14.5121 12.9487L12.9771 12.437L11.7298 13.6843L12.3161 13.8797C12.84 14.0544 13.1232 14.6207 12.9486 15.1447C12.7739 15.6686 12.2076 15.9518 11.6836 15.7771L10.511 15.3862C10.3927 15.3468 10.2778 15.3003 10.1668 15.2473L7.75723 17.6568L4.63591 20.7782C4.24538 21.1687 3.61222 21.1687 3.2217 20.7782C2.83117 20.3876 2.83117 19.7545 3.2217 19.364L6.34302 16.2426L8.75256 13.8331C8.69953 13.722 8.65306 13.6071 8.61364 13.4889L8.22276 12.3162C8.04811 11.7923 8.33127 11.226 8.85522 11.0513C9.37916 10.8767 9.94548 11.1598 10.1201 11.6838L10.3156 12.2701L11.5629 11.0228L11.0512 9.4878C10.8765 8.96385 11.1597 8.39753 11.6836 8.22289C12.2076 8.04824 12.7739 8.3314 12.9486 8.85534L13.144 9.44166L14.1212 8.46446C14.5117 8.07394 15.1449 8.07394 15.5354 8.46446Z" fill="black"/>
</svg>
