<svg width="24" height="24" viewBox="0 0 24 24" fill="none" xmlns="http://www.w3.org/2000/svg">
<path fill-rule="evenodd" clip-rule="evenodd" d="M11.5143 3.12584C11.8163 2.95805 12.1836 2.95805 12.4856 3.12584L21.4856 8.12584C21.8839 8.34714 22.0823 8.80974 21.968 9.25084C21.8537 9.69195 21.4556 10 21 10V19C21.5523 19 22 19.4477 22 20C22 20.5523 21.5523 21 21 21H2.99997C2.44769 21 1.99997 20.5523 1.99997 20C1.99997 19.4477 2.44769 19 2.99997 19V10C2.5443 10 2.14624 9.69195 2.03194 9.25084C1.91764 8.80974 2.116 8.34714 2.51433 8.12584L11.5143 3.12584ZM9 13C9 12.4477 8.55228 12 8 12C7.44772 12 7 12.4477 7 13V16C7 16.5523 7.44772 17 8 17C8.55228 17 9 16.5523 9 16V13ZM13 13C13 12.4477 12.5523 12 12 12C11.4477 12 11 12.4477 11 13V16C11 16.5523 11.4477 17 12 17C12.5523 17 13 16.5523 13 16V13ZM17 13C17 12.4477 16.5523 12 16 12C15.4477 12 15 12.4477 15 13V16C15 16.5523 15.4477 17 16 17C16.5523 17 17 16.5523 17 16V13Z" fill="black"/>
</svg>
