<svg width="24" height="24" viewBox="0 0 24 24" fill="none" xmlns="http://www.w3.org/2000/svg">
<path fill-rule="evenodd" clip-rule="evenodd" d="M8.12602 4H6C5.44772 4 5 4.44772 5 5C5 5.55228 5.44772 6 6 6H8.12602C8.04375 5.68038 8 5.3453 8 5C8 4.6547 8.04375 4.31962 8.12602 4ZM8.44518 6.83574C5.72581 8.31381 5 11.3546 5 13V18C5 19.6569 6.34315 21 8 21H8.02841C8.00967 20.8545 8 20.7062 8 20.5556V15C8 12.7909 9.79086 11 12 11C14.2091 11 16 12.7909 16 15V20.5556C16 20.7062 15.9903 20.8545 15.9716 21H16C17.6569 21 19 19.6569 19 18V13C19 11.3546 18.2742 8.31381 15.5548 6.83574C14.8896 8.12134 13.5474 9 12 9C10.4526 9 9.11043 8.12135 8.44518 6.83574ZM15.874 6H18C18.5523 6 19 5.55228 19 5C19 4.44772 18.5523 4 18 4H15.874C15.9562 4.31962 16 4.6547 16 5C16 5.3453 15.9562 5.68038 15.874 6ZM12 13C10.8954 13 10 13.8954 10 15V20.5556C10 21.3533 10.6467 22 11.4444 22H12.5556C13.3533 22 14 21.3533 14 20.5556V15C14 13.8954 13.1046 13 12 13ZM10 5C10 3.89543 10.8954 3 12 3C13.1046 3 14 3.89543 14 5C14 6.10457 13.1046 7 12 7C10.8954 7 10 6.10457 10 5Z" fill="black"/>
</svg>
