<svg width="24" height="24" viewBox="0 0 24 24" fill="none" xmlns="http://www.w3.org/2000/svg">
<path fill-rule="evenodd" clip-rule="evenodd" d="M9.00002 3C9.00002 2.44772 9.44774 2 10 2H14C14.5523 2 15 2.44772 15 3V5H18C18.2989 5 18.5821 5.13367 18.772 5.36439C18.962 5.59512 19.0388 5.89871 18.9814 6.19201L18.5436 8.42974L17.2169 8.13492L12.2169 7.02381C12.0741 6.99206 11.9259 6.99206 11.7831 7.02381L6.78307 8.13492L5.45644 8.42973L5.01863 6.19201C4.96124 5.89871 5.03805 5.59512 5.22801 5.36439C5.41797 5.13367 5.70116 5 6.00002 5H9.00002V3ZM2.90808 10.996L2.78309 11.0238C2.48249 11.0906 2.22943 11.2922 2.09708 11.5702C1.96474 11.8483 1.96788 12.1718 2.10559 12.4472L4.10559 16.4472C4.29809 16.8322 4.71534 17.0508 5.14144 16.9899L12 16.0102L18.8586 16.9899C19.2847 17.0508 19.702 16.8322 19.8944 16.4472L21.8944 12.4472C22.0322 12.1718 22.0353 11.8483 21.903 11.5702C21.7706 11.2922 21.5176 11.0906 21.217 11.0238L21.0919 10.996C20.9911 11.0053 20.8872 10.9993 20.7831 10.9762L16.7831 10.0873L12 9.02439L7.21693 10.0873L3.21693 10.9762C3.11281 10.9993 3.00888 11.0053 2.90808 10.996ZM9.26716 18.6047C10.7139 16.9512 13.2861 16.9512 14.7329 18.6047L14.7685 18.6454C15.2872 19.2382 16.1651 19.3548 16.8206 18.9178C17.7987 18.2657 19.0351 18.137 20.1265 18.5736L21.3714 19.0715C21.8842 19.2766 22.1336 19.8586 21.9285 20.3714C21.7234 20.8842 21.1414 21.1336 20.6286 20.9285L19.3837 20.4305C18.9038 20.2385 18.3601 20.2951 17.93 20.5819C16.4394 21.5756 14.443 21.3106 13.2633 19.9624L13.2277 19.9217C12.5778 19.1789 11.4223 19.1789 10.7723 19.9217L10.7367 19.9624C9.557 21.3106 7.56069 21.5756 6.07006 20.5819C5.63996 20.2951 5.09627 20.2385 4.61632 20.4305L3.37141 20.9285C2.85863 21.1336 2.27666 20.8842 2.07155 20.3714C1.86643 19.8586 2.11585 19.2766 2.62863 19.0715L3.87354 18.5736C4.96498 18.137 6.20138 18.2657 7.17946 18.9178C7.83495 19.3548 8.7128 19.2382 9.23157 18.6454L9.26716 18.6047Z" fill="black"/>
</svg>
