<svg width="24" height="24" viewBox="0 0 24 24" fill="none" xmlns="http://www.w3.org/2000/svg">
<path fill-rule="evenodd" clip-rule="evenodd" d="M8 5C8 3.34315 9.34315 2 11 2H13C14.6569 2 16 3.34315 16 5H18C19.6569 5 21 6.34315 21 8V18C21 19.6569 19.6569 21 18 21C18 21.5523 17.5523 22 17 22C16.4477 22 16 21.5523 16 21H8C8 21.5523 7.55228 22 7 22C6.44772 22 6 21.5523 6 21C4.34315 21 3 19.6569 3 18V8C3 6.34315 4.34315 5 6 5H8ZM10 5H14C14 4.44772 13.5523 4 13 4H11C10.4477 4 10 4.44772 10 5ZM10 10C10 9.44772 9.55228 9 9 9C8.44772 9 8 9.44772 8 10V16C8 16.5523 8.44772 17 9 17C9.55228 17 10 16.5523 10 16V10ZM16 10C16 9.44772 15.5523 9 15 9C14.4477 9 14 9.44772 14 10V16C14 16.5523 14.4477 17 15 17C15.5523 17 16 16.5523 16 16V10Z" fill="black"/>
</svg>
