<svg width="24" height="24" viewBox="0 0 24 24" fill="none" xmlns="http://www.w3.org/2000/svg">
<circle cx="12" cy="12" r="9" stroke="black" stroke-width="2" stroke-linecap="round" stroke-linejoin="round"/>
<path d="M13.5 6.00001H14C15.1046 6.00001 16 5.10458 16 4.00001C8.4 1.20001 4.5 6.50001 3.5 9.50001L7.66684 14.5928C7.88229 14.8561 8 15.1859 8 15.5261C8 16.3401 8.67282 17 9.48682 17C10.3153 17 11 17.6716 11 18.5V21C13.1667 20.8333 17.8 19.8 19 17H18C16.8954 17 16 16.1046 16 15C16 13.8954 15.1046 13 14 13H12C10.8954 13 10 12.1046 10 11V10C10 9.44773 10.4477 9.00001 11 9.00001C11.5523 9.00001 12 8.5523 12 8.00001V7.50001C12 6.67158 12.6716 6.00001 13.5 6.00001Z" fill="black" stroke="black" stroke-width="2" stroke-linecap="round" stroke-linejoin="round"/>
</svg>
