<svg width="24" height="24" viewBox="0 0 24 24" fill="none" xmlns="http://www.w3.org/2000/svg">
<path fill-rule="evenodd" clip-rule="evenodd" d="M11.2914 21.7056C11.2916 21.7058 11.2917 21.7059 12 21L11.2914 21.7056ZM12 21L12.7083 21.7059C12.5207 21.8942 12.2658 22 12 22C11.7342 22 11.4791 21.8939 11.2914 21.7056L11.2851 21.6992L11.2684 21.6824L11.2065 21.6194C11.153 21.5647 11.0753 21.4848 10.9771 21.3822C10.7806 21.1771 10.5014 20.881 10.1669 20.5138C9.49896 19.7803 8.60585 18.7576 7.71026 17.6046C6.81752 16.4553 5.90611 15.1559 5.21346 13.8707C4.53515 12.6122 4 11.2479 4 10C4 5.46096 7.59208 2 12 2C16.4079 2 20 5.46096 20 10C20 11.2479 19.4648 12.6122 18.7865 13.8707C18.0939 15.1559 17.1825 16.4553 16.2897 17.6046C15.3941 18.7576 14.501 19.7803 13.8331 20.5138C13.4986 20.881 13.2194 21.1771 13.0229 21.3822C12.9247 21.4848 12.847 21.5647 12.7935 21.6194L12.7316 21.6824L12.7149 21.6992L12.709 21.7052C12.7089 21.7054 12.7083 21.7059 12 21ZM13 7C13 6.44772 12.5523 6 12 6C11.4477 6 11 6.44772 11 7V9H9C8.44772 9 8 9.44772 8 10C8 10.5523 8.44772 11 9 11H11V13C11 13.5523 11.4477 14 12 14C12.5523 14 13 13.5523 13 13V11H15C15.5523 11 16 10.5523 16 10C16 9.44772 15.5523 9 15 9H13V7Z" fill="black"/>
</svg>
