<svg width="24" height="24" viewBox="0 0 24 24" fill="none" xmlns="http://www.w3.org/2000/svg">
<path fill-rule="evenodd" clip-rule="evenodd" d="M17 21C16.3536 21.763 16.3534 21.7629 16.3533 21.7627L16.3528 21.7623L16.3517 21.7614L16.3484 21.7586L16.3375 21.7492L16.2992 21.7161C16.2665 21.6878 16.2201 21.647 16.1617 21.5949C16.0451 21.4906 15.8805 21.3404 15.684 21.1525C15.2922 20.7779 14.767 20.2476 14.2388 19.6277C13.7135 19.0112 13.1673 18.2853 12.7479 17.5193C12.3354 16.766 12 15.892 12 15C12 13.4529 12.5381 12.1749 13.4903 11.2888C14.431 10.4134 15.6896 10 17 10C18.3104 10 19.569 10.4134 20.5097 11.2888C21.4619 12.1749 22 13.4529 22 15C22 15.892 21.6646 16.766 21.2521 17.5193C20.8327 18.2853 20.2865 19.0112 19.7612 19.6277C19.233 20.2476 18.7078 20.7779 18.316 21.1525C18.1195 21.3404 17.9549 21.4906 17.8383 21.5949C17.7799 21.647 17.7335 21.6878 17.7008 21.7161L17.6625 21.7492L17.6516 21.7586L17.6483 21.7614L17.6472 21.7623L17.6467 21.7627C17.6466 21.7629 17.6464 21.763 17 21ZM17 21L17.6464 21.763C17.2734 22.079 16.7266 22.079 16.3536 21.763L17 21ZM17 16C17.5523 16 18 15.5523 18 15C18 14.4477 17.5523 14 17 14C16.4477 14 16 14.4477 16 15C16 15.5523 16.4477 16 17 16Z" fill="black"/>
<path fill-rule="evenodd" clip-rule="evenodd" d="M22 4C22 3.63121 21.797 3.29235 21.4719 3.11833C21.1467 2.94431 20.7522 2.96338 20.4453 3.16795L15 6.79815L9.5547 3.16795C9.2188 2.94402 8.7812 2.94402 8.4453 3.16795L2.4453 7.16795C2.1671 7.35342 2 7.66565 2 8V20C2 20.3688 2.20298 20.7077 2.52814 20.8817C2.8533 21.0557 3.24784 21.0366 3.5547 20.8321L9 17.2019L9.74996 17.7018C9.49563 16.9946 9.33337 16.2516 9.33337 15.5C9.33337 13.1794 10.1585 11.2623 11.6185 9.93317C13.0609 8.62013 14.9908 8 17 8C18.837 8 20.6076 8.51834 22 9.61063V4Z" fill="black"/>
</svg>
