<svg width="24" height="24" viewBox="0 0 24 24" fill="none" xmlns="http://www.w3.org/2000/svg">
<path d="M5 9C6.10457 9 7 8.10457 7 7C7 5.89543 6.10457 5 5 5C3.89543 5 3 5.89543 3 7C3 8.10457 3.89543 9 5 9ZM5 9V10M5 17V16" stroke="black" stroke-width="2" stroke-linecap="round" stroke-linejoin="round"/>
<path d="M7 19C7 17.8954 6.10457 17 5 17C3.89543 17 3 17.8954 3 19C3 20.1046 3.89543 21 5 21C6.10457 21 7 20.1046 7 19Z" fill="black"/>
<path d="M7 19C7 17.8954 6.10457 17 5 17C3.89543 17 3 17.8954 3 19C3 20.1046 3.89543 21 5 21C6.10457 21 7 20.1046 7 19ZM7 19H8" stroke="black" stroke-width="2" stroke-linecap="round" stroke-linejoin="round"/>
<path d="M17 17C18.1046 17 19 17.8954 19 19C19 20.1046 18.1046 21 17 21C15.8954 21 15 20.1046 15 19M17 17C15.8954 17 15 17.8954 15 19M17 17V16M15 19H14" stroke="black" stroke-width="2" stroke-linecap="round" stroke-linejoin="round"/>
<circle cx="5" cy="13" r="1" fill="black"/>
<circle cx="11" cy="19" r="1" fill="black"/>
<path fill-rule="evenodd" clip-rule="evenodd" d="M17 13C16.3536 13.763 16.3534 13.7629 16.3533 13.7627L16.3528 13.7623L16.3517 13.7614L16.3484 13.7586L16.3375 13.7492L16.2992 13.7161C16.2665 13.6878 16.2201 13.647 16.1617 13.5949C16.0451 13.4906 15.8805 13.3404 15.684 13.1525C15.2922 12.7779 14.767 12.2476 14.2388 11.6277C13.7135 11.0112 13.1673 10.2853 12.7479 9.51932C12.3354 8.76597 12 7.89199 12 7C12 5.45291 12.5381 4.17486 13.4903 3.28878C14.431 2.41342 15.6896 2 17 2C18.3104 2 19.569 2.41342 20.5097 3.28878C21.4619 4.17486 22 5.45291 22 7C22 7.89199 21.6646 8.76597 21.2521 9.51932C20.8327 10.2853 20.2865 11.0112 19.7612 11.6277C19.233 12.2476 18.7078 12.7779 18.316 13.1525C18.1195 13.3404 17.9549 13.4906 17.8383 13.5949C17.7799 13.647 17.7335 13.6878 17.7008 13.7161L17.6625 13.7492L17.6516 13.7586L17.6483 13.7614L17.6472 13.7623L17.6467 13.7627C17.6466 13.7629 17.6464 13.763 17 13ZM17 13L17.6464 13.763C17.2734 14.079 16.7266 14.079 16.3536 13.763L17 13ZM17 8C17.5523 8 18 7.55228 18 7C18 6.44772 17.5523 6 17 6C16.4477 6 16 6.44772 16 7C16 7.55228 16.4477 8 17 8Z" fill="black"/>
</svg>
