<svg width="24" height="24" viewBox="0 0 24 24" fill="none" xmlns="http://www.w3.org/2000/svg">
<path d="M9 4L3 8V20L9 16L15 20L21 16V4L15 8L9 4Z" fill="black"/>
<path fill-rule="evenodd" clip-rule="evenodd" d="M21.4719 3.11833C21.797 3.29235 22 3.63121 22 4V16C22 16.3344 21.8329 16.6466 21.5547 16.8321L15.5547 20.8321C15.2188 21.056 14.7812 21.056 14.4453 20.8321L9 17.2019L3.5547 20.8321C3.24784 21.0366 2.8533 21.0557 2.52814 20.8817C2.20298 20.7077 2 20.3688 2 20V8C2 7.66565 2.1671 7.35342 2.4453 7.16795L8.4453 3.16795C8.7812 2.94402 9.2188 2.94402 9.5547 3.16795L15 6.79815L20.4453 3.16795C20.7522 2.96338 21.1467 2.94431 21.4719 3.11833ZM4 8.53519V18.1315L8.4453 15.168C8.7812 14.944 9.2188 14.944 9.5547 15.168L15 18.7982L20 15.4648V5.86852L15.5547 8.83205C15.2188 9.05598 14.7812 9.05598 14.4453 8.83205L9 5.20185L4 8.53519Z" fill="black"/>
</svg>
