<svg width="24" height="24" viewBox="0 0 24 24" fill="none" xmlns="http://www.w3.org/2000/svg">
<path d="M3 3L21 21" stroke="black" stroke-width="2" stroke-linecap="round" stroke-linejoin="round"/>
<path fill-rule="evenodd" clip-rule="evenodd" d="M4.78183 5.61026L2.4453 7.16795C2.1671 7.35342 2 7.66565 2 8V20C2 20.3688 2.20298 20.7077 2.52814 20.8817C2.8533 21.0557 3.24784 21.0366 3.5547 20.8321L9 17.2019L14.4453 20.8321C14.7812 21.056 15.2188 21.056 15.5547 20.8321L18.2241 19.0525L4.78183 5.61026ZM21.6161 16.7877C21.8573 16.5991 22 16.309 22 16V4C22 3.63121 21.797 3.29235 21.4719 3.11833C21.1467 2.94431 20.7522 2.96338 20.4453 3.16795L15 6.79815L9.5547 3.16795C9.2188 2.94402 8.7812 2.94402 8.4453 3.16795L8.17595 3.34752L21.6161 16.7877Z" fill="black"/>
</svg>
