<svg width="24" height="24" viewBox="0 0 24 24" fill="none" xmlns="http://www.w3.org/2000/svg">
<path fill-rule="evenodd" clip-rule="evenodd" d="M8.4453 3.16795C8.74389 2.96889 9.12624 2.94509 9.44721 3.10558L15 5.88197L20.5528 3.10558C20.8628 2.95058 21.2309 2.96714 21.5257 3.14935C21.8205 3.33156 22 3.65342 22 4V16C22 16.3344 21.8329 16.6466 21.5547 16.8321L15.5547 20.8321C15.2561 21.0311 14.8738 21.0549 14.5528 20.8944L9 18.118L3.44721 20.8944C3.13723 21.0494 2.76909 21.0329 2.47427 20.8507C2.17945 20.6684 2 20.3466 2 20V8C2 7.66565 2.1671 7.35342 2.4453 7.16795L8.4453 3.16795ZM5 12.001C5 12.5533 5.44772 13.001 6 13.001C6.55228 13.001 7 12.5533 7 12.001V12C7 11.4477 6.55228 11 6 11C5.44772 11 5 11.4477 5 12V12.001ZM10 13.001C9.44772 13.001 9 12.5533 9 12.001V12C9 11.4477 9.44772 11 10 11C10.5523 11 11 11.4477 11 12V12.001C11 12.5533 10.5523 13.001 10 13.001ZM14.7071 9.2929C14.3166 8.90237 13.6834 8.90237 13.2929 9.2929C12.9024 9.68342 12.9024 10.3166 13.2929 10.7071L14.5858 12L13.2929 13.2929C12.9024 13.6834 12.9024 14.3166 13.2929 14.7071C13.6834 15.0976 14.3166 15.0976 14.7071 14.7071L16 13.4142L17.2929 14.7071C17.6834 15.0976 18.3166 15.0976 18.7071 14.7071C19.0976 14.3166 19.0976 13.6834 18.7071 13.2929L17.4142 12L18.7071 10.7071C19.0976 10.3166 19.0976 9.68342 18.7071 9.2929C18.3166 8.90237 17.6834 8.90237 17.2929 9.2929L16 10.5858L14.7071 9.2929Z" fill="black"/>
</svg>
