<svg width="24" height="24" viewBox="0 0 24 24" fill="none" xmlns="http://www.w3.org/2000/svg">
<path d="M18 16.0156C19.2447 16.5445 20 17.2392 20 18C20 19.6568 16.4183 21 12 21C7.58172 21 4 19.6568 4 18C4 17.2392 4.75527 16.5445 6 16.0156" stroke="black" stroke-width="2" stroke-linecap="round" stroke-linejoin="round"/>
<path fill-rule="evenodd" clip-rule="evenodd" d="M11.2621 17.6749C11.2622 17.675 11.2623 17.6752 12 17L11.2621 17.6749ZM12.7383 17.6745L12.7428 17.6696L12.7551 17.6561L12.8001 17.6062C12.8389 17.563 12.8949 17.5002 12.9657 17.4197C13.1072 17.2589 13.308 17.0271 13.5483 16.7397C14.0281 16.166 14.67 15.3656 15.3141 14.4628C15.9557 13.5633 16.6137 12.5425 17.115 11.5296C17.6047 10.5402 18 9.45108 18 8.44444C18 4.87053 15.3823 2 12 2C8.61771 2 6 4.87053 6 8.44444C6 9.45108 6.39532 10.5402 6.88502 11.5296C7.38634 12.5425 8.04427 13.5633 8.68591 14.4628C9.32997 15.3656 9.97185 16.166 10.4517 16.7397C10.692 17.0271 10.8928 17.2589 11.0343 17.4197C11.1051 17.5002 11.1611 17.563 11.1999 17.6062L11.2449 17.6561L11.2572 17.6696L11.2621 17.6749C11.4515 17.8819 11.7194 18 12 18C12.2806 18 12.5488 17.8815 12.7383 17.6745ZM12 17L12.7383 17.6745C12.7381 17.6747 12.7377 17.6752 12 17ZM12 6C10.8954 6 10 6.89543 10 8C10 9.10457 10.8954 10 12 10C13.1046 10 14 9.10457 14 8C14 6.89543 13.1046 6 12 6Z" fill="black"/>
</svg>
