<svg width="24" height="24" viewBox="0 0 24 24" fill="none" xmlns="http://www.w3.org/2000/svg">
<path fill-rule="evenodd" clip-rule="evenodd" d="M1.00003 11C1.00003 5.83274 6.14466 2 12 2C17.8554 2 23 5.83274 23 11C23 16.1673 17.8554 20 12 20C10.8021 20 9.64621 19.8437 8.56263 19.5533C7.77846 20.215 6.97278 20.797 6.02384 21.2248C4.89236 21.7348 3.61633 22 2.00003 22C1.59557 22 1.23093 21.7564 1.07615 21.3827C0.921369 21.009 1.00692 20.5789 1.29292 20.2929C2.16871 19.4171 3.1358 18.379 3.66073 16.8769C2.02853 15.3265 1.00003 13.2801 1.00003 11ZM8 6C7.44772 6 7 6.44772 7 7C7 7.55228 7.44772 8 8 8H16C16.5523 8 17 7.55228 17 7C17 6.44772 16.5523 6 16 6H8ZM8 10C7.44772 10 7 10.4477 7 11C7 11.5523 7.44772 12 8 12H16C16.5523 12 17 11.5523 17 11C17 10.4477 16.5523 10 16 10H8ZM8 14C7.44772 14 7 14.4477 7 15C7 15.5523 7.44772 16 8 16H11C11.5523 16 12 15.5523 12 15C12 14.4477 11.5523 14 11 14H8Z" fill="black"/>
</svg>
