<svg width="24" height="24" viewBox="0 0 24 24" fill="none" xmlns="http://www.w3.org/2000/svg">
<path fill-rule="evenodd" clip-rule="evenodd" d="M2.00003 12C2.00003 6.47715 6.47718 2 12 2C17.5229 2 22 6.47715 22 12C22 17.5228 17.5229 22 12 22C10.2069 22 8.52163 21.5272 7.06485 20.6992L3.31625 21.9487C2.95692 22.0685 2.56075 21.9749 2.29292 21.7071C2.02509 21.4393 1.93157 21.0431 2.05134 20.6838L3.30088 16.9352C2.47283 15.4784 2.00003 13.7931 2.00003 12ZM8 7C7.44772 7 7 7.44772 7 8C7 8.55228 7.44772 9 8 9H16C16.5523 9 17 8.55228 17 8C17 7.44772 16.5523 7 16 7H8ZM8 11C7.44772 11 7 11.4477 7 12C7 12.5523 7.44772 13 8 13H16C16.5523 13 17 12.5523 17 12C17 11.4477 16.5523 11 16 11H8ZM8 15C7.44772 15 7 15.4477 7 16C7 16.5523 7.44772 17 8 17H11C11.5523 17 12 16.5523 12 16C12 15.4477 11.5523 15 11 15H8Z" fill="black"/>
</svg>
