<svg width="24" height="24" viewBox="0 0 24 24" fill="none" xmlns="http://www.w3.org/2000/svg">
<path fill-rule="evenodd" clip-rule="evenodd" d="M2.00003 12C2.00003 6.47715 6.47718 2 12 2C17.5229 2 22 6.47715 22 12C22 17.5228 17.5229 22 12 22C10.2069 22 8.52163 21.5272 7.06485 20.6992L3.31625 21.9487C2.95692 22.0685 2.56075 21.9749 2.29292 21.7071C2.02509 21.4393 1.93157 21.0431 2.05134 20.6838L3.30088 16.9352C2.47283 15.4784 2.00003 13.7931 2.00003 12ZM12.2213 4.24781C11.6827 4.1256 11.147 4.46314 11.0248 5.00174C10.9026 5.54033 11.2401 6.07602 11.7787 6.19823C14.768 6.87653 17.1235 9.23203 17.8018 12.2213C17.924 12.7599 18.4597 13.0974 18.9983 12.9752C19.5369 12.853 19.8744 12.3173 19.7522 11.7787C18.9035 8.03847 15.9615 5.09652 12.2213 4.24781ZM9 9C9 8.44772 9.44772 8 10 8C13.3137 8 16 10.6863 16 14C16 14.5523 15.5523 15 15 15C14.4477 15 14 14.5523 14 14C14 11.7909 12.2091 10 10 10C9.44772 10 9 9.55228 9 9ZM10 12C9.44772 12 9 12.4477 9 13C9 13.5523 9.44772 14 10 14C10 14.5523 10.4477 15 11 15C11.5523 15 12 14.5523 12 14C12 12.8954 11.1046 12 10 12Z" fill="black"/>
</svg>
