<svg width="24" height="24" viewBox="0 0 24 24" fill="none" xmlns="http://www.w3.org/2000/svg">
<path fill-rule="evenodd" clip-rule="evenodd" d="M2 6C2 4.34315 3.34315 3 5 3H19C20.6569 3 22 4.34315 22 6V16C22 17.6569 20.6569 19 19 19H14.8284C14.5632 19 14.3089 19.1054 14.1213 19.2929L12.254 21.1602C11.0532 22.361 9 21.5105 9 19.8123C9 19.3637 8.63631 19 8.18767 19H5C3.34315 19 2 17.6569 2 16V6ZM7 6C6.44772 6 6 6.44772 6 7C6 7.55228 6.44772 8 7 8H17C17.5523 8 18 7.55228 18 7C18 6.44772 17.5523 6 17 6H7ZM7 10C6.44772 10 6 10.4477 6 11C6 11.5523 6.44772 12 7 12H17C17.5523 12 18 11.5523 18 11C18 10.4477 17.5523 10 17 10H7ZM7 14C6.44772 14 6 14.4477 6 15C6 15.5523 6.44772 16 7 16H11C11.5523 16 12 15.5523 12 15C12 14.4477 11.5523 14 11 14H7Z" fill="black"/>
</svg>
