<svg width="24" height="24" viewBox="0 0 24 24" fill="none" xmlns="http://www.w3.org/2000/svg">
<path fill-rule="evenodd" clip-rule="evenodd" d="M2.34484 2.24456C2.65039 1.97956 3.08549 1.92471 3.44726 2.10559L21.4473 11.1056C21.786 11.275 22 11.6212 22 12C22 12.3788 21.786 12.725 21.4473 12.8944L3.44726 21.8944C3.08549 22.0753 2.65039 22.0205 2.34484 21.7555C2.03929 21.4905 1.92346 21.0675 2.05136 20.6838L4.61262 13H10C10.5523 13 11 12.5523 11 12C11 11.4477 10.5523 11 10 11H4.61262L2.05136 3.31624C1.92346 2.93254 2.03929 2.50956 2.34484 2.24456Z" fill="black"/>
</svg>
