<svg width="25" height="24" viewBox="0 0 25 24" fill="none" xmlns="http://www.w3.org/2000/svg">
<path d="M17.8461 3.86603C15.248 2.36603 11.6499 2.59808 10.1499 5.19615L13.614 7.19615M17.8461 3.86603C20.4441 5.36603 22.0422 8.59808 20.5422 11.1962L15.3461 8.19615M17.8461 3.86603L18.3461 3M17.8461 3.86603C16.0247 4.35406 14.864 5.03109 13.614 7.19615M17.8461 3.86603C18.3341 5.68739 18.3281 7.03109 17.0781 9.19615M15.3461 8.19615L13.614 7.19615M15.3461 8.19615L12.3461 13.3923" stroke="black" stroke-width="2" stroke-linecap="round" stroke-linejoin="round"/>
<path d="M3.1499 21L4.02969 19.9443C4.85671 18.9518 6.39331 18.9912 7.16842 20.0247V20.0247C7.93166 21.0423 9.43818 21.0991 10.2758 20.1418L10.4668 19.9236C11.3578 18.9052 12.942 18.9052 13.833 19.9236L14.024 20.1418C14.8616 21.0991 16.3681 21.0423 17.1314 20.0247V20.0247C17.9065 18.9912 19.4431 18.9518 20.2701 19.9443L21.1499 21" stroke="black" stroke-width="2" stroke-linecap="round" stroke-linejoin="round"/>
<path d="M6.85815 16C8.26842 14.7553 10.1209 14 12.1498 14C14.1787 14 16.0312 14.7553 17.4415 16" stroke="black" stroke-width="2" stroke-linecap="round" stroke-linejoin="round"/>
</svg>
