<svg width="25" height="24" viewBox="0 0 25 24" fill="none" xmlns="http://www.w3.org/2000/svg">
<path d="M15.15 15L18.5287 11.6213C18.9265 11.2235 19.4661 11 20.0287 11H20.15C21.2546 11 22.15 11.8954 22.15 13V13C22.15 14.1046 21.2546 15 20.15 15H4.15002C3.04546 15 2.15002 14.1046 2.15002 13V13C2.15002 11.8954 3.04545 11 4.15002 11L8.66474 11C10.256 11 11.7822 11.6321 12.9074 12.7574L15.15 15Z" stroke="black" stroke-width="2" stroke-linecap="round" stroke-linejoin="round"/>
<path d="M3.15002 15H21.15V17C21.15 18.6569 19.8069 20 18.15 20H6.15002C4.49317 20 3.15002 18.6569 3.15002 17V15Z" stroke="black" stroke-width="2" stroke-linecap="round" stroke-linejoin="round"/>
<path d="M12.15 4C7.52674 4 3.71768 5.75576 3.20798 10.0009C3.14214 10.5493 3.59774 11 4.15002 11H20.15C20.7023 11 21.1579 10.5493 21.0921 10.0009C20.5824 5.75576 16.7733 4 12.15 4Z" stroke="black" stroke-width="2" stroke-linecap="round" stroke-linejoin="round"/>
<path d="M7.15102 8H7.15002" stroke="black" stroke-width="2" stroke-linecap="round" stroke-linejoin="round"/>
<path d="M15.151 7H15.15" stroke="black" stroke-width="2" stroke-linecap="round" stroke-linejoin="round"/>
<path d="M12.151 8H12.15" stroke="black" stroke-width="2" stroke-linecap="round" stroke-linejoin="round"/>
</svg>
