<svg width="25" height="24" viewBox="0 0 25 24" fill="none" xmlns="http://www.w3.org/2000/svg">
<path d="M6.15002 19V19C5.04545 19 4.15002 18.1046 4.15002 17V13M6.15002 19V20.5C6.15002 20.7761 6.37388 21 6.65002 21V21C6.92617 21 7.15002 20.7761 7.15002 20.5V19M6.15002 19H7.15002M18.15 19V19C19.2546 19 20.15 18.1046 20.15 17V13M18.15 19V20.5C18.15 20.7761 17.9262 21 17.65 21V21C17.3739 21 17.15 20.7761 17.15 20.5V19M18.15 19H17.15M4.15002 13V7M4.15002 13H12.15M20.15 13V7M20.15 13H12.15M7.15002 19H17.15M4.15002 7V7C4.15002 4.79086 5.94089 3 8.15002 3H16.15C18.3592 3 20.15 4.79086 20.15 7V7M4.15002 7H12.15M20.15 7H12.15M12.15 7V13" stroke="black" stroke-width="2" stroke-linecap="round" stroke-linejoin="round"/>
<path d="M8.15002 16H8.15102" stroke="black" stroke-width="2" stroke-linecap="round" stroke-linejoin="round"/>
<path d="M16.15 16H16.151" stroke="black" stroke-width="2" stroke-linecap="round" stroke-linejoin="round"/>
</svg>
