<svg width="25" height="24" viewBox="0 0 25 24" fill="none" xmlns="http://www.w3.org/2000/svg">
<path d="M7.1499 9V6C7.1499 4.89543 8.04533 4 9.1499 4H19.1499C20.2545 4 21.1499 4.89543 21.1499 6V18C21.1499 19.1046 20.2545 20 19.1499 20H13.1499M13.1499 20V13.8284C13.1499 13.298 12.9392 12.7893 12.5641 12.4142L9.56412 9.41421C8.78307 8.63317 7.51674 8.63316 6.73569 9.41421L3.73569 12.4142C3.36062 12.7893 3.1499 13.298 3.1499 13.8284V18C3.1499 19.1046 4.04533 20 5.1499 20H8.1499M13.1499 20H8.1499M8.1499 16V20" stroke="black" stroke-width="2" stroke-linecap="round" stroke-linejoin="round"/>
<path d="M17.1509 8H17.1499" stroke="black" stroke-width="2" stroke-linecap="round" stroke-linejoin="round"/>
<path d="M13.1509 8H13.1499" stroke="black" stroke-width="2" stroke-linecap="round" stroke-linejoin="round"/>
<path d="M17.1509 12H17.1499" stroke="black" stroke-width="2" stroke-linecap="round" stroke-linejoin="round"/>
<path d="M17.1509 16H17.1499" stroke="black" stroke-width="2" stroke-linecap="round" stroke-linejoin="round"/>
</svg>
