<svg width="25" height="24" viewBox="0 0 25 24" fill="none" xmlns="http://www.w3.org/2000/svg">
<path d="M20.1499 19V10.5C20.1499 10.1852 20.0017 9.88885 19.7499 9.7L12.7499 4.45C12.3943 4.18333 11.9055 4.18333 11.5499 4.45L4.5499 9.7C4.2981 9.88885 4.1499 10.1852 4.1499 10.5V19C4.1499 19.5523 4.59762 20 5.1499 20H9.1499C9.70219 20 10.1499 19.5523 10.1499 19V16C10.1499 15.4477 10.5976 15 11.1499 15H13.1499C13.7022 15 14.1499 15.4477 14.1499 16V19C14.1499 19.5523 14.5976 20 15.1499 20H19.1499C19.7022 20 20.1499 19.5523 20.1499 19Z" stroke="black" stroke-width="2" stroke-linecap="round" stroke-linejoin="round"/>
</svg>
