<svg width="24" height="24" viewBox="0 0 24 24" fill="none" xmlns="http://www.w3.org/2000/svg">
<path d="M7.05019 16.9498C9.39334 19.2929 13.2627 19.2225 15.6926 16.7926C18.7928 13.6924 19.1823 8.92401 19.1557 6.4841C19.1458 5.56796 18.432 4.85417 17.5158 4.84421C15.0759 4.81769 10.3075 5.20715 7.20733 8.30733C4.7774 10.7373 4.70705 14.6066 7.05019 16.9498ZM7.05019 16.9498L4.92887 19.0711M7.05019 16.9498L12.707 11.2929M14.8284 9.17158L12.707 11.2929M12.707 11.2929L14.8284 12M12.707 11.2929L11.9999 9.17158M11.9999 14.8284L10.8273 14.4376C10.2301 14.2385 9.76146 13.7698 9.56239 13.1726L9.17151 12" stroke="black" stroke-width="2" stroke-linecap="round" stroke-linejoin="round"/>
</svg>
