<svg width="25" height="24" viewBox="0 0 25 24" fill="none" xmlns="http://www.w3.org/2000/svg">
<path d="M15.1499 6V5C15.1499 3.89543 14.2545 3 13.1499 3H11.1499C10.0453 3 9.1499 3.89543 9.1499 5V6M15.1499 6H18.1499C19.2545 6 20.1499 6.89543 20.1499 8V18C20.1499 19.1046 19.2545 20 18.1499 20H17.1499M15.1499 6H9.1499M9.1499 6H6.1499C5.04533 6 4.1499 6.89543 4.1499 8V18C4.1499 19.1046 5.04533 20 6.1499 20H7.1499M9.1499 10V16M15.1499 16V10M7.1499 20V21M7.1499 20H17.1499M17.1499 20V21" stroke="black" stroke-width="2" stroke-linecap="round" stroke-linejoin="round"/>
</svg>
