<svg width="25" height="24" viewBox="0 0 25 24" fill="none" xmlns="http://www.w3.org/2000/svg">
<path d="M15.1499 8V6C15.1499 4.89543 14.2545 4 13.1499 4H11.1499C10.0453 4 9.1499 4.89543 9.1499 6V8M15.1499 8H19.1499C20.2545 8 21.1499 8.89543 21.1499 10V18C21.1499 19.1046 20.2545 20 19.1499 20H7.1499M15.1499 8H9.1499M9.1499 8H7.1499M7.1499 8H5.1499C4.04533 8 3.1499 8.89543 3.1499 10V18C3.1499 19.1046 4.04533 20 5.1499 20H7.1499M7.1499 8V20M17.1499 8V20" stroke="black" stroke-width="2" stroke-linecap="round" stroke-linejoin="round"/>
</svg>
