<svg width="25" height="24" viewBox="0 0 25 24" fill="none" xmlns="http://www.w3.org/2000/svg">
<path d="M3.1499 10V5C3.1499 4.44772 3.59762 4 4.1499 4H8.1499C8.1499 5 8.9499 7 12.1499 7C15.3499 7 16.1499 5 16.1499 4H20.1499C20.7022 4 21.1499 4.44772 21.1499 5V10C21.1499 10.5523 20.7022 11 20.1499 11H19.1499C18.5976 11 18.1499 11.4477 18.1499 12V19C18.1499 19.5523 17.7022 20 17.1499 20H7.1499C6.59762 20 6.1499 19.5523 6.1499 19V12C6.1499 11.4477 5.70219 11 5.1499 11H4.1499C3.59762 11 3.1499 10.5523 3.1499 10Z" stroke="black" stroke-width="2" stroke-linecap="round" stroke-linejoin="round"/>
</svg>
