<svg width="24" height="24" viewBox="0 0 24 24" fill="none" xmlns="http://www.w3.org/2000/svg">
<path d="M5 16.6573C3.7492 15.1116 3 13.1433 3 11C3 6.02944 7.02944 3 12 3C16.9706 3 21 6.02944 21 11C21 13.1433 20.2508 15.1116 19 16.6573M5 16.6573V19C5 20.1046 5.89543 21 7 21H17C18.1046 21 19 20.1046 19 19V16.6573M5 16.6573H6.5M19 16.6573H17.5" stroke="black" stroke-width="2" stroke-linecap="round" stroke-linejoin="round"/>
<circle cx="8" cy="12" r="1" stroke="black" stroke-width="2" stroke-linecap="round" stroke-linejoin="round"/>
<path d="M11 16L12 14L13 16H11Z" stroke="black" stroke-width="2" stroke-linecap="round" stroke-linejoin="round"/>
<path d="M9 19V21" stroke="black" stroke-width="2" stroke-linecap="round" stroke-linejoin="round"/>
<path d="M12 19V21" stroke="black" stroke-width="2" stroke-linecap="round" stroke-linejoin="round"/>
<path d="M15 19V21" stroke="black" stroke-width="2" stroke-linecap="round" stroke-linejoin="round"/>
<circle cx="16" cy="12" r="1" stroke="black" stroke-width="2" stroke-linecap="round" stroke-linejoin="round"/>
</svg>
