<svg width="120" height="40" viewBox="0 0 120 40" fill="none" xmlns="http://www.w3.org/2000/svg">
<g clip-path="url(#clip0_56_13479)">
<path d="M110.135 0.0001H9.5347C9.168 0.0001 8.8057 0.0001 8.4399 0.0021C8.1338 0.0041 7.8301 0.0099 7.521 0.0148C6.84951 0.0226987 6.17961 0.0817698 5.5171 0.1915C4.85552 0.303619 4.21466 0.515003 3.6162 0.8185C3.01849 1.12458 2.47236 1.52229 1.9976 1.9972C1.52032 2.4707 1.12245 3.01802 0.8193 3.6181C0.515343 4.21707 0.304583 4.85893 0.1943 5.5215C0.0829944 6.18321 0.0231153 6.85254 0.0152 7.5235C0.0059 7.8301 0.0049 8.1378 0 8.4444V31.5587C0.0049 31.8692 0.0059 32.17 0.0152 32.4806C0.0231507 33.1515 0.0830633 33.8208 0.1944 34.4825C0.304387 35.1454 0.515159 35.7876 0.8194 36.3868C1.12237 36.985 1.52026 37.5302 1.9976 38.0011C2.47056 38.4781 3.01705 38.8761 3.6162 39.1798C4.21465 39.4841 4.85544 39.6968 5.5171 39.8106C6.17972 39.9195 6.84956 39.9786 7.521 39.9874C7.83 39.9942 8.1338 39.9981 8.44 39.9981C8.8057 40.0001 9.168 40.0001 9.5347 40.0001H110.135C110.494 40.0001 110.859 40.0001 111.219 39.9981C111.523 39.9981 111.836 39.9942 112.141 39.9874C112.811 39.979 113.479 39.9199 114.141 39.8106C114.804 39.6959 115.448 39.4834 116.049 39.1798C116.648 38.8759 117.194 38.4779 117.666 38.0011C118.142 37.5283 118.541 36.9836 118.848 36.3868C119.15 35.7872 119.358 35.145 119.467 34.4825C119.578 33.8207 119.64 33.1516 119.652 32.4806C119.656 32.17 119.656 31.8692 119.656 31.5587C119.664 31.1954 119.664 30.8341 119.664 30.4649V9.5362C119.664 9.17 119.664 8.8067 119.656 8.4444C119.656 8.1378 119.656 7.8302 119.652 7.5235C119.64 6.85248 119.578 6.1833 119.467 5.5215C119.358 4.85935 119.149 4.21758 118.848 3.6182C118.23 2.41528 117.252 1.43611 116.049 0.8184C115.448 0.515647 114.804 0.30432 114.141 0.1914C113.48 0.0812031 112.811 0.0221282 112.141 0.0147C111.836 0.0097 111.523 0.0039 111.219 0.002C110.859 0 110.494 0.0001 110.135 0.0001Z" fill="#A6A6A6"/>
<path d="M8.44485 39.125C8.14015 39.125 7.84285 39.1211 7.54055 39.1143C6.91434 39.1061 6.2896 39.0516 5.67145 38.9512C5.09505 38.8519 4.53668 38.6673 4.01475 38.4033C3.49759 38.1415 3.0259 37.7983 2.61775 37.3867C2.20365 36.98 1.8589 36.5083 1.59715 35.9902C1.33254 35.4688 1.14941 34.9099 1.05415 34.333C0.951271 33.7131 0.895611 33.0863 0.887647 32.458C0.881347 32.2471 0.873047 31.5449 0.873047 31.5449V8.4443C0.873047 8.4443 0.881947 7.7529 0.887747 7.5498C0.895366 6.92251 0.950693 6.2967 1.05325 5.6778C1.14869 5.09928 1.33197 4.53875 1.59675 4.0156C1.8575 3.4979 2.20029 3.0258 2.61185 2.6176C3.02297 2.20556 3.49619 1.86057 4.01425 1.5952C4.53498 1.33206 5.09231 1.14868 5.66755 1.0512C6.28774 0.94982 6.91467 0.895034 7.54305 0.8873L8.44535 0.875H111.214L112.127 0.8877C112.75 0.895098 113.371 0.949452 113.986 1.0503C114.567 1.14897 115.13 1.33359 115.656 1.5981C116.694 2.13296 117.539 2.97917 118.071 4.0181C118.332 4.5376 118.512 5.09352 118.607 5.667C118.71 6.291 118.769 6.92174 118.78 7.5542C118.783 7.8374 118.783 8.1416 118.783 8.4443C118.791 8.8193 118.791 9.1763 118.791 9.5361V30.4648C118.791 30.8281 118.791 31.1826 118.783 31.54C118.783 31.8652 118.783 32.1631 118.779 32.4697C118.768 33.0909 118.711 33.7104 118.608 34.3232C118.515 34.9043 118.333 35.4675 118.068 35.9932C117.805 36.5056 117.462 36.9733 117.053 37.3789C116.644 37.7927 116.172 38.1379 115.654 38.4014C115.128 38.6674 114.566 38.8527 113.986 38.9512C113.367 39.0522 112.743 39.1067 112.116 39.1143C111.817 39.1213 111.518 39.1249 111.219 39.125L110.135 39.127L8.44485 39.125Z" fill="black"/>
<path d="M24.7691 20.2991C24.7798 19.4645 25.0015 18.6461 25.4135 17.9202C25.8256 17.1943 26.4145 16.5843 27.1256 16.1472C26.6738 15.502 26.0779 14.971 25.3851 14.5964C24.6923 14.2219 23.9217 14.014 23.1345 13.9894C21.4552 13.8132 19.8273 14.9943 18.9715 14.9943C18.0993 14.9943 16.7818 14.0068 15.3631 14.036C14.4454 14.0657 13.551 14.3325 12.7671 14.8106C11.9832 15.2887 11.3365 15.9616 10.8901 16.7639C8.95607 20.1123 10.3987 25.0335 12.2514 27.74C13.1783 29.0654 14.2615 30.5459 15.679 30.4934C17.066 30.4359 17.584 29.6088 19.2584 29.6088C20.9172 29.6088 21.4032 30.4933 22.8494 30.4599C24.3378 30.4357 25.2755 29.1288 26.1699 27.7909C26.8358 26.8465 27.3483 25.8028 27.6883 24.6983C26.8236 24.3326 26.0856 23.7204 25.5665 22.9381C25.0474 22.1558 24.7701 21.238 24.7691 20.2991ZM22.0375 12.2094C22.849 11.2351 23.2488 9.98297 23.152 8.71875C21.9121 8.84897 20.7669 9.44152 19.9444 10.3784C19.5422 10.836 19.2342 11.3685 19.038 11.9452C18.8417 12.522 18.7611 13.1318 18.8007 13.7397C19.4208 13.7461 20.0343 13.6117 20.595 13.3466C21.1557 13.0815 21.6489 12.6927 22.0375 12.2094Z" fill="white"/>
<path d="M42.3028 27.1358H37.5694L36.4327 30.4923H34.4277L38.9112 18.0743H40.9942L45.4776 30.4923H43.4385L42.3028 27.1358ZM38.0596 25.587H41.8116L39.962 20.1397H39.9102L38.0596 25.587ZM55.1602 25.9659C55.1602 28.7794 53.6543 30.587 51.3819 30.587C50.8063 30.6171 50.2338 30.4845 49.7299 30.2044C49.2261 29.9242 48.8114 29.5079 48.5332 29.003H48.4902V33.4874H46.6318V21.4386H48.4307V22.9444H48.4649C48.7559 22.4419 49.1776 22.0277 49.6852 21.7459C50.1929 21.464 50.7674 21.3251 51.3477 21.3438C53.6455 21.3438 55.1602 23.1603 55.1602 25.9659ZM53.25 25.9659C53.25 24.1329 52.3028 22.9279 50.8575 22.9279C49.4375 22.9279 48.4825 24.1583 48.4825 25.9659C48.4825 27.7901 49.4375 29.0119 50.8575 29.0119C52.3028 29.0119 53.25 27.8155 53.25 25.9659ZM65.125 25.9659C65.125 28.7794 63.6192 30.587 61.3467 30.587C60.7711 30.6171 60.1986 30.4845 59.6948 30.2043C59.191 29.9242 58.7763 29.5079 58.4981 29.003H58.4551V33.4874H56.5967V21.4386H58.3955V22.9444H58.4297C58.7207 22.4419 59.1424 22.0278 59.6501 21.7459C60.1577 21.4641 60.7322 21.3252 61.3125 21.3439C63.6104 21.3439 65.125 23.1603 65.125 25.9659ZM63.2149 25.9659C63.2149 24.1329 62.2676 22.9279 60.8223 22.9279C59.4023 22.9279 58.4473 24.1583 58.4473 25.9659C58.4473 27.7901 59.4023 29.0119 60.8223 29.0119C62.2676 29.0119 63.2149 27.8155 63.2149 25.9659ZM71.711 27.0323C71.8487 28.2638 73.045 29.0723 74.6797 29.0723C76.2461 29.0723 77.3731 28.2637 77.3731 27.1533C77.3731 26.1895 76.6934 25.6123 75.0841 25.2169L73.4746 24.8292C71.1944 24.2784 70.1358 23.212 70.1358 21.4815C70.1358 19.3389 72.003 17.8672 74.6543 17.8672C77.2783 17.8672 79.0772 19.3389 79.1377 21.4815H77.2617C77.1494 20.2422 76.125 19.4942 74.6279 19.4942C73.1308 19.4942 72.1065 20.251 72.1065 21.3526C72.1065 22.2306 72.7608 22.7471 74.3613 23.1426L75.7295 23.4786C78.2773 24.0811 79.336 25.1046 79.336 26.9209C79.336 29.2442 77.4854 30.6992 74.542 30.6992C71.788 30.6992 69.9287 29.2783 69.8086 27.0322L71.711 27.0323ZM83.3467 19.296V21.4386H85.0684V22.9103H83.3467V27.9015C83.3467 28.6769 83.6914 29.0382 84.4483 29.0382C84.6527 29.0346 84.8568 29.0203 85.0596 28.9952V30.4581C84.7194 30.5217 84.3735 30.5505 84.0274 30.5441C82.1944 30.5441 81.4795 29.8555 81.4795 28.0997V22.9102H80.1631V21.4385H81.4795V19.2959L83.3467 19.296ZM86.0655 25.9659C86.0655 23.1173 87.7432 21.3273 90.3595 21.3273C92.9845 21.3273 94.6544 23.1173 94.6544 25.9659C94.6544 28.8224 92.9932 30.6046 90.3594 30.6046C87.7266 30.6046 86.0655 28.8224 86.0655 25.9659ZM92.7608 25.9659C92.7608 24.0119 91.8653 22.8585 90.3594 22.8585C88.8535 22.8585 87.959 24.0206 87.959 25.9659C87.959 27.9279 88.8536 29.0724 90.3594 29.0724C91.8652 29.0724 92.7608 27.9278 92.7608 25.9659ZM96.1865 21.4386H97.959V22.9796H98.002C98.1219 22.4983 98.4039 22.0729 98.8005 21.775C99.1971 21.4771 99.6842 21.3248 100.18 21.3438C100.394 21.3431 100.608 21.3663 100.817 21.4132V23.1515C100.546 23.0689 100.264 23.0309 99.9815 23.0392C99.7116 23.0282 99.4424 23.0758 99.1926 23.1787C98.9427 23.2816 98.7181 23.4373 98.5341 23.6352C98.3502 23.8331 98.2112 24.0685 98.1268 24.3252C98.0423 24.5818 98.0145 24.8537 98.045 25.1222V30.4922H96.1865V21.4386ZM109.385 27.8332C109.135 29.4767 107.534 30.6046 105.486 30.6046C102.853 30.6046 101.218 28.8399 101.218 26.0089C101.218 23.1691 102.861 21.3273 105.408 21.3273C107.913 21.3273 109.488 23.0479 109.488 25.7931V26.4298H103.094V26.5421C103.064 26.8753 103.106 27.2109 103.216 27.5268C103.326 27.8426 103.503 28.1314 103.733 28.3739C103.963 28.6165 104.243 28.8072 104.552 28.9335C104.862 29.0598 105.195 29.1188 105.529 29.1065C105.969 29.1477 106.409 29.046 106.786 28.8165C107.163 28.5871 107.455 28.2422 107.62 27.8331L109.385 27.8332ZM103.103 25.131H107.629C107.646 24.8314 107.6 24.5316 107.496 24.2504C107.391 23.9691 107.229 23.7126 107.021 23.4968C106.812 23.2811 106.561 23.1107 106.284 22.9965C106.006 22.8823 105.708 22.8266 105.408 22.8331C105.106 22.8313 104.806 22.8894 104.526 23.0042C104.246 23.1189 103.991 23.288 103.777 23.5016C103.562 23.7153 103.392 23.9693 103.277 24.2489C103.161 24.5286 103.102 24.8284 103.103 25.131Z" fill="white"/>
<path d="M37.8262 8.7315C38.2158 8.70354 38.6068 8.76239 38.9709 8.90382C39.335 9.04525 39.6632 9.26573 39.9318 9.54935C40.2003 9.83297 40.4026 10.1727 40.524 10.5439C40.6454 10.9152 40.6829 11.3088 40.6338 11.6963C40.6338 13.6026 39.6035 14.6983 37.8262 14.6983H35.6709V8.7315H37.8262ZM36.5977 13.8545H37.7227C38.0011 13.8711 38.2797 13.8255 38.5382 13.7208C38.7968 13.6162 39.0287 13.4553 39.2172 13.2497C39.4057 13.0442 39.546 12.7991 39.6278 12.5325C39.7097 12.2659 39.7311 11.9844 39.6904 11.7085C39.7281 11.4337 39.7046 11.1539 39.6214 10.8892C39.5383 10.6246 39.3977 10.3816 39.2097 10.1777C39.0216 9.97373 38.7908 9.81391 38.5337 9.70967C38.2766 9.60543 37.9997 9.55934 37.7227 9.5747H36.5977V13.8545ZM41.6807 12.4448C41.6524 12.1489 41.6862 11.8503 41.7801 11.5682C41.8739 11.2862 42.0257 11.0268 42.2256 10.8068C42.4255 10.5869 42.6692 10.4111 42.9411 10.2908C43.2129 10.1705 43.5069 10.1084 43.8042 10.1084C44.1015 10.1084 44.3955 10.1705 44.6673 10.2908C44.9392 10.4111 45.1829 10.5869 45.3828 10.8068C45.5827 11.0268 45.7345 11.2862 45.8283 11.5682C45.9222 11.8503 45.956 12.1489 45.9277 12.4448C45.9566 12.7411 45.9232 13.0401 45.8297 13.3227C45.7361 13.6053 45.5845 13.8652 45.3845 14.0857C45.1845 14.3061 44.9406 14.4823 44.6684 14.6029C44.3963 14.7235 44.1019 14.7858 43.8042 14.7858C43.5065 14.7858 43.2121 14.7235 42.94 14.6029C42.6678 14.4823 42.4239 14.3061 42.2239 14.0857C42.0239 13.8652 41.8723 13.6053 41.7787 13.3227C41.6852 13.0401 41.6518 12.7411 41.6807 12.4448ZM45.0137 12.4448C45.0137 11.4688 44.5752 10.898 43.8057 10.898C43.0332 10.898 42.5987 11.4688 42.5987 12.4448C42.5987 13.4288 43.0333 13.9951 43.8057 13.9951C44.5752 13.9951 45.0137 13.4248 45.0137 12.4448ZM51.5733 14.6982H50.6513L49.7207 11.3818H49.6504L48.7237 14.6983H47.8106L46.5694 10.1953H47.4707L48.2774 13.6313H48.3438L49.2696 10.1953H50.1221L51.0479 13.6313H51.1182L51.9209 10.1953H52.8096L51.5733 14.6982ZM53.8535 10.1953H54.709V10.9106H54.7754C54.8881 10.6537 55.0781 10.4383 55.319 10.2945C55.5598 10.1507 55.8396 10.0857 56.1192 10.1084C56.3383 10.0919 56.5583 10.125 56.7629 10.2051C56.9675 10.2852 57.1514 10.4103 57.3011 10.5711C57.4508 10.732 57.5624 10.9244 57.6276 11.1342C57.6928 11.344 57.71 11.5658 57.6778 11.7832V14.6982H56.7891V12.0064C56.7891 11.2827 56.4746 10.9229 55.8174 10.9229C55.6687 10.916 55.5202 10.9413 55.3821 10.9971C55.2441 11.053 55.1197 11.138 55.0176 11.2463C54.9155 11.3547 54.838 11.4839 54.7905 11.625C54.7429 11.7661 54.7265 11.9158 54.7422 12.0639V14.6983H53.8535V10.1953ZM59.0938 8.4375H59.9824V14.6982H59.0938V8.4375ZM61.2178 12.4448C61.1895 12.1488 61.2233 11.8502 61.3172 11.5681C61.411 11.286 61.5628 11.0266 61.7628 10.8066C61.9627 10.5866 62.2065 10.4108 62.4784 10.2905C62.7503 10.1702 63.0443 10.1081 63.3416 10.1081C63.6389 10.1081 63.9329 10.1702 64.2048 10.2905C64.4767 10.4108 64.7205 10.5866 64.9204 10.8066C65.1204 11.0266 65.2722 11.286 65.366 11.5681C65.4599 11.8502 65.4937 12.1488 65.4654 12.4448C65.4942 12.741 65.4607 13.04 65.367 13.3225C65.2734 13.605 65.1217 13.8648 64.9217 14.0852C64.7217 14.3055 64.4778 14.4817 64.2057 14.6022C63.9335 14.7227 63.6392 14.7849 63.3416 14.7849C63.044 14.7849 62.7497 14.7227 62.4775 14.6022C62.2054 14.4817 61.9615 14.3055 61.7615 14.0852C61.5615 13.8648 61.4098 13.605 61.3162 13.3225C61.2225 13.04 61.189 12.741 61.2178 12.4448ZM64.5508 12.4448C64.5508 11.4688 64.1123 10.898 63.3428 10.898C62.5703 10.898 62.1358 11.4688 62.1358 12.4448C62.1358 13.4288 62.5704 13.9951 63.3428 13.9951C64.1123 13.9951 64.5508 13.4248 64.5508 12.4448ZM66.4009 13.4248C66.4009 12.6143 67.0044 12.147 68.0757 12.0806L69.2954 12.0103V11.6216C69.2954 11.146 68.981 10.8775 68.3736 10.8775C67.8775 10.8775 67.5337 11.0595 67.4351 11.3779H66.5747C66.6655 10.6045 67.3931 10.1084 68.4146 10.1084C69.5435 10.1084 70.1802 10.6704 70.1802 11.6216V14.6983H69.3247V14.0654H69.2544C69.1117 14.2924 68.9113 14.4774 68.6737 14.6016C68.4361 14.7259 68.1697 14.7848 67.9019 14.7724C67.7129 14.7921 67.5218 14.7719 67.3411 14.7132C67.1603 14.6545 66.9938 14.5586 66.8524 14.4316C66.711 14.3046 66.5978 14.1495 66.52 13.976C66.4422 13.8026 66.4017 13.6148 66.4009 13.4248ZM69.2954 13.04V12.6636L68.1958 12.7339C67.5757 12.7754 67.2944 12.9863 67.2944 13.3833C67.2944 13.7886 67.646 14.0244 68.1294 14.0244C68.271 14.0387 68.4141 14.0244 68.5501 13.9824C68.6861 13.9403 68.8123 13.8713 68.9211 13.7794C69.0298 13.6876 69.119 13.5748 69.1834 13.4478C69.2477 13.3208 69.2858 13.182 69.2954 13.04ZM71.3482 12.4448C71.3482 11.022 72.0796 10.1206 73.2173 10.1206C73.4987 10.1076 73.778 10.175 74.0226 10.3149C74.2671 10.4548 74.4667 10.6614 74.5982 10.9106H74.6646V8.4375H75.5532V14.6982H74.7017V13.9868H74.6314C74.4898 14.2343 74.2832 14.4383 74.034 14.5768C73.7847 14.7152 73.5023 14.7829 73.2174 14.7724C72.0718 14.7725 71.3482 13.8711 71.3482 12.4448ZM72.2662 12.4448C72.2662 13.3999 72.7164 13.9746 73.4692 13.9746C74.2182 13.9746 74.6812 13.3916 74.6812 12.4488C74.6812 11.5103 74.2134 10.919 73.4692 10.919C72.7212 10.919 72.2662 11.4976 72.2662 12.4448ZM79.23 12.4448C79.2017 12.1489 79.2355 11.8503 79.3294 11.5682C79.4232 11.2862 79.575 11.0268 79.7749 10.8068C79.9748 10.5869 80.2185 10.4111 80.4904 10.2908C80.7622 10.1705 81.0562 10.1084 81.3535 10.1084C81.6508 10.1084 81.9448 10.1705 82.2166 10.2908C82.4885 10.4111 82.7322 10.5869 82.9321 10.8068C83.132 11.0268 83.2838 11.2862 83.3776 11.5682C83.4715 11.8503 83.5053 12.1489 83.477 12.4448C83.5059 12.7411 83.4725 13.0401 83.379 13.3227C83.2854 13.6053 83.1338 13.8652 82.9338 14.0857C82.7338 14.3061 82.4899 14.4823 82.2177 14.6029C81.9456 14.7235 81.6512 14.7858 81.3535 14.7858C81.0558 14.7858 80.7614 14.7235 80.4893 14.6029C80.2171 14.4823 79.9732 14.3061 79.7732 14.0857C79.5732 13.8652 79.4216 13.6053 79.328 13.3227C79.2345 13.0401 79.2011 12.7411 79.23 12.4448ZM82.563 12.4448C82.563 11.4688 82.1245 10.898 81.355 10.898C80.5825 10.898 80.148 11.4688 80.148 12.4448C80.148 13.4288 80.5826 13.9951 81.355 13.9951C82.1245 13.9951 82.563 13.4248 82.563 12.4448ZM84.6694 10.1953H85.5249V10.9106H85.5913C85.704 10.6537 85.894 10.4383 86.1349 10.2945C86.3757 10.1507 86.6555 10.0857 86.9351 10.1084C87.1542 10.0919 87.3742 10.125 87.5788 10.2051C87.7834 10.2852 87.9673 10.4103 88.117 10.5711C88.2667 10.732 88.3783 10.9244 88.4435 11.1342C88.5087 11.344 88.5258 11.5658 88.4937 11.7832V14.6982H87.605V12.0064C87.605 11.2827 87.2905 10.9229 86.6333 10.9229C86.4846 10.916 86.3361 10.9413 86.198 10.9971C86.06 11.053 85.9356 11.138 85.8335 11.2463C85.7314 11.3547 85.6539 11.4839 85.6064 11.625C85.5588 11.7661 85.5424 11.9158 85.5581 12.0639V14.6983H84.6695L84.6694 10.1953ZM93.5152 9.0742V10.2158H94.4908V10.9644H93.5152V13.2798C93.5152 13.7515 93.7095 13.958 94.1519 13.958C94.2651 13.9576 94.3783 13.9508 94.4907 13.9375V14.6777C94.3311 14.7063 94.1694 14.7215 94.0073 14.7232C93.0191 14.7232 92.6255 14.3755 92.6255 13.5073V10.9643H91.9107V10.2158H92.6255V9.0742H93.5152ZM95.7046 8.4375H96.5855V10.919H96.6558C96.7739 10.6597 96.9691 10.4431 97.2148 10.2987C97.4605 10.1543 97.7448 10.0893 98.0288 10.1123C98.2468 10.1004 98.4647 10.1368 98.6669 10.2189C98.8692 10.3009 99.0509 10.4266 99.199 10.5869C99.3471 10.7473 99.458 10.9383 99.5238 11.1464C99.5896 11.3546 99.6087 11.5747 99.5796 11.791V14.6983H98.69V12.0103C98.69 11.291 98.355 10.9268 97.7271 10.9268C97.5744 10.9143 97.4207 10.9353 97.277 10.9883C97.1332 11.0414 97.0027 11.1252 96.8948 11.234C96.7868 11.3427 96.7038 11.4737 96.6518 11.6178C96.5997 11.762 96.5797 11.9158 96.5933 12.0684V14.6982H95.7046V8.4375ZM104.761 13.4825C104.641 13.894 104.379 14.25 104.022 14.4882C103.666 14.7263 103.236 14.8315 102.81 14.7852C102.513 14.793 102.219 14.7362 101.946 14.6187C101.674 14.5012 101.43 14.3257 101.232 14.1046C101.034 13.8834 100.887 13.6219 100.8 13.338C100.713 13.0542 100.689 12.7549 100.73 12.4609C100.69 12.166 100.715 11.8661 100.801 11.5814C100.888 11.2967 101.034 11.034 101.231 10.8109C101.428 10.5878 101.671 10.4097 101.942 10.2885C102.214 10.1673 102.509 10.1059 102.806 10.1084C104.059 10.1084 104.815 10.9644 104.815 12.3784V12.6885H101.635V12.7383C101.621 12.9035 101.642 13.0699 101.696 13.2266C101.75 13.3834 101.837 13.5271 101.95 13.6485C102.062 13.77 102.2 13.8665 102.352 13.9319C102.504 13.9973 102.669 14.0301 102.835 14.0283C103.047 14.0538 103.262 14.0156 103.453 13.9183C103.644 13.8211 103.802 13.6694 103.906 13.4824L104.761 13.4825ZM101.635 12.0313H103.91C103.921 11.8802 103.9 11.7284 103.849 11.5857C103.798 11.4429 103.718 11.3125 103.614 11.2026C103.509 11.0928 103.383 11.0059 103.243 10.9478C103.103 10.8896 102.953 10.8613 102.801 10.8648C102.648 10.8629 102.495 10.8917 102.353 10.9497C102.21 11.0076 102.081 11.0935 101.972 11.2022C101.864 11.3109 101.778 11.4403 101.72 11.5827C101.662 11.7251 101.633 11.8776 101.635 12.0313Z" fill="white"/>
</g>
<defs>
<clipPath id="clip0_56_13479">
<rect width="119.664" height="40" fill="white"/>
</clipPath>
</defs>
</svg>
