<svg width="135" height="45" viewBox="0 0 135 45" fill="none" xmlns="http://www.w3.org/2000/svg">
<g clip-path="url(#clip0_56_11666)">
<path d="M129.5 0H5.5C2.46243 0 0 2.46243 0 5.5V39.5C0 42.5376 2.46243 45 5.5 45H129.5C132.538 45 135 42.5376 135 39.5V5.5C135 2.46243 132.538 0 129.5 0Z" fill="black"/>
<path d="M130 0.8C131.114 0.8 132.182 1.2425 132.97 2.03015C133.758 2.8178 134.2 3.88609 134.2 5V40C134.2 40.5516 134.091 41.0977 133.88 41.6073C133.669 42.1168 133.36 42.5798 132.97 42.9698C132.58 43.3599 132.117 43.6692 131.607 43.8803C131.098 44.0914 130.552 44.2 130 44.2H5C4.44845 44.2 3.9023 44.0914 3.39273 43.8803C2.88316 43.6692 2.42016 43.3599 2.03015 42.9698C1.64015 42.5798 1.33078 42.1168 1.11971 41.6073C0.908636 41.0977 0.8 40.5516 0.8 40V5C0.8 3.88609 1.2425 2.8178 2.03015 2.03015C2.8178 1.2425 3.88609 0.8 5 0.8H130ZM130 0H5C3.67392 0 2.40215 0.526784 1.46447 1.46447C0.526784 2.40215 0 3.67392 0 5V40C0 41.3261 0.526784 42.5979 1.46447 43.5355C2.40215 44.4732 3.67392 45 5 45H130C131.326 45 132.598 44.4732 133.536 43.5355C134.473 42.5979 135 41.3261 135 40V5C135 3.67392 134.473 2.40215 133.536 1.46447C132.598 0.526784 131.326 0 130 0Z" fill="#A6A6A6"/>
<path d="M47.4191 12.7375C47.4361 13.1043 47.3784 13.4707 47.2495 13.8145C47.1205 14.1583 46.9231 14.4724 46.6691 14.7375C46.3855 15.0321 46.043 15.2636 45.6639 15.417C45.2849 15.5703 44.8778 15.6421 44.4691 15.6275C43.8491 15.6227 43.2443 15.435 42.7305 15.0879C42.2167 14.7408 41.8168 14.2498 41.5808 13.6764C41.3448 13.1031 41.2833 12.4728 41.404 11.8646C41.5246 11.2564 41.8221 10.6974 42.2591 10.2575C42.5463 9.96431 42.8906 9.73315 43.2708 9.57835C43.6509 9.42354 44.0588 9.34839 44.4691 9.35753C44.8919 9.35612 45.3104 9.4412 45.6991 9.60753C46.061 9.75348 46.3831 9.98309 46.6391 10.2775L46.1091 10.8075C45.9095 10.5701 45.6574 10.3824 45.3728 10.2592C45.0882 10.1359 44.7788 10.0806 44.4691 10.0975C44.1567 10.096 43.8473 10.1576 43.5593 10.2785C43.2713 10.3995 43.0107 10.5774 42.7931 10.8015C42.5756 11.0256 42.4055 11.2913 42.2931 11.5828C42.1807 11.8742 42.1283 12.1854 42.1391 12.4975C42.1325 12.9637 42.2642 13.4213 42.5174 13.8127C42.7707 14.2041 43.1342 14.5117 43.562 14.6968C43.9899 14.8818 44.463 14.936 44.9216 14.8525C45.3803 14.769 45.8039 14.5515 46.1391 14.2275C46.4468 13.8941 46.6243 13.461 46.6391 13.0075H44.4691V12.2875H47.3791C47.4058 12.436 47.4192 12.5866 47.4191 12.7375ZM51.9991 10.2375H49.2991V12.1375H51.7591V12.8575H49.2991V14.7575H51.9991V15.4975H48.4991V9.49753H51.9991V10.2375ZM55.2791 15.4975H54.5091V10.2375H52.8291V9.49753H56.9991V10.2375H55.2791V15.4975ZM59.9391 15.4975V9.49753H60.7091V15.4975H59.9391ZM64.1291 15.4975H63.3591V10.2375H61.6791V9.49753H65.7991V10.2375H64.1291V15.4975ZM73.6091 14.7175C73.0245 15.2989 72.2336 15.6252 71.4091 15.6252C70.5846 15.6252 69.7937 15.2989 69.2091 14.7175C68.6409 14.1161 68.3243 13.32 68.3243 12.4925C68.3243 11.6651 68.6409 10.869 69.2091 10.2675C69.4972 9.97727 69.84 9.74691 70.2176 9.5897C70.5951 9.4325 71.0001 9.35156 71.4091 9.35156C71.8181 9.35156 72.2231 9.4325 72.6006 9.5897C72.9782 9.74691 73.321 9.97727 73.6091 10.2675C74.1796 10.8679 74.4977 11.6644 74.4977 12.4925C74.4977 13.3207 74.1796 14.1172 73.6091 14.7175ZM69.7791 14.2175C70.212 14.6487 70.7981 14.8907 71.4091 14.8907C72.0201 14.8907 72.6062 14.6487 73.0391 14.2175C73.4663 13.7465 73.703 13.1334 73.703 12.4975C73.703 11.8616 73.4663 11.2485 73.0391 10.7775C72.6062 10.3464 72.0201 10.1044 71.4091 10.1044C70.7981 10.1044 70.212 10.3464 69.7791 10.7775C69.3519 11.2485 69.1152 11.8616 69.1152 12.4975C69.1152 13.1334 69.3519 13.7465 69.7791 14.2175ZM75.5791 15.4975V9.49753H76.5191L79.4391 14.1675V9.49753H80.2091V15.4975H79.4091L76.3591 10.6075V15.4975H75.5791Z" fill="white" stroke="white" stroke-width="0.2" stroke-miterlimit="10"/>
<path d="M68.1401 24.2472C67.3004 24.2511 66.4807 24.5038 65.7844 24.9731C65.0881 25.4425 64.5465 26.1077 64.2279 26.8846C63.9093 27.6615 63.828 28.5154 63.9942 29.3385C64.1605 30.1616 64.5668 30.917 65.162 31.5094C65.7571 32.1018 66.5144 32.5046 67.3383 32.6669C68.1622 32.8293 69.0157 32.744 69.7911 32.4217C70.5665 32.0995 71.2291 31.5547 71.6952 30.8563C72.1613 30.1578 72.4101 29.3369 72.4101 28.4972C72.4183 27.9351 72.3132 27.3772 72.1013 26.8565C71.8893 26.3359 71.5748 25.8632 71.1764 25.4667C70.7779 25.0701 70.3038 24.7578 69.7822 24.5483C69.2606 24.3388 68.7021 24.2364 68.1401 24.2472ZM68.1401 31.0772C67.6237 31.1133 67.1083 30.9932 66.6611 30.7326C66.2138 30.4719 65.8553 30.0827 65.6321 29.6156C65.409 29.1485 65.3315 28.6251 65.4098 28.1133C65.4881 27.6016 65.7185 27.1253 66.0711 26.7462C66.4237 26.3672 66.8821 26.103 67.3869 25.988C67.8916 25.8729 68.4193 25.9124 68.9013 26.1013C69.3833 26.2901 69.7973 26.6196 70.0896 27.0469C70.3819 27.4742 70.5388 27.9795 70.5401 28.4972C70.5562 28.8252 70.5065 29.1531 70.3938 29.4616C70.2812 29.7701 70.1079 30.0529 69.8842 30.2934C69.6606 30.5338 69.391 30.7271 69.0914 30.8617C68.7919 30.9963 68.4684 31.0696 68.1401 31.0772ZM58.8301 24.2472C57.99 24.2492 57.1692 24.5001 56.4717 24.9683C55.7741 25.4365 55.2309 26.1009 54.9108 26.8777C54.5906 27.6545 54.5079 28.5087 54.673 29.3324C54.8381 30.1562 55.2437 30.9125 55.8384 31.5059C56.4332 32.0993 57.1905 32.5031 58.0146 32.6662C58.8388 32.8294 59.6928 32.7447 60.4688 32.4227C61.2448 32.1007 61.908 31.556 62.3745 30.8573C62.8411 30.1586 63.0901 29.3373 63.0901 28.4972C63.0982 27.9351 62.9932 27.3772 62.7813 26.8565C62.5693 26.3359 62.2548 25.8632 61.8564 25.4667C61.4579 25.0701 60.9838 24.7578 60.4622 24.5483C59.9406 24.3388 59.3821 24.2364 58.8201 24.2472H58.8301ZM58.8301 31.0772C58.3134 31.1153 57.7972 30.9971 57.3487 30.7377C56.9002 30.4784 56.5402 30.0901 56.3155 29.6233C56.0907 29.1565 56.0118 28.6328 56.0888 28.1205C56.1658 27.6082 56.3953 27.1309 56.7474 26.7509C57.0995 26.3708 57.5578 26.1056 58.0628 25.9896C58.5677 25.8737 59.0959 25.9125 59.5785 26.1009C60.0611 26.2893 60.4757 26.6187 60.7685 27.0461C61.0613 27.4735 61.2187 27.9791 61.2201 28.4972C61.2362 28.8252 61.1865 29.1531 61.0738 29.4616C60.9612 29.7701 60.7879 30.0529 60.5642 30.2934C60.3406 30.5338 60.071 30.7271 59.7714 30.8617C59.4719 30.9963 59.1484 31.0696 58.8201 31.0772H58.8301ZM47.7401 25.5572V27.3572H52.0601C51.9924 28.205 51.6399 29.005 51.0601 29.6272C50.6279 30.0674 50.1083 30.4123 49.5348 30.6396C48.9613 30.867 48.3465 30.9717 47.7301 30.9472C46.4571 30.9472 45.2362 30.4415 44.336 29.5413C43.4358 28.6411 42.9301 27.4202 42.9301 26.1472C42.9301 24.8742 43.4358 23.6533 44.336 22.7531C45.2362 21.8529 46.4571 21.3472 47.7301 21.3472C48.9479 21.3273 50.1239 21.7912 51.0001 22.6372L52.2701 21.3672C51.6786 20.7682 50.9728 20.2941 50.1947 19.9729C49.4166 19.6516 48.5819 19.4899 47.7401 19.4972C46.8511 19.4626 45.9643 19.6078 45.1327 19.9242C44.3012 20.2405 43.5421 20.7215 42.9009 21.3382C42.2596 21.9549 41.7495 22.6948 41.4011 23.5134C41.0527 24.332 40.873 25.2125 40.873 26.1022C40.873 26.9919 41.0527 27.8724 41.4011 28.691C41.7495 29.5096 42.2596 30.2494 42.9009 30.8662C43.5421 31.4829 44.3012 31.9639 45.1327 32.2802C45.9643 32.5966 46.8511 32.7418 47.7401 32.7072C48.5961 32.7459 49.4504 32.6008 50.2455 32.2817C51.0407 31.9626 51.7583 31.4768 52.3501 30.8572C53.3978 29.7061 53.9571 28.1929 53.9101 26.6372C53.9133 26.2582 53.8798 25.8797 53.8101 25.5072L47.7401 25.5572ZM93.0501 26.9572C92.7893 26.1899 92.3016 25.52 91.6516 25.036C91.0016 24.5521 90.2199 24.277 89.4101 24.2472C88.8631 24.2461 88.3217 24.3573 87.8193 24.5737C87.317 24.7902 86.8644 25.1074 86.4895 25.5057C86.1146 25.904 85.8254 26.375 85.6397 26.8896C85.4541 27.4041 85.3759 27.9513 85.4101 28.4972C85.3979 29.0561 85.4986 29.6117 85.706 30.1309C85.9133 30.65 86.2232 31.1221 86.6171 31.5188C87.0111 31.9155 87.4809 32.2287 87.9985 32.4398C88.5162 32.6508 89.0711 32.7554 89.6301 32.7472C90.3296 32.751 91.0191 32.5812 91.6369 32.2531C92.2547 31.925 92.7815 31.4488 93.1701 30.8672L91.7201 29.8672C91.5037 30.228 91.1973 30.5264 90.8309 30.7332C90.4646 30.9401 90.0508 31.0483 89.6301 31.0472C89.1969 31.0637 88.7688 30.9495 88.4014 30.7194C88.034 30.4894 87.7444 30.1541 87.5701 29.7572L93.2601 27.4072L93.0501 26.9572ZM87.2501 28.3772C87.2298 28.0679 87.2715 27.7576 87.3726 27.4646C87.4737 27.1716 87.6323 26.9017 87.8391 26.6708C88.0458 26.4398 88.2966 26.2524 88.5766 26.1196C88.8567 25.9868 89.1604 25.9112 89.4701 25.8972C89.7927 25.8759 90.1144 25.9499 90.3953 26.1099C90.6762 26.2699 90.9039 26.5089 91.0501 26.7972L87.2501 28.3772ZM82.6301 32.4972H84.5001V19.9972H82.6301V32.4972ZM79.5701 25.1972H79.5001C79.2183 24.8821 78.873 24.6301 78.487 24.4578C78.101 24.2854 77.6829 24.1966 77.2601 24.1972C76.1673 24.2502 75.1367 24.7216 74.3821 25.5138C73.6274 26.3059 73.2064 27.3581 73.2064 28.4522C73.2064 29.5463 73.6274 30.5984 74.3821 31.3906C75.1367 32.1828 76.1673 32.6542 77.2601 32.7072C77.6839 32.7143 78.104 32.6285 78.491 32.4557C78.8781 32.2829 79.2225 32.0274 79.5001 31.7072H79.5601V32.3172C79.5601 33.9472 78.6901 34.8172 77.2901 34.8172C76.8238 34.8063 76.3713 34.6569 75.9902 34.388C75.6091 34.1191 75.3167 33.7428 75.1501 33.3072L73.5201 33.9872C73.8269 34.7335 74.3497 35.3712 75.0214 35.8184C75.6931 36.2657 76.4831 36.502 77.2901 36.4972C79.4801 36.4972 81.2901 35.2072 81.2901 32.0672V24.4972H79.5701V25.1972ZM77.4301 31.0772C76.7851 31.0203 76.1847 30.7239 75.7474 30.2464C75.31 29.7688 75.0675 29.1447 75.0675 28.4972C75.0675 27.8496 75.31 27.2256 75.7474 26.748C76.1847 26.2705 76.7851 25.974 77.4301 25.9172C77.7499 25.9336 78.0632 26.0139 78.3516 26.1532C78.6399 26.2926 78.8974 26.4883 79.1089 26.7287C79.3205 26.9691 79.4818 27.2494 79.5833 27.5532C79.6848 27.8569 79.7245 28.1779 79.7001 28.4972C79.7274 28.8179 79.6893 29.1408 79.5883 29.4463C79.4872 29.7519 79.3252 30.0338 79.1121 30.275C78.8989 30.5161 78.6391 30.7116 78.3483 30.8495C78.0575 30.9874 77.7417 31.0648 77.4201 31.0772H77.4301ZM101.81 19.9972H97.3401V32.4972H99.2101V27.7572H101.82C102.353 27.7955 102.888 27.7236 103.392 27.5459C103.896 27.3683 104.358 27.0887 104.749 26.7247C105.14 26.3606 105.452 25.9199 105.665 25.43C105.879 24.9401 105.989 24.4115 105.989 23.8772C105.989 23.3429 105.879 22.8143 105.665 22.3244C105.452 21.8344 105.14 21.3937 104.749 21.0297C104.358 20.6657 103.896 20.3861 103.392 20.2085C102.888 20.0308 102.353 19.9589 101.82 19.9972H101.81ZM101.81 25.9972H99.2001V21.7372H101.85C102.419 21.7372 102.965 21.9632 103.367 22.3654C103.769 22.7677 103.995 23.3133 103.995 23.8822C103.995 24.4511 103.769 24.9967 103.367 25.3989C102.965 25.8012 102.419 26.0272 101.85 26.0272L101.81 25.9972ZM113.34 24.1972C112.659 24.1565 111.981 24.3156 111.39 24.6549C110.798 24.9942 110.319 25.499 110.01 26.1072L111.67 26.7972C111.834 26.4955 112.082 26.248 112.383 26.0846C112.685 25.9213 113.028 25.8492 113.37 25.8772C113.607 25.8495 113.848 25.8693 114.078 25.9355C114.307 26.0017 114.521 26.113 114.708 26.2629C114.894 26.4128 115.048 26.5982 115.162 26.8084C115.276 27.0186 115.346 27.2494 115.37 27.4872V27.6172C114.769 27.2992 114.1 27.1343 113.42 27.1372C111.63 27.1372 109.82 28.1372 109.82 29.9472C109.838 30.3331 109.933 30.7116 110.099 31.0602C110.266 31.4089 110.5 31.7206 110.789 31.977C111.078 32.2334 111.416 32.4292 111.782 32.5529C112.148 32.6766 112.535 32.7257 112.92 32.6972C113.391 32.731 113.862 32.6374 114.285 32.4263C114.707 32.2151 115.065 31.8942 115.32 31.4972H115.38V32.4972H117.18V27.6872C117.18 25.4972 115.52 24.2272 113.39 24.2272L113.34 24.1972ZM113.11 31.0472C112.5 31.0472 111.65 30.7372 111.65 29.9872C111.65 28.9872 112.71 28.6572 113.65 28.6572C114.244 28.6425 114.831 28.7876 115.35 29.0772C115.288 29.6186 115.031 30.1192 114.629 30.4867C114.227 30.8542 113.705 31.0639 113.16 31.0772L113.11 31.0472ZM123.74 24.4972L121.6 29.9172H121.54L119.32 24.4972H117.32L120.65 32.0772L118.75 36.2872H120.7L125.82 24.4972H123.74ZM106.93 32.4972H108.8V19.9972H106.93V32.4972Z" fill="white"/>
<path d="M10.4401 10.0388C10.1142 10.4299 9.9497 10.9305 9.98014 11.4388V33.5588C9.9497 34.067 10.1142 34.5676 10.4401 34.9587L10.5101 35.0287L22.9001 22.6488V22.3588L10.5101 9.96875L10.4401 10.0388Z" fill="url(#paint0_linear_56_11666)"/>
<path d="M27.0004 26.7787L22.9004 22.6488V22.3588L27.0004 18.2188L27.0904 18.2688L32.0004 21.0588C33.4004 21.8488 33.4004 23.1488 32.0004 23.9488L27.1104 26.7288L27.0004 26.7787Z" fill="url(#paint1_linear_56_11666)"/>
<path d="M27.1195 26.72L22.8995 22.5L10.4395 34.96C10.7248 35.2109 11.0888 35.3541 11.4686 35.3651C11.8484 35.376 12.2201 35.254 12.5195 35.02L27.1295 26.72" fill="url(#paint2_linear_56_11666)"/>
<path d="M27.1197 18.2786L12.5097 9.97858C12.2103 9.7446 11.8387 9.62254 11.4589 9.63349C11.0791 9.64445 10.715 9.78773 10.4297 10.0386L22.8997 22.4986L27.1197 18.2786Z" fill="url(#paint3_linear_56_11666)"/>
<path opacity="0.2" d="M26.9995 26.6328L12.5095 34.8828C12.2207 35.0987 11.8699 35.2153 11.5095 35.2153C11.149 35.2153 10.7982 35.0987 10.5095 34.8828L10.4395 34.9528L10.5095 35.0228C10.7975 35.2402 11.1486 35.3578 11.5095 35.3578C11.8703 35.3578 12.2214 35.2402 12.5095 35.0228L27.1195 26.7228L26.9995 26.6328Z" fill="black"/>
<path opacity="0.12" d="M10.4401 34.82C10.1142 34.4289 9.9497 33.9282 9.98014 33.42V33.57C9.9497 34.0782 10.1142 34.5789 10.4401 34.97L10.5101 34.9L10.4401 34.82ZM32.0001 23.8L27.0001 26.63L27.0901 26.72L32.0001 23.94C32.2787 23.8091 32.5179 23.6071 32.6935 23.3543C32.869 23.1014 32.9748 22.8068 33.0001 22.5C32.9439 22.7787 32.8245 23.0408 32.6512 23.2662C32.4778 23.4915 32.2551 23.6742 32.0001 23.8Z" fill="black"/>
<path opacity="0.25" d="M12.5107 10.1224L32.0007 21.2024C32.2557 21.3282 32.4784 21.5108 32.6517 21.7362C32.8251 21.9616 32.9445 22.2237 33.0007 22.5024C32.9754 22.1956 32.8696 21.9009 32.694 21.6481C32.5185 21.3953 32.2793 21.1933 32.0007 21.0624L12.5107 9.98238C11.1107 9.19238 9.9707 9.85238 9.9707 11.4524V11.6024C10.0007 9.99238 11.1207 9.33238 12.5107 10.1224Z" fill="white"/>
</g>
<defs>
<linearGradient id="paint0_linear_56_11666" x1="21.8001" y1="11.2088" x2="5.02015" y2="27.9888" gradientUnits="userSpaceOnUse">
<stop stop-color="#00A0FF"/>
<stop offset="0.01" stop-color="#00A1FF"/>
<stop offset="0.26" stop-color="#00BEFF"/>
<stop offset="0.51" stop-color="#00D2FF"/>
<stop offset="0.76" stop-color="#00DFFF"/>
<stop offset="1" stop-color="#00E3FF"/>
</linearGradient>
<linearGradient id="paint1_linear_56_11666" x1="33.8304" y1="22.4987" x2="9.64039" y2="22.4987" gradientUnits="userSpaceOnUse">
<stop stop-color="#FFE000"/>
<stop offset="0.41" stop-color="#FFBD00"/>
<stop offset="0.78" stop-color="#FFA500"/>
<stop offset="1" stop-color="#FF9C00"/>
</linearGradient>
<linearGradient id="paint2_linear_56_11666" x1="24.8295" y1="24.8" x2="2.06945" y2="47.55" gradientUnits="userSpaceOnUse">
<stop stop-color="#FF3A44"/>
<stop offset="1" stop-color="#C31162"/>
</linearGradient>
<linearGradient id="paint3_linear_56_11666" x1="7.29969" y1="2.67858" x2="17.4597" y2="12.8386" gradientUnits="userSpaceOnUse">
<stop stop-color="#32A071"/>
<stop offset="0.07" stop-color="#2DA771"/>
<stop offset="0.48" stop-color="#15CF74"/>
<stop offset="0.8" stop-color="#06E775"/>
<stop offset="1" stop-color="#00F076"/>
</linearGradient>
<clipPath id="clip0_56_11666">
<rect width="135" height="45" fill="white"/>
</clipPath>
</defs>
</svg>
