<svg width="24" height="24" viewBox="0 0 24 24" fill="none" xmlns="http://www.w3.org/2000/svg">
<path fill-rule="evenodd" clip-rule="evenodd" d="M17.5858 1.99997C18.3668 1.21892 19.6332 1.21892 20.4142 1.99997L22 3.58576C22.781 4.36681 22.781 5.63314 22 6.41419L20.4142 7.99997L16 3.58576L17.5858 1.99997ZM14.5858 4.99997L9.58579 9.99997C9.21071 10.375 9 10.8838 9 11.4142V13C9 14.1045 9.89543 15 11 15H12.5858C13.1162 15 13.6249 14.7893 14 14.4142L19 9.41418L14.5858 4.99997Z" fill="black"/>
<path d="M6 14H5C3.89543 14 3 14.8954 3 16V16C3 17.1046 3.89543 18 5 18H19C20.1046 18 21 18.8954 21 20V20C21 21.1046 20.1046 22 19 22H15" stroke="black" stroke-width="2" stroke-linecap="round" stroke-linejoin="round"/>
</svg>
