<svg width="24" height="24" viewBox="0 0 24 24" fill="none" xmlns="http://www.w3.org/2000/svg">
<path d="M16 6H4C2.89543 6 2 6.89543 2 8V16C2 17.1046 2.89543 18 4 18H16C17.1046 18 18 17.1046 18 16V14V10V8C18 6.89543 17.1046 6 16 6Z" fill="black"/>
<path d="M22 13V11C22 10.4477 21.5523 10 21 10V14C21.5523 14 22 13.5523 22 13Z" fill="black"/>
<path d="M16 6H4C2.89543 6 2 6.89543 2 8V16C2 17.1046 2.89543 18 4 18H16C17.1046 18 18 17.1046 18 16V14V10V8C18 6.89543 17.1046 6 16 6Z" stroke="black" stroke-width="2" stroke-linecap="round" stroke-linejoin="round"/>
<path d="M22 13V11C22 10.4477 21.5523 10 21 10V14C21.5523 14 22 13.5523 22 13Z" stroke="black" stroke-width="2" stroke-linecap="round" stroke-linejoin="round"/>
</svg>
