<svg width="24" height="24" viewBox="0 0 24 24" fill="none" xmlns="http://www.w3.org/2000/svg">
<path fill-rule="evenodd" clip-rule="evenodd" d="M4 5C2.34315 5 1 6.34315 1 8V16C1 17.6569 2.34315 19 4 19H16C17.6569 19 19 17.6569 19 16V8C19 6.34315 17.6569 5 16 5H4ZM21 9C20.4477 9 20 9.44772 20 10V14C20 14.5523 20.4477 15 21 15C22.1046 15 23 14.1046 23 13V11C23 9.89543 22.1046 9 21 9ZM6 9C6.55228 9 7 9.44772 7 10V14C7 14.5523 6.55228 15 6 15C5.44772 15 5 14.5523 5 14V10C5 9.44772 5.44772 9 6 9ZM11 10C11 9.44772 10.5523 9 10 9C9.44771 9 9 9.44772 9 10V14C9 14.5523 9.44771 15 10 15C10.5523 15 11 14.5523 11 14V10Z" fill="black"/>
</svg>
