<svg width="24" height="24" viewBox="0 0 24 24" fill="none" xmlns="http://www.w3.org/2000/svg">
<path fill-rule="evenodd" clip-rule="evenodd" d="M1 8C1 6.34315 2.34315 5 4 5H16C17.6569 5 19 6.34315 19 8V16C19 17.6569 17.6569 19 16 19H4C2.34315 19 1 17.6569 1 16V8ZM20 10C20 9.44772 20.4477 9 21 9C22.1046 9 23 9.89543 23 11V13C23 14.1046 22.1046 15 21 15C20.4477 15 20 14.5523 20 14V10ZM7 10C7 9.44772 6.55228 9 6 9C5.44772 9 5 9.44772 5 10V14C5 14.5523 5.44772 15 6 15C6.55228 15 7 14.5523 7 14V10Z" fill="black"/>
</svg>
