<svg width="24" height="24" viewBox="0 0 24 24" fill="none" xmlns="http://www.w3.org/2000/svg">
<path d="M4 18V14V11C4 8.66667 6.4 4 12 4C17.6 4 20 8.66667 20 11V14V18C20 19.1046 19.1046 20 18 20H17C15.8954 20 15 19.1046 15 18V16C15 14.8954 15.8954 14 17 14H20V11C20 8.66667 17.6 4 12 4C6.4 4 4 8.66667 4 11V14H7C8.10457 14 9 14.8954 9 16V18C9 19.1046 8.10457 20 7 20H6C4.89543 20 4 19.1046 4 18Z" fill="black"/>
<path d="M4 14V18C4 19.1046 4.89543 20 6 20H7C8.10457 20 9 19.1046 9 18V16C9 14.8954 8.10457 14 7 14H4ZM4 14V11C4 8.66667 6.4 4 12 4C17.6 4 20 8.66667 20 11V14M20 14V18C20 19.1046 19.1046 20 18 20H17C15.8954 20 15 19.1046 15 18V16C15 14.8954 15.8954 14 17 14H20Z" stroke="black" stroke-width="2" stroke-linecap="round" stroke-linejoin="round"/>
</svg>
