<svg width="24" height="24" viewBox="0 0 24 24" fill="none" xmlns="http://www.w3.org/2000/svg">
<path fill-rule="evenodd" clip-rule="evenodd" d="M4 19C2.34315 19 1 17.6569 1 16V8C1 6.34315 2.34315 5 4 5H20C21.6569 5 23 6.34315 23 8V16C23 17.6569 21.6569 19 20 19L4 19ZM10 13C9.44772 13 9 13.4477 9 14C9 14.5523 9.44771 15 10 15H14C14.5523 15 15 14.5523 15 14C15 13.4477 14.5523 13 14 13L10 13ZM13 10C13 9.44772 13.4477 9 14 9H14.01C14.5623 9 15.01 9.44772 15.01 10C15.01 10.5523 14.5623 11 14.01 11H14C13.4477 11 13 10.5523 13 10ZM18 9C17.4477 9 17 9.44772 17 10C17 10.5523 17.4477 11 18 11H18.01C18.5623 11 19.01 10.5523 19.01 10C19.01 9.44772 18.5623 9 18.01 9H18ZM9 10C9 9.44772 9.44771 9 10 9H10.01C10.5623 9 11.01 9.44772 11.01 10C11.01 10.5523 10.5623 11 10.01 11H10C9.44771 11 9 10.5523 9 10ZM6 9C5.44772 9 5 9.44772 5 10C5 10.5523 5.44772 11 6 11H6.01C6.56228 11 7.01 10.5523 7.01 10C7.01 9.44772 6.56228 9 6.01 9H6ZM5 14C5 13.4477 5.44772 13 6 13H6.01C6.56228 13 7.01 13.4477 7.01 14C7.01 14.5523 6.56228 15 6.01 15H6C5.44772 15 5 14.5523 5 14ZM18 13C17.4477 13 17 13.4477 17 14C17 14.5523 17.4477 15 18 15H18.01C18.5623 15 19.01 14.5523 19.01 14C19.01 13.4477 18.5623 13 18.01 13H18Z" fill="black"/>
</svg>
