<svg width="24" height="24" viewBox="0 0 24 24" fill="none" xmlns="http://www.w3.org/2000/svg">
<path fill-rule="evenodd" clip-rule="evenodd" d="M3 6C3 4.34315 4.34315 3 6 3H18C19.6569 3 21 4.34315 21 6V13.764L22.4472 16.6584L21.5528 17.1056L22.4472 16.6584C23.4445 18.6531 21.9941 21 19.7639 21H4.23605C2.0059 21 0.555415 18.6531 1.55277 16.6584L3 13.7639V6ZM6 5C5.44772 5 5 5.44772 5 6V11C5 11.5523 5.44772 12 6 12H18C18.5523 12 19 11.5523 19 11V6C19 5.44772 18.5523 5 18 5H6Z" fill="black"/>
</svg>
