<svg width="24" height="24" viewBox="0 0 24 24" fill="none" xmlns="http://www.w3.org/2000/svg">
<path d="M17.5 4.8419C15.9763 4.33714 14.1455 4 12 4C9.85451 4 8.02369 4.33714 6.5 4.8419M17.5 4.8419C20.5215 5.84282 22.3352 7.50285 23 8.5L20.5 11L17.5 9V4.8419ZM6.5 4.8419C3.47852 5.84282 1.66477 7.50285 1 8.5L3.5 11L6.5 9V4.8419Z" stroke="black" stroke-width="2" stroke-linecap="round" stroke-linejoin="round"/>
<path fill-rule="evenodd" clip-rule="evenodd" d="M10 6C10.5523 6 11 6.44772 11 7V9H13V7C13 6.44772 13.4477 6 14 6C14.5523 6 15 6.44772 15 7V9.58579L20.1213 14.7071C20.6839 15.2697 21 16.0328 21 16.8284V18C21 19.6569 19.6569 21 18 21H6C4.34315 21 3 19.6569 3 18V16.8284C3 16.0328 3.31607 15.2697 3.87868 14.7071L9 9.58579V7C9 6.44772 9.44772 6 10 6ZM12 17C13.1046 17 14 16.1046 14 15C14 13.8954 13.1046 13 12 13C10.8954 13 10 13.8954 10 15C10 16.1046 10.8954 17 12 17Z" fill="black"/>
</svg>
