<svg width="24" height="24" viewBox="0 0 24 24" fill="none" xmlns="http://www.w3.org/2000/svg">
<path d="M7 17V15C7 13.8954 7.89543 13 9 13H15C16.1046 13 17 13.8954 17 15V17M7 17V19C7 20.1046 7.89543 21 9 21H15C16.1046 21 17 20.1046 17 19V17M7 17H5C3.89543 17 3 16.1046 3 15V9C3 7.89543 3.89543 7 5 7H6M6 7V5C6 3.89543 6.89543 3 8 3H16C17.1046 3 18 3.89543 18 5V7M6 7H18M18 7H19C20.1046 7 21 7.89543 21 9V10V15C21 16.1046 20.1046 17 19 17H17" stroke="black" stroke-width="2" stroke-linecap="round" stroke-linejoin="round"/>
<path fill-rule="evenodd" clip-rule="evenodd" d="M2 9C2 7.34315 3.34315 6 5 6H19C20.6569 6 22 7.34315 22 9V15C22 16.6569 20.6569 18 19 18H17C16.4477 18 16 17.5523 16 17V15C16 14.4477 15.5523 14 15 14H9C8.44772 14 8 14.4477 8 15V17C8 17.5523 7.55228 18 7 18H5C3.34315 18 2 16.6569 2 15V9ZM7 9C6.44772 9 6 9.44772 6 10C6 10.5523 6.44772 11 7 11H8C8.55228 11 9 10.5523 9 10C9 9.44772 8.55228 9 8 9H7Z" fill="black"/>
</svg>
