<svg width="24" height="24" viewBox="0 0 24 24" fill="none" xmlns="http://www.w3.org/2000/svg">
<path fill-rule="evenodd" clip-rule="evenodd" d="M5.00001 9C4.55353 9 4.16115 9.29598 4.03849 9.72528L2.24571 16H21.7543L19.9615 9.72528C19.8389 9.29598 19.4465 9 19 9H5.00001ZM21.7808 18H2.21924L2.65114 19.7276C2.98502 21.0631 4.18497 22 5.56157 22H18.4385C19.8151 22 21.015 21.0631 21.3489 19.7276L21.7808 18ZM6.96738 11.8292C7.22146 11.321 7.74086 11 8.30902 11H15.691C16.2591 11 16.7785 11.321 17.0326 11.8292C17.5313 12.8265 16.8061 14 15.691 14H8.30902C7.19394 14 6.4687 12.8265 6.96738 11.8292Z" fill="black"/>
<path d="M3.72841 5.54944C3.36337 4.27181 4.3227 3 5.65146 3H18.3485C19.6773 3 20.6366 4.27181 20.2716 5.54944L19 10H5L3.72841 5.54944Z" stroke="black" stroke-width="2" stroke-linecap="round" stroke-linejoin="round"/>
</svg>
