<svg width="24" height="24" viewBox="0 0 24 24" fill="none" xmlns="http://www.w3.org/2000/svg">
<path fill-rule="evenodd" clip-rule="evenodd" d="M2 8C2 6.34315 3.34315 5 5 5H19C20.6569 5 22 6.34315 22 8V11H2V8ZM2 13V16C2 17.6569 3.34315 19 5 19H19C20.6569 19 22 17.6569 22 16V13H2ZM6 7C5.44772 7 5 7.44772 5 8C5 8.55228 5.44772 9 6 9H6.01C6.56228 9 7.01 8.55228 7.01 8C7.01 7.44772 6.56228 7 6.01 7H6ZM5 16C5 15.4477 5.44772 15 6 15H6.01C6.56228 15 7.01 15.4477 7.01 16C7.01 16.5523 6.56228 17 6.01 17H6C5.44772 17 5 16.5523 5 16ZM9 7C8.44772 7 8 7.44772 8 8C8 8.55228 8.44772 9 9 9H9.01C9.56228 9 10.01 8.55228 10.01 8C10.01 7.44772 9.56228 7 9.01 7H9ZM8 16C8 15.4477 8.44772 15 9 15H9.01C9.56228 15 10.01 15.4477 10.01 16C10.01 16.5523 9.56228 17 9.01 17H9C8.44772 17 8 16.5523 8 16Z" fill="black"/>
</svg>
