<svg width="24" height="24" viewBox="0 0 24 24" fill="none" xmlns="http://www.w3.org/2000/svg">
<path fill-rule="evenodd" clip-rule="evenodd" d="M8.70711 2.87868C9.26972 2.31607 10.0328 2 10.8284 2H17C18.6569 2 20 3.34315 20 5V19C20 20.6563 18.6582 22 17.0008 22H6.99722C5.33855 22 4 20.655 4 19V8.82843C4 8.03278 4.31607 7.26972 4.87868 6.70711L8.70711 2.87868ZM14 18C15.1046 18 16 17.1046 16 16V14C16 12.8954 15.1046 12 14 12H10C8.89543 12 8 12.8954 8 14V16C8 17.1046 8.89543 18 10 18H14Z" fill="black"/>
</svg>
