<svg width="24" height="24" viewBox="0 0 24 24" fill="none" xmlns="http://www.w3.org/2000/svg">
<path fill-rule="evenodd" clip-rule="evenodd" d="M8 2C6.34315 2 5 3.34315 5 5V19C5 20.6569 6.34315 22 8 22H16C17.6569 22 19 20.6569 19 19V5C19 3.34315 17.6569 2 16 2H8ZM9 7.00098C8.44772 7.00098 8 6.55326 8 6.00098V5.99998C8 5.44769 8.44772 4.99998 9 4.99998C9.55228 4.99998 10 5.44769 10 5.99998V6.00098C10 6.55326 9.55228 7.00098 9 7.00098ZM8 9.00098C8 9.55326 8.44772 10.001 9 10.001C9.55228 10.001 10 9.55326 10 9.00098V8.99998C10 8.44769 9.55228 7.99998 9 7.99998C8.44772 7.99998 8 8.44769 8 8.99998V9.00098ZM12 10.001C11.4477 10.001 11 9.55326 11 9.00098V8.99998C11 8.44769 11.4477 7.99998 12 7.99998C12.5523 7.99998 13 8.44769 13 8.99998V9.00098C13 9.55326 12.5523 10.001 12 10.001ZM11 6.00098C11 6.55326 11.4477 7.00098 12 7.00098C12.5523 7.00098 13 6.55326 13 6.00098V5.99998C13 5.44769 12.5523 4.99998 12 4.99998C11.4477 4.99998 11 5.44769 11 5.99998V6.00098ZM15 7.00098C14.4477 7.00098 14 6.55326 14 6.00098V5.99998C14 5.44769 14.4477 4.99998 15 4.99998C15.5523 4.99998 16 5.44769 16 5.99998V6.00098C16 6.55326 15.5523 7.00098 15 7.00098ZM14 9.00098C14 9.55326 14.4477 10.001 15 10.001C15.5523 10.001 16 9.55326 16 9.00098V8.99998C16 8.44769 15.5523 7.99998 15 7.99998C14.4477 7.99998 14 8.44769 14 8.99998V9.00098ZM9 13.001C8.44772 13.001 8 12.5533 8 12.001V12C8 11.4477 8.44772 11 9 11C9.55228 11 10 11.4477 10 12V12.001C10 12.5533 9.55228 13.001 9 13.001ZM11 12.001C11 12.5533 11.4477 13.001 12 13.001C12.5523 13.001 13 12.5533 13 12.001V12C13 11.4477 12.5523 11 12 11C11.4477 11 11 11.4477 11 12V12.001Z" fill="black"/>
</svg>
