<svg width="24" height="24" viewBox="0 0 24 24" fill="none" xmlns="http://www.w3.org/2000/svg">
<path d="M19.7975 9.044C19.4184 8.13181 18.6494 7.14692 18.0472 6.83558C18.4766 7.66714 18.7747 8.56019 18.9308 9.48298L18.9324 9.49761C17.9459 7.03931 16.2737 6.04653 14.9072 3.88764C14.8381 3.77845 14.769 3.66905 14.7017 3.55356C14.6632 3.4876 14.6324 3.42817 14.6056 3.37346C14.5489 3.26373 14.5053 3.14776 14.4755 3.02791C14.4755 3.02238 14.4735 3.01702 14.4699 3.01287C14.4662 3.00872 14.4611 3.00606 14.4557 3.00539C14.4503 3.00392 14.4446 3.00392 14.4392 3.00539C14.4381 3.00539 14.4363 3.00742 14.4349 3.00787C14.4336 3.00832 14.4307 3.01035 14.4286 3.01125L14.432 3.00539C12.2405 4.28857 11.4965 6.66358 11.4289 7.85222C10.5534 7.91224 9.71634 8.23475 9.0269 8.77768C8.95499 8.71678 8.87984 8.65981 8.80178 8.60704C8.603 7.91118 8.59452 7.17474 8.77724 6.47448C7.97241 6.86435 7.25727 7.41704 6.6771 8.0976H6.67305C6.32727 7.65929 6.35158 6.21402 6.37139 5.91214C6.26909 5.95325 6.17145 6.00509 6.08008 6.06679C5.77483 6.28465 5.48946 6.52911 5.22733 6.79731C4.92862 7.10016 4.65579 7.4275 4.41172 7.7759C3.85085 8.57094 3.45298 9.46896 3.2411 10.4186L3.2294 10.4762C3.21296 10.553 3.15376 10.9375 3.14363 11.021C3.14363 11.0275 3.14228 11.0336 3.1416 11.0401C3.06523 11.4371 3.0179 11.8391 3 12.2429V12.288C3.00386 14.4713 3.8261 16.5739 5.3044 18.1806C6.78271 19.7873 8.80966 20.7814 10.9851 20.9667C13.1606 21.152 15.3264 20.515 17.0552 19.1814C18.7839 17.8478 19.9499 15.9146 20.3229 13.7634C20.3376 13.6508 20.3495 13.5394 20.3626 13.4257C20.5423 11.9404 20.3477 10.4336 19.7966 9.04265L19.7975 9.044ZM9.74143 15.8741C9.78217 15.8937 9.82044 15.9149 9.86232 15.9336L9.86839 15.9374C9.82607 15.9171 9.78375 15.896 9.74143 15.8741ZM18.9326 9.50009V9.49176L18.9342 9.50099L18.9326 9.50009Z" fill="url(#paint0_linear_2862_155)"/>
<path d="M19.7975 9.044C19.4184 8.13181 18.6494 7.14692 18.0472 6.83558C18.4766 7.66714 18.7747 8.56019 18.9308 9.48298L18.9308 9.4913L18.9326 9.50009C19.6052 11.4246 19.5077 13.5351 18.6609 15.3897C17.6609 17.5353 15.2414 19.7345 11.4526 19.6264C7.35992 19.5105 3.7535 16.4725 3.0804 12.4946C2.95771 11.8672 3.0804 11.5491 3.14208 11.0392C3.05794 11.4353 3.01099 11.8384 3.00183 12.2432V12.2882C3.00569 14.4715 3.82793 16.5741 5.30623 18.1808C6.78454 19.7875 8.81149 20.7816 10.9869 20.9669C13.1624 21.1522 15.3283 20.5152 17.057 19.1816C18.7858 17.8481 19.9517 15.9149 20.3248 13.7636C20.3394 13.6511 20.3513 13.5396 20.3644 13.4259C20.5441 11.9406 20.3496 10.4339 19.7984 9.04287L19.7975 9.044Z" fill="url(#paint1_radial_2862_155)"/>
<path d="M19.7975 9.044C19.4184 8.13181 18.6494 7.14692 18.0472 6.83558C18.4766 7.66714 18.7747 8.56019 18.9308 9.48298L18.9308 9.4913L18.9326 9.50009C19.6052 11.4246 19.5077 13.5351 18.6609 15.3897C17.6609 17.5353 15.2414 19.7345 11.4526 19.6264C7.35992 19.5105 3.7535 16.4725 3.0804 12.4946C2.95771 11.8672 3.0804 11.5491 3.14208 11.0392C3.05794 11.4353 3.01099 11.8384 3.00183 12.2432V12.2882C3.00569 14.4715 3.82793 16.5741 5.30623 18.1808C6.78454 19.7875 8.81149 20.7816 10.9869 20.9669C13.1624 21.1522 15.3283 20.5152 17.057 19.1816C18.7858 17.8481 19.9517 15.9149 20.3248 13.7636C20.3394 13.6511 20.3513 13.5396 20.3644 13.4259C20.5441 11.9406 20.3496 10.4339 19.7984 9.04287L19.7975 9.044Z" fill="url(#paint2_radial_2862_155)"/>
<path d="M15.5563 10.0683C15.5752 10.0816 15.5927 10.0949 15.6105 10.1081C15.3914 9.71951 15.1185 9.3637 14.8001 9.0512C12.0874 6.33851 14.0894 3.17108 14.4268 3.009L14.4302 3.00404C12.2387 4.28722 11.4947 6.66223 11.4271 7.85086C11.5289 7.84389 11.6297 7.83533 11.7337 7.83533C12.5113 7.83684 13.2745 8.04419 13.9459 8.43632C14.6173 8.82845 15.1729 9.39182 15.5563 10.0683Z" fill="url(#paint3_radial_2862_155)"/>
<path d="M11.7382 10.6108C11.7238 10.8278 10.9571 11.5764 10.689 11.5764C8.20814 11.5764 7.80518 13.0772 7.80518 13.0772C7.91503 14.341 8.7957 15.3824 9.86029 15.9317C9.90892 15.957 9.95822 15.9797 10.0075 16.002C10.0929 16.0398 10.1783 16.0748 10.2637 16.1069C10.6291 16.2362 11.0117 16.31 11.399 16.3259C15.7483 16.5299 16.5902 11.1257 13.4518 9.55658C14.1922 9.46026 14.9419 9.64229 15.5556 10.0674C15.1723 9.3909 14.6173 8.82845 13.9459 8.43632C13.2745 8.04419 12.5113 7.83684 11.7337 7.83533C11.6297 7.83533 11.5289 7.84389 11.4271 7.85086C10.5516 7.91089 9.71387 8.23294 9.02442 8.77587C9.15747 8.88843 9.30762 9.03881 9.62392 9.3506C10.216 9.93388 11.7344 10.5381 11.7378 10.609L11.7382 10.6108Z" fill="url(#paint4_radial_2862_155)"/>
<path d="M11.7382 10.6108C11.7238 10.8278 10.9571 11.5764 10.689 11.5764C8.20814 11.5764 7.80518 13.0772 7.80518 13.0772C7.91503 14.341 8.7957 15.3824 9.86029 15.9317C9.90892 15.957 9.95822 15.9797 10.0075 16.002C10.0929 16.0398 10.1783 16.0748 10.2637 16.1069C10.6291 16.2362 11.0117 16.31 11.399 16.3259C15.7483 16.5299 16.5902 11.1257 13.4518 9.55658C14.1922 9.46026 14.9419 9.64229 15.5556 10.0674C15.1723 9.3909 14.6173 8.82845 13.9459 8.43632C13.2745 8.04419 12.5113 7.83684 11.7337 7.83533C11.6297 7.83533 11.5289 7.84389 11.4271 7.85086C10.5516 7.91089 9.71387 8.23294 9.02442 8.77587C9.15747 8.88843 9.30762 9.03881 9.62392 9.3506C10.216 9.93388 11.7344 10.5381 11.7378 10.609L11.7382 10.6108Z" fill="url(#paint5_radial_2862_155)"/>
<path d="M8.6181 8.48793C8.68879 8.53296 8.7471 8.57213 8.7982 8.60747C8.59942 7.91161 8.59094 7.17516 8.77366 6.47491C7.96883 6.86478 7.25322 7.41704 6.67305 8.0976C6.7156 8.09647 7.98169 8.07416 8.6181 8.48793Z" fill="url(#paint6_radial_2862_155)"/>
<path d="M3.07881 12.4951C3.75215 16.4729 7.35834 19.512 11.451 19.6268C15.2398 19.734 17.6598 17.5346 18.6593 15.3901C19.5062 13.5356 19.6034 11.4255 18.9308 9.50097V9.49264C18.9308 9.48612 18.9295 9.48229 18.9308 9.48431L18.9324 9.49895C19.2419 11.5198 18.214 13.4768 16.6069 14.8028L16.602 14.814C13.4706 17.3646 10.4742 16.3525 9.86864 15.9396C9.82632 15.9194 9.784 15.8983 9.74167 15.8764C7.91618 15.0038 7.16181 13.3415 7.32389 11.9143C6.89056 11.9207 6.46467 11.8012 6.09783 11.5705C5.73099 11.3397 5.43894 11.0076 5.25707 10.6142C5.7363 10.3206 6.28273 10.1547 6.84428 10.1321C7.40583 10.1096 7.9638 10.2312 8.46502 10.4854C9.49816 10.9544 10.6737 11.0006 11.7405 10.6142C11.7371 10.5433 10.2187 9.93883 9.62664 9.35577C9.31035 9.04398 9.16019 8.89383 9.02715 8.78104C8.95524 8.72014 8.88009 8.66317 8.80203 8.6104C8.75025 8.57506 8.69194 8.53679 8.62193 8.49086C7.98552 8.07709 6.7199 8.09983 6.67802 8.10096H6.67397C6.32819 7.66265 6.3525 6.21738 6.37231 5.9155C6.27002 5.95661 6.17237 6.00845 6.08101 6.07015C5.77575 6.28801 5.49039 6.53247 5.22826 6.80067C4.92847 7.10267 4.65452 7.42926 4.40927 7.77701C3.84839 8.57205 3.45053 9.47007 3.23865 10.4197C3.23437 10.4375 2.92438 11.7927 3.07724 12.4955L3.07881 12.4951Z" fill="url(#paint7_radial_2862_155)"/>
<path d="M14.8001 9.0512C15.1185 9.3637 15.3914 9.71951 15.6105 10.1081C15.6585 10.1444 15.7031 10.1811 15.7411 10.216C17.7192 12.0394 16.6828 14.617 16.6056 14.7994C18.2125 13.4755 19.2395 11.5171 18.9311 9.49558C17.9441 7.03502 16.2701 6.04224 14.9059 3.88335C14.8368 3.77417 14.7677 3.66476 14.7004 3.54927C14.6619 3.48331 14.631 3.42388 14.6043 3.36918C14.5476 3.25944 14.5039 3.14347 14.4741 3.02362C14.4742 3.01809 14.4722 3.01274 14.4685 3.00858C14.4649 3.00443 14.4598 3.00177 14.4543 3.00111C14.449 2.99963 14.4433 2.99963 14.4379 3.00111C14.4368 3.00111 14.435 3.00313 14.4336 3.00358C14.4323 3.00403 14.4293 3.00606 14.4273 3.00696C14.0899 3.16702 12.0883 6.33648 14.801 9.04691L14.8001 9.0512Z" fill="url(#paint8_radial_2862_155)"/>
<path d="M15.7411 10.216C15.7031 10.1811 15.658 10.1459 15.6101 10.1097C15.5923 10.0964 15.5747 10.0831 15.5558 10.0699C14.9421 9.64477 14.1924 9.46273 13.4521 9.55906C16.5903 11.1281 15.7483 16.531 11.3992 16.3284C11.012 16.3125 10.6293 16.2386 10.2639 16.1094C10.1786 16.0774 10.0932 16.0424 10.0078 16.0045C9.95846 15.9819 9.90916 15.9594 9.86053 15.9342L9.86661 15.938C10.4731 16.352 13.4685 17.3635 16.5999 14.8124L16.6049 14.8012C16.683 14.6188 17.7195 12.0412 15.7404 10.2178L15.7411 10.216Z" fill="url(#paint9_radial_2862_155)"/>
<path d="M7.80538 13.0759C7.80538 13.0759 8.20812 11.575 10.6892 11.575C10.9573 11.575 11.7241 10.826 11.7378 10.609C10.671 10.9954 9.49609 10.9496 8.46296 10.4807C7.96173 10.2265 7.40377 10.1048 6.84221 10.1274C6.28066 10.1499 5.73424 10.3159 5.255 10.6095C5.43688 11.0028 5.72893 11.335 6.09577 11.5658C6.46261 11.7965 6.8885 11.9159 7.32183 11.9095C7.16019 13.3361 7.91434 14.9982 9.73961 15.8716C9.78036 15.8912 9.81842 15.9131 9.86029 15.9317C8.7948 15.3813 7.91524 14.339 7.80538 13.0759Z" fill="url(#paint10_radial_2862_155)"/>
<path d="M19.7975 9.044C19.4184 8.13181 18.6494 7.14692 18.0472 6.83558C18.4766 7.66714 18.7747 8.56019 18.9308 9.48298L18.9324 9.49761C17.9459 7.03931 16.2737 6.04653 14.9072 3.88764C14.8381 3.77845 14.769 3.66905 14.7017 3.55356C14.6632 3.4876 14.6324 3.42817 14.6056 3.37346C14.5489 3.26373 14.5053 3.14776 14.4755 3.02791C14.4755 3.02238 14.4735 3.01702 14.4699 3.01287C14.4662 3.00872 14.4611 3.00606 14.4557 3.00539C14.4503 3.00392 14.4446 3.00392 14.4392 3.00539C14.4381 3.00539 14.4363 3.00742 14.4349 3.00787C14.4336 3.00832 14.4307 3.01035 14.4286 3.01125L14.432 3.00539C12.2405 4.28857 11.4965 6.66358 11.4289 7.85222C11.5307 7.84524 11.6315 7.83668 11.7355 7.83668C12.513 7.83819 13.2763 8.04554 13.9477 8.43767C14.6191 8.8298 15.1747 9.39272 15.558 10.0692C14.9443 9.6441 14.1946 9.46207 13.4543 9.5584C16.5925 11.1275 15.7505 16.5303 11.4014 16.3277C11.0142 16.3118 10.6315 16.238 10.2662 16.1087C10.1808 16.0767 10.0954 16.0418 10.01 16.0038C9.96067 15.9813 9.91094 15.9588 9.86232 15.9336L9.86839 15.9374C9.82607 15.9171 9.78375 15.896 9.74143 15.8741C9.78217 15.8937 9.82044 15.9149 9.86232 15.9336C8.79683 15.3829 7.91749 14.342 7.80763 13.079C7.80763 13.079 8.21037 11.5782 10.6914 11.5782C10.9595 11.5782 11.727 10.8296 11.7407 10.6126C11.7373 10.5417 10.2189 9.93727 9.62682 9.35421C9.31053 9.04242 9.16037 8.89227 9.02733 8.77948C8.95542 8.71858 8.88027 8.66161 8.80221 8.60884C8.60342 7.91298 8.59495 7.17654 8.77767 6.47629C7.97283 6.86615 7.2577 7.41885 6.67753 8.0994H6.67348C6.32769 7.66109 6.35201 6.21582 6.37182 5.91394C6.26952 5.95505 6.17187 6.00689 6.08051 6.06859C5.77526 6.28645 5.48989 6.53091 5.22776 6.79911C4.92904 7.10196 4.65579 7.42885 4.41172 7.77725C3.85085 8.57229 3.45341 9.47076 3.24153 10.4204L3.22982 10.478C3.21339 10.5548 3.13978 10.9447 3.1292 11.0284C3.06186 11.4309 3.01886 11.8371 3.00043 12.2447V12.2898C3.00428 14.4731 3.82652 16.5757 5.30483 18.1824C6.78314 19.7891 8.81009 20.7832 10.9855 20.9685C13.161 21.1538 15.3269 20.5168 17.0556 19.1832C18.7844 17.8496 19.9503 15.9164 20.3234 13.7652C20.338 13.6526 20.3499 13.5412 20.363 13.4275C20.5427 11.9422 20.3486 10.435 19.7975 9.044Z" fill="url(#paint11_linear_2862_155)"/>
<defs>
<linearGradient id="paint0_linear_2862_155" x1="18.6443" y1="5.78901" x2="4.15466" y2="19.7658" gradientUnits="userSpaceOnUse">
<stop offset="0.048" stop-color="#FFF44F"/>
<stop offset="0.111" stop-color="#FFE847"/>
<stop offset="0.225" stop-color="#FFC830"/>
<stop offset="0.368" stop-color="#FF980E"/>
<stop offset="0.401" stop-color="#FF8B16"/>
<stop offset="0.462" stop-color="#FF672A"/>
<stop offset="0.534" stop-color="#FF3647"/>
<stop offset="0.705" stop-color="#E31587"/>
</linearGradient>
<radialGradient id="paint1_radial_2862_155" cx="0" cy="0" r="1" gradientUnits="userSpaceOnUse" gradientTransform="translate(18.0819 0.705387) scale(18.1916 23.1178)">
<stop offset="0.129" stop-color="#FFBD4F"/>
<stop offset="0.186" stop-color="#FFAC31"/>
<stop offset="0.247" stop-color="#FF9D17"/>
<stop offset="0.283" stop-color="#FF980E"/>
<stop offset="0.403" stop-color="#FF563B"/>
<stop offset="0.467" stop-color="#FF3750"/>
<stop offset="0.71" stop-color="#F5156C"/>
<stop offset="0.782" stop-color="#EB0878"/>
<stop offset="0.86" stop-color="#E50080"/>
</radialGradient>
<radialGradient id="paint2_radial_2862_155" cx="0" cy="0" r="1" gradientUnits="userSpaceOnUse" gradientTransform="translate(11.3276 10.1471) scale(18.1916 23.1178)">
<stop offset="0.3" stop-color="#960E18"/>
<stop offset="0.351" stop-color="#B11927" stop-opacity="0.74"/>
<stop offset="0.435" stop-color="#DB293D" stop-opacity="0.343"/>
<stop offset="0.497" stop-color="#F5334B" stop-opacity="0.094"/>
<stop offset="0.53" stop-color="#FF3750" stop-opacity="0"/>
</radialGradient>
<radialGradient id="paint3_radial_2862_155" cx="0" cy="0" r="1" gradientUnits="userSpaceOnUse" gradientTransform="translate(11.9684 -2.13357) scale(54.8964 33.3853)">
<stop offset="0.132" stop-color="#FFF44F"/>
<stop offset="0.252" stop-color="#FFDC3E"/>
<stop offset="0.506" stop-color="#FF9D12"/>
<stop offset="0.526" stop-color="#FF980E"/>
</radialGradient>
<radialGradient id="paint4_radial_2862_155" cx="0" cy="0" r="1" gradientUnits="userSpaceOnUse" gradientTransform="translate(6.36711 22.8113) scale(19.4756 18.3467)">
<stop offset="0.353" stop-color="#3A8EE6"/>
<stop offset="0.472" stop-color="#5C79F0"/>
<stop offset="0.669" stop-color="#9059FF"/>
<stop offset="1" stop-color="#C139E6"/>
</radialGradient>
<radialGradient id="paint5_radial_2862_155" cx="0" cy="0" r="1" gradientUnits="userSpaceOnUse" gradientTransform="translate(12.9019 9.48836) rotate(-12.8306) scale(10.2955 11.4258)">
<stop offset="0.206" stop-color="#9059FF" stop-opacity="0"/>
<stop offset="0.278" stop-color="#8C4FF3" stop-opacity="0.064"/>
<stop offset="0.747" stop-color="#7716A8" stop-opacity="0.45"/>
<stop offset="0.975" stop-color="#6E008B" stop-opacity="0.6"/>
</radialGradient>
<radialGradient id="paint6_radial_2862_155" cx="0" cy="0" r="1" gradientUnits="userSpaceOnUse" gradientTransform="translate(39.3398 -14.8955) scale(51.1173 52.5958)">
<stop stop-color="#FFE226"/>
<stop offset="0.121" stop-color="#FFDB27"/>
<stop offset="0.295" stop-color="#FFC82A"/>
<stop offset="0.502" stop-color="#FFA930"/>
<stop offset="0.732" stop-color="#FF7E37"/>
<stop offset="0.792" stop-color="#FF7139"/>
</radialGradient>
<radialGradient id="paint7_radial_2862_155" cx="0" cy="0" r="1" gradientUnits="userSpaceOnUse" gradientTransform="translate(16.8906 -4.36649) scale(28.362 34.8928)">
<stop offset="0.113" stop-color="#FFF44F"/>
<stop offset="0.456" stop-color="#FF980E"/>
<stop offset="0.622" stop-color="#FF5634"/>
<stop offset="0.716" stop-color="#FF3647"/>
<stop offset="0.904" stop-color="#E31587"/>
</radialGradient>
<radialGradient id="paint8_radial_2862_155" cx="0" cy="0" r="1" gradientUnits="userSpaceOnUse" gradientTransform="translate(4.39284 1.13382) rotate(77.8196) scale(30.238 39.2162)">
<stop stop-color="#FFF44F"/>
<stop offset="0.06" stop-color="#FFE847"/>
<stop offset="0.168" stop-color="#FFC830"/>
<stop offset="0.304" stop-color="#FF980E"/>
<stop offset="0.356" stop-color="#FF8B16"/>
<stop offset="0.455" stop-color="#FF672A"/>
<stop offset="0.57" stop-color="#FF3647"/>
<stop offset="0.737" stop-color="#E31587"/>
</radialGradient>
<radialGradient id="paint9_radial_2862_155" cx="0" cy="0" r="1" gradientUnits="userSpaceOnUse" gradientTransform="translate(6.0576 -4.57912) scale(40.8271 42.9592)">
<stop offset="0.137" stop-color="#FFF44F"/>
<stop offset="0.48" stop-color="#FF980E"/>
<stop offset="0.592" stop-color="#FF5634"/>
<stop offset="0.655" stop-color="#FF3647"/>
<stop offset="0.904" stop-color="#E31587"/>
</radialGradient>
<radialGradient id="paint10_radial_2862_155" cx="0" cy="0" r="1" gradientUnits="userSpaceOnUse" gradientTransform="translate(30.2207 -5.11701) scale(48.8325 56.3125)">
<stop offset="0.094" stop-color="#FFF44F"/>
<stop offset="0.231" stop-color="#FFE141"/>
<stop offset="0.509" stop-color="#FFAF1E"/>
<stop offset="0.626" stop-color="#FF980E"/>
</radialGradient>
<linearGradient id="paint11_linear_2862_155" x1="18.467" y1="5.71806" x2="6.144" y2="18.0434" gradientUnits="userSpaceOnUse">
<stop offset="0.167" stop-color="#FFF44F" stop-opacity="0.8"/>
<stop offset="0.266" stop-color="#FFF44F" stop-opacity="0.634"/>
<stop offset="0.489" stop-color="#FFF44F" stop-opacity="0.217"/>
<stop offset="0.6" stop-color="#FFF44F" stop-opacity="0"/>
</linearGradient>
</defs>
</svg>
