<svg width="24" height="24" viewBox="0 0 24 24" fill="none" xmlns="http://www.w3.org/2000/svg">
<path d="M12.003 3.00003C7.03884 3.00003 3.00178 7.03562 3.00001 11.996C2.99756 13.6898 3.47455 15.3497 4.37582 16.7838L4.58993 17.1242L3.68063 20.4439L7.08681 19.5508L7.41572 19.7456C8.79712 20.5654 10.381 20.999 11.9962 20.9999H11.9996C16.96 20.9999 20.997 16.9638 20.999 12.0032C21.0027 10.8208 20.7719 9.64948 20.3198 8.55694C19.8678 7.46441 19.2035 6.47239 18.3655 5.63832C17.5321 4.7997 16.5407 4.1347 15.4485 3.68183C14.3564 3.22897 13.1853 2.99723 12.003 3.00003Z" fill="url(#paint0_linear_2934_37)"/>
<path fill-rule="evenodd" clip-rule="evenodd" d="M9.29356 7.47017C9.09078 7.01971 8.87739 7.01059 8.68476 7.00279L8.16617 6.99646C7.98575 6.99646 7.6926 7.06415 7.44478 7.33493C7.19696 7.60571 6.4978 8.26013 6.4978 9.5912C6.4978 10.9223 7.4673 12.2085 7.60239 12.3892C7.73749 12.5699 9.47398 15.3885 12.224 16.4729C14.5092 17.3741 14.9743 17.1948 15.4705 17.1498C15.9667 17.1048 17.0712 16.4954 17.2965 15.8636C17.5218 15.2319 17.5219 14.6906 17.4544 14.5774C17.3868 14.4643 17.2064 14.397 16.9356 14.2616C16.6649 14.1263 15.335 13.4718 15.087 13.3815C14.839 13.2911 14.6588 13.2462 14.4782 13.517C14.2976 13.7878 13.7798 14.3969 13.6219 14.5774C13.464 14.758 13.3063 14.7807 13.0356 14.6454C12.7648 14.5102 11.8936 14.2244 10.8599 13.3027C10.0557 12.5856 9.51283 11.7 9.35478 11.4294C9.19673 11.1588 9.33801 11.0122 9.47369 10.8774C9.5951 10.7561 9.74417 10.5614 9.87971 10.4035C10.0152 10.2456 10.0598 10.1328 10.1499 9.95248C10.24 9.77221 10.1951 9.61386 10.1274 9.47862C10.0597 9.34338 9.53403 8.00525 9.29356 7.47017Z" fill="white"/>
<defs>
<linearGradient id="paint0_linear_2934_37" x1="11.8163" y1="4.08019" x2="11.9075" y2="19.4622" gradientUnits="userSpaceOnUse">
<stop stop-color="#57D163"/>
<stop offset="1" stop-color="#23B33A"/>
</linearGradient>
</defs>
</svg>
