<svg width="24" height="24" viewBox="0 0 24 24" fill="none" xmlns="http://www.w3.org/2000/svg">
<path d="M11.6183 11.5973L4.06754 19.5081C4.15232 19.8086 4.30469 20.0857 4.513 20.3183C4.72131 20.5509 4.98004 20.7328 5.26942 20.8501C5.55879 20.9673 5.87115 21.0169 6.18261 20.9949C6.49407 20.973 6.79639 20.8801 7.06645 20.7234L15.5624 15.8846L11.6183 11.5973Z" fill="#EA4335"/>
<path d="M19.2534 10.2525L15.5793 8.14823L11.4439 11.7773L15.5962 15.8734L19.2422 13.7916C19.5652 13.6225 19.8357 13.3682 20.0245 13.0562C20.2133 12.7443 20.3131 12.3867 20.3131 12.0221C20.3131 11.6575 20.2133 11.2998 20.0245 10.9879C19.8357 10.676 19.5652 10.4217 19.2422 10.2525H19.2534Z" fill="#FBBC04"/>
<path d="M4.06754 4.49665C4.0219 4.66538 3.99919 4.83949 4.00002 5.01428V18.9905C4.00048 19.1652 4.02317 19.3391 4.06754 19.5081L11.8771 11.7998L4.06754 4.49665Z" fill="#4285F4"/>
<path d="M11.6745 12.0024L15.5793 8.14823L7.09459 3.28695C6.77539 3.10001 6.41235 3.001 6.04243 3C5.59568 2.99912 5.16089 3.14434 4.80434 3.41353C4.44779 3.68272 4.18905 4.06111 4.06754 4.49102L11.6745 12.0024Z" fill="#34A853"/>
</svg>
