<svg width="24" height="24" viewBox="0 0 24 24" fill="none" xmlns="http://www.w3.org/2000/svg">
<path d="M9 21C10.6553 21 12 19.6567 12 18V15H9C7.34473 15 6 16.3433 6 18C6 19.6567 7.34473 21 9 21Z" fill="#0ACF83"/>
<path d="M6 12C6 10.3447 7.34473 9 9 9H12V15H9C7.34473 15 6 13.6567 6 12Z" fill="#A259FF"/>
<path d="M6 6C6 4.34473 7.34473 3 9 3H12V9H9C7.34473 9 6 7.65674 6 6Z" fill="#F24E1E"/>
<path d="M12 3H15C16.6553 3 18 4.34473 18 6C18 7.65674 16.6567 9 15 9H12V3Z" fill="#FF7262"/>
<path d="M18 12C18 13.6567 16.6567 15 15 15C13.3433 15 12 13.6567 12 12C12 10.3447 13.3433 9 15 9C16.6567 9 18 10.3447 18 12Z" fill="#1ABCFE"/>
</svg>
