<svg width="24" height="24" viewBox="0 0 24 24" fill="none" xmlns="http://www.w3.org/2000/svg">
<path d="M12.0004 16.5C14.4856 16.5 16.5007 14.4853 16.5007 11.9996C16.5007 9.51402 14.486 7.49929 12.0004 7.49929C9.51473 7.49929 7.5 9.51402 7.5 11.9996C7.5 14.4853 9.51473 16.5 12.0004 16.5Z" fill="white"/>
<path d="M8.10276 14.2505L4.20622 7.50141C3.4161 8.86955 3 10.4215 3 12.0014C3 13.5813 3.41574 15.1333 4.20587 16.5014C4.99599 17.8696 6.13222 19.0054 7.50071 19.7952C8.8692 20.585 10.4212 21.0004 12.0011 21L15.8976 14.2505V14.2495C15.5031 14.9339 14.935 15.5024 14.2509 15.8976C13.5668 16.2928 12.7908 16.5011 12.0007 16.5011C11.2106 16.5011 10.4346 16.2932 9.75018 15.8983C9.06576 15.5034 8.49764 14.935 8.10276 14.2505Z" fill="url(#paint0_linear_2862_9)"/>
<path d="M15.8976 14.2505L12.0011 21C13.581 21.0004 15.1326 20.5843 16.5007 19.7941C17.8688 19.0044 19.0051 17.8681 19.7948 16.5C20.5846 15.1319 21.0004 13.5795 21 11.9996C20.9996 10.4197 20.5835 8.86778 19.7931 7.5L12.0004 7.49929L11.9989 7.50071C12.7891 7.50035 13.5654 7.70787 14.2495 8.10276C14.9339 8.49764 15.502 9.06576 15.8972 9.74982C16.2925 10.4339 16.5007 11.2095 16.5007 11.9996C16.5011 12.7894 16.2928 13.5661 15.8976 14.2505Z" fill="url(#paint1_linear_2862_9)"/>
<path d="M12.0004 15.5632C13.9681 15.5632 15.5632 13.9681 15.5632 12.0004C15.5632 10.0326 13.9681 8.43754 12.0004 8.43754C10.0326 8.43754 8.43754 10.0326 8.43754 12.0004C8.43754 13.9681 10.0326 15.5632 12.0004 15.5632Z" fill="#1A73E8"/>
<path d="M12.0004 7.50035L19.7931 7.5C19.0033 6.13151 17.8678 4.99564 16.4996 4.20587C15.1315 3.41574 13.5795 3 11.9996 3C10.4198 3 8.86778 3.4161 7.49965 4.20622C6.13151 4.99635 4.99564 6.13328 4.20622 7.50141L8.10276 14.2505L8.10382 14.2512C7.70858 13.5672 7.5 12.7912 7.5 12.0011C7.5 11.2109 7.70752 10.4346 8.1024 9.75053C8.49729 9.06611 9.0654 8.498 9.74982 8.10311C10.4339 7.70787 11.2102 7.5 12.0004 7.50035Z" fill="url(#paint2_linear_2862_9)"/>
<defs>
<linearGradient id="paint0_linear_2862_9" x1="16.9205" y1="20.2504" x2="6.76952" y2="1.84912" gradientUnits="userSpaceOnUse">
<stop stop-color="#1E8E3E"/>
<stop offset="1" stop-color="#34A853"/>
</linearGradient>
<linearGradient id="paint1_linear_2862_9" x1="0.377171" y1="21.0319" x2="8.4234" y2="0.130201" gradientUnits="userSpaceOnUse">
<stop stop-color="#FCC934"/>
<stop offset="1" stop-color="#FBBC04"/>
</linearGradient>
<linearGradient id="paint2_linear_2862_9" x1="4.20618" y1="8.62561" x2="19.7937" y2="8.62561" gradientUnits="userSpaceOnUse">
<stop stop-color="#D93025"/>
<stop offset="1" stop-color="#EA4335"/>
</linearGradient>
</defs>
</svg>
