<svg width="24" height="24" viewBox="0 0 24 24" fill="none" xmlns="http://www.w3.org/2000/svg">
<path fill-rule="evenodd" clip-rule="evenodd" d="M20.64 12.1999C20.64 11.4599 20.5799 10.9199 20.45 10.3599H12V13.6999H16.9599C16.86 14.5299 16.32 15.7799 15.1199 16.6199L15.1031 16.7317L17.7748 18.8015L17.96 18.82C19.6599 17.25 20.64 14.94 20.64 12.1999Z" fill="#4285F4"/>
<path fill-rule="evenodd" clip-rule="evenodd" d="M12 20.9999C14.4299 20.9999 16.4699 20.1999 17.96 18.82L15.1199 16.6199C14.3599 17.1499 13.3399 17.5199 12 17.5199C9.61997 17.5199 7.59999 15.95 6.8799 13.78L6.77439 13.7889L3.99625 15.939L3.9599 16.0399C5.43988 18.9799 8.47993 20.9999 12 20.9999Z" fill="#34A853"/>
<path fill-rule="evenodd" clip-rule="evenodd" d="M6.8799 13.78C6.68993 13.22 6.57993 12.6199 6.57993 12C6.57993 11.3799 6.68988 10.7799 6.86991 10.22L6.86489 10.1007L4.05198 7.91611L3.95996 7.95991C3.34997 9.17993 3 10.5499 3 11.9999C3 13.4499 3.34997 14.8199 3.9599 16.0399L6.8799 13.78Z" fill="#FBBC04"/>
<path fill-rule="evenodd" clip-rule="evenodd" d="M12 6.47993C13.69 6.47993 14.8299 7.20995 15.48 7.81999L18.02 5.33998C16.46 3.88997 14.4299 3 12 3C8.47993 3 5.43999 5.01993 3.95996 7.95991L6.86991 10.22C7.59999 8.04998 9.61998 6.47993 12 6.47993Z" fill="#EA4335"/>
</svg>
