<svg width="24" height="24" viewBox="0 0 24 24" fill="none" xmlns="http://www.w3.org/2000/svg">
<path d="M15.8053 9.49762C16.9676 10.328 18.3914 10.8166 19.9291 10.8166V7.85897C19.6381 7.85904 19.3478 7.8287 19.0631 7.76841V10.0965C17.5255 10.0965 16.1018 9.60789 14.9393 8.77757V14.8132C14.9393 17.8325 12.4904 20.2799 9.46974 20.2799C8.34266 20.2799 7.29508 19.9394 6.42485 19.3553C7.41807 20.3703 8.80319 21 10.3356 21C13.3564 21 15.8055 18.5525 15.8055 15.5331V9.49762H15.8053ZM16.8737 6.51376C16.2797 5.86519 15.8897 5.02702 15.8053 4.1004V3.71999H14.9846C15.1912 4.89773 15.8958 5.90392 16.8737 6.51376ZM8.33543 17.0384C8.00358 16.6035 7.82424 16.0715 7.82505 15.5244C7.82505 14.1435 8.94515 13.0239 10.3271 13.0239C10.5846 13.0238 10.8406 13.0632 11.086 13.141V10.1173C10.7992 10.0781 10.5097 10.0614 10.2204 10.0675V12.421C9.97475 12.3432 9.71864 12.3036 9.46103 12.3039C8.07913 12.3039 6.95908 13.4234 6.95908 14.8045C6.95908 15.7811 7.51895 16.6265 8.33543 17.0384Z" fill="#FF004F"/>
<path d="M14.9393 8.77757C16.1018 9.60789 17.5255 10.0965 19.0631 10.0965V7.76841C18.2048 7.58568 17.445 7.13732 16.8737 6.51376C15.8958 5.90392 15.1912 4.89773 14.9846 3.71999H12.8289V15.533C12.8241 16.9101 11.7059 18.0252 10.3269 18.0252C9.51435 18.0252 8.79244 17.6381 8.33525 17.0384C7.51883 16.6265 6.95896 15.781 6.95896 14.8046C6.95896 13.4236 8.079 12.3039 9.46091 12.3039C9.72568 12.3039 9.98087 12.3451 10.2202 12.4211V10.0676C7.25264 10.1288 4.86596 12.5524 4.86596 15.533C4.86596 17.0209 5.46024 18.3697 6.42485 19.3553C7.29508 19.9394 8.34266 20.2799 9.46974 20.2799C12.4904 20.2799 14.9393 17.8325 14.9393 14.8132V8.77757Z" fill="black"/>
<path d="M19.0631 7.76841L19.0631 7.13886C18.2891 7.14004 17.5303 6.92345 16.8737 6.51376C17.455 7.14986 18.2204 7.58846 19.0631 7.76841ZM14.9846 3.71999C14.9649 3.60743 14.9498 3.49414 14.9393 3.38041V3H11.9629V14.8131C11.9581 16.1901 10.84 17.3052 9.46091 17.3052C9.05604 17.3052 8.67377 17.2091 8.33525 17.0384C8.79244 17.6381 9.51435 18.0252 10.3269 18.0252C11.7058 18.0252 12.8241 16.9101 12.8289 15.533V3.71999H14.9846ZM10.2204 10.0675V9.39742C9.97167 9.36344 9.72092 9.34639 9.46987 9.34652C6.44888 9.34645 4 11.794 4 14.8131C4 16.7059 4.96245 18.374 6.42498 19.3552C5.46036 18.3697 4.86596 17.0209 4.86596 15.533C4.86596 12.5525 7.25264 10.1288 10.2204 10.0675Z" fill="#00F2EA"/>
</svg>
