<svg width="24" height="24" viewBox="0 0 24 24" fill="none" xmlns="http://www.w3.org/2000/svg">
<path fill-rule="evenodd" clip-rule="evenodd" d="M5.70978 5.62295V17.1165H9.54031V19.295C9.59955 19.2385 9.63281 19.2083 9.66457 19.1765C10.3105 18.5322 10.9581 17.8895 11.6002 17.2411C11.6919 17.1486 11.7833 17.1112 11.9134 17.1116C13.252 17.116 14.5908 17.1169 15.9294 17.1091C16.0278 17.1085 16.15 17.0577 16.22 16.9886C17.0545 16.1655 17.8797 15.3329 18.7122 14.5077C18.8055 14.4152 18.8393 14.323 18.8391 14.1942C18.836 11.4036 18.8368 8.61298 18.8368 5.82237V5.6229H5.70983L5.70978 5.62295ZM16.073 13.7982H14.4832V8.93363H16.073V13.7982ZM11.7181 8.93396V13.7918H10.0994V8.93396H11.7181ZM7.37076 21.9854V19.8331H3.01113C3.00676 19.743 3.00044 19.6732 3.00044 19.6033L3.00006 16.3762V13.9084C3.00044 11.7572 3.00114 9.60588 3.00238 7.4543C3.00244 7.33718 3.02323 7.21519 3.05978 7.1039C3.38103 6.12629 3.71075 5.15148 4.03027 4.17327C4.07174 4.04659 4.12385 4.00117 4.25901 3.99988H4.26549C9.60063 4.00404 14.9357 4.00344 20.2708 4.00344C20.3231 4.00333 20.3754 4.00344 20.4497 4.00344V4.22938C20.4497 7.7195 20.4488 11.2097 20.4529 14.6998V14.7066C20.4516 14.8486 20.4084 14.9475 20.3074 15.0482C18.7594 16.5899 17.2147 18.1347 15.673 19.6826C15.5708 19.7853 15.4705 19.8282 15.3247 19.8272C14.3857 19.8205 13.4465 19.8282 12.5073 19.8199C12.3274 19.8183 12.1989 19.8653 12.0709 19.9962C11.4514 20.6294 10.8227 21.2537 10.1924 21.8761C10.1325 21.9352 10.0383 21.9938 9.95946 21.9945C9.56607 21.9984 9.17273 21.9997 8.77935 21.9999H8.5432C8.176 21.9997 7.80886 21.9989 7.44171 21.9985C7.42319 21.9985 7.40472 21.9918 7.37065 21.9853L7.37076 21.9854Z" fill="#6441A5"/>
</svg>
