<svg width="24" height="24" viewBox="0 0 24 24" fill="none" xmlns="http://www.w3.org/2000/svg">
<path fill-rule="evenodd" clip-rule="evenodd" d="M3.68508 15.4442C3.23279 14.3522 3 13.1819 3 12C3 10.8181 3.23279 9.64778 3.68508 8.55585C4.13738 7.46392 4.80031 6.47177 5.63604 5.63604C6.47177 4.80031 7.46392 4.13738 8.55585 3.68508C9.64778 3.23279 10.8181 3 12 3C13.1819 3 14.3522 3.23279 15.4442 3.68508C16.5361 4.13738 17.5282 4.80031 18.364 5.63604C19.1997 6.47177 19.8626 7.46392 20.3149 8.55585C20.7672 9.64778 21 10.8181 21 12C21 13.1819 20.7672 14.3522 20.3149 15.4442C19.8626 16.5361 19.1997 17.5282 18.364 18.364C17.5282 19.1997 16.5361 19.8626 15.4442 20.3149C14.3522 20.7672 13.1819 21 12 21C10.8181 21 9.64778 20.7672 8.55585 20.3149C7.46392 19.8626 6.47177 19.1997 5.63604 18.364C4.80031 17.5282 4.13738 16.5361 3.68508 15.4442ZM10 7C9.44772 7 9 7.44772 9 8V16C9 16.5523 9.44772 17 10 17C10.5523 17 11 16.5523 11 16V14H12.5C13.4283 14 14.3185 13.6313 14.9749 12.9749C15.6313 12.3185 16 11.4283 16 10.5C16 9.57174 15.6313 8.6815 14.9749 8.02513C14.3185 7.36875 13.4283 7 12.5 7H10ZM12.5 12H11V9H12.5C12.8978 9 13.2794 9.15804 13.5607 9.43934C13.842 9.72064 14 10.1022 14 10.5C14 10.8978 13.842 11.2794 13.5607 11.5607C13.2794 11.842 12.8978 12 12.5 12Z" fill="#DA552F"/>
</svg>
