<svg width="24" height="24" viewBox="0 0 24 24" fill="none" xmlns="http://www.w3.org/2000/svg">
<path d="M14.983 3L15.106 3.006C17.12 3.22 18.633 3.678 20.072 4.679C20.2437 4.79882 20.3735 4.96951 20.443 5.167C22.319 10.482 22.816 15.154 21.894 17.447C20.891 19.452 19.288 21 17.5 21C16.768 21 15.807 20.032 15.172 18.955C15.8808 18.826 16.5827 18.6614 17.275 18.462C17.4013 18.4259 17.5193 18.3652 17.6222 18.2835C17.7251 18.2018 17.8109 18.1006 17.8747 17.9858C17.9385 17.8709 17.979 17.7446 17.994 17.6141C18.009 17.4835 17.9981 17.3513 17.962 17.225C17.9259 17.0987 17.8652 16.9807 17.7835 16.8778C17.7018 16.7749 17.6007 16.6891 17.4858 16.6253C17.3709 16.5615 17.2446 16.521 17.1141 16.506C16.9835 16.491 16.8513 16.5019 16.725 16.538C13.405 17.488 10.595 17.488 7.275 16.538C7.01986 16.4651 6.7462 16.4965 6.51422 16.6253C6.28224 16.7541 6.11094 16.9699 6.038 17.225C5.96507 17.4801 5.99647 17.7538 6.12531 17.9858C6.25415 18.2178 6.46986 18.3891 6.725 18.462C7.442 18.666 8.141 18.832 8.828 18.956C8.193 20.031 7.232 21 6.5 21C4.712 21 3.109 19.452 2.072 17.371C1.184 15.154 1.682 10.481 3.557 5.167C3.62653 4.96951 3.7563 4.79882 3.928 4.679C5.367 3.678 6.88 3.22 8.894 3.006C9.07467 2.98673 9.25717 3.01704 9.4219 3.09368C9.58663 3.17032 9.72737 3.29039 9.829 3.441L9.892 3.548L10.543 4.833L10.68 4.817C11.5587 4.727 12.4443 4.727 13.323 4.817L13.457 4.833L14.107 3.549C14.1797 3.40479 14.2863 3.28035 14.4176 3.18631C14.5489 3.09227 14.7011 3.03143 14.861 3.009L14.983 3ZM9 10C8.52206 9.99998 8.05992 10.1711 7.69726 10.4824C7.3346 10.7937 7.09541 11.2246 7.023 11.697L7.005 11.851L7 12L7.005 12.15C7.03419 12.538 7.17595 12.9092 7.4129 13.2178C7.64986 13.5265 7.97172 13.7594 8.33904 13.8878C8.70637 14.0163 9.10319 14.0349 9.48089 13.9412C9.85859 13.8475 10.2007 13.6456 10.4654 13.3604C10.7301 13.0751 10.9059 12.7188 10.9711 12.3352C11.0363 11.9516 10.9882 11.5572 10.8326 11.2005C10.6771 10.8438 10.4208 10.5403 10.0953 10.327C9.7698 10.1138 9.38915 10.0001 9 10ZM15 10C14.5221 9.99998 14.0599 10.1711 13.6973 10.4824C13.3346 10.7937 13.0954 11.2246 13.023 11.697L13.005 11.851L13 12L13.005 12.15C13.0342 12.538 13.1759 12.9092 13.4129 13.2178C13.6499 13.5265 13.9717 13.7594 14.339 13.8878C14.7064 14.0163 15.1032 14.0349 15.4809 13.9412C15.8586 13.8475 16.2007 13.6456 16.4654 13.3604C16.7301 13.0751 16.9059 12.7188 16.9711 12.3352C17.0363 11.9516 16.9882 11.5572 16.8326 11.2005C16.6771 10.8438 16.4208 10.5403 16.0953 10.327C15.7698 10.1138 15.3891 10.0001 15 10Z" fill="#5865F2"/>
</svg>
