<svg width="24" height="24" viewBox="0 0 24 24" fill="none" xmlns="http://www.w3.org/2000/svg">
<path fill-rule="evenodd" clip-rule="evenodd" d="M12.1601 3C7.0948 3 3 7.12498 3 12.2281C3 16.3074 5.62368 19.7604 9.26341 20.9825C9.71847 21.0744 9.88516 20.7839 9.88516 20.5396C9.88516 20.3257 9.87016 19.5924 9.87016 18.8284C7.32204 19.3784 6.79143 17.7282 6.79143 17.7282C6.38193 16.6587 5.77518 16.3839 5.77518 16.3839C4.94117 15.8185 5.83592 15.8185 5.83592 15.8185C6.76105 15.8797 7.24648 16.7658 7.24648 16.7658C8.06529 18.1713 9.38472 17.7742 9.91554 17.5297C9.99128 16.9338 10.2341 16.5214 10.4919 16.2922C8.4596 16.0783 6.32136 15.2839 6.32136 11.7392C6.32136 10.7308 6.68511 9.90578 7.26148 9.26416C7.17054 9.03504 6.85198 8.08761 7.3526 6.81954C7.3526 6.81954 8.12605 6.57505 9.86998 7.76679C10.6166 7.5648 11.3866 7.46204 12.1601 7.46117C12.9336 7.46117 13.722 7.56823 14.4501 7.76679C16.1942 6.57505 16.9676 6.81954 16.9676 6.81954C17.4682 8.08761 17.1494 9.03504 17.0585 9.26416C17.6501 9.90578 17.9988 10.7308 17.9988 11.7392C17.9988 15.2839 15.8607 16.0629 13.8131 16.2922C14.1468 16.5824 14.4348 17.1324 14.4348 18.0033C14.4348 19.2408 14.4199 20.234 14.4199 20.5394C14.4199 20.7839 14.5867 21.0744 15.0416 20.9827C18.6814 19.7602 21.305 16.3074 21.305 12.2281C21.32 7.12498 17.2102 3 12.1601 3Z" fill="black"/>
</svg>
