<svg width="24" height="24" viewBox="0 0 24 24" fill="none" xmlns="http://www.w3.org/2000/svg">
<path d="M19.2471 16.3973C19.0071 16.5229 18.7596 16.6335 18.506 16.7285C17.6988 17.0306 16.8437 17.1844 15.9818 17.1827C12.6546 17.1827 9.75633 14.8941 9.75633 11.9571C9.76059 11.5632 9.8699 11.1776 10.073 10.84C10.2761 10.5024 10.5655 10.2252 10.9116 10.0369C7.90219 10.1634 7.12875 13.2994 7.12875 15.1366C7.12875 20.3313 11.9163 20.858 12.9478 20.858C13.504 20.858 14.3428 20.6963 14.8462 20.5373L14.9384 20.5064C16.8756 19.8367 18.5272 18.5273 19.6212 16.7939C19.6547 16.7411 19.6696 16.6787 19.6637 16.6164C19.6577 16.5542 19.6312 16.4957 19.5883 16.4502C19.5454 16.4047 19.4886 16.3748 19.4268 16.3653C19.365 16.3557 19.3018 16.367 19.2471 16.3973Z" fill="url(#paint0_linear_2862_20)"/>
<path d="M19.2471 16.3973C19.0071 16.5229 18.7596 16.6335 18.506 16.7285C17.6988 17.0306 16.8437 17.1844 15.9818 17.1827C12.6546 17.1827 9.75633 14.8941 9.75633 11.9571C9.76059 11.5632 9.8699 11.1776 10.073 10.84C10.2761 10.5024 10.5655 10.2252 10.9116 10.0369C7.90219 10.1634 7.12875 13.2994 7.12875 15.1366C7.12875 20.3313 11.9163 20.858 12.9478 20.858C13.504 20.858 14.3428 20.6963 14.8462 20.5373L14.9384 20.5064C16.8756 19.8367 18.5272 18.5273 19.6212 16.7939C19.6547 16.7411 19.6696 16.6787 19.6637 16.6164C19.6577 16.5542 19.6312 16.4957 19.5883 16.4502C19.5454 16.4047 19.4886 16.3748 19.4268 16.3653C19.365 16.3557 19.3018 16.367 19.2471 16.3973Z" fill="url(#paint1_radial_2862_20)"/>
<path d="M10.4341 19.9748C9.807 19.5856 9.26349 19.0756 8.83523 18.4744C8.34712 17.8056 8.01122 17.0382 7.85111 16.2259C7.691 15.4135 7.71055 14.576 7.90839 13.7721C8.10623 12.9681 8.47757 12.2172 8.99637 11.5719C9.51516 10.9267 10.1688 10.4027 10.9116 10.0369C11.1309 9.93352 11.5057 9.74648 12.0042 9.75563C12.3554 9.75818 12.7013 9.84204 13.0147 10.0006C13.3281 10.1592 13.6005 10.3882 13.8105 10.6697C14.0945 11.0488 14.251 11.5081 14.2577 11.9817C14.2577 11.967 15.9776 6.38484 8.63273 6.38484C5.54602 6.38484 3.00773 9.31406 3.00773 11.884C2.99556 13.2434 3.28643 14.5885 3.85922 15.8215C4.79531 17.8188 6.43227 19.4027 8.45927 20.2726C10.4863 21.1425 12.7621 21.2377 14.8547 20.5402C14.122 20.7712 13.3479 20.8405 12.5858 20.7434C11.8238 20.6463 11.0918 20.385 10.4405 19.9777L10.4341 19.9748Z" fill="url(#paint2_linear_2862_20)"/>
<path d="M10.4341 19.9748C9.807 19.5856 9.26349 19.0756 8.83523 18.4744C8.34712 17.8056 8.01122 17.0382 7.85111 16.2259C7.691 15.4135 7.71055 14.576 7.90839 13.7721C8.10623 12.9681 8.47757 12.2172 8.99637 11.5719C9.51516 10.9267 10.1688 10.4027 10.9116 10.0369C11.1309 9.93352 11.5057 9.74648 12.0042 9.75563C12.3554 9.75818 12.7013 9.84204 13.0147 10.0006C13.3281 10.1592 13.6005 10.3882 13.8105 10.6697C14.0945 11.0488 14.251 11.5081 14.2577 11.9817C14.2577 11.967 15.9776 6.38484 8.63273 6.38484C5.54602 6.38484 3.00773 9.31406 3.00773 11.884C2.99556 13.2434 3.28643 14.5885 3.85922 15.8215C4.79531 17.8188 6.43227 19.4027 8.45927 20.2726C10.4863 21.1425 12.7621 21.2377 14.8547 20.5402C14.122 20.7712 13.3479 20.8405 12.5858 20.7434C11.8238 20.6463 11.0918 20.385 10.4405 19.9777L10.4341 19.9748Z" fill="url(#paint3_radial_2862_20)"/>
<path d="M13.7107 13.4667C13.6537 13.5405 13.4787 13.6425 13.4787 13.8647C13.4787 14.0482 13.5982 14.2247 13.8105 14.373C14.8216 15.0762 16.7278 14.9834 16.7327 14.9834C17.4819 14.9816 18.2169 14.7788 18.8611 14.3962C19.5109 14.0168 20.0503 13.4741 20.4256 12.8219C20.8009 12.1696 20.9992 11.4306 21.0007 10.6781C21.019 9.10242 20.4382 8.05477 20.2034 7.5907C18.7134 4.67625 15.4973 3 12 3C9.63482 2.99977 7.36461 3.93058 5.68037 5.59114C3.99613 7.25169 3.03326 9.50849 3 11.8734C3.03375 9.30422 5.5875 7.2293 8.625 7.2293C8.87109 7.2293 10.2745 7.2532 11.5781 7.93734C12.727 8.54062 13.3289 9.26906 13.7473 9.99117C14.1818 10.7414 14.2591 11.6892 14.2591 12.0668C14.2591 12.4444 14.0665 13.0041 13.7107 13.4667Z" fill="url(#paint4_radial_2862_20)"/>
<path d="M13.7107 13.4667C13.6537 13.5405 13.4787 13.6425 13.4787 13.8647C13.4787 14.0482 13.5982 14.2247 13.8105 14.373C14.8216 15.0762 16.7278 14.9834 16.7327 14.9834C17.4819 14.9816 18.2169 14.7788 18.8611 14.3962C19.5109 14.0168 20.0503 13.4741 20.4256 12.8219C20.8009 12.1696 20.9992 11.4306 21.0007 10.6781C21.019 9.10242 20.4382 8.05477 20.2034 7.5907C18.7134 4.67625 15.4973 3 12 3C9.63482 2.99977 7.36461 3.93058 5.68037 5.59114C3.99613 7.25169 3.03326 9.50849 3 11.8734C3.03375 9.30422 5.5875 7.2293 8.625 7.2293C8.87109 7.2293 10.2745 7.2532 11.5781 7.93734C12.727 8.54062 13.3289 9.26906 13.7473 9.99117C14.1818 10.7414 14.2591 11.6892 14.2591 12.0668C14.2591 12.4444 14.0665 13.0041 13.7107 13.4667Z" fill="url(#paint5_radial_2862_20)"/>
<defs>
<linearGradient id="paint0_linear_2862_20" x1="3" y1="12.0034" x2="21.0059" y2="12.0034" gradientUnits="userSpaceOnUse">
<stop stop-color="#0C59A4"/>
<stop offset="1" stop-color="#114A8B"/>
</linearGradient>
<radialGradient id="paint1_radial_2862_20" cx="0" cy="0" r="1" gradientUnits="userSpaceOnUse" gradientTransform="translate(12.9449 12.1678) scale(9.62993 10.599)">
<stop offset="0.72" stop-opacity="0"/>
<stop offset="0.95" stop-opacity="0.53"/>
<stop offset="1"/>
</radialGradient>
<linearGradient id="paint2_linear_2862_20" x1="19.3067" y1="7.46395" x2="10.0336" y2="19.9254" gradientUnits="userSpaceOnUse">
<stop stop-color="#1B9DE2"/>
<stop offset="0.16" stop-color="#1595DF"/>
<stop offset="0.67" stop-color="#0680D7"/>
<stop offset="1" stop-color="#0078D4"/>
</linearGradient>
<radialGradient id="paint3_radial_2862_20" cx="0" cy="0" r="1" gradientUnits="userSpaceOnUse" gradientTransform="translate(10.5307 16.0644) rotate(-79.4119) scale(12.4925 12.3075)">
<stop offset="0.76" stop-opacity="0"/>
<stop offset="0.95" stop-opacity="0.5"/>
<stop offset="1"/>
</radialGradient>
<radialGradient id="paint4_radial_2862_20" cx="0" cy="0" r="1" gradientUnits="userSpaceOnUse" gradientTransform="translate(4.81846 8.00259) rotate(91.5258) scale(21.3825 30.3518)">
<stop stop-color="#35C1F1"/>
<stop offset="0.11" stop-color="#34C1ED"/>
<stop offset="0.23" stop-color="#2FC2DF"/>
<stop offset="0.31" stop-color="#2BC3D2"/>
<stop offset="0.67" stop-color="#36C752"/>
</radialGradient>
<radialGradient id="paint5_radial_2862_20" cx="0" cy="0" r="1" gradientUnits="userSpaceOnUse" gradientTransform="translate(19.8801 8.44262) rotate(73.7398) scale(6.84422 5.56572)">
<stop stop-color="#66EB6E"/>
<stop offset="1" stop-color="#66EB6E" stop-opacity="0"/>
</radialGradient>
</defs>
</svg>
