<svg width="24" height="24" viewBox="0 0 24 24" fill="none" xmlns="http://www.w3.org/2000/svg">
<path d="M21 12C21 16.9706 16.9706 21 12 21C7.02944 21 3 16.9706 3 12C3 7.02944 7.02944 3 12 3C16.9706 3 21 7.02944 21 12Z" fill="url(#paint0_linear_2847_22)"/>
<path d="M11.9235 7.13551L12.288 6.50551C12.513 6.11176 13.0147 5.97901 13.4085 6.20401C13.8022 6.42901 13.935 6.93076 13.71 7.32451L10.1977 13.404H12.738C13.5615 13.404 14.0227 14.3715 13.665 15.042H6.2175C5.763 15.042 5.3985 14.6775 5.3985 14.223C5.3985 13.7685 5.763 13.404 6.2175 13.404H8.3055L10.9785 8.77126L10.1437 7.32226C9.91875 6.92851 10.0515 6.43126 10.4452 6.20176C10.839 5.97676 11.3362 6.10951 11.5657 6.50326L11.9235 7.13551ZM8.7645 15.8858L7.977 17.2515C7.752 17.6453 7.25025 17.778 6.8565 17.553C6.46275 17.328 6.33 16.8263 6.555 16.4325L7.14 15.42C7.8015 15.2153 8.33925 15.3728 8.7645 15.8858ZM15.546 13.4085H17.6767C18.1312 13.4085 18.4957 13.773 18.4957 14.2275C18.4957 14.682 18.1312 15.0465 17.6767 15.0465H16.4932L17.292 16.4325C17.517 16.8263 17.3842 17.3235 16.9905 17.553C16.5967 17.778 16.0995 17.6453 15.87 17.2515C14.5245 14.9183 13.5142 13.1723 12.8437 12.009C12.1575 10.8255 12.648 9.63751 13.1317 9.23476C13.6695 10.1573 14.4727 11.55 15.546 13.4085Z" fill="white"/>
<defs>
<linearGradient id="paint0_linear_2847_22" x1="12" y1="3" x2="12" y2="21" gradientUnits="userSpaceOnUse">
<stop stop-color="#18BFFB"/>
<stop offset="1" stop-color="#2072F3"/>
</linearGradient>
</defs>
</svg>
