<svg width="24" height="24" viewBox="0 0 24 24" fill="none" xmlns="http://www.w3.org/2000/svg">
<path d="M13.5105 8.23793C13.5105 11.1309 11.1574 13.4759 8.25526 13.4759C5.35273 13.4759 3 11.1305 3 8.23793C3 5.34495 5.35309 3 8.25526 3C11.1578 3 13.5105 5.34495 13.5105 8.23793Z" fill="url(#paint0_linear_2862_62)"/>
<path d="M20.8348 15.7603C20.8348 18.6543 18.481 21 15.5774 21C12.6738 21 10.32 18.654 10.32 15.7603C10.32 12.8666 12.6738 10.5206 15.5774 10.5206C18.481 10.5206 20.8348 12.8663 20.8348 15.7603Z" fill="url(#paint1_linear_2862_62)"/>
<path opacity="0.05" fill-rule="evenodd" clip-rule="evenodd" d="M3.01874 8.68618C3.2572 11.5785 5.79532 13.7299 8.68759 13.4914C11.5799 13.253 13.7313 10.7148 13.4928 7.82257C13.2883 5.34495 11.3757 3.34955 8.90906 3.04033C6.20006 3.9464 4.03908 6.01786 3.01874 8.68618Z" fill="black"/>
<path opacity="0.05" fill-rule="evenodd" clip-rule="evenodd" d="M20.821 15.3839C20.6225 12.4873 18.1137 10.3005 15.2172 10.499C12.3207 10.6975 10.1339 13.2063 10.3324 16.1028C10.5089 18.6787 12.5298 20.7449 15.1012 20.9784C17.7348 20.0405 19.8254 17.9959 20.821 15.3835V15.3839Z" fill="black"/>
<path opacity="0.1" fill-rule="evenodd" clip-rule="evenodd" d="M3.26498 9.88379C4.16645 12.6413 7.13266 14.1459 9.89014 13.2445C12.6476 12.343 14.1523 9.3768 13.2508 6.61933C12.7552 5.10296 11.5972 3.89405 10.1035 3.33328C6.75941 4.03026 4.10525 6.57263 3.26498 9.88379Z" fill="black"/>
<path opacity="0.1" fill-rule="evenodd" clip-rule="evenodd" d="M20.5822 14.1527C19.7019 11.3874 16.7463 9.85902 13.9811 10.7393C11.2158 11.6195 9.68742 14.5751 10.5677 17.3407C11.0718 18.9243 12.2952 20.176 13.8668 20.7163C17.167 19.9754 19.7663 17.4352 20.5822 14.1527Z" fill="black"/>
<path opacity="0.1" fill-rule="evenodd" clip-rule="evenodd" d="M3.45816 10.3805C4.63488 13.0315 7.73766 14.227 10.389 13.0506C13.0403 11.8742 14.2354 8.7711 13.0591 6.11976C12.5627 5.00106 11.691 4.09075 10.5949 3.54662C7.01839 4.10313 4.16893 6.8316 3.45816 10.3805Z" fill="black"/>
<path opacity="0.1" fill-rule="evenodd" clip-rule="evenodd" d="M20.3883 13.6457C19.2275 10.9865 16.1311 9.77162 13.4716 10.9324C10.8125 12.0932 9.59758 15.1896 10.7584 17.8491C11.2714 19.0248 12.1969 19.9722 13.3605 20.5125C16.9045 19.91 19.7041 17.1748 20.3883 13.6457Z" fill="black"/>
<path d="M20.2418 12.0391C20.2418 16.6211 16.5149 20.3352 11.9181 20.3352C7.32088 20.3352 3.59436 16.6207 3.59436 12.0391C3.59436 7.4571 7.32123 3.74297 11.9181 3.74297C16.5153 3.74261 20.2418 7.4571 20.2418 12.0391Z" fill="url(#paint2_linear_2862_62)"/>
<path fill-rule="evenodd" clip-rule="evenodd" d="M9.57738 11.7507C9.24092 11.5293 8.96036 11.2331 8.75728 10.8857C8.56128 10.5185 8.46434 10.1063 8.47637 9.68989C8.46151 9.16167 8.64195 8.64655 8.98265 8.24251C9.33715 7.83707 9.79249 7.5328 10.3027 7.3605C10.8574 7.1645 11.4422 7.06615 12.0306 7.06933C12.4155 7.06579 12.8001 7.09516 13.1801 7.15743C13.4521 7.19953 13.7193 7.26852 13.9775 7.36333C14.2146 7.44365 14.429 7.58021 14.6016 7.76171C14.729 7.91101 14.7973 8.10135 14.7941 8.29735C14.8033 8.50291 14.7304 8.70386 14.5914 8.85599C14.4597 8.9961 14.2744 9.07358 14.0819 9.06827C13.951 9.06721 13.8219 9.0382 13.7033 8.98301C13.4107 8.8521 13.1093 8.74172 12.8015 8.65292C12.5181 8.57826 12.2259 8.54182 11.9326 8.54501C11.5505 8.53086 11.1726 8.6278 10.8443 8.82344C10.562 8.99503 10.3957 9.30637 10.4099 9.63646C10.4077 9.8491 10.4888 10.0543 10.6356 10.2082C10.81 10.389 11.0159 10.5365 11.2434 10.6434C11.4981 10.7697 11.8781 10.9374 12.3833 11.1461C12.4392 11.1638 12.4937 11.1857 12.5464 11.2116C13.0393 11.4065 13.5119 11.6496 13.9577 11.9368C14.3097 12.1661 14.6062 12.4707 14.8266 12.8284C15.0435 13.2045 15.1521 13.6329 15.1404 14.0667C15.1585 14.5977 15.0064 15.121 14.706 15.5593C14.4 15.9743 13.9768 16.2885 13.4911 16.4612C12.9055 16.6703 12.2864 16.7714 11.6648 16.7587C10.8104 16.7888 9.95983 16.6278 9.17547 16.2878C8.97487 16.1986 8.79903 16.0617 8.66317 15.8894C8.55031 15.7316 8.49158 15.5413 8.49654 15.3471C8.48522 15.1397 8.56517 14.9381 8.71554 14.7951C8.8712 14.6589 9.07322 14.5875 9.28019 14.596C9.51051 14.5991 9.73694 14.6572 9.94002 14.7658C10.193 14.8921 10.3922 14.9869 10.5383 15.0502C10.7049 15.1199 10.8776 15.1748 11.0541 15.2133C11.2717 15.2611 11.4942 15.2841 11.7171 15.2816C12.1113 15.3099 12.5036 15.2052 12.8312 14.9848C13.0803 14.7898 13.22 14.487 13.207 14.171C13.2073 13.9503 13.1231 13.7376 12.9717 13.577C12.7714 13.3704 12.5372 13.1999 12.2793 13.0729C11.974 12.9119 11.5448 12.7162 10.9918 12.4849C10.4969 12.2889 10.0232 12.0426 9.57738 11.7507Z" fill="white"/>
<defs>
<linearGradient id="paint0_linear_2862_62" x1="7.43527" y1="3.06425" x2="9.07463" y2="13.4136" gradientUnits="userSpaceOnUse">
<stop offset="0.012" stop-color="#00B7F0"/>
<stop offset="0.339" stop-color="#009DE5"/>
<stop offset="0.755" stop-color="#0082D9"/>
<stop offset="1" stop-color="#0078D4"/>
</linearGradient>
<linearGradient id="paint1_linear_2862_62" x1="11.0275" y1="18.3879" x2="20.1273" y2="13.1344" gradientUnits="userSpaceOnUse">
<stop stop-color="#0078D4"/>
<stop offset="0.37" stop-color="#007AD5"/>
<stop offset="0.573" stop-color="#0082D9"/>
<stop offset="0.735" stop-color="#0090DF"/>
<stop offset="0.875" stop-color="#00A3E7"/>
<stop offset="1" stop-color="#00BCF2"/>
</linearGradient>
<linearGradient id="paint2_linear_2862_62" x1="8.66988" y1="6.41409" x2="16.9745" y2="20.7979" gradientUnits="userSpaceOnUse">
<stop stop-color="#00B7F0"/>
<stop offset="1" stop-color="#007CC1"/>
</linearGradient>
</defs>
</svg>
