<svg width="24" height="24" viewBox="0 0 24 24" fill="none" xmlns="http://www.w3.org/2000/svg">
<path d="M12.0054 3C8.24695 3 7.14775 3.00388 6.93409 3.0216C6.16279 3.08571 5.68284 3.20716 5.15997 3.46749C4.75701 3.66758 4.43921 3.89952 4.12557 4.22466C3.55437 4.8176 3.20819 5.54708 3.08287 6.4142C3.02194 6.83516 3.00422 6.92101 3.00062 9.07122C2.99923 9.78796 3.00062 10.7312 3.00062 11.9965C3.00062 15.7519 3.00477 16.85 3.02277 17.0632C3.08508 17.8137 3.20279 18.2859 3.45204 18.8024C3.92839 19.7911 4.83816 20.5333 5.90994 20.8103C6.28105 20.9058 6.69093 20.9585 7.21713 20.9834C7.44007 20.9931 9.71241 21 11.9861 21C14.2599 21 16.5336 20.9972 16.751 20.9862C17.3603 20.9575 17.7141 20.91 18.1053 20.8089C19.184 20.5306 20.0771 19.7994 20.5632 18.7969C20.8076 18.2928 20.9315 17.8027 20.9876 17.0913C20.9998 16.9362 21.0049 14.4635 21.0049 11.9941C21.0049 9.52431 20.9994 7.05616 20.9872 6.90107C20.9304 6.17824 20.8065 5.6922 20.5542 5.17846C20.3472 4.75792 20.1173 4.44386 19.7836 4.12274C19.188 3.55389 18.4596 3.20771 17.5917 3.08253C17.1711 3.02174 17.0874 3.00374 14.9355 3H12.0054Z" fill="url(#paint0_radial_2842_10)"/>
<path d="M12.0054 3C8.24695 3 7.14775 3.00388 6.93409 3.0216C6.16279 3.08571 5.68284 3.20716 5.15997 3.46749C4.75701 3.66758 4.43921 3.89952 4.12557 4.22466C3.55437 4.8176 3.20819 5.54708 3.08287 6.4142C3.02194 6.83516 3.00422 6.92101 3.00062 9.07122C2.99923 9.78796 3.00062 10.7312 3.00062 11.9965C3.00062 15.7519 3.00477 16.85 3.02277 17.0632C3.08508 17.8137 3.20279 18.2859 3.45204 18.8024C3.92839 19.7911 4.83816 20.5333 5.90994 20.8103C6.28105 20.9058 6.69093 20.9585 7.21713 20.9834C7.44007 20.9931 9.71241 21 11.9861 21C14.2599 21 16.5336 20.9972 16.751 20.9862C17.3603 20.9575 17.7141 20.91 18.1053 20.8089C19.184 20.5306 20.0771 19.7994 20.5632 18.7969C20.8076 18.2928 20.9315 17.8027 20.9876 17.0913C20.9998 16.9362 21.0049 14.4635 21.0049 11.9941C21.0049 9.52431 20.9994 7.05616 20.9872 6.90107C20.9304 6.17824 20.8065 5.6922 20.5542 5.17846C20.3472 4.75792 20.1173 4.44386 19.7836 4.12274C19.188 3.55389 18.4596 3.20771 17.5917 3.08253C17.1711 3.02174 17.0874 3.00374 14.9355 3H12.0054Z" fill="url(#paint1_radial_2842_10)"/>
<path d="M12.0012 5.35405C10.1961 5.35405 9.96956 5.36194 9.26058 5.3942C8.55298 5.42661 8.06998 5.53863 7.64736 5.703C7.2102 5.87277 6.83937 6.09986 6.46993 6.46945C6.1002 6.83889 5.87311 7.20973 5.70278 7.64675C5.538 8.06951 5.42584 8.55264 5.39399 9.25996C5.36228 9.96894 5.35397 10.1956 5.35397 12.0008C5.35397 13.8059 5.362 14.0317 5.39413 14.7407C5.42667 15.4483 5.53869 15.9313 5.70292 16.3539C5.87283 16.7911 6.09992 17.1619 6.46951 17.5314C6.83882 17.9011 7.20965 18.1288 7.64653 18.2985C8.06943 18.4629 8.55256 18.5749 9.26002 18.6073C9.96901 18.6396 10.1954 18.6475 12.0004 18.6475C13.8057 18.6475 14.0315 18.6396 14.7405 18.6073C15.4481 18.5749 15.9317 18.4629 16.3546 18.2985C16.7916 18.1288 17.1619 17.9011 17.5312 17.5314C17.9009 17.1619 18.128 16.7911 18.2983 16.3541C18.4617 15.9313 18.5739 15.4482 18.6071 14.7409C18.639 14.0319 18.6473 13.8059 18.6473 12.0008C18.6473 10.1956 18.639 9.96908 18.6071 9.2601C18.5739 8.5525 18.4617 8.06951 18.2983 7.64689C18.128 7.20973 17.9009 6.83889 17.5312 6.46945C17.1614 6.09972 16.7917 5.87263 16.3541 5.703C15.9304 5.53863 15.4471 5.42661 14.7395 5.3942C14.0306 5.36194 13.8049 5.35405 11.9992 5.35405H12.0012ZM11.405 6.55184C11.5819 6.55156 11.7794 6.55184 12.0012 6.55184C13.7759 6.55184 13.9863 6.55821 14.6871 6.59006C15.3351 6.61969 15.6868 6.72798 15.9211 6.81895C16.2313 6.93943 16.4525 7.08344 16.685 7.31607C16.9176 7.54871 17.0616 7.77027 17.1824 8.08045C17.2733 8.31447 17.3818 8.66619 17.4113 9.31424C17.4431 10.0149 17.45 10.2254 17.45 11.9992C17.45 13.7731 17.4431 13.9836 17.4113 14.6842C17.3816 15.3323 17.2733 15.684 17.1824 15.918C17.0619 16.2282 16.9176 16.4491 16.685 16.6816C16.4523 16.9142 16.2315 17.0582 15.9211 17.1787C15.6871 17.2701 15.3351 17.3781 14.6871 17.4077C13.9864 17.4396 13.7759 17.4465 12.0012 17.4465C10.2264 17.4465 10.0161 17.4396 9.31541 17.4077C8.66736 17.3778 8.31564 17.2695 8.0812 17.1786C7.77102 17.0581 7.54946 16.9141 7.31683 16.6814C7.08419 16.4488 6.94018 16.2278 6.81943 15.9175C6.72845 15.6835 6.62003 15.3317 6.59054 14.6837C6.55869 13.983 6.55232 13.7725 6.55232 11.9976C6.55232 10.2226 6.55869 10.0133 6.59054 9.31258C6.62017 8.66453 6.72845 8.3128 6.81943 8.07851C6.9399 7.76833 7.08419 7.54677 7.31683 7.31413C7.54946 7.0815 7.77102 6.93749 8.0812 6.81674C8.3155 6.72535 8.66736 6.61734 9.31541 6.58757C9.92857 6.55987 10.1662 6.55156 11.405 6.55018V6.55184ZM15.5492 7.65547C15.1089 7.65547 14.7516 8.01232 14.7516 8.4528C14.7516 8.89314 15.1089 9.25041 15.5492 9.25041C15.9895 9.25041 16.3468 8.89314 16.3468 8.4528C16.3468 8.01245 15.9895 7.65519 15.5492 7.65519V7.65547ZM12.0012 8.5874C10.1162 8.5874 8.58787 10.1157 8.58787 12.0008C8.58787 13.8858 10.1162 15.4134 12.0012 15.4134C13.8863 15.4134 15.4141 13.8858 15.4141 12.0008C15.4141 10.1157 13.8863 8.5874 12.0012 8.5874ZM12.0012 9.78519C13.2248 9.78519 14.2168 10.7771 14.2168 12.0008C14.2168 13.2243 13.2248 14.2163 12.0012 14.2163C10.7776 14.2163 9.78567 13.2243 9.78567 12.0008C9.78567 10.7771 10.7776 9.78519 12.0012 9.78519Z" fill="white"/>
<defs>
<radialGradient id="paint0_radial_2842_10" cx="0" cy="0" r="1" gradientUnits="userSpaceOnUse" gradientTransform="translate(7.78258 22.3864) rotate(-90) scale(17.8393 16.5965)">
<stop stop-color="#FFDD55"/>
<stop offset="0.1" stop-color="#FFDD55"/>
<stop offset="0.5" stop-color="#FF543E"/>
<stop offset="1" stop-color="#C837AB"/>
</radialGradient>
<radialGradient id="paint1_radial_2842_10" cx="0" cy="0" r="1" gradientUnits="userSpaceOnUse" gradientTransform="translate(-0.0159172 4.29669) rotate(78.6776) scale(7.97434 32.8788)">
<stop stop-color="#3771C8"/>
<stop offset="0.128" stop-color="#3771C8"/>
<stop offset="1" stop-color="#6600FF" stop-opacity="0"/>
</radialGradient>
</defs>
</svg>
