<svg width="24" height="24" viewBox="0 0 24 24" fill="none" xmlns="http://www.w3.org/2000/svg">
<path fill-rule="evenodd" clip-rule="evenodd" d="M6.69141 3H17.3086C19.3451 3.00545 20.9946 4.65488 21 6.69127V17.3086C20.9946 19.3451 19.3451 20.9945 17.3087 20.9999L6.69141 21C4.65495 20.9945 3.00548 19.3451 3.00007 17.3087L3 6.69141C3.00548 4.65488 4.65505 3.00545 6.69141 3Z" fill="black"/>
<path d="M12.7154 11.9999C12.7154 13.7513 11.3053 15.1711 9.56578 15.1711C7.82628 15.1711 6.41631 13.7517 6.41631 11.9999C6.41631 10.2482 7.82639 8.82887 9.56578 8.82887C11.3052 8.82887 12.7154 10.2486 12.7154 11.9999ZM16.1705 11.9999C16.1705 13.6487 15.4654 14.985 14.5957 14.985C13.726 14.985 13.0209 13.6482 13.0209 11.9999C13.0209 10.3517 13.726 9.01485 14.5957 9.01485C15.4654 9.01485 16.1705 10.3517 16.1705 11.9999ZM17.5837 11.9999C17.5837 13.4771 17.3357 14.6745 17.0298 14.6745C16.7239 14.6745 16.476 13.4767 16.476 11.9999C16.476 10.5232 16.7239 9.32542 17.0299 9.32542C17.3359 9.32542 17.5837 10.5229 17.5837 11.9999Z" fill="white"/>
</svg>
