<svg width="24" height="24" viewBox="0 0 24 24" fill="none" xmlns="http://www.w3.org/2000/svg">
<path fill-rule="evenodd" clip-rule="evenodd" d="M23.1584 5.12825C22.3438 5.49254 21.4662 5.73465 20.5498 5.84254C21.4887 5.28028 22.2067 4.38929 22.5495 3.32846C21.672 3.84744 20.6967 4.22809 19.6633 4.43171C18.8324 3.54883 17.6523 3 16.3449 3C13.8346 3 11.8021 5.03359 11.8021 7.54235C11.8021 7.8964 11.8414 8.24281 11.9183 8.57685C8.14112 8.3854 4.79242 6.57717 2.55077 3.82597C2.14865 4.51965 1.93586 5.3084 1.93586 6.11057V6.1111C1.93586 7.68633 2.73564 9.07955 3.95601 9.89203C3.21134 9.86989 2.51088 9.66222 1.89584 9.32571V9.38248C1.89584 11.5854 3.46163 13.4235 5.54221 13.839C5.16104 13.9425 4.75865 13.9997 4.34411 13.9997C4.05048 13.9997 3.76755 13.9694 3.48622 13.9183C4.06736 15.7224 5.74477 17.0376 7.73122 17.076C6.17367 18.2962 4.2174 19.0228 2.08477 19.0228C1.71668 19.0228 1.35811 19.0002 1 18.9574C3.01597 20.2509 5.40414 21 7.96967 21C16.3281 21 20.9028 14.0733 20.9028 8.06744C20.9028 7.86788 20.8983 7.6745 20.8901 7.47899C21.7778 6.84394 22.5475 6.0425 23.1567 5.13018L23.1588 5.12812L23.1584 5.12838L23.1584 5.12825Z" fill="#1DA1F2"/>
</svg>
