<svg width="24" height="24" viewBox="0 0 24 24" fill="none" xmlns="http://www.w3.org/2000/svg">
<rect x="2" y="8.36401" width="9" height="19" rx="4.5" transform="rotate(-45 2 8.36401)" stroke="black" stroke-width="2" stroke-linecap="round" stroke-linejoin="round"/>
<path d="M11.546 18.6173L11.8995 18.2637L5.53556 11.8997L5.18201 12.2533C3.42465 14.0107 3.42465 16.8599 5.18201 18.6173C6.93937 20.3746 9.78861 20.3746 11.546 18.6173Z" fill="black"/>
<path d="M12.2531 5.18222L11.8995 5.53578L18.2635 11.8997L18.617 11.5462C20.3744 9.78883 20.3744 6.93958 18.617 5.18222C16.8597 3.42487 14.0104 3.42487 12.2531 5.18222Z" fill="black"/>
<path d="M11.546 18.6173L11.8995 18.2637L5.53556 11.8997L5.18201 12.2533C3.42465 14.0107 3.42465 16.8599 5.18201 18.6173C6.93937 20.3746 9.78861 20.3746 11.546 18.6173Z" stroke="black" stroke-width="2" stroke-linecap="round" stroke-linejoin="round"/>
<path d="M12.2531 5.18222L11.8995 5.53578L18.2635 11.8997L18.617 11.5462C20.3744 9.78883 20.3744 6.93958 18.617 5.18222C16.8597 3.42487 14.0104 3.42487 12.2531 5.18222Z" stroke="black" stroke-width="2" stroke-linecap="round" stroke-linejoin="round"/>
<path d="M9.77881 11.8999L9.7781 11.8992" stroke="black" stroke-width="2" stroke-linecap="round" stroke-linejoin="round"/>
<path d="M11.8999 9.77832L11.8992 9.77761" stroke="black" stroke-width="2" stroke-linecap="round" stroke-linejoin="round"/>
<path d="M14.0215 11.8999L14.0208 11.8992" stroke="black" stroke-width="2" stroke-linecap="round" stroke-linejoin="round"/>
<path d="M11.8999 14.0212L11.8992 14.0205" stroke="black" stroke-width="2" stroke-linecap="round" stroke-linejoin="round"/>
</svg>
