<svg width="24" height="24" viewBox="0 0 24 24" fill="none" xmlns="http://www.w3.org/2000/svg">
<path d="M3 3L21 21" stroke="black" stroke-width="2" stroke-linecap="round" stroke-linejoin="round"/>
<path fill-rule="evenodd" clip-rule="evenodd" d="M3.37868 4.20711L2.29289 5.29289C1.90237 5.68342 1.90237 6.31658 2.29289 6.70711C2.68342 7.09763 3.31658 7.09763 3.70711 6.70711L4.5 5.91421L5.68014 7.09436C4.81999 8.20088 4.24404 9.53929 4.06189 11H3V10C3 9.44772 2.55228 9 2 9C1.44772 9 1 9.44772 1 10V14C1 14.5523 1.44772 15 2 15C2.55228 15 3 14.5523 3 14V13H4.06196C4.24427 14.4606 4.82055 15.7994 5.6802 16.9056L4.5 18.0858L3.70711 17.2929C3.31658 16.9024 2.68342 16.9024 2.29289 17.2929C1.90237 17.6834 1.90237 18.3166 2.29289 18.7071L5.29289 21.7071C5.68342 22.0976 6.31658 22.0976 6.70711 21.7071C7.09763 21.3166 7.09763 20.6834 6.70711 20.2929L5.91421 19.5L7.09441 18.3198C8.20057 19.1795 9.53939 19.7557 11 19.938V21H10C9.44772 21 9 21.4477 9 22C9 22.5523 9.44772 23 10 23H14C14.5523 23 15 22.5523 15 22C15 21.4477 14.5523 21 14 21H13V19.938C14.4606 19.7557 15.7994 19.1795 16.9056 18.3198L18.0858 19.5L17.2929 20.2929C16.9024 20.6834 16.9024 21.3166 17.2929 21.7071C17.6834 22.0976 18.3166 22.0976 18.7071 21.7071L19.7929 20.6213L14.1591 14.9876C14.1076 14.9957 14.0548 15 14.001 15H14C13.4477 15 13 14.5523 13 14C13 13.9459 13.0043 13.8928 13.0126 13.841L11.8046 12.633C11.4248 12.8658 10.9781 13 10.5 13C9.11929 13 8 11.8807 8 10.5C8 10.0219 8.1342 9.57518 8.36697 9.1954L3.37868 4.20711ZM19.5315 14.7031C19.7265 14.1602 19.8644 13.59 19.938 13H21V14C21 14.5523 21.4477 15 22 15C22.5523 15 23 14.5523 23 14V10C23 9.44772 22.5523 9 22 9C21.4477 9 21 9.44772 21 10V11H19.938C19.7557 9.53939 19.1795 8.20057 18.3198 7.09441L19.5 5.91421L20.2929 6.70711C20.6834 7.09763 21.3166 7.09763 21.7071 6.70711C22.0976 6.31658 22.0976 5.68342 21.7071 5.29289L18.7071 2.29289C18.3166 1.90237 17.6834 1.90237 17.2929 2.29289C16.9024 2.68342 16.9024 3.31658 17.2929 3.70711L18.0858 4.5L16.9056 5.6802C15.7994 4.82055 14.4606 4.24427 13 4.06196V3H14C14.5523 3 15 2.55228 15 2C15 1.44772 14.5523 1 14 1H10C9.44772 1 9 1.44772 9 2C9 2.55228 9.44772 3 10 3H11V4.06189C10.4099 4.13548 9.83968 4.27335 9.29669 4.46827L19.5315 14.7031Z" fill="black"/>
</svg>
