<svg width="24" height="24" viewBox="0 0 24 24" fill="none" xmlns="http://www.w3.org/2000/svg">
<path fill-rule="evenodd" clip-rule="evenodd" d="M9 2C9 1.44772 9.44772 1 10 1H14C14.5523 1 15 1.44772 15 2C15 2.55228 14.5523 3 14 3H13V4.06196C14.4606 4.24427 15.7994 4.82055 16.9056 5.6802L18.0858 4.5L17.2929 3.70711C16.9024 3.31658 16.9024 2.68342 17.2929 2.29289C17.6834 1.90237 18.3166 1.90237 18.7071 2.29289L21.7071 5.29289C22.0976 5.68342 22.0976 6.31658 21.7071 6.70711C21.3166 7.09763 20.6834 7.09763 20.2929 6.70711L19.5 5.91421L18.1547 7.25956C17.4643 7.08995 16.7427 7 16 7C11.0294 7 7 11.0294 7 16C7 16.7427 7.08995 17.4643 7.25956 18.1547L5.91421 19.5L6.70711 20.2929C7.09763 20.6834 7.09763 21.3166 6.70711 21.7071C6.31658 22.0976 5.68342 22.0976 5.29289 21.7071L2.29289 18.7071C1.90237 18.3166 1.90237 17.6834 2.29289 17.2929C2.68342 16.9024 3.31658 16.9024 3.70711 17.2929L4.5 18.0858L5.6802 16.9056C4.82055 15.7994 4.24427 14.4606 4.06196 13H3V14C3 14.5523 2.55228 15 2 15C1.44772 15 1 14.5523 1 14V10C1 9.44772 1.44772 9 2 9C2.55228 9 3 9.44772 3 10V11H4.06189C4.24404 9.53929 4.81999 8.20088 5.68014 7.09436L4.5 5.91421L3.70711 6.70711C3.31658 7.09763 2.68342 7.09763 2.29289 6.70711C1.90237 6.31658 1.90237 5.68342 2.29289 5.29289L5.29289 2.29289C5.68342 1.90237 6.31658 1.90237 6.70711 2.29289C7.09763 2.68342 7.09763 3.31658 6.70711 3.70711L5.91421 4.5L7.09436 5.68014C8.20088 4.81999 9.53929 4.24404 11 4.06189V3H10C9.44772 3 9 2.55228 9 2Z" fill="black"/>
<path fill-rule="evenodd" clip-rule="evenodd" d="M16 9C12.134 9 9 12.134 9 16C9 19.866 12.134 23 16 23C19.866 23 23 19.866 23 16C23 12.134 19.866 9 16 9ZM15 19C15 18.4477 15.4477 18 16 18H16.001C16.5533 18 17.001 18.4477 17.001 19C17.001 19.5523 16.5533 20 16.001 20H16C15.4477 20 15 19.5523 15 19ZM17 12.9997C16.9998 12.4474 16.552 11.9998 15.9997 12C15.4474 12.0002 14.9998 12.448 15 13.0003L15.001 16.0003C15.0012 16.5526 15.449 17.0002 16.0013 17C16.5536 16.9998 17.0012 16.552 17.001 15.9997L17 12.9997Z" fill="black"/>
</svg>
