<svg width="24" height="24" viewBox="0 0 24 24" fill="none" xmlns="http://www.w3.org/2000/svg">
<path d="M14 8.4593V3H10V8.4593C10 8.81341 9.90598 9.16117 9.72756 9.46704L8.25 12L4.75452 17.9923C3.97675 19.3256 4.93849 21 6.48207 21H17.5179C19.0615 21 20.0233 19.3256 19.2455 17.9923L15.75 12L14.2724 9.46704C14.094 9.16117 14 8.81341 14 8.4593Z" fill="black"/>
<path d="M8 3H10M16 3H14M14 3V8.4593C14 8.81341 14.094 9.16117 14.2724 9.46704L15.75 12L19.2455 17.9923C20.0233 19.3256 19.0615 21 17.5179 21H6.48207C4.93849 21 3.97675 19.3256 4.75452 17.9923L8.25 12L9.72756 9.46704C9.90598 9.16117 10 8.81341 10 8.4593V3M14 3H10" stroke="black" stroke-width="2" stroke-linecap="round" stroke-linejoin="round"/>
</svg>
