<svg width="24" height="24" viewBox="0 0 24 24" fill="none" xmlns="http://www.w3.org/2000/svg">
<path fill-rule="evenodd" clip-rule="evenodd" d="M22 11C22 13.2505 21.2555 15.3295 20 17.0009V19C20 20.6569 18.6569 22 17 22V21C17 20.4477 16.5523 20 16 20C15.4477 20 15 20.4477 15 21V22H13V21C13 20.4477 12.5523 20 12 20C11.4477 20 11 20.4477 11 21V22H9V21C9 20.4477 8.55228 20 8 20C7.44772 20 7 20.4477 7 21V22C5.34315 22 4 20.6569 4 19V17.0009C2.74454 15.3295 2 13.2505 2 11C2 8.22109 3.13646 5.94176 4.98994 4.37278C6.82756 2.81724 9.31814 2 12 2C14.6819 2 17.1724 2.81724 19.0101 4.37278C20.8635 5.94176 22 8.22109 22 11ZM8 9C6.89543 9 6 9.89543 6 11C6 12.1046 6.89543 13 8 13C9.10457 13 10 12.1046 10 11C10 9.89543 9.10457 9 8 9ZM12.8944 14.4146C12.725 14.1605 12.3788 14 12 14C11.6212 14 11.275 14.1605 11.1056 14.4146L10.1056 15.9146C9.95058 16.1471 9.96714 16.4232 10.1494 16.6443C10.3316 16.8654 10.6534 17 11 17H13C13.3466 17 13.6684 16.8654 13.8507 16.6443C14.0329 16.4232 14.0494 16.1471 13.8944 15.9146L12.8944 14.4146ZM14 11C14 9.89543 14.8954 9 16 9C17.1046 9 18 9.89543 18 11C18 12.1046 17.1046 13 16 13C14.8954 13 14 12.1046 14 11Z" fill="black"/>
</svg>
