<svg width="24" height="24" viewBox="0 0 24 24" fill="none" xmlns="http://www.w3.org/2000/svg">
<path d="M9 7C9 8.65685 7.65685 10 6 10C4.34315 10 3 8.65685 3 7C3 5.34315 4.34315 4 6 4C7.65685 4 9 5.34315 9 7Z" fill="black"/>
<path d="M6 10C7.65685 10 9 8.65685 9 7C9 5.34315 7.65685 4 6 4C4.34315 4 3 5.34315 3 7C3 8.65685 4.34315 10 6 10ZM6 10V20" stroke="black" stroke-width="2" stroke-linecap="round" stroke-linejoin="round"/>
<path d="M21 17C21 18.6569 19.6569 20 18 20C16.3431 20 15 18.6569 15 17C15 15.3431 16.3431 14 18 14C19.6569 14 21 15.3431 21 17Z" fill="black"/>
<path d="M18 14C16.3431 14 15 15.3431 15 17C15 18.6569 16.3431 20 18 20C19.6569 20 21 18.6569 21 17C21 15.3431 19.6569 14 18 14ZM18 14V9C18 7.89543 17.1046 7 16 7H15M13 7L15 5V7M13 7H15M13 7L15 9V7" stroke="black" stroke-width="2" stroke-linecap="round" stroke-linejoin="round"/>
</svg>
