<svg width="24" height="24" viewBox="0 0 24 24" fill="none" xmlns="http://www.w3.org/2000/svg">
<path fill-rule="evenodd" clip-rule="evenodd" d="M12 21C16.9706 21 21 16.9706 21 12C21 7.02944 16.9706 3 12 3C7.02944 3 3 7.02944 3 12C3 16.9706 7.02944 21 12 21ZM12.7065 15.7071C12.316 16.0976 11.6828 16.0976 11.2923 15.7071C10.9018 15.3166 10.9018 14.6834 11.2923 14.2929L12.5852 13H8.99939C8.4471 13 7.99939 12.5523 7.99939 12C7.99939 11.4477 8.4471 11 8.99939 11H12.5852L11.2923 9.70708C10.9018 9.31655 10.9018 8.68339 11.2923 8.29286C11.6828 7.90234 12.316 7.90234 12.7065 8.29286L15.7065 11.2929C16.097 11.6834 16.097 12.3166 15.7065 12.7071L12.7065 15.7071Z" fill="black"/>
</svg>
