<svg width="24" height="24" viewBox="0 0 24 24" fill="none" xmlns="http://www.w3.org/2000/svg">
<path fill-rule="evenodd" clip-rule="evenodd" d="M12 21C16.9706 21 21 16.9706 21 12C21 7.02944 16.9706 3 12 3C7.02944 3 3 7.02944 3 12C3 16.9706 7.02944 21 12 21ZM11.2931 8.2935C11.6837 7.90298 12.3168 7.90298 12.7074 8.2935C13.0979 8.68403 13.0979 9.31719 12.7074 9.70772L11.4145 11.0006H15.0002C15.5525 11.0006 16.0002 11.4483 16.0002 12.0006C16.0002 12.5529 15.5525 13.0006 15.0002 13.0006H11.4145L12.7074 14.2935C13.0979 14.684 13.0979 15.3172 12.7074 15.7077C12.3168 16.0982 11.6837 16.0982 11.2931 15.7077L8.29314 12.7077C7.90261 12.3172 7.90261 11.684 8.29314 11.2935L11.2931 8.2935Z" fill="black"/>
</svg>
