<svg width="24" height="24" viewBox="0 0 24 24" fill="none" xmlns="http://www.w3.org/2000/svg">
<path fill-rule="evenodd" clip-rule="evenodd" d="M12 21C16.9706 21 21 16.9706 21 12C21 7.02944 16.9706 3 12 3C7.02944 3 3 7.02944 3 12C3 16.9706 7.02944 21 12 21ZM13.7071 9.70711C14.0976 9.31658 14.0976 8.68342 13.7071 8.29289C13.3166 7.90237 12.6834 7.90237 12.2929 8.29289L9.29289 11.2929C8.90237 11.6834 8.90237 12.3166 9.29289 12.7071L12.2929 15.7071C12.6834 16.0976 13.3166 16.0976 13.7071 15.7071C14.0976 15.3166 14.0976 14.6834 13.7071 14.2929L11.4142 12L13.7071 9.70711Z" fill="black"/>
</svg>
