<svg width="24" height="24" viewBox="0 0 24 24" fill="none" xmlns="http://www.w3.org/2000/svg">
<path fill-rule="evenodd" clip-rule="evenodd" d="M10.3723 19.4423C10.3723 19.6273 10.4458 19.8048 10.5766 19.9356C10.7075 20.0664 10.8849 20.14 11.07 20.14C11.255 20.14 11.4325 20.0664 11.5633 19.9356C11.6942 19.8048 11.7677 19.6273 11.7677 19.4423C11.7677 18.1585 12.1584 16.2168 13.3103 14.617C14.437 13.0521 16.3201 11.7677 19.4423 11.7677C19.6273 11.7677 19.8048 11.6942 19.9356 11.5633C20.0664 11.4325 20.14 11.255 20.14 11.07C20.14 10.8849 20.0664 10.7075 19.9356 10.5766C19.8048 10.4458 19.6273 10.3723 19.4423 10.3723C18.1585 10.3723 16.2168 9.98158 14.617 8.829C13.0521 7.70223 11.7677 5.81916 11.7677 2.69769C11.7677 2.51265 11.6942 2.33519 11.5633 2.20435C11.4325 2.07351 11.255 2 11.07 2C10.8849 2 10.7075 2.07351 10.5766 2.20435C10.4458 2.33519 10.3723 2.51265 10.3723 2.69769C10.3723 3.98144 9.98158 5.92242 8.829 7.52222C7.70223 9.08714 5.81916 10.3723 2.69769 10.3723C2.51265 10.3723 2.33519 10.4458 2.20435 10.5766C2.07351 10.7075 2 10.8849 2 11.07C2 11.255 2.07351 11.4325 2.20435 11.5633C2.33519 11.6942 2.51265 11.7677 2.69769 11.7677C3.98144 11.7677 5.92242 12.1584 7.52222 13.3103C9.08714 14.437 10.3723 16.3201 10.3723 19.4423ZM17.8139 21.3023C17.8139 21.4873 17.8874 21.6648 18.0182 21.7957C18.149 21.9265 18.3265 22 18.5115 22C18.6966 22 18.874 21.9265 19.0049 21.7957C19.1357 21.6648 19.2092 21.4873 19.2092 21.3023C19.2092 20.9493 19.3209 20.4037 19.6362 19.9662C19.9258 19.5644 20.4135 19.2092 21.3023 19.2092C21.4873 19.2092 21.6648 19.1357 21.7957 19.0049C21.9265 18.874 22 18.6966 22 18.5115C22 18.3265 21.9265 18.149 21.7957 18.0182C21.6648 17.8874 21.4873 17.8139 21.3023 17.8139C20.9493 17.8139 20.4037 17.7022 19.9662 17.3876C19.5644 17.098 19.2092 16.6103 19.2092 15.7208C19.2092 15.5357 19.1357 15.3583 19.0049 15.2274C18.874 15.0966 18.6966 15.0231 18.5115 15.0231C18.3265 15.0231 18.149 15.0966 18.0182 15.2274C17.8874 15.3583 17.8139 15.5357 17.8139 15.7208C17.8139 16.6103 17.4594 17.098 17.0576 17.3876C16.6201 17.7022 16.0745 17.8139 15.7208 17.8139C15.5357 17.8139 15.3583 17.8874 15.2274 18.0182C15.0966 18.149 15.0231 18.3265 15.0231 18.5115C15.0231 18.6966 15.0966 18.874 15.2274 19.0049C15.3583 19.1357 15.5357 19.2092 15.7208 19.2092C16.6103 19.2092 17.098 19.5644 17.3876 19.9662C17.7022 20.4037 17.8139 20.9493 17.8139 21.3023Z" fill="black"/>
</svg>
