<svg width="24" height="24" viewBox="0 0 24 24" fill="none" xmlns="http://www.w3.org/2000/svg">
<path fill-rule="evenodd" clip-rule="evenodd" d="M2 6C2 4.34315 3.34315 3 5 3H19C20.6569 3 22 4.34315 22 6V18C22 19.6569 20.6569 21 19 21H5C3.34315 21 2 19.6569 2 18V6ZM7 7C6.44772 7 6 7.44772 6 8V12C6 12.5523 6.44772 13 7 13H11C11.5523 13 12 12.5523 12 12V8C12 7.44772 11.5523 7 11 7H7ZM8 11V9H10V11H8ZM15 7C14.4477 7 14 7.44772 14 8C14 8.55228 14.4477 9 15 9H17C17.5523 9 18 8.55228 18 8C18 7.44772 17.5523 7 17 7H15ZM15 11C14.4477 11 14 11.4477 14 12C14 12.5523 14.4477 13 15 13H17C17.5523 13 18 12.5523 18 12C18 11.4477 17.5523 11 17 11H15ZM7 15C6.44772 15 6 15.4477 6 16C6 16.5523 6.44772 17 7 17H17C17.5523 17 18 16.5523 18 16C18 15.4477 17.5523 15 17 15H7Z" fill="black"/>
</svg>
