<svg width="24" height="24" viewBox="0 0 24 24" fill="none" xmlns="http://www.w3.org/2000/svg">
<path fill-rule="evenodd" clip-rule="evenodd" d="M5 3C3.34315 3 2 4.34315 2 6V18C2 19.6569 3.34315 21 5 21H13.2572C12.4718 20.0491 12 18.8296 12 17.5C12 17.3315 12.0076 17.1647 12.0224 17H7C6.44772 17 6 16.5523 6 16C6 15.4477 6.44772 15 7 15H12.5997C13.0421 14.1345 13.7071 13.4017 14.5192 12.877C14.2097 12.707 14 12.378 14 12C14 11.4477 14.4477 11 15 11H17C17.5523 11 18 11.4477 18 12C18 12.0075 17.9999 12.015 17.9998 12.0224C19.6527 12.1713 21.0948 13.0515 22 14.3369V6C22 4.34315 20.6569 3 19 3H5ZM6 8C6 7.44772 6.44772 7 7 7H11C11.5523 7 12 7.44772 12 8V12C12 12.5523 11.5523 13 11 13H7C6.44772 13 6 12.5523 6 12V8ZM8 9V11H10V9H8ZM14 8C14 7.44772 14.4477 7 15 7H17C17.5523 7 18 7.44772 18 8C18 8.55228 17.5523 9 17 9H15C14.4477 9 14 8.55228 14 8Z" fill="black"/>
<path d="M19.2678 19.2678C19.7202 18.8154 20 18.1904 20 17.5C20 16.1193 18.8807 15 17.5 15C16.1193 15 15 16.1193 15 17.5C15 18.8807 16.1193 20 17.5 20C18.1904 20 18.8154 19.7202 19.2678 19.2678ZM19.2678 19.2678L21 21" stroke="black" stroke-width="2" stroke-linecap="round" stroke-linejoin="round"/>
</svg>
