<svg width="24" height="24" viewBox="0 0 24 24" fill="none" xmlns="http://www.w3.org/2000/svg">
<path d="M7 6V18M14 6V18M21 6V18M10 6.5V17.5C10 17.7761 10.2239 18 10.5 18C10.7761 18 11 17.7761 11 17.5V6.5C11 6.22386 10.7761 6 10.5 6C10.2239 6 10 6.22386 10 6.5ZM17 6.5V17.5C17 17.7761 17.2239 18 17.5 18C17.7761 18 18 17.7761 18 17.5V6.5C18 6.22386 17.7761 6 17.5 6C17.2239 6 17 6.22386 17 6.5ZM3.5 6V6C3.22386 6 3 6.22386 3 6.5V17.5C3 17.7761 3.22386 18 3.5 18V18C3.77614 18 4 17.7761 4 17.5V6.5C4 6.22386 3.77614 6 3.5 6Z" stroke="black" stroke-width="2" stroke-linecap="round" stroke-linejoin="round"/>
</svg>
