<svg width="24" height="24" viewBox="0 0 24 24" fill="none" xmlns="http://www.w3.org/2000/svg">
<path d="M3 8V6C3 4.89543 3.89543 4 5 4H19C20.1046 4 21 4.89543 21 6V8M3 8V18C3 19.1046 3.89543 20 5 20H9M3 8H21M21 8V10" stroke="black" stroke-width="2" stroke-linecap="round" stroke-linejoin="round"/>
<path fill-rule="evenodd" clip-rule="evenodd" d="M18 12V13H20C20.5523 13 21 13.4477 21 14V16H22C22.5523 16 23 16.4477 23 17C23 20.3137 20.3137 23 17 23C13.6863 23 11 20.3137 11 17C11 13.6863 13.6863 11 17 11C17.5523 11 18 11.4477 18 12ZM14 16C14 15.4477 14.4477 15 15 15H15.001C15.5533 15 16.001 15.4477 16.001 16C16.001 16.5523 15.5533 17 15.001 17H15C14.4477 17 14 16.5523 14 16ZM18 18C17.4477 18 17 18.4477 17 19C17 19.5523 17.4477 20 18 20H18.001C18.5533 20 19.001 19.5523 19.001 19C19.001 18.4477 18.5533 18 18.001 18H18Z" fill="black"/>
<path d="M3 6C3 4.89543 3.89543 4 5 4H19C20.1046 4 21 4.89543 21 6V8H3V6Z" fill="black"/>
</svg>
