<svg width="24" height="24" viewBox="0 0 24 24" fill="none" xmlns="http://www.w3.org/2000/svg">
<path fill-rule="evenodd" clip-rule="evenodd" d="M7.29289 3.29289C7.68342 2.90237 8.31658 2.90237 8.70711 3.29289L10.5831 5.16891C11.0965 5.0504 11.5836 5 12 5C12.5151 5 12.9964 5.04856 13.4449 5.14087L15.2929 3.29289C15.6834 2.90237 16.3166 2.90237 16.7071 3.29289C17.0976 3.68342 17.0976 4.31658 16.7071 4.70711L15.4488 5.96543C16.2737 6.51856 16.8545 7.2494 17.2486 8H18C18.1733 8 18.4555 7.93978 18.6657 7.78847C18.8249 7.67386 19 7.47408 19 7C19 6.44772 19.4477 6 20 6C20.5523 6 21 6.44772 21 7C21 8.12592 20.5085 8.92614 19.8343 9.41153C19.2111 9.86022 18.4934 10 18 10H17.9138C17.9737 10.36 18 10.6991 18 11V12H20C20.5523 12 21 12.4477 21 13C21 13.5523 20.5523 14 20 14H18V15C18 15.3009 17.9737 15.64 17.9138 16H18C18.4934 16 19.2111 16.1398 19.8343 16.5885C20.5085 17.0739 21 17.8741 21 19C21 19.5523 20.5523 20 20 20C19.4477 20 19 19.5523 19 19C19 18.5259 18.8249 18.3261 18.6657 18.2115C18.4555 18.0602 18.1733 18 18 18H17.2488C16.8978 18.6694 16.3966 19.3261 15.6969 19.8569C14.7655 20.5634 13.5431 21 12 21C10.4569 21 9.23454 20.5634 8.3031 19.8569C7.60345 19.3261 7.10223 18.6694 6.75115 18H6C5.82669 18 5.54446 18.0602 5.3343 18.2115C5.17513 18.3261 5 18.5259 5 19C5 19.5523 4.55228 20 4 20C3.44772 20 3 19.5523 3 19C3 17.8741 3.49153 17.0739 4.1657 16.5885C4.78887 16.1398 5.50664 16 6 16H6.08618C6.02635 15.64 6 15.3009 6 15V14H4C3.44772 14 3 13.5523 3 13C3 12.4477 3.44772 12 4 12H6V11C6 10.6511 6.02228 10.3179 6.06528 10H6C5.50664 10 4.78887 9.86022 4.1657 9.41153C3.49153 8.92614 3 8.12592 3 7C3 6.44772 3.44772 6 4 6C4.55228 6 5 6.44772 5 7C5 7.47408 5.17513 7.67386 5.3343 7.78847C5.54447 7.93978 5.82669 8 6 8H6.69608C7.17661 7.10126 7.85464 6.452 8.57972 5.99393L7.29289 4.70711C6.90237 4.31658 6.90237 3.68342 7.29289 3.29289ZM12 9C11.4477 9 11 9.44772 11 10C11 10.5523 11.4477 11 12 11H12.001C12.5533 11 13.001 10.5523 13.001 10C13.001 9.44772 12.5533 9 12.001 9H12ZM9 13C9 12.4477 9.44772 12 10 12H10.001C10.5533 12 11.001 12.4477 11.001 13C11.001 13.5523 10.5533 14 10.001 14H10C9.44772 14 9 13.5523 9 13ZM14 12C13.4477 12 13 12.4477 13 13C13 13.5523 13.4477 14 14 14H14.001C14.5533 14 15.001 13.5523 15.001 13C15.001 12.4477 14.5533 12 14.001 12H14Z" fill="black"/>
</svg>
