<svg width="24" height="24" viewBox="0 0 24 24" fill="none" xmlns="http://www.w3.org/2000/svg">
<path fill-rule="evenodd" clip-rule="evenodd" d="M12 3C12.3344 3 12.6466 3.1671 12.8321 3.4453L16.3032 8.65193L20.4855 6.14251C20.818 5.94303 21.2358 5.9537 21.5576 6.1699C21.8795 6.3861 22.0474 6.76885 21.9884 7.15206L19.9884 20.1521C19.9133 20.6399 19.4936 21 19 21H5.00003C4.50646 21 4.08671 20.6399 4.01166 20.1521L2.01166 7.15206C1.9527 6.76885 2.12057 6.3861 2.44241 6.1699C2.76425 5.9537 3.18206 5.94303 3.51453 6.14251L7.69689 8.65193L11.168 3.4453C11.3534 3.1671 11.6657 3 12 3ZM11 14C11 13.4477 11.4477 13 12 13C12.5523 13 13 13.4477 13 14C13 14.5523 12.5523 15 12 15C11.4477 15 11 14.5523 11 14ZM12 11C10.3431 11 9 12.3431 9 14C9 15.6569 10.3431 17 12 17C13.6569 17 15 15.6569 15 14C15 12.3431 13.6569 11 12 11Z" fill="black"/>
</svg>
