<svg width="24" height="24" viewBox="0 0 24 24" fill="none" xmlns="http://www.w3.org/2000/svg">
<path d="M3 3L21 21" stroke="black" stroke-width="2" stroke-linecap="round" stroke-linejoin="round"/>
<path fill-rule="evenodd" clip-rule="evenodd" d="M5.40082 6.22924C4.96016 6.55966 4.55664 6.9084 4.18955 7.26191C2.44986 8.93729 1.48736 10.7552 1.18881 11.3727C0.996308 11.7708 0.996309 12.2292 1.18881 12.6273C1.48736 13.2448 2.44986 15.0627 4.18955 16.7381C5.93948 18.4233 8.51725 20 12 20C14.2363 20 16.0995 19.3499 17.61 18.4384L13.6665 14.4949C13.1898 14.814 12.6166 15 12 15C10.3431 15 9 13.6569 9 12C9 11.3834 9.18605 10.8102 9.50507 10.3335L5.40082 6.22924ZM20.6661 15.8377C21.8717 14.4537 22.5658 13.1349 22.8112 12.6273C23.0037 12.2292 23.0037 11.7708 22.8112 11.3727C22.5127 10.7552 21.5502 8.93729 19.8105 7.26191C18.0606 5.57668 15.4828 4 12 4C10.9881 4 10.0527 4.13309 9.19169 4.36326L20.6661 15.8377Z" fill="black"/>
</svg>
