<svg width="24" height="24" viewBox="0 0 24 24" fill="none" xmlns="http://www.w3.org/2000/svg">
<path fill-rule="evenodd" clip-rule="evenodd" d="M4.18955 7.26191C5.93948 5.57668 8.51725 4 12 4C15.4828 4 18.0606 5.57668 19.8105 7.26191C21.5502 8.93729 22.5127 10.7552 22.8112 11.3727C23.0037 11.7708 23.0037 12.2292 22.8112 12.6273C22.5127 13.2448 21.5502 15.0627 19.8105 16.7381C18.0606 18.4233 15.4828 20 12 20C8.51725 20 5.93948 18.4233 4.18955 16.7381C2.44986 15.0627 1.48736 13.2448 1.18881 12.6273C0.996309 12.2292 0.996308 11.7708 1.18881 11.3727C1.48736 10.7552 2.44986 8.93729 4.18955 7.26191ZM12 15C13.6569 15 15 13.6569 15 12C15 10.3431 13.6569 9 12 9C10.3431 9 9 10.3431 9 12C9 13.6569 10.3431 15 12 15Z" fill="black"/>
</svg>
