<svg width="24" height="24" viewBox="0 0 24 24" fill="none" xmlns="http://www.w3.org/2000/svg">
<path fill-rule="evenodd" clip-rule="evenodd" d="M10.8 3.65C11.5111 3.11667 12.4889 3.11667 13.2 3.65L20.2 8.9L19.6 9.7L20.2 8.9C20.7036 9.27771 21 9.87048 21 10.5V19C21 20.1046 20.1046 21 19 21H5C3.89543 21 3 20.1046 3 19V10.5C3 9.87048 3.29639 9.27771 3.8 8.9L10.8 3.65ZM13 10C13 9.44772 12.5523 9 12 9C11.4477 9 11 9.44772 11 10V16C11 16.5523 11.4477 17 12 17C12.5523 17 13 16.5523 13 16V10ZM9 13C9 12.4477 8.55228 12 8 12C7.44772 12 7 12.4477 7 13V16C7 16.5523 7.44772 17 8 17C8.55228 17 9 16.5523 9 16V13ZM17 15C17 14.4477 16.5523 14 16 14C15.4477 14 15 14.4477 15 15V16C15 16.5523 15.4477 17 16 17C16.5523 17 17 16.5523 17 16V15Z" fill="black"/>
</svg>
