<svg width="24" height="24" viewBox="0 0 24 24" fill="none" xmlns="http://www.w3.org/2000/svg">
<path fill-rule="evenodd" clip-rule="evenodd" d="M12 2C6.47715 2 2 6.47715 2 12C2 17.5228 6.47715 22 12 22C17.5228 22 22 17.5228 22 12C22 6.47715 17.5228 2 12 2ZM12 16C12.5523 16 13 15.5523 13 15V12C13 11.4477 12.5523 11 12 11C11.4477 11 11 11.4477 11 12V15C11 15.5523 11.4477 16 12 16ZM13 9C13 9.55228 12.5523 10 12 10C11.4477 10 11 9.55228 11 9V8.9999C11 8.44762 11.4477 7.9999 12 7.9999C12.5523 7.9999 13 8.44762 13 8.9999V9Z" fill="black"/>
</svg>
