<svg width="24" height="24" viewBox="0 0 24 24" fill="none" xmlns="http://www.w3.org/2000/svg">
<path fill-rule="evenodd" clip-rule="evenodd" d="M18.3297 19.7421C16.6057 21.1533 14.4017 22 12 22C9.59827 22 7.3943 21.1533 5.67028 19.7421C5.68278 19.7308 5.69506 19.7192 5.70711 19.7071L9.96803 15.4462C10.5635 15.7981 11.2582 16 12 16C12.7418 16 13.4365 15.7981 14.032 15.4462L18.2929 19.7071C18.3049 19.7192 18.3172 19.7308 18.3297 19.7421ZM19.7421 18.3297C21.1533 16.6057 22 14.4017 22 12C22 9.59827 21.1533 7.3943 19.7421 5.67028C19.7308 5.68278 19.7192 5.69506 19.7071 5.70711L15.4462 9.96803C15.7981 10.5635 16 11.2582 16 12C16 12.7418 15.7981 13.4365 15.4462 14.032L19.7071 18.2929C19.7192 18.3049 19.7308 18.3172 19.7421 18.3297ZM18.3297 4.25786C18.3172 4.26917 18.3049 4.28084 18.2929 4.29289L14.032 8.55382C13.4365 8.20193 12.7418 8 12 8C11.2582 8 10.5635 8.20193 9.96803 8.55382L5.70711 4.29289C5.69506 4.28084 5.68278 4.26917 5.67028 4.25786C7.3943 2.84669 9.59827 2 12 2C14.4017 2 16.6057 2.84669 18.3297 4.25786ZM4.25786 5.67028C2.84669 7.3943 2 9.59827 2 12C2 14.4017 2.84669 16.6057 4.25786 18.3297C4.26917 18.3172 4.28084 18.3049 4.29289 18.2929L8.55382 14.032C8.20193 13.4365 8 12.7418 8 12C8 11.2582 8.20193 10.5635 8.55382 9.96803L4.29289 5.70711C4.28084 5.69506 4.26917 5.68278 4.25786 5.67028Z" fill="black"/>
<circle cx="12" cy="12" r="4" stroke="black" stroke-width="2"/>
</svg>
