<svg width="24" height="24" viewBox="0 0 24 24" fill="none" xmlns="http://www.w3.org/2000/svg">
<path fill-rule="evenodd" clip-rule="evenodd" d="M2 12C2 6.47715 6.47715 2 12 2C17.5228 2 22 6.47715 22 12C22 17.5228 17.5228 22 12 22C6.47715 22 2 17.5228 2 12ZM10 8C9.33998 8 8.3722 8.18978 7.5407 8.78847C6.6582 9.42386 6 10.4741 6 12C6 13.5259 6.6582 14.5761 7.5407 15.2115C8.3722 15.8102 9.33998 16 10 16C10.5523 16 11 15.5523 11 15C11 14.4477 10.5523 14 10 14C9.66002 14 9.1278 13.8898 8.7093 13.5885C8.3418 13.3239 8 12.8741 8 12C8 11.1259 8.3418 10.6761 8.7093 10.4115C9.1278 10.1102 9.66002 10 10 10C10.5523 10 11 9.55228 11 9C11 8.44772 10.5523 8 10 8ZM14 8C13.4477 8 13 8.44772 13 9C13 9.55228 13.4477 10 14 10C14.34 10 14.8722 10.1102 15.2907 10.4115C15.6582 10.6761 16 11.1259 16 12C16 12.8741 15.6582 13.3239 15.2907 13.5885C14.8722 13.8898 14.34 14 14 14C13.4477 14 13 14.4477 13 15C13 15.5523 13.4477 16 14 16C14.66 16 15.6278 15.8102 16.4593 15.2115C17.3418 14.5761 18 13.5259 18 12C18 10.4741 17.3418 9.42386 16.4593 8.78847C15.6278 8.18978 14.66 8 14 8ZM10 11C9.44772 11 9 11.4477 9 12C9 12.5523 9.44772 13 10 13H14C14.5523 13 15 12.5523 15 12C15 11.4477 14.5523 11 14 11H10Z" fill="black"/>
</svg>
