<svg width="24" height="24" viewBox="0 0 24 24" fill="none" xmlns="http://www.w3.org/2000/svg">
<path fill-rule="evenodd" clip-rule="evenodd" d="M3 12C3 10.3431 4.34315 9 6 9H18C19.6569 9 21 10.3431 21 12V19C21 20.6569 19.6569 22 18 22H6C4.34315 22 3 20.6569 3 19V12ZM13 14C13 13.4477 12.5523 13 12 13C11.4477 13 11 13.4477 11 14V17C11 17.5523 11.4477 18 12 18C12.5523 18 13 17.5523 13 17V14Z" fill="black"/>
<path d="M8 10V7C8 4.79086 9.79086 3 12 3V3C14.2091 3 16 4.79086 16 7V10" stroke="black" stroke-width="2" stroke-linecap="round" stroke-linejoin="round"/>
</svg>
