<svg width="24" height="24" viewBox="0 0 24 24" fill="none" xmlns="http://www.w3.org/2000/svg">
<path fill-rule="evenodd" clip-rule="evenodd" d="M7 7.82843V9H6C4.34315 9 3 10.3431 3 12V19C3 20.6569 4.34315 22 6 22H18C18.8721 22 19.6572 21.6279 20.2054 21.0338L12.9821 13.8105C12.9938 13.8719 13 13.9352 13 14V17C13 17.5523 12.5523 18 12 18C11.4477 18 11 17.5523 11 17V14C11 13.4477 11.4477 13 12 13C12.0648 13 12.1281 13.0062 12.1895 13.0179L7 7.82843ZM21 16.1716V12C21 10.3431 19.6569 9 18 9H17V7C17 4.23858 14.7614 2 12 2C10.5756 2 9.2904 2.59558 8.37971 3.55129L9.79462 4.96619C10.3428 4.3721 11.1279 4 12 4C13.6569 4 15 5.34315 15 7V9H13.8284L21 16.1716Z" fill="black"/>
<path d="M3 3L21 21" stroke="black" stroke-width="2" stroke-linecap="round" stroke-linejoin="round"/>
</svg>
