<svg width="24" height="24" viewBox="0 0 24 24" fill="none" xmlns="http://www.w3.org/2000/svg">
<path fill-rule="evenodd" clip-rule="evenodd" d="M13.2039 2.2439C11.3472 1.82608 10 3.42226 10 5.00001V19C10 20.5778 11.3472 22.1739 13.2039 21.7561C17.6661 20.752 21 16.7665 21 12C21 7.2335 17.6661 3.24803 13.2039 2.2439ZM13.2929 8.29289C13.6834 7.90237 14.3166 7.90237 14.7071 8.29289L17.7071 11.2929C18.0976 11.6834 18.0976 12.3166 17.7071 12.7071L14.7071 15.7071C14.3166 16.0976 13.6834 16.0976 13.2929 15.7071C12.9024 15.3166 12.9024 14.6834 13.2929 14.2929L14.5858 13H4C3.44772 13 3 12.5523 3 12C3 11.4477 3.44772 11 4 11H14.5858L13.2929 9.70711C12.9024 9.31658 12.9024 8.68342 13.2929 8.29289Z" fill="black"/>
</svg>
