<svg width="24" height="24" viewBox="0 0 24 24" fill="none" xmlns="http://www.w3.org/2000/svg">
<path fill-rule="evenodd" clip-rule="evenodd" d="M10.7961 2.2439C12.6528 1.82608 14 3.42226 14 5.00001V19C14 20.5778 12.6528 22.1739 10.7961 21.7561C6.33387 20.752 3 16.7665 3 12C3 7.2335 6.33387 3.24803 10.7961 2.2439ZM16.2929 8.29289C16.6834 7.90237 17.3166 7.90237 17.7071 8.29289L20.7071 11.2929C21.0976 11.6834 21.0976 12.3166 20.7071 12.7071L17.7071 15.7071C17.3166 16.0976 16.6834 16.0976 16.2929 15.7071C15.9024 15.3166 15.9024 14.6834 16.2929 14.2929L17.5858 13H9C8.44772 13 8 12.5523 8 12C8 11.4477 8.44772 11 9 11H17.5858L16.2929 9.70711C15.9024 9.31658 15.9024 8.68342 16.2929 8.29289Z" fill="black"/>
</svg>
