<svg width="24" height="24" viewBox="0 0 24 24" fill="none" xmlns="http://www.w3.org/2000/svg">
<path d="M12.9556 18.9556L9 15L5.04442 11.0444C4.54417 10.5442 4.70735 9.69685 5.35761 9.41817L10.6193 7.16317C10.863 7.05869 11.0553 6.86166 11.1538 6.61541L12.4368 3.40807C12.7034 2.7415 13.5647 2.56471 14.0724 3.07235L20.9276 9.92764C21.4353 10.4353 21.2585 11.2966 20.5919 11.5632L17.3846 12.8462C17.1383 12.9447 16.9413 13.137 16.8368 13.3807L14.5818 18.6424C14.3031 19.2927 13.4558 19.4558 12.9556 18.9556Z" fill="black"/>
<path d="M4 20L9 15M9 15L12.9556 18.9556C13.4558 19.4558 14.3031 19.2927 14.5818 18.6424L16.8368 13.3807C16.9413 13.137 17.1383 12.9447 17.3846 12.8462L20.5919 11.5632C21.2585 11.2966 21.4353 10.4353 20.9276 9.92764L14.0724 3.07235C13.5647 2.56471 12.7034 2.7415 12.4368 3.40807L11.1538 6.61541C11.0553 6.86166 10.8631 7.05869 10.6193 7.16317L5.35761 9.41817C4.70735 9.69685 4.54417 10.5442 5.04442 11.0444L9 15Z" stroke="black" stroke-width="2" stroke-linecap="round" stroke-linejoin="round"/>
</svg>
