<svg width="24" height="24" viewBox="0 0 24 24" fill="none" xmlns="http://www.w3.org/2000/svg">
<path fill-rule="evenodd" clip-rule="evenodd" d="M4.85858 5C6.67241 3.14985 9.20251 2 12 2C16.4785 2 20.2675 4.94315 21.5419 9H15C14.4477 9 14 9.44772 14 10C14 10.5523 14.4477 11 15 11H21.9506C21.9833 11.3291 22 11.6627 22 12C22 17.5228 17.5228 22 12 22C9.20251 22 6.67241 20.8502 4.85858 19H11C11.5523 19 12 18.5523 12 18C12 17.4477 11.5523 17 11 17H3.33802C2.9756 16.3734 2.67907 15.7035 2.45808 15H13C13.5523 15 14 14.5523 14 14C14 13.4477 13.5523 13 13 13H2.04945C2.01673 12.6709 2 12.3373 2 12C2 10.1792 2.48731 8.47096 3.33805 7H12C12.5523 7 13 6.55228 13 6C13 5.44772 12.5523 5 12 5H4.85858ZM10 9C9.44772 9 9.00001 9.44772 9.00001 10C9.00001 10.5523 9.44772 11 10 11H12C12.5523 11 13 10.5523 13 10C13 9.44772 12.5523 9 12 9H10ZM7.70784 10.7078C7.31732 11.0984 6.68415 11.0984 6.29363 10.7078L6.29292 10.7071C5.90239 10.3166 5.90239 9.68344 6.29292 9.29292C6.68344 8.90239 7.31661 8.90239 7.70713 9.29292L7.70784 9.29363C8.09836 9.68415 8.09836 10.3173 7.70784 10.7078ZM15.2936 14.7078C15.6841 15.0984 16.3173 15.0984 16.7078 14.7078C17.0984 14.3173 17.0984 13.6841 16.7078 13.2936L16.7071 13.2929C16.3166 12.9024 15.6834 12.9024 15.2929 13.2929C14.9024 13.6834 14.9024 14.3166 15.2929 14.7071L15.2936 14.7078Z" fill="black"/>
</svg>
