<svg width="24" height="24" viewBox="0 0 24 24" fill="none" xmlns="http://www.w3.org/2000/svg">
<path d="M18.0002 7.96001C20.5901 7.83503 22.3789 8.23378 22.6252 9.15296C23.054 10.7534 18.6446 13.3254 12.7764 14.8978C6.90832 16.4701 1.80363 16.4474 1.37481 14.847C1.1209 13.8994 2.56321 12.6111 5.0002 11.3915" stroke="black" stroke-width="2" stroke-linecap="round" stroke-linejoin="round"/>
<path fill-rule="evenodd" clip-rule="evenodd" d="M4 12C4 7.58172 7.58172 4 12 4C16.4183 4 20 7.58172 20 12C20 12.1649 19.995 12.3286 19.9852 12.491C18.3324 13.3699 16.081 14.245 13.5176 14.9319C10.644 15.7018 7.99179 16.0709 6.04029 16.0622C5.69134 16.0606 5.37217 16.047 5.08359 16.023C4.39467 14.8411 4 13.4666 4 12ZM6.76616 18.0505C8.16906 19.2651 9.99871 20 12 20C15.3628 20 18.241 17.9251 19.4242 14.9857C17.8626 15.6823 16.0232 16.331 14.0352 16.8637C11.3674 17.5786 8.82678 17.9786 6.76616 18.0505Z" fill="black"/>
</svg>
