<svg width="24" height="24" viewBox="0 0 24 24" fill="none" xmlns="http://www.w3.org/2000/svg">
<path fill-rule="evenodd" clip-rule="evenodd" d="M3 2C2.44772 2 2 2.44772 2 3C2 3.55228 2.44772 4 3 4V15C3 15.5523 3.44772 16 4 16H8.61257L7.05132 20.6838C6.87667 21.2077 7.15983 21.774 7.68377 21.9487C8.20772 22.1233 8.77404 21.8402 8.94868 21.3162L10.7208 16H13.2792L15.0513 21.3162C15.226 21.8402 15.7923 22.1233 16.3162 21.9487C16.8402 21.774 17.1233 21.2077 16.9487 20.6838L15.3874 16H20C20.5523 16 21 15.5523 21 15V4C21.5523 4 22 3.55228 22 3C22 2.44772 21.5523 2 21 2H3Z" fill="black"/>
</svg>
