<svg width="24" height="24" viewBox="0 0 24 24" fill="none" xmlns="http://www.w3.org/2000/svg">
<path fill-rule="evenodd" clip-rule="evenodd" d="M2 3C2 2.44772 2.44772 2 3 2H21C21.5523 2 22 2.44772 22 3C22 3.55228 21.5523 4 21 4V15C21 15.5523 20.5523 16 20 16H15.3874L16.9487 20.6838C17.1233 21.2077 16.8402 21.774 16.3162 21.9487C15.7923 22.1233 15.226 21.8402 15.0513 21.3162L13.2792 16H10.7208L8.94868 21.3162C8.77404 21.8402 8.20772 22.1233 7.68377 21.9487C7.15983 21.774 6.87667 21.2077 7.05132 20.6838L8.61257 16H4C3.44772 16 3 15.5523 3 15V4C2.44772 4 2 3.55228 2 3ZM17 7C17 6.44772 16.5523 6 16 6C15.4477 6 15 6.44772 15 7V11C15 11.5523 15.4477 12 16 12C16.5523 12 17 11.5523 17 11V7ZM13 9C13 8.44772 12.5523 8 12 8C11.4477 8 11 8.44772 11 9V11C11 11.5523 11.4477 12 12 12C12.5523 12 13 11.5523 13 11V9ZM8 10C7.44772 10 7 10.4477 7 11C7 11.5523 7.44772 12 8 12H8.01C8.56228 12 9.01 11.5523 9.01 11C9.01 10.4477 8.56228 10 8.01 10H8Z" fill="black"/>
</svg>
