<svg width="24" height="24" viewBox="0 0 24 24" fill="none" xmlns="http://www.w3.org/2000/svg">
<path fill-rule="evenodd" clip-rule="evenodd" d="M2 3C2 2.44772 2.44772 2 3 2H21C21.5523 2 22 2.44772 22 3C22 3.55228 21.5523 4 21 4V15C21 15.5523 20.5523 16 20 16H15.3874L16.9487 20.6838C17.1233 21.2077 16.8402 21.774 16.3162 21.9487C15.7923 22.1233 15.226 21.8402 15.0513 21.3162L13.2792 16H10.7208L8.94868 21.3162C8.77404 21.8402 8.20772 22.1233 7.68377 21.9487C7.15983 21.774 6.87667 21.2077 7.05132 20.6838L8.61257 16H4C3.44772 16 3 15.5523 3 15V4C2.44772 4 2 3.55228 2 3ZM11.5547 6.16795C11.2478 5.96338 10.8533 5.94431 10.5281 6.11833C10.203 6.29234 10 6.6312 10 7V11C10 11.3688 10.203 11.7077 10.5281 11.8817C10.8533 12.0557 11.2478 12.0366 11.5547 11.8321L14.5547 9.83205C14.8329 9.64658 15 9.33435 15 9C15 8.66565 14.8329 8.35342 14.5547 8.16795L11.5547 6.16795ZM12.1972 9L12 9.13148V8.86852L12.1972 9Z" fill="black"/>
</svg>
