<svg width="24" height="24" viewBox="0 0 24 24" fill="none" xmlns="http://www.w3.org/2000/svg">
<path d="M7 7H7.001" stroke="black" stroke-width="2" stroke-linecap="round" stroke-linejoin="round"/>
<path fill-rule="evenodd" clip-rule="evenodd" d="M4 3C3.44772 3 3 3.44772 3 4V10C3 10.5523 3.44772 11 4 11H10C10.5523 11 11 10.5523 11 10V4C11 3.44772 10.5523 3 10 3H4ZM5 9V5H9V9H5ZM14 3C13.4477 3 13 3.44772 13 4V10C13 10.5523 13.4477 11 14 11H20C20.5523 11 21 10.5523 21 10V4C21 3.44772 20.5523 3 20 3H14ZM4 13C3.44772 13 3 13.4477 3 14V20C3 20.5523 3.44772 21 4 21H10C10.5523 21 11 20.5523 11 20V14C11 13.4477 10.5523 13 10 13H4ZM14 13C13.4477 13 13 13.4477 13 14V15C13 15.5523 13.4477 16 14 16H15C15.5523 16 16 15.5523 16 15V14C16 13.4477 15.5523 13 15 13H14ZM19 13C18.7348 13 18.4804 13.1054 18.2929 13.2929L16.2929 15.2929C15.9024 15.6834 15.9024 16.3166 16.2929 16.7071C16.6834 17.0976 17.3166 17.0976 17.7071 16.7071L19.4142 15H20C20.5523 15 21 14.5523 21 14C21 13.4477 20.5523 13 20 13H19ZM14 17C13.4477 17 13 17.4477 13 18V20C13 20.5523 13.4477 21 14 21C14.5523 21 15 20.5523 15 20V19H16C16.5523 19 17 18.5523 17 18C17 17.4477 16.5523 17 16 17H14ZM21 18C21 17.4477 20.5523 17 20 17C19.4477 17 19 17.4477 19 18V19H18C17.4477 19 17 19.4477 17 20C17 20.5523 17.4477 21 18 21H20C20.5523 21 21 20.5523 21 20V18ZM16 7C16 6.44772 16.4477 6 17 6H17.001C17.5533 6 18.001 6.44772 18.001 7C18.001 7.55228 17.5533 8 17.001 8H17C16.4477 8 16 7.55228 16 7ZM7 16C6.44772 16 6 16.4477 6 17C6 17.5523 6.44772 18 7 18H7.001C7.55328 18 8.001 17.5523 8.001 17C8.001 16.4477 7.55328 16 7.001 16H7Z" fill="black"/>
</svg>
