<svg width="24" height="24" viewBox="0 0 24 24" fill="none" xmlns="http://www.w3.org/2000/svg">
<path fill-rule="evenodd" clip-rule="evenodd" d="M12 2C6.47715 2 2 6.47715 2 12C2 17.5228 6.47715 22 12 22C17.5228 22 22 17.5228 22 12C22 6.47715 17.5228 2 12 2ZM12 9C11.4477 9 11 9.44772 11 10C11 10.5523 10.5523 11 10 11C9.44772 11 9 10.5523 9 10C9 8.34315 10.3431 7 12 7C13.6569 7 15 8.34315 15 10C15 11.137 14.3671 12.1247 13.4391 12.6327C13.265 12.7281 13.1336 12.8316 13.0569 12.9211C13.0171 12.9676 13.0038 12.9953 13 13.0061V13.5C13 14.0523 12.5523 14.5 12 14.5C11.4477 14.5 11 14.0523 11 13.5V13C11 12.4196 11.2528 11.9526 11.5387 11.6191C11.8204 11.2907 12.1685 11.0482 12.4788 10.8784C12.7915 10.7072 13 10.3772 13 10C13 9.44772 12.5523 9 12 9ZM12.9986 13.0115L12.9986 13.0113C12.9986 13.0109 12.9989 13.0096 12.9996 13.0074C12.9992 13.0101 12.9988 13.0114 12.9986 13.0115ZM12 15C11.4477 15 11 15.4477 11 16C11 16.5523 11.4477 17 12 17H12.01C12.5623 17 13.01 16.5523 13.01 16C13.01 15.4477 12.5623 15 12.01 15H12Z" fill="black"/>
</svg>
