<svg width="24" height="24" viewBox="0 0 24 24" fill="none" xmlns="http://www.w3.org/2000/svg">
<path fill-rule="evenodd" clip-rule="evenodd" d="M2 12C2 6.47715 6.47715 2 12 2C17.5228 2 22 6.47715 22 12C22 17.5228 17.5228 22 12 22C6.47715 22 2 17.5228 2 12ZM12.2929 8.70711C11.9024 8.31658 11.9024 7.68342 12.2929 7.29289C12.6834 6.90237 13.3166 6.90237 13.7071 7.29289L15.7071 9.29289C16.0976 9.68342 16.0976 10.3166 15.7071 10.7071L13.7071 12.7071C13.3166 13.0976 12.6834 13.0976 12.2929 12.7071C11.9024 12.3166 11.9024 11.6834 12.2929 11.2929L12.5858 11H12C11.66 11 11.1278 11.1102 10.7093 11.4115C10.3418 11.6761 10 12.1259 10 13C10 13.8741 10.3418 14.3239 10.7093 14.5885C11.1278 14.8898 11.66 15 12 15C12.3679 15 12.9448 14.8724 13.3705 14.5275C13.7996 14.1799 14.4293 14.2459 14.777 14.675C15.1247 15.1041 15.0586 15.7338 14.6295 16.0815C13.7604 16.7857 12.6997 17 12 17C11.34 17 10.3722 16.8102 9.5407 16.2115C8.6582 15.5761 8 14.5259 8 13C8 11.4741 8.6582 10.4239 9.5407 9.78847C10.3722 9.18978 11.34 9 12 9H12.5858L12.2929 8.70711Z" fill="black"/>
</svg>
