<svg width="24" height="24" viewBox="0 0 24 24" fill="none" xmlns="http://www.w3.org/2000/svg">
<path fill-rule="evenodd" clip-rule="evenodd" d="M12 3C10.8954 3 10 3.89543 10 5C10 5.74028 10.4022 6.38663 11 6.73244V8H8C4.8 8 4 10.6667 4 12V19C4 19.6667 4.4 21 6 21H7V17C7 16.4477 7.44772 16 8 16H12H16C16.5523 16 17 16.4477 17 17V21H18C19.6 21 20 19.6667 20 19V12C20 8.8 17.3333 8 16 8H13V6.73244C13.5978 6.38663 14 5.74028 14 5C14 3.89543 13.1046 3 12 3ZM15 21V18H13V21H15ZM11 21V18H9V21H11ZM21 18V13C21.6667 13 23 13.4 23 15V16C23 16.6667 22.6 18 21 18ZM3 13V18C1.4 18 1 16.6667 1 16V15C1 13.4 2.33333 13 3 13ZM9 12C8.44771 12 8 12.4477 8 13C8 13.5523 8.44771 14 9 14H9.001C9.55328 14 10.001 13.5523 10.001 13C10.001 12.4477 9.55328 12 9.001 12H9ZM14 13C14 12.4477 14.4477 12 15 12H15.001C15.5533 12 16.001 12.4477 16.001 13C16.001 13.5523 15.5533 14 15.001 14H15C14.4477 14 14 13.5523 14 13Z" fill="black"/>
</svg>
