<svg width="24" height="24" viewBox="0 0 24 24" fill="none" xmlns="http://www.w3.org/2000/svg">
<path d="M10 6L12 11M12 11H15C16.1046 11 17 10.1046 17 9V5C17 3.89543 16.1046 3 15 3H9C7.89543 3 7 3.89543 7 5V9C7 10.1046 7.89543 11 9 11H12Z" stroke="black" stroke-width="2" stroke-linecap="round" stroke-linejoin="round"/>
<path fill-rule="evenodd" clip-rule="evenodd" d="M2 7C2 5.34315 3.34315 4 5 4H7C7.55228 4 8 4.44772 8 5V9C8 9.55228 8.44772 10 9 10H15C15.5523 10 16 9.55228 16 9V5C16 4.44772 16.4477 4 17 4H19C20.6569 4 22 5.34315 22 7V19C22 20.6569 20.6569 22 19 22H5C3.34315 22 2 20.6569 2 19V7ZM10 16C9.44772 16 9 16.4477 9 17C9 17.5523 9.44772 18 10 18H14C14.5523 18 15 17.5523 15 17C15 16.4477 14.5523 16 14 16H10Z" fill="black"/>
</svg>
