<svg width="24" height="24" viewBox="0 0 24 24" fill="none" xmlns="http://www.w3.org/2000/svg">
<path fill-rule="evenodd" clip-rule="evenodd" d="M5 11C5 7.68629 7.68629 5 11 5C14.3137 5 17 7.68629 17 11C17 12.6571 16.3295 14.1558 15.2426 15.2426C14.1558 16.3295 12.6571 17 11 17C7.68629 17 5 14.3137 5 11ZM11 3C6.58172 3 3 6.58172 3 11C3 15.4183 6.58172 19 11 19C12.8483 19 14.5513 18.3723 15.9056 17.3198L19.2929 20.7071C19.6834 21.0976 20.3166 21.0976 20.7071 20.7071C21.0976 20.3166 21.0976 19.6834 20.7071 19.2929L17.3198 15.9056C18.3723 14.5513 19 12.8483 19 11C19 6.58172 15.4183 3 11 3ZM11 15C13.2091 15 15 13.2091 15 11C15 8.79086 13.2091 7 11 7C8.79086 7 7 8.79086 7 11C7 13.2091 8.79086 15 11 15Z" fill="black"/>
</svg>
