<svg width="24" height="24" viewBox="0 0 24 24" fill="none" xmlns="http://www.w3.org/2000/svg">
<path fill-rule="evenodd" clip-rule="evenodd" d="M9.02381 2.78307C9.12548 2.32553 9.53129 2 9.99999 2H14C14.4687 2 14.8745 2.32553 14.9762 2.78307L15.4165 4.76439C15.816 4.95332 16.1971 5.17425 16.5567 5.42381L18.494 4.81407C18.941 4.67336 19.4259 4.86203 19.6602 5.26794L21.6602 8.73204C21.8946 9.13795 21.8155 9.65216 21.4701 9.96898L19.9733 11.342C19.991 11.5592 20 11.7786 20 12C20 12.2214 19.991 12.4408 19.9733 12.658L21.4701 14.031C21.8155 14.3478 21.8946 14.862 21.6602 15.2679L19.6602 18.732C19.4259 19.1379 18.941 19.3266 18.494 19.1859L16.5567 18.5762C16.1972 18.8257 15.816 19.0467 15.4165 19.2356L14.9762 21.2169C14.8745 21.6745 14.4687 22 14 22H9.99999C9.53129 22 9.12548 21.6745 9.02381 21.2169L8.58351 19.2356C8.184 19.0467 7.8028 18.8257 7.44322 18.5762L5.50595 19.1859C5.05887 19.3266 4.57405 19.1379 4.3397 18.732L2.3397 15.2679C2.10535 14.862 2.18436 14.3478 2.52976 14.031L4.02671 12.6579C4.00901 12.4408 3.99999 12.2213 3.99999 12C3.99999 11.7786 4.00901 11.5592 4.02671 11.3421L2.52976 9.96898C2.18436 9.65216 2.10535 9.13794 2.3397 8.73204L4.3397 5.26794C4.57405 4.86203 5.05887 4.67335 5.50595 4.81407L7.44324 5.42383C7.80282 5.17426 8.18401 4.95332 8.58351 4.76439L9.02381 2.78307ZM15.7071 10.7071C16.0976 10.3166 16.0976 9.68342 15.7071 9.29289C15.3166 8.90237 14.6834 8.90237 14.2929 9.29289L11 12.5858L9.70711 11.2929C9.31658 10.9024 8.68342 10.9024 8.29289 11.2929C7.90237 11.6834 7.90237 12.3166 8.29289 12.7071L10.2929 14.7071C10.6834 15.0976 11.3166 15.0976 11.7071 14.7071L15.7071 10.7071Z" fill="black"/>
</svg>
