<svg width="24" height="24" viewBox="0 0 24 24" fill="none" xmlns="http://www.w3.org/2000/svg">
<path fill-rule="evenodd" clip-rule="evenodd" d="M1 12C1 5.92487 5.92487 1 12 1C18.0751 1 23 5.92487 23 12C23 18.0751 18.0751 23 12 23C5.92487 23 1 18.0751 1 12ZM12 7C12 6.59554 12.2436 6.2309 12.6173 6.07612C12.991 5.92134 13.4211 6.0069 13.7071 6.29289L17.7071 10.2929C18.0976 10.6834 18.0976 11.3166 17.7071 11.7071L13.7071 15.7071C13.4211 15.9931 12.991 16.0787 12.6173 15.9239C12.2436 15.7691 12 15.4045 12 15V14.0392C10.369 14.1724 9.3749 14.6242 8.79523 15.0536C8.44684 15.3116 8.23742 15.5688 8.11999 15.7645C8.03585 15.9047 8.0102 15.9928 8.00268 16.0186C8.00112 16.024 8.00034 16.0266 7.99998 16.0266C7.9998 16.0266 7.99973 16.0259 7.9997 16.0246C7.98667 16.5655 7.54408 17 7 17C6.44771 17 6 16.5523 6 16C6 13.294 7.13729 11.2849 8.57294 9.96407C9.63503 8.98695 10.89 8.36109 12 8.11659V7ZM13 12C13.4288 12 13.7946 12.2699 13.9367 12.6491L15.5858 11L13.9367 9.35091C13.7946 9.7301 13.4288 10 13 10C12.2961 10 11.0287 10.4224 9.92706 11.4359C9.53461 11.797 9.16958 12.2276 8.8651 12.7324C9.90271 12.2888 11.2574 12 13 12Z" fill="black"/>
</svg>
