<svg width="24" height="24" viewBox="0 0 24 24" fill="none" xmlns="http://www.w3.org/2000/svg">
<path d="M3 3L21 21" stroke="black" stroke-width="2" stroke-linecap="round" stroke-linejoin="round"/>
<path fill-rule="evenodd" clip-rule="evenodd" d="M4.0127 4.84112C4.0043 4.8933 4 4.94641 4 5V14C4 15.2996 4.56814 16.4486 5.3044 17.3952C6.04197 18.3435 7.00079 19.158 7.91876 19.8137C8.84211 20.4733 9.75932 20.9969 10.4422 21.3546C10.7849 21.5341 11.0715 21.6733 11.2743 21.7685C11.3758 21.8161 11.4564 21.8528 11.5128 21.8781C11.541 21.8907 11.5632 21.9005 11.5789 21.9073L11.5975 21.9154L11.6031 21.9178L11.6056 21.9189C11.8571 22.0267 12.1424 22.027 12.3939 21.9191L12 21C12.3939 21.9191 12.3948 21.9188 12.3951 21.9186L12.3969 21.9178L12.4025 21.9154L12.4211 21.9073C12.4368 21.9005 12.459 21.8907 12.4872 21.8781C12.5436 21.8528 12.6242 21.8161 12.7257 21.7685C12.9285 21.6733 13.2151 21.5341 13.5578 21.3546C14.2407 20.9969 15.1579 20.4733 16.0812 19.8137C16.6173 19.4308 17.1673 18.9937 17.6791 18.5075L4.0127 4.84112ZM19.8768 15.0483C19.956 14.7113 20 14.3615 20 14V5C20 4.71556 19.8789 4.44457 19.6669 4.25487C19.455 4.06517 19.1723 3.9747 18.8896 4.00612C18.2366 4.07867 17.0924 4.08133 15.8896 3.83313C14.6798 3.5835 13.5165 3.10231 12.7071 2.29289C12.3166 1.90237 11.6834 1.90237 11.2929 2.29289C10.5839 3.00192 9.60329 3.45909 8.55781 3.72938L19.8768 15.0483ZM11.6056 21.9189C11.6058 21.919 11.6061 21.9191 12 21L11.6056 21.9189Z" fill="black"/>
</svg>
