<svg width="24" height="24" viewBox="0 0 24 24" fill="none" xmlns="http://www.w3.org/2000/svg">
<path fill-rule="evenodd" clip-rule="evenodd" d="M11.2929 2.29289C11.6834 1.90237 12.3166 1.90237 12.7071 2.29289C13.5165 3.10231 14.6798 3.5835 15.8896 3.83313C17.0924 4.08133 18.2366 4.07867 18.8896 4.00612C19.1723 3.9747 19.455 4.06517 19.6669 4.25487C19.8789 4.44457 20 4.71556 20 5V14C20 15.2996 19.4319 16.4486 18.6956 17.3952C17.958 18.3435 16.9992 19.158 16.0812 19.8137C15.1579 20.4733 14.2407 20.9969 13.5578 21.3546C13.2151 21.5341 12.9285 21.6733 12.7257 21.7685C12.6242 21.8161 12.5436 21.8528 12.4872 21.8781C12.459 21.8907 12.4368 21.9005 12.4211 21.9073L12.4025 21.9154L12.3969 21.9178L12.3951 21.9186C12.3948 21.9188 12.3939 21.9191 12 21L11.6056 21.9189L11.6031 21.9178L11.5975 21.9154L11.5789 21.9073C11.5632 21.9005 11.541 21.8907 11.5128 21.8781C11.4564 21.8528 11.3758 21.8161 11.2743 21.7685C11.0715 21.6733 10.7849 21.5341 10.4422 21.3546C9.75932 20.9969 8.84211 20.4733 7.91876 19.8137C7.00079 19.158 6.04197 18.3435 5.3044 17.3952C4.56814 16.4486 4 15.2996 4 14V5C4 4.71556 4.12113 4.44457 4.33308 4.25487C4.54503 4.06517 4.82773 3.9747 5.11043 4.00612C5.76343 4.07867 6.90762 4.08133 8.11041 3.83313C9.32017 3.5835 10.4835 3.10231 11.2929 2.29289ZM11.6056 21.9189C11.8571 22.0267 12.1424 22.027 12.3939 21.9191L12 21C11.6061 21.9191 11.6058 21.919 11.6056 21.9189ZM13 11V9C13 8.44772 12.5523 8 12 8C11.4477 8 11 8.44772 11 9V11H9C8.44772 11 8 11.4477 8 12C8 12.5523 8.44772 13 9 13H11V15C11 15.5523 11.4477 16 12 16C12.5523 16 13 15.5523 13 15V13H15C15.5523 13 16 12.5523 16 12C16 11.4477 15.5523 11 15 11H13Z" fill="black"/>
</svg>
