<svg width="24" height="24" viewBox="0 0 24 24" fill="none" xmlns="http://www.w3.org/2000/svg">
<path fill-rule="evenodd" clip-rule="evenodd" d="M12.7071 2.29289C12.3166 1.90237 11.6834 1.90237 11.2929 2.29289C10.4835 3.10231 9.32017 3.5835 8.11041 3.83313C6.90762 4.08133 5.76343 4.07867 5.11043 4.00612C4.82773 3.9747 4.54503 4.06517 4.33308 4.25487C4.12113 4.44457 4 4.71556 4 5V14C4 15.2996 4.56814 16.4486 5.3044 17.3952C6.04197 18.3435 7.00079 19.158 7.91876 19.8137C8.84211 20.4733 9.75932 20.9969 10.4422 21.3546C10.7849 21.5341 11.0715 21.6733 11.2743 21.7685C11.3758 21.8161 11.4564 21.8528 11.5128 21.8781C11.541 21.8907 11.5632 21.9005 11.5789 21.9073L11.5975 21.9154L11.6031 21.9178L11.6056 21.9189C11.8571 22.0267 12.1424 22.027 12.3939 21.9191L12 21C12.3939 21.9191 12.3948 21.9188 12.3951 21.9186L12.3969 21.9178L12.4025 21.9154L12.4211 21.9073C12.4368 21.9005 12.459 21.8907 12.4872 21.8781C12.5436 21.8528 12.6242 21.8161 12.7257 21.7685C12.9285 21.6733 13.2151 21.5341 13.5578 21.3546C14.2407 20.9969 15.1579 20.4733 16.0812 19.8137C16.9992 19.158 17.958 18.3435 18.6956 17.3952C19.4319 16.4486 20 15.2996 20 14V5C20 4.71556 19.8789 4.44457 19.6669 4.25487C19.455 4.06517 19.1723 3.9747 18.8896 4.00612C18.2366 4.07867 17.0924 4.08133 15.8896 3.83313C14.6798 3.5835 13.5165 3.10231 12.7071 2.29289ZM12 21L11.6056 21.9189C11.6058 21.919 11.6061 21.9191 12 21Z" fill="black"/>
</svg>
