<svg width="24" height="24" viewBox="0 0 24 24" fill="none" xmlns="http://www.w3.org/2000/svg">
<g clip-path="url(#clip0_201_1459)">
<path d="M14.6715 19.1569L11.8431 16.3284M14.6715 19.1569L16.071 21.9706C16.783 21.2782 19.194 18.052 17.4852 16.3431M14.6715 19.1569L17.4852 16.3431M11.8431 16.3284L14.6715 13.5L14.6862 13.4853M11.8431 16.3284L8.99992 14.8995C9.72175 14.1973 13.0009 11.8 14.6862 13.4853M17.4999 16.3284L17.4852 16.3431M17.4852 16.3431L19.9866 13.8418C21.0545 12.7738 21.7983 11.4254 22.132 9.95247L22.4497 8.55025L21.0475 8.86791C19.5745 9.2016 18.2261 9.94542 17.1581 11.0134L14.6862 13.4853" stroke="black" stroke-width="2" stroke-linecap="round" stroke-linejoin="round"/>
<path d="M3.41364 13.3134C2.07526 15.4299 1.56291 17.1195 2.22165 17.7782C2.80745 18.364 4.20844 18.0237 5.99995 17M13.3131 3.41388C15.4297 2.0755 17.1193 1.56315 17.778 2.2219C18.6635 3.10743 17.4328 5.85576 14.924 9M4.2538 14C2.34882 11.2703 2.61423 7.48601 5.05004 5.05021C7.48583 2.61442 11.2701 2.349 13.9998 4.25395" stroke="black" stroke-width="2" stroke-linecap="round" stroke-linejoin="round"/>
</g>
<defs>
<clipPath id="clip0_201_1459">
<rect width="24" height="24" fill="white"/>
</clipPath>
</defs>
</svg>
