<svg width="24" height="24" viewBox="0 0 24 24" fill="none" xmlns="http://www.w3.org/2000/svg">
<path d="M14 21H9.99996L9.44899 18.5206C8.78785 18.2618 8.17569 17.9053 7.63023 17.4689L5.20569 18.232L3.20569 14.7679L5.07823 13.0503C5.02668 12.7077 4.99996 12.357 4.99996 12C4.99996 11.643 5.02668 11.2923 5.07824 10.9496L3.20569 9.23204L5.20569 5.76794L7.63025 6.53106C8.1757 6.09467 8.78786 5.73819 9.44899 5.47935L9.99996 3H14L14.5509 5.47935C15.212 5.73819 15.8242 6.09466 16.3696 6.53104L18.7941 5.76794L20.7941 9.23204L18.9217 10.9496C18.9732 11.2922 19 11.643 19 12C19 12.357 18.9732 12.7078 18.9217 13.0504L20.7941 14.7679L18.7941 18.232L16.3697 17.4689C15.8242 17.9053 15.2121 18.2618 14.5509 18.5206L14 21Z" stroke="black" stroke-width="2" stroke-linecap="round" stroke-linejoin="round"/>
<circle cx="12" cy="12" r="3" stroke="black" stroke-width="2"/>
</svg>
