<svg width="24" height="24" viewBox="0 0 24 24" fill="none" xmlns="http://www.w3.org/2000/svg">
<g clip-path="url(#clip0_2725_350)">
<path fill-rule="evenodd" clip-rule="evenodd" d="M4 5V16C4 16.2652 4.10536 16.5196 4.29289 16.7071C4.48043 16.8946 4.73478 17 5 17H7V21L11 17H16.584C16.85 17 17.104 16.895 17.291 16.707L19.706 14.293C19.893 14.105 19.999 13.851 19.999 13.585V5C19.999 4.73478 19.8936 4.48043 19.7061 4.29289C19.5186 4.10536 19.2642 4 18.999 4H4.999C4.73378 4 4.47943 4.10536 4.29189 4.29289C4.10436 4.48043 4 4.73478 4 5ZM16 7C16.5523 7 17 7.44772 17 8V12C17 12.5523 16.5523 13 16 13C15.4477 13 15 12.5523 15 12V8C15 7.44772 15.4477 7 16 7ZM13 8C13 7.44772 12.5523 7 12 7C11.4477 7 11 7.44772 11 8V12C11 12.5523 11.4477 13 12 13C12.5523 13 13 12.5523 13 12V8Z" fill="currentColor"/>
</g>
<defs>
<clipPath id="clip0_2725_350">
<rect width="24" height="24" fill="white"/>
</clipPath>
</defs>
</svg>
