<svg width="24" height="24" viewBox="0 0 24 24" fill="none" xmlns="http://www.w3.org/2000/svg">
<path fill-rule="evenodd" clip-rule="evenodd" d="M1.5 12C1.5 6.20297 6.20297 1.5 12 1.5C17.797 1.5 22.5 6.19781 22.5 12C22.5 17.8022 17.797 22.5 12 22.5C6.20297 22.5 1.5 17.797 1.5 12ZM20.7291 11.4202C20.6046 9.54925 19.8815 7.76805 18.6666 6.33984C18.6194 6.409 18.5705 6.47774 18.5198 6.54603C18.1886 6.15049 17.822 5.78554 17.425 5.45604C17.4795 5.39204 17.5324 5.32757 17.5837 5.26266C16.0156 3.95866 14.0395 3.24634 12 3.24984C11.2725 3.25322 10.5482 3.3469 9.84375 3.52875C9.90794 3.59429 9.97193 3.66075 10.0357 3.7281C9.39892 3.87875 8.78983 4.10102 8.21741 4.38594C8.1586 4.32556 8.09962 4.26592 8.04047 4.20703C6.92981 4.77161 5.95244 5.56673 5.17367 6.53927C4.3949 7.5118 3.83266 8.63935 3.52453 9.84656C3.60665 9.85169 3.68895 9.85643 3.77147 9.86075C3.62692 10.4184 3.53754 10.9982 3.50953 11.5941C3.4283 11.5911 3.3472 11.5878 3.26625 11.5842C3.25547 11.7211 3.24984 11.8594 3.24984 12C3.25007 14.1274 4.02813 16.1814 5.4375 17.775C5.47722 17.6988 5.51797 17.623 5.55975 17.5476C5.91887 17.9641 6.3177 18.3454 6.75037 18.6856C6.71103 18.759 6.67262 18.8328 6.63516 18.907C8.16724 20.1036 10.056 20.7525 12 20.7502C13.0576 20.7489 14.1061 20.5543 15.0938 20.1759C15.084 20.0943 15.074 20.0127 15.0637 19.9311C15.6415 19.7078 16.1888 19.4231 16.6976 19.085C16.709 19.1752 16.72 19.2654 16.7306 19.3556C17.825 18.6529 18.7488 17.7148 19.4347 16.6097C20.1206 15.5047 20.5512 14.2606 20.6953 12.968C20.6137 12.962 20.531 12.9562 20.4474 12.9507C20.4822 12.6386 20.5 12.3214 20.5 12C20.5 11.8009 20.4932 11.6035 20.4797 11.4079C20.5635 11.4118 20.6466 11.4159 20.7291 11.4202ZM20.4797 11.4079C18.6403 11.322 16.4936 11.3291 14.7572 11.4914C14.5275 10.9116 14.2922 10.343 14.0353 9.79594C16.022 8.93472 17.5764 7.81683 18.5198 6.54603C19.6373 7.88055 20.3528 9.56328 20.4797 11.4079ZM20.4474 12.9507C18.8559 12.8459 16.9182 12.8344 15.2869 12.968C15.5166 13.6406 15.728 14.3297 15.9155 15.0408C16.2641 16.3705 16.5254 17.7214 16.6976 19.085C18.7404 17.7279 20.1625 15.5109 20.4474 12.9507ZM15.0637 19.9311C14.8914 18.5737 14.6317 17.2288 14.2861 15.9047C14.0408 14.9747 13.7619 14.0778 13.4494 13.2141C13.072 13.2961 12.7439 13.3889 12.4978 13.5037C9.96223 14.6502 7.93422 16.4772 6.75037 18.6856C8.19573 19.8221 10.0187 20.5 12 20.5C13.0801 20.5 14.1132 20.2985 15.0637 19.9311ZM5.55975 17.5476C6.8701 15.1831 9.1892 13.2298 12.1092 12.0033C12.3637 11.9056 12.6252 11.8272 12.8916 11.7689C12.7056 11.3152 12.5088 10.8722 12.3009 10.44C10.0969 11.1469 7.53187 11.5791 4.77562 11.6119C4.34974 11.6162 3.9278 11.6093 3.50953 11.5941C3.5032 11.7286 3.5 11.8639 3.5 12C3.5 14.12 4.27613 16.0588 5.55975 17.5476ZM8.21741 4.38594C9.41457 5.61528 10.5393 7.1542 11.5298 8.94141C9.55547 9.54469 7.29141 9.89062 4.875 9.89062C4.50079 9.89062 4.13404 9.87974 3.77147 9.86075C4.39413 7.45889 6.04064 5.46943 8.21741 4.38594ZM10.0357 3.7281C11.212 4.97045 12.3148 6.51861 13.2797 8.30297C15.0389 7.55531 16.47 6.57776 17.425 5.45604C15.953 4.23444 14.0623 3.5 12 3.5C11.3239 3.5 10.6662 3.57894 10.0357 3.7281Z" fill="black"/>
<path fill-rule="evenodd" clip-rule="evenodd" d="M12 1.5C6.20297 1.5 1.5 6.20297 1.5 12C1.5 6.20101 6.20101 1.5 12 1.5ZM1.5 12C1.5 17.797 6.20297 22.5 12 22.5C6.20101 22.5 1.5 17.799 1.5 12ZM20.7291 11.4202C20.6046 9.54925 19.8815 7.76805 18.6666 6.33984C17.7422 7.69594 16.1287 8.88844 14.0353 9.79594C14.2922 10.343 14.5275 10.9116 14.7572 11.4914C16.5727 11.3217 18.8367 11.3217 20.7291 11.4202ZM17.5837 5.26266C16.0156 3.95866 14.0395 3.24634 12 3.24984C11.2725 3.25322 10.5482 3.3469 9.84375 3.52875C11.092 4.80328 12.2625 6.42188 13.2797 8.30297C15.1392 7.51266 16.6322 6.46547 17.5837 5.26266ZM11.5298 8.94141C10.4906 7.06641 9.30375 5.46469 8.04047 4.20703C6.92981 4.77161 5.95244 5.56673 5.17367 6.53927C4.3949 7.5118 3.83266 8.63935 3.52453 9.84656C3.9675 9.87422 4.41563 9.89062 4.875 9.89062C7.29141 9.89062 9.55547 9.54469 11.5298 8.94141ZM4.77562 11.6119C4.26703 11.617 3.76406 11.6062 3.26625 11.5842C3.25547 11.7211 3.24984 11.8594 3.24984 12C3.25007 14.1274 4.02813 16.1814 5.4375 17.775C6.72281 15.3084 9.09609 13.2689 12.1092 12.0033C12.3637 11.9056 12.6252 11.8272 12.8916 11.7689C12.7056 11.3152 12.5088 10.8722 12.3009 10.44C10.0969 11.1469 7.53187 11.5791 4.77562 11.6119ZM6.63516 18.907C8.16724 20.1036 10.056 20.7525 12 20.7502C13.0576 20.7489 14.1061 20.5543 15.0938 20.1759C14.9223 18.7354 14.6525 17.3083 14.2861 15.9047C14.0408 14.9747 13.7619 14.0778 13.4494 13.2141C13.072 13.2961 12.7439 13.3889 12.4978 13.5037C9.87797 14.6883 7.8 16.5994 6.63516 18.907ZM15.9155 15.0408C16.2871 16.4584 16.5595 17.9001 16.7306 19.3556C17.825 18.6529 18.7488 17.7148 19.4347 16.6097C20.1206 15.5047 20.5512 14.2606 20.6953 12.968C19.0603 12.8475 17.0039 12.8273 15.2869 12.968C15.5166 13.6406 15.728 14.3297 15.9155 15.0408Z" fill="black"/>
</svg>
