<svg width="24" height="24" viewBox="0 0 24 24" fill="none" xmlns="http://www.w3.org/2000/svg">
<path d="M14.1456 14.1421C14.6206 15.5621 14.9393 17.0297 15.096 18.5188L15.1536 19.0984L15.267 20.3863C13.9241 20.9094 12.4751 21.1023 11.042 20.9488C9.60898 20.7953 8.23374 20.2999 7.03201 19.5043L8.90402 17.626L9.12542 17.41C10.7391 15.8548 12.1944 14.8225 13.9737 14.2006L14.1456 14.1421ZM19.6266 13.4374L19.9992 13.4401L20.8821 13.4527C20.6829 14.6713 20.235 15.8358 19.5663 16.8739C18.8975 17.9119 18.0223 18.8011 16.995 19.4863L16.9464 18.9418C16.7844 17.0905 16.4514 15.3796 15.8997 13.7092C16.8393 13.5454 17.8824 13.459 19.0758 13.441L19.6257 13.4374H19.6266ZM12.5445 10.5745C12.8896 11.1886 13.2056 11.8187 13.4913 12.4627C11.4429 13.1557 9.76352 14.3104 7.96171 16.033L7.64221 16.3426L5.62981 18.3586C4.0168 16.7425 3.07833 14.5738 3.0045 12.2917L3 12.0001L3.0036 11.7751H3.99L4.4103 11.7733C7.60261 11.7499 10.1307 11.443 12.4545 10.6078L12.5445 10.5745ZM20.9937 11.6563L19.6302 11.6383C17.9562 11.6356 16.5252 11.7499 15.2517 12.0001C14.9393 11.2688 14.5899 10.5539 14.205 9.85805C15.4587 9.23255 16.6863 8.42075 17.9661 7.38305L18.3513 7.06445L19.0857 6.45064C20.1824 7.85111 20.8394 9.54512 20.9739 11.3188L20.9937 11.6563ZM7.79701 4.04224L8.93642 5.41204C9.96692 6.67024 10.8453 7.85375 11.5905 8.99855C9.55652 9.68795 7.32541 9.94535 4.4958 9.97145L3.99 9.97505H3.2304C3.52107 8.71618 4.07937 7.53464 4.86735 6.51076C5.65534 5.48688 6.65453 4.64555 7.79701 4.04224ZM16.5 4.20604C16.977 4.48144 17.4234 4.79734 17.8347 5.14744L16.9122 5.91874C15.6711 6.93395 14.493 7.71245 13.2816 8.30285C12.4806 7.04465 11.5329 5.75044 10.4178 4.38064L9.99122 3.86404L9.55472 3.33844C10.7117 3.01187 11.9223 2.9204 13.1152 3.06941C14.308 3.21842 15.459 3.6049 16.5 4.20604Z" fill="black"/>
</svg>
