<svg width="24" height="24" viewBox="0 0 24 24" fill="none" xmlns="http://www.w3.org/2000/svg">
<g clip-path="url(#clip0_2724_278)">
<path fill-rule="evenodd" clip-rule="evenodd" d="M3.65901 3.65901C3.23705 4.08097 3 4.65326 3 5.25V18.75C3 19.3467 3.23705 19.919 3.65901 20.341C4.08097 20.7629 4.65326 21 5.25 21H18.75C19.3467 21 19.919 20.7629 20.341 20.341C20.7629 19.919 21 19.3467 21 18.75V5.25C21 4.65326 20.7629 4.08097 20.341 3.65901C19.919 3.23705 19.3467 3 18.75 3H5.25C4.65326 3 4.08097 3.23705 3.65901 3.65901ZM8.625 7.5C8.625 6.87868 8.12132 6.375 7.5 6.375C6.87868 6.375 6.375 6.87868 6.375 7.5V7.51125C6.375 8.13257 6.87868 8.63625 7.5 8.63625C8.12132 8.63625 8.625 8.13257 8.625 7.51125V7.5ZM8.625 10.875C8.625 10.2537 8.12132 9.75 7.5 9.75C6.87868 9.75 6.375 10.2537 6.375 10.875V16.5C6.375 17.1213 6.87868 17.625 7.5 17.625C8.12132 17.625 8.625 17.1213 8.625 16.5V10.875ZM10.875 16.5V10.875C10.875 10.2537 11.3787 9.75 12 9.75C12.3107 9.75 12.5919 9.87592 12.7955 10.0795C13.2455 9.86461 13.7418 9.75 14.25 9.75C15.1451 9.75 16.0036 10.1056 16.6365 10.7385C17.2694 11.3715 17.625 12.2299 17.625 13.125V16.5C17.625 17.1213 17.1213 17.625 16.5 17.625C15.8787 17.625 15.375 17.1213 15.375 16.5V13.125C15.375 12.8266 15.2565 12.5405 15.0455 12.3295C14.8345 12.1185 14.5484 12 14.25 12C13.9516 12 13.6655 12.1185 13.4545 12.3295C13.2435 12.5405 13.125 12.8266 13.125 13.125V16.5C13.125 17.1213 12.6213 17.625 12 17.625C11.3787 17.625 10.875 17.1213 10.875 16.5Z" fill="black"/>
</g>
<defs>
<clipPath id="clip0_2724_278">
<rect width="24" height="24" fill="white"/>
</clipPath>
</defs>
</svg>
