<svg width="24" height="24" viewBox="0 0 24 24" fill="none" xmlns="http://www.w3.org/2000/svg">
<g clip-path="url(#clip0_2834_190)">
<path fill-rule="evenodd" clip-rule="evenodd" d="M11.197 15.698C10.507 15.894 9.767 16 9 16C8.1114 16.0019 7.22867 15.8559 6.388 15.568L4 17V14.199C2.763 13.117 2 11.635 2 10C2 6.686 5.134 4 9 4C12.782 4 15.863 6.57 16 9.785V10.018C16.1648 10.0058 16.3313 10 16.5 10C19.538 10 22 12.015 22 14.5C22 15.897 21.222 17.145 20 17.97V20L18.036 18.822C17.5327 18.9409 17.0172 19.0006 16.5 19C13.9691 19 11.838 17.6016 11.197 15.698ZM9 8C9 7.44772 9.44772 7 10 7H10.01C10.5623 7 11.01 7.44772 11.01 8C11.01 8.55228 10.5623 9 10.01 9H10C9.44772 9 9 8.55228 9 8ZM7 7C6.44772 7 6 7.44772 6 8C6 8.55228 6.44772 9 7 9H7.01C7.56228 9 8.01 8.55228 8.01 8C8.01 7.44772 7.56228 7 7.01 7H7ZM14 14C14 13.4477 14.4477 13 15 13H15.01C15.5623 13 16.01 13.4477 16.01 14C16.01 14.5523 15.5623 15 15.01 15H15C14.4477 15 14 14.5523 14 14ZM18 13C17.4477 13 17 13.4477 17 14C17 14.5523 17.4477 15 18 15H18.01C18.5623 15 19.01 14.5523 19.01 14C19.01 13.4477 18.5623 13 18.01 13H18Z" fill="black"/>
</g>
<defs>
<clipPath id="clip0_2834_190">
<rect width="24" height="24" fill="white"/>
</clipPath>
</defs>
</svg>
