<svg width="24" height="24" viewBox="0 0 24 24" fill="none" xmlns="http://www.w3.org/2000/svg">
<path d="M12 3C7.05 3 3 7.05 3 12C3 16.95 7.05 21 12 21C15.2025 21 18.03 19.305 19.6237 16.7662C19.6543 16.718 19.6679 16.661 19.6624 16.6042C19.6571 16.5474 19.6329 16.494 19.5939 16.4524C19.5548 16.4107 19.5031 16.3833 19.4467 16.3742C19.3904 16.3652 19.3326 16.3752 19.2825 16.4025C19.0631 16.5314 18.832 16.6393 18.5925 16.725C17.2125 17.1975 16.4512 17.2162 15.5138 17.175C14.4675 17.13 13.1925 16.77 12.2963 16.2375C11.4 15.705 10.665 14.94 10.2675 14.2762C9.87001 13.6126 9.63001 12.78 9.73876 11.715C9.84751 10.6275 10.8412 9.74251 12.0038 9.74251C13.26 9.74251 14.2837 10.74 14.2837 11.9962C14.2837 12.6338 13.98 13.185 13.59 13.6275C13.5037 13.7062 13.305 13.9913 13.8075 14.3775C14.4038 14.835 15.7425 15.0525 16.8038 15C17.865 14.9475 19.02 14.5275 19.8112 13.695C20.4412 13.0313 21.0038 11.9662 21.0038 10.7925C21.0001 6.10126 16.65 3 12 3Z" fill="black"/>
</svg>
