<svg width="24" height="24" viewBox="0 0 24 24" fill="none" xmlns="http://www.w3.org/2000/svg">
<path d="M9.74143 15.8741C9.78217 15.8937 9.82044 15.9149 9.86232 15.9336L9.86839 15.9374C9.82607 15.9171 9.78375 15.896 9.74143 15.8741ZM18.9326 9.50009V9.49176L18.9342 9.50099L18.9326 9.50009Z" fill="black"/>
<path d="M19.7975 9.044C19.4184 8.13181 18.6494 7.14692 18.0472 6.83558C18.4766 7.66714 18.7747 8.56019 18.9308 9.48298L18.9308 9.4913L18.9326 9.50009C19.6052 11.4246 19.5077 13.5351 18.6609 15.3897C17.6609 17.5353 15.2414 19.7345 11.4526 19.6264C7.35992 19.5105 3.7535 16.4725 3.0804 12.4946C2.95771 11.8672 3.0804 11.5491 3.14208 11.0392C3.05794 11.4353 3.01099 11.8384 3.00183 12.2432V12.2882C3.00569 14.4715 3.82793 16.5741 5.30623 18.1808C6.78454 19.7875 8.81149 20.7816 10.9869 20.9669C13.1624 21.1522 15.3283 20.5152 17.057 19.1816C18.7858 17.8481 19.9517 15.9149 20.3248 13.7636C20.3394 13.6511 20.3513 13.5396 20.3644 13.4259C20.5441 11.9406 20.3496 10.4339 19.7984 9.04287L19.7975 9.044Z" fill="black"/>
<path d="M19.7975 9.044C19.4184 8.13181 18.6494 7.14692 18.0472 6.83558C18.4766 7.66714 18.7747 8.56019 18.9308 9.48298L18.9308 9.4913L18.9326 9.50009C19.6052 11.4246 19.5077 13.5351 18.6609 15.3897C17.6609 17.5353 15.2414 19.7345 11.4526 19.6264C7.35992 19.5105 3.7535 16.4725 3.0804 12.4946C2.95771 11.8672 3.0804 11.5491 3.14208 11.0392C3.05794 11.4353 3.01099 11.8384 3.00183 12.2432V12.2882C3.00569 14.4715 3.82793 16.5741 5.30623 18.1808C6.78454 19.7875 8.81149 20.7816 10.9869 20.9669C13.1624 21.1522 15.3283 20.5152 17.057 19.1816C18.7858 17.8481 19.9517 15.9149 20.3248 13.7636C20.3394 13.6511 20.3513 13.5396 20.3644 13.4259C20.5441 11.9406 20.3496 10.4339 19.7984 9.04287L19.7975 9.044Z" fill="black"/>
<path d="M8.6181 8.48793C8.68879 8.53296 8.7471 8.57213 8.7982 8.60747C8.59942 7.91161 8.59094 7.17516 8.77366 6.47491C7.96883 6.86478 7.25322 7.41704 6.67305 8.0976C6.7156 8.09647 7.98169 8.07416 8.6181 8.48793Z" fill="black"/>
<path d="M3.07881 12.4951C3.75215 16.4729 7.35834 19.512 11.451 19.6268C15.2398 19.734 17.6598 17.5346 18.6593 15.3901C19.5062 13.5356 19.6034 11.4255 18.9308 9.50097V9.49264C18.9308 9.48612 18.9295 9.48229 18.9308 9.48431L18.9324 9.49895C19.2419 11.5198 18.214 13.4768 16.6069 14.8028L16.602 14.814C13.4706 17.3646 10.4742 16.3525 9.86864 15.9396C9.82632 15.9194 9.784 15.8983 9.74167 15.8764C7.91618 15.0038 7.16181 13.3415 7.32389 11.9143C6.89056 11.9207 6.46467 11.8012 6.09783 11.5705C5.73099 11.3397 5.43894 11.0076 5.25707 10.6142C5.7363 10.3206 6.28273 10.1547 6.84428 10.1321C7.40583 10.1096 7.9638 10.2312 8.46502 10.4854C9.49816 10.9544 10.6737 11.0006 11.7405 10.6142C11.7371 10.5433 10.2187 9.93883 9.62664 9.35577C9.31035 9.04398 9.16019 8.89383 9.02715 8.78104C8.95524 8.72014 8.88009 8.66317 8.80203 8.6104C8.75025 8.57506 8.69194 8.53679 8.62193 8.49086C7.98552 8.07709 6.7199 8.09983 6.67802 8.10096H6.67397C6.32819 7.66265 6.3525 6.21738 6.37231 5.9155C6.27002 5.95661 6.17237 6.00845 6.08101 6.07015C5.77575 6.28801 5.49039 6.53247 5.22826 6.80067C4.92847 7.10267 4.65452 7.42926 4.40927 7.77701C3.84839 8.57205 3.45053 9.47007 3.23865 10.4197C3.23437 10.4375 2.92438 11.7927 3.07724 12.4955L3.07881 12.4951Z" fill="black"/>
<path d="M14.8001 9.0512C15.1185 9.3637 15.3914 9.71951 15.6105 10.1081C15.6585 10.1444 15.7031 10.1811 15.7411 10.216C17.7192 12.0394 16.6828 14.617 16.6056 14.7994C18.2125 13.4755 19.2395 11.5171 18.9311 9.49558C17.9441 7.03502 16.2701 6.04224 14.9059 3.88335C14.8368 3.77417 14.7677 3.66476 14.7004 3.54927C14.6619 3.48331 14.631 3.42388 14.6043 3.36918C14.5476 3.25944 14.5039 3.14347 14.4741 3.02362C14.4742 3.01809 14.4722 3.01274 14.4685 3.00858C14.4649 3.00443 14.4598 3.00177 14.4543 3.00111C14.449 2.99963 14.4433 2.99963 14.4379 3.00111L14.4336 3.00358C14.4336 3.00358 14.4293 3.00606 14.4273 3.00696C14.0899 3.16702 12.0883 6.33648 14.801 9.04691L14.8001 9.0512Z" fill="black"/>
<path d="M15.7411 10.216C15.7031 10.1811 15.658 10.1459 15.6101 10.1097C15.5923 10.0964 15.5747 10.0831 15.5558 10.0699C14.9421 9.64477 14.1924 9.46273 13.4521 9.55906C16.5903 11.1281 15.7483 16.531 11.3992 16.3284C11.012 16.3125 10.6293 16.2386 10.2639 16.1094C10.1786 16.0774 10.0932 16.0424 10.0078 16.0045C9.95846 15.9819 9.90916 15.9594 9.86053 15.9342L9.86661 15.938C10.4731 16.352 13.4685 17.3635 16.5999 14.8124L16.6049 14.8012C16.683 14.6188 17.7195 12.0412 15.7404 10.2178L15.7411 10.216Z" fill="black"/>
<path d="M7.80538 13.0759C7.80538 13.0759 8.20812 11.575 10.6892 11.575C10.9573 11.575 11.7247 10.8265 11.7384 10.6095C10.6717 10.9959 9.49609 10.9496 8.46296 10.4807C7.96173 10.2265 7.40377 10.1048 6.84221 10.1274C6.28066 10.1499 5.73424 10.3159 5.255 10.6095C5.43688 11.0028 5.72893 11.335 6.09577 11.5658C6.46261 11.7965 6.8885 11.9159 7.32183 11.9095C7.16019 13.3361 7.91434 14.9982 9.73961 15.8716C9.78036 15.8912 9.81863 15.9124 9.8605 15.9311C8.79501 15.3806 7.91524 14.339 7.80538 13.0759Z" fill="black"/>
</svg>
