<svg width="24" height="24" viewBox="0 0 24 24" fill="none" xmlns="http://www.w3.org/2000/svg">
<path d="M4 19.985L5.46667 16.6072C4.34459 15.0144 3.84237 13.0668 4.05426 11.13C4.26615 9.19315 5.17759 7.40023 6.61752 6.08768C8.05745 4.77513 9.92689 4.03319 11.875 4.00109C13.8231 3.96899 15.716 4.64893 17.1984 5.91333C18.6808 7.17772 19.6508 8.93964 19.9264 10.8684C20.202 12.7972 19.7642 14.7603 18.6952 16.3892C17.6262 18.0182 15.9995 19.201 14.1203 19.7158C12.2412 20.2305 10.2388 20.0418 8.48889 19.185L4 19.985Z" fill="black" stroke="black" stroke-width="2" stroke-linecap="round" stroke-linejoin="round"/>
<path d="M9 10.5C9 10.6326 9.05268 10.7598 9.14645 10.8536C9.24021 10.9473 9.36739 11 9.5 11C9.63261 11 9.75979 10.9473 9.85355 10.8536C9.94732 10.7598 10 10.6326 10 10.5V9.5C10 9.36739 9.94732 9.24021 9.85355 9.14645C9.75979 9.05268 9.63261 9 9.5 9C9.36739 9 9.24021 9.05268 9.14645 9.14645C9.05268 9.24021 9 9.36739 9 9.5V10.5ZM9 10.5C9 11.8261 9.52678 13.0979 10.4645 14.0355C11.4021 14.9732 12.6739 15.5 14 15.5M14 15.5H15C15.1326 15.5 15.2598 15.4473 15.3536 15.3536C15.4473 15.2598 15.5 15.1326 15.5 15C15.5 14.8674 15.4473 14.7402 15.3536 14.6464C15.2598 14.5527 15.1326 14.5 15 14.5H14C13.8674 14.5 13.7402 14.5527 13.6464 14.6464C13.5527 14.7402 13.5 14.8674 13.5 15C13.5 15.1326 13.5527 15.2598 13.6464 15.3536C13.7402 15.4473 13.8674 15.5 14 15.5Z" stroke="white" stroke-width="2" stroke-linecap="round" stroke-linejoin="round"/>
</svg>
