<svg width="24" height="24" viewBox="0 0 24 24" fill="none" xmlns="http://www.w3.org/2000/svg">
<g clip-path="url(#clip0_2834_138)">
<path d="M6.40347 3.22972C5.93848 2.95022 5.38473 2.92522 4.90149 3.15772L13.0026 11.2561L15.6514 8.6014L6.40347 3.22972ZM4.15725 3.90721C4.055 4.12346 4 4.36371 4 4.6107V19.4248C4 19.673 4.05525 19.9098 4.15875 20.1208L12.2564 12.0044L4.15725 3.90771V3.90721ZM13.0036 12.7509L4.91574 20.8575C5.13024 20.9565 5.35873 21 5.58673 21C5.86823 21 6.14922 20.9325 6.40347 20.78L15.6534 15.4001L13.0036 12.7509ZM19.1736 10.6479C19.1703 10.6456 19.1668 10.6436 19.1636 10.6419L16.5961 9.15015L13.7491 12.0031L16.5973 14.8506L19.1733 13.3523C19.6508 13.0631 19.9358 12.5574 19.9358 11.9999C19.9358 11.4424 19.6511 10.9369 19.1736 10.6479Z" fill="black"/>
</g>
<defs>
<clipPath id="clip0_2834_138">
<rect width="24" height="24" fill="white"/>
</clipPath>
</defs>
</svg>
