<svg width="24" height="24" viewBox="0 0 24 24" fill="none" xmlns="http://www.w3.org/2000/svg">
<g clip-path="url(#clip0_2724_270)">
<path fill-rule="evenodd" clip-rule="evenodd" d="M3 7.5C3 6.30653 3.47411 5.16193 4.31802 4.31802C5.16193 3.47411 6.30653 3 7.5 3H16.5C17.6935 3 18.8381 3.47411 19.682 4.31802C20.5259 5.16193 21 6.30653 21 7.5V16.5C21 17.6935 20.5259 18.8381 19.682 19.682C18.8381 20.5259 17.6935 21 16.5 21H7.5C6.30653 21 5.16193 20.5259 4.31802 19.682C3.47411 18.8381 3 17.6935 3 16.5V7.5ZM8.81802 8.81802C9.66193 7.97411 10.8065 7.5 12 7.5C13.1935 7.5 14.3381 7.97411 15.182 8.81802C16.0259 9.66193 16.5 10.8065 16.5 12C16.5 13.1935 16.0259 14.3381 15.182 15.182C14.3381 16.0259 13.1935 16.5 12 16.5C10.8065 16.5 9.66193 16.0259 8.81802 15.182C7.97411 14.3381 7.5 13.1935 7.5 12C7.5 10.8065 7.97411 9.66193 8.81802 8.81802ZM12 9.75C11.4033 9.75 10.831 9.98705 10.409 10.409C9.98705 10.831 9.75 11.4033 9.75 12C9.75 12.5967 9.98705 13.169 10.409 13.591C10.831 14.0129 11.4033 14.25 12 14.25C12.5967 14.25 13.169 14.0129 13.591 13.591C14.0129 13.169 14.25 12.5967 14.25 12C14.25 11.4033 14.0129 10.831 13.591 10.409C13.169 9.98705 12.5967 9.75 12 9.75ZM18.1875 6.9375C18.1875 6.31618 17.6838 5.8125 17.0625 5.8125C16.4412 5.8125 15.9375 6.31618 15.9375 6.9375V6.94875C15.9375 7.57007 16.4412 8.07375 17.0625 8.07375C17.6838 8.07375 18.1875 7.57007 18.1875 6.94875V6.9375Z" fill="black"/>
</g>
<defs>
<clipPath id="clip0_2724_270">
<rect width="24" height="24" fill="white"/>
</clipPath>
</defs>
</svg>
