<svg width="24" height="24" viewBox="0 0 24 24" fill="none" xmlns="http://www.w3.org/2000/svg">
<g clip-path="url(#clip0_2724_254)">
<path fill-rule="evenodd" clip-rule="evenodd" d="M14.2123 8.37949L12.2608 10.5169L5.98317 3.64133L14.2123 8.37949ZM15.9299 9.36842C15.9299 9.36841 15.9299 9.36842 15.9299 9.36842ZM4.35009 20.8961C4.4565 20.9575 4.5772 20.9898 4.70006 20.9898C4.82291 20.9898 4.9436 20.9575 5.05 20.896L19.672 12.476C19.7557 12.4278 19.8252 12.3583 19.8735 12.2747C19.9219 12.191 19.9473 12.0961 19.9473 11.9995C19.9473 11.9029 19.9219 11.808 19.8735 11.7244C19.8252 11.6407 19.7557 11.5713 19.672 11.523L15.9299 9.36842C15.8865 9.47811 15.8227 9.58192 15.7384 9.67422L13.615 12L12.2608 10.5169L10.9067 12L4 4.43547V19.5644L10.9067 12L12.2608 13.483L5.98311 20.3586L5.05 20.896C4.9436 20.9575 4.82291 20.9898 4.70006 20.9898C4.5772 20.9898 4.4565 20.9575 4.35009 20.8961ZM12.2608 13.483L14.212 15.6201L15.9297 14.631C15.8862 14.5215 15.8226 14.4178 15.7384 14.3257L13.615 12L12.2608 13.483Z" fill="currentColor"/>
</g>
<defs>
<clipPath id="clip0_2724_254">
<rect width="24" height="24" fill="white"/>
</clipPath>
</defs>
</svg>
