<svg width="24" height="24" viewBox="0 0 24 24" fill="none" xmlns="http://www.w3.org/2000/svg">
<path d="M19.1562 13.9939C18.9613 13.9948 18.7705 13.9379 18.608 13.8303C18.4455 13.7227 18.3186 13.5693 18.2434 13.3895C18.1682 13.2097 18.148 13.0116 18.1855 12.8204C18.2229 12.6291 18.3163 12.4533 18.4538 12.3151C18.5913 12.177 18.7667 12.0828 18.9577 12.0444C19.1488 12.0061 19.347 12.0253 19.5271 12.0996C19.7073 12.174 19.8613 12.3002 19.9697 12.4621C20.078 12.6241 20.1359 12.8146 20.1359 13.0095C20.1368 13.1387 20.1121 13.2667 20.0633 13.3862C20.0145 13.5058 19.9424 13.6145 19.8513 13.706C19.7602 13.7975 19.6519 13.8701 19.5326 13.9195C19.4133 13.9689 19.2853 13.9942 19.1562 13.9939ZM14.367 13.9939C14.1721 13.9948 13.9813 13.9379 13.8188 13.8303C13.6563 13.7227 13.5294 13.5693 13.4542 13.3895C13.379 13.2097 13.3588 13.0116 13.3963 12.8204C13.4337 12.6291 13.5271 12.4533 13.6646 12.3151C13.8021 12.177 13.9774 12.0828 14.1685 12.0444C14.3596 12.0061 14.5578 12.0253 14.7379 12.0996C14.9181 12.174 15.0721 12.3002 15.1804 12.4621C15.2888 12.6241 15.3467 12.8146 15.3467 13.0095C15.3477 13.1387 15.323 13.2667 15.2742 13.3863C15.2254 13.5059 15.1533 13.6146 15.0622 13.7061C14.9711 13.7977 14.8628 13.8702 14.7434 13.9196C14.6241 13.969 14.4961 13.9943 14.367 13.9939ZM21.4962 19.5655C23.0201 18.4728 23.9998 16.8345 23.9998 14.9773C23.9998 11.6455 20.7889 8.91406 16.7618 8.91406C12.7348 8.91406 9.52344 11.6455 9.52344 14.9773C9.52344 18.3092 12.7343 21.0401 16.7618 21.0401C17.5779 21.0401 18.3945 20.9309 19.1018 20.712C19.2185 20.6717 19.265 20.6572 19.3193 20.6572C19.4537 20.6604 19.5849 20.6981 19.7004 20.7669L21.281 21.6955C21.3322 21.7223 21.3872 21.7408 21.4442 21.7503C21.5008 21.7464 21.5541 21.7222 21.5942 21.682C21.6343 21.6418 21.6584 21.5885 21.6621 21.5319C21.6585 21.4702 21.6464 21.4093 21.626 21.3509C21.6068 21.2825 21.3917 20.6009 21.281 20.1664C21.2709 20.1128 21.2657 20.0583 21.2656 20.0037C21.2662 19.9172 21.2879 19.832 21.3287 19.7557C21.3695 19.6793 21.4283 19.6141 21.5 19.5655" fill="black"/>
<path d="M11.5373 8.36766C11.2331 8.36766 10.9414 8.24681 10.7263 8.0317C10.5112 7.81659 10.3903 7.52484 10.3903 7.22062C10.3903 6.91641 10.5112 6.62466 10.7263 6.40955C10.9414 6.19444 11.2331 6.07359 11.5373 6.07359C12.1359 6.07359 12.6802 6.61969 12.6802 7.22062C12.7345 7.82156 12.1903 8.36766 11.5373 8.36766ZM5.76891 8.36766C5.54195 8.36849 5.31984 8.30198 5.1307 8.17653C4.94156 8.05108 4.79388 7.87235 4.70637 7.66294C4.61885 7.45353 4.59542 7.22286 4.63905 7.00014C4.68268 6.77741 4.7914 6.57263 4.95146 6.41172C5.11152 6.25081 5.31572 6.141 5.53821 6.09618C5.7607 6.05137 5.99149 6.07357 6.20136 6.15997C6.41123 6.24638 6.59075 6.3931 6.7172 6.58157C6.84365 6.77004 6.91135 6.99179 6.91172 7.21875C6.91049 7.52186 6.78983 7.81226 6.5759 8.02698C6.36196 8.24171 6.072 8.36344 5.76891 8.36578M8.65313 2.25C3.86391 2.25 0 5.47266 0 9.51562C0 11.7005 1.14281 13.6669 2.99297 14.978C3.15656 15.0862 3.1875 15.3281 3.1875 15.4219C3.19142 15.4934 3.1809 15.565 3.15656 15.6323C2.99297 16.1784 2.78437 17.0625 2.77547 17.1094C2.76656 17.1562 2.72109 17.2734 2.72109 17.3278C2.71877 17.3642 2.72421 17.4006 2.73703 17.4347C2.74985 17.4689 2.76977 17.4999 2.79548 17.5257C2.82118 17.5515 2.85208 17.5716 2.88612 17.5846C2.92017 17.5976 2.95659 17.6032 2.99297 17.6011C3.05135 17.5974 3.10775 17.5785 3.15656 17.5463L5.0625 16.4531C5.22609 16.3439 5.33484 16.3439 5.49797 16.3439C5.59131 16.3453 5.68361 16.3637 5.77031 16.3983C6.64078 16.6716 7.62047 16.7808 8.60016 16.7808H9.09C8.91157 16.1966 8.81981 15.5893 8.81766 14.9784C8.81766 11.3184 12.3553 8.36906 16.7091 8.36906H17.1989C16.5984 4.92656 13.0069 2.25 8.65313 2.25Z" fill="black"/>
</svg>
