<svg width="24" height="24" viewBox="0 0 24 24" fill="none" xmlns="http://www.w3.org/2000/svg">
<path d="M10.5 11.9999H13.3336V12.009C14.1592 12.009 14.8341 11.3341 14.8341 10.5084C14.8341 9.6827 14.1585 9.00781 13.3336 9.00781H10.5V11.9999Z" fill="black"/>
<path fill-rule="evenodd" clip-rule="evenodd" d="M12.0004 22C17.525 22 22 17.5248 22 12C22 6.47517 17.5242 2 11.9996 2C6.475 2 2 6.47441 2 12C2 17.5256 6.47576 22 12.0004 22ZM8.4996 7.00914H13.3334C15.2666 7.00914 16.8334 8.57602 16.8334 10.5093C16.8334 12.4426 15.2666 14.0094 13.3334 14.0094H10.4998V17.0091H8.4996V7.00914Z" fill="black"/>
</svg>
