<svg width="24" height="24" viewBox="0 0 24 24" fill="none" xmlns="http://www.w3.org/2000/svg">
<g clip-path="url(#clip0_2725_343)">
<path fill-rule="evenodd" clip-rule="evenodd" d="M16.056 3.96462C14.7981 3.33003 13.4089 2.9996 12.0001 2.99991C11.1019 2.99875 10.2086 3.13223 9.35006 3.39591C8.51685 3.01962 7.58879 2.90604 6.68943 3.0703C5.79007 3.23455 4.96207 3.66884 4.31567 4.31536C3.66926 4.96188 3.2351 5.78995 3.071 6.68934C2.9069 7.58873 3.02063 8.51676 3.39706 9.34991C2.91455 10.9141 2.86779 12.5803 3.26181 14.1691C3.65584 15.758 4.47573 17.2092 5.63323 18.3667C6.79073 19.5242 8.242 20.3441 9.83082 20.7382C11.4196 21.1322 13.0858 21.0854 14.6501 20.6029C15.4832 20.979 16.411 21.0925 17.3102 20.9282C18.2094 20.764 19.0373 20.3298 19.6836 19.6835C20.33 19.0371 20.7641 18.2093 20.9284 17.3101C21.0926 16.4109 20.9792 15.483 20.6031 14.6499C21.0179 13.3035 21.1108 11.8786 20.8744 10.4897C20.638 9.10084 20.0789 7.78687 19.242 6.65355C18.4051 5.52023 17.3138 4.59921 16.056 3.96462ZM9 9.5C9 9.15174 9.12986 8.83334 9.49688 8.56775C9.90061 8.27559 10.6648 8 12 8C12.7376 8 13.4356 8.11516 13.9724 8.39007C14.4712 8.64549 14.856 9.04695 15.0299 9.74254C15.1638 10.2783 15.7067 10.6041 16.2425 10.4701C16.7783 10.3362 17.1041 9.79326 16.9701 9.25746C16.644 7.95305 15.8498 7.10451 14.8841 6.60993C13.9564 6.13485 12.9044 6 12 6C10.4302 6 9.19439 6.31791 8.32437 6.9475C7.41764 7.60366 7 8.53526 7 9.5C7 10.7328 7.79917 11.6333 8.71415 12.1736C9.63573 12.7178 10.8184 13 12 13C12.892 13 13.7093 13.2173 14.2692 13.5476C14.8352 13.8816 15 14.2309 15 14.5C15 14.8483 14.8701 15.1667 14.5031 15.4322C14.0994 15.7244 13.3352 16 12 16C11.2624 16 10.5644 15.8848 10.0276 15.6099C9.52882 15.3545 9.14404 14.953 8.97014 14.2575C8.83619 13.7217 8.29326 13.3959 7.75746 13.5299C7.22167 13.6638 6.89591 14.2067 7.02986 14.7425C7.35596 16.047 8.15018 16.8955 9.11593 17.3901C10.0436 17.8652 11.0956 18 12 18C13.5698 18 14.8056 17.6821 15.6756 17.0525C16.5824 16.3963 17 15.4647 17 14.5C17 13.2661 16.2013 12.3654 15.2855 11.8251C14.3637 11.2812 13.181 11 12 11C11.1086 11 10.2913 10.7822 9.7311 10.4514C9.16433 10.1167 9 9.76718 9 9.5Z" fill="currentColor"/>
</g>
<defs>
<clipPath id="clip0_2725_343">
<rect width="24" height="24" fill="white"/>
</clipPath>
</defs>
</svg>
