<svg width="24" height="24" viewBox="0 0 24 24" fill="none" xmlns="http://www.w3.org/2000/svg">
<g clip-path="url(#clip0_2725_363)">
<path d="M17.8 19.9998L5.8 18.4998C4.8 18.3998 4 17.5998 4 16.5998V7.39979C4 6.39979 4.8 5.59979 5.8 5.49979L17.8 3.99979C19 3.89979 20 4.79979 20 5.89979V17.9998C20 19.1998 18.9 20.0998 17.8 19.8998V19.9998Z" stroke="currentColor" stroke-width="2" stroke-linecap="round" stroke-linejoin="round"/>
<path fill-rule="evenodd" clip-rule="evenodd" d="M17.8 19.9998L12.9211 19.3899C12.9719 19.2701 13 19.1383 13 19V13H20V17.9998C20 19.1998 18.9 20.0998 17.8 19.8998V19.9998ZM20 11H13V5C13 4.86151 12.9718 4.7296 12.921 4.60967L17.8 3.99979C19 3.89979 20 4.79979 20 5.89979V11ZM11.0114 4.84836L12.921 4.60967C12.7689 4.25133 12.4138 4 12 4C11.4993 4 11.0845 4.36804 11.0114 4.84836ZM11 11H13V13H11V11ZM4 11V7.39979C4 6.39979 4.8 5.59979 5.8 5.49979L11.0114 4.84836C11.0039 4.89781 11 4.94845 11 5V11H4ZM4 13H11V19C11 19.0514 11.0039 19.1019 11.0114 19.1512L5.8 18.4998C4.8 18.3998 4 17.5998 4 16.5998V13ZM4 13V11C3.44772 11 3 11.4477 3 12C3 12.5523 3.44772 13 4 13ZM11.0114 19.1512L12.9211 19.3899C12.7692 19.7485 12.4139 20 12 20C11.4991 20 11.0842 19.6317 11.0114 19.1512ZM20 11V13C20.5523 13 21 12.5523 21 12C21 11.4477 20.5523 11 20 11Z" fill="currentColor"/>
</g>
<defs>
<clipPath id="clip0_2725_363">
<rect width="24" height="24" fill="white"/>
</clipPath>
</defs>
</svg>
