<svg width="24" height="24" viewBox="0 0 24 24" fill="none" xmlns="http://www.w3.org/2000/svg">
<path d="M4 11.9999C4 13.0504 4.20692 14.0907 4.60896 15.0613C5.01099 16.0319 5.60025 16.9138 6.34311 17.6567C7.08597 18.3995 7.96787 18.9888 8.93846 19.3908C9.90906 19.7929 10.9493 19.9998 11.9999 19.9998C13.0504 19.9998 14.0907 19.7929 15.0613 19.3908C16.0319 18.9888 16.9138 18.3995 17.6567 17.6567C18.3995 16.9138 18.9888 16.0319 19.3908 15.0613C19.7929 14.0907 19.9998 13.0504 19.9998 11.9999C19.9998 10.9493 19.7929 9.90906 19.3908 8.93846C18.9888 7.96787 18.3995 7.08597 17.6567 6.34311C16.9138 5.60025 16.0319 5.01099 15.0613 4.60896C14.0907 4.20692 13.0504 4 11.9999 4C10.9493 4 9.90906 4.20692 8.93846 4.60896C7.96787 5.01099 7.08597 5.60025 6.34311 6.34311C5.60025 7.08597 5.01099 7.96787 4.60896 8.93846C4.20692 9.90906 4 10.9493 4 11.9999Z" stroke="black" stroke-width="2" stroke-linecap="round" stroke-linejoin="round"/>
<path fill-rule="evenodd" clip-rule="evenodd" d="M4 11.9999C4 13.0504 4.20692 14.0907 4.60896 15.0613C5.01099 16.0319 5.60025 16.9138 6.34311 17.6567C6.74096 18.0545 7.17869 18.4083 7.64857 18.7129L7.63212 18.7499C7.43274 19.1985 7.63477 19.7238 8.08338 19.9232C8.51962 20.1171 9.02838 19.9313 9.23943 19.5084C10.1227 19.8331 11.0571 19.9998 11.9999 19.9998C13.0504 19.9998 14.0907 19.7929 15.0613 19.3908C16.0319 18.9888 16.9138 18.3995 17.6567 17.6567C18.3995 16.9138 18.9888 16.0319 19.3908 15.0613C19.7929 14.0907 19.9998 13.0504 19.9998 11.9999C19.9998 10.9493 19.7929 9.90906 19.3908 8.93846C18.9888 7.96787 18.3995 7.08597 17.6567 6.34311C16.9138 5.60025 16.0319 5.01099 15.0613 4.60896C14.0907 4.20692 13.0504 4 11.9999 4C10.9493 4 9.90906 4.20692 8.93846 4.60896C7.96787 5.01099 7.08597 5.60025 6.34311 6.34311C5.60025 7.08597 5.01099 7.96787 4.60896 8.93846C4.20692 9.90906 4 10.9493 4 11.9999ZM10.4176 16.8598L9.25665 19.4719C9.25116 19.4843 9.24541 19.4964 9.23943 19.5084C9.13842 19.4713 9.03807 19.4321 8.93846 19.3908C8.48769 19.2041 8.05604 18.977 7.64857 18.7129L11.1876 10.75C11.387 10.3014 11.9123 10.0994 12.3609 10.2987C12.8095 10.4981 13.0115 11.0234 12.8122 11.472L11.8616 13.6108L11.864 13.6118L11.5143 14.3973C11.5627 14.528 11.61 14.5707 11.6284 14.5855C11.6527 14.605 11.7039 14.6357 11.8244 14.6582C11.9527 14.6822 12.118 14.6897 12.3478 14.6856C12.4147 14.6845 12.5032 14.6815 12.6004 14.6783C12.7664 14.6728 12.9578 14.6665 13.111 14.6665C14.442 14.6665 15.5554 13.7024 15.5554 11.9999L15.5554 11.9988C15.556 11.4796 15.4429 10.9666 15.224 10.4957C15.0051 10.0249 14.6857 9.60772 14.2883 9.27353C13.8909 8.93934 13.4252 8.69624 12.9238 8.56131C12.4224 8.42639 11.8975 8.40292 11.3861 8.49255C10.8747 8.58219 10.3891 8.78275 9.96346 9.08014C9.53783 9.37753 9.18251 9.76453 8.92246 10.2139C8.66241 10.6634 8.50394 11.1643 8.4582 11.6815C8.41247 12.1987 8.48056 12.7196 8.65771 13.2077C8.8252 13.6692 8.58689 14.179 8.12543 14.3465C7.66397 14.514 7.15411 14.2757 6.98662 13.8142C6.7209 13.0821 6.61876 12.3007 6.68736 11.5249C6.75597 10.7491 6.99366 9.99769 7.38374 9.32357C7.77381 8.64945 8.3068 8.06895 8.94524 7.62286C9.58368 7.17678 10.3121 6.87594 11.0792 6.74149C11.8464 6.60704 12.6337 6.64224 13.3858 6.84463C14.1378 7.04701 14.8365 7.41167 15.4326 7.91296C16.0286 8.41425 16.5077 9.04001 16.836 9.74625C17.1644 10.4525 17.3341 11.2221 17.3331 12.0009L16.4443 11.9999H17.3331L17.3331 12.0009C17.3327 14.6463 15.4614 16.4443 13.111 16.4443C12.9683 16.4443 12.8533 16.4484 12.7253 16.4531C12.6246 16.4567 12.5159 16.4607 12.3795 16.4631C12.1184 16.4678 11.8076 16.4636 11.4978 16.4057C11.2548 16.3603 10.9934 16.2785 10.743 16.1296" fill="black"/>
</svg>
