<svg width="24" height="24" viewBox="0 0 24 24" fill="none" xmlns="http://www.w3.org/2000/svg">
<path d="M12 21C16.9706 21 21 16.9706 21 12C21 7.02944 16.9706 3 12 3C7.02944 3 3 7.02944 3 12C3 16.9706 7.02944 21 12 21Z" fill="black"/>
<path fill-rule="evenodd" clip-rule="evenodd" d="M16.3318 7.92505L14.7261 16.0207C14.7261 16.0207 14.5016 16.582 13.8841 16.3125L10.1787 13.4718L8.83129 12.8206L6.56319 12.057C6.56319 12.057 6.2151 11.9335 6.18146 11.6641C6.14777 11.3945 6.57442 11.2486 6.57442 11.2486L15.5908 7.7117C15.5908 7.7117 16.3318 7.38608 16.3318 7.92505H16.3318Z" fill="#FEFEFE"/>
<path fill-rule="evenodd" clip-rule="evenodd" d="M9.89398 15.9297C9.89398 15.9297 9.78581 15.9196 9.65103 15.4929C9.5163 15.0663 8.83142 12.8206 8.83142 12.8206L14.2771 9.36232C14.2771 9.36232 14.5915 9.17143 14.5802 9.36232C14.5802 9.36232 14.6364 9.39596 14.468 9.55316C14.2996 9.71035 10.19 13.4044 10.19 13.4044L9.89403 15.9297H9.89398Z" fill="black"/>
<path fill-rule="evenodd" clip-rule="evenodd" d="M11.5995 14.5611L10.1339 15.8973C10.1339 15.8973 10.0193 15.9842 9.89395 15.9298L10.1746 13.4476L11.5995 14.5611Z" fill="black"/>
</svg>
