<svg width="24" height="24" viewBox="0 0 24 24" fill="none" xmlns="http://www.w3.org/2000/svg">
<path d="M21.8981 14.2313C22.0526 13.5364 22.1296 12.8266 22.1278 12.1148C22.1278 6.66237 17.6423 2.23831 12.1064 2.23831C11.5329 2.2379 10.9603 2.28493 10.3945 2.37894C9.46937 1.80136 8.39992 1.4967 7.30925 1.50003C4.10394 1.50003 1.50003 4.06503 1.50003 7.22581C1.49662 8.24676 1.77216 9.24925 2.29691 10.125C2.16271 10.7782 2.09486 11.4433 2.09441 12.1102C2.09441 17.5683 6.57987 21.9867 12.1102 21.9867C12.7247 21.9883 13.338 21.9334 13.9425 21.8227C14.7898 22.2688 15.7332 22.5014 16.6908 22.5C19.9017 22.5 22.5 19.935 22.5 16.7742C22.5054 15.8907 22.299 15.0187 21.8981 14.2313ZM17.25 16.8281C16.785 17.4731 16.1011 17.9873 15.2152 18.3483C14.3292 18.7092 13.2825 18.8906 12.0792 18.8906C10.6406 18.8906 9.43737 18.6389 8.49097 18.1467C7.8349 17.8014 7.26908 17.3069 6.83909 16.703C6.41206 16.1016 6.19878 15.5002 6.19878 14.9217C6.19878 14.5608 6.33941 14.2491 6.61456 13.9866C6.88831 13.7348 7.24362 13.6036 7.65941 13.6036C8.00394 13.6036 8.29925 13.702 8.54019 13.9045C8.76987 14.0958 8.96675 14.3803 9.12519 14.752C9.27876 15.108 9.47268 15.4452 9.70316 15.757C9.90066 16.0139 10.1797 16.2272 10.5403 16.3969C10.9069 16.5666 11.3934 16.6538 11.9934 16.6538C12.8194 16.6538 13.4977 16.4789 14.0063 16.1344C14.5097 15.8006 14.7506 15.3961 14.7506 14.9039C14.7506 14.5158 14.6245 14.2092 14.362 13.9688C14.0888 13.717 13.733 13.5202 13.29 13.3889C12.8358 13.2483 12.218 13.0992 11.452 12.9408C10.4128 12.7219 9.53019 12.4594 8.82706 12.1641C8.11081 11.8631 7.53097 11.4422 7.10394 10.9228C6.67175 10.3922 6.45847 9.72519 6.45847 8.94284C6.45113 8.21977 6.69036 7.51578 7.13675 6.9469C7.58534 6.37269 8.23644 5.92409 9.08441 5.618C9.91597 5.3119 10.9059 5.15862 12.0216 5.15862C12.9188 5.15862 13.7011 5.26269 14.3573 5.45956C15.0136 5.65644 15.5719 5.93534 16.0148 6.27425C16.4578 6.61316 16.7808 6.97409 16.9884 7.35237C17.1961 7.73066 17.3006 8.11269 17.3006 8.47737C17.3006 8.82706 17.1638 9.15003 16.89 9.42894C16.7572 9.56709 16.5973 9.67629 16.4204 9.7497C16.2434 9.82311 16.0531 9.85913 15.8616 9.8555C15.4898 9.8555 15.1997 9.76784 14.9977 9.593C14.8102 9.42894 14.6147 9.17722 14.4014 8.81066C14.1497 8.34612 13.8488 7.97394 13.5042 7.71144C13.1648 7.46019 12.607 7.32894 11.8303 7.32894C11.1136 7.32894 10.5286 7.46956 10.0959 7.75081C9.68019 8.01894 9.47769 8.33066 9.47769 8.69675C9.47253 8.90651 9.54459 9.11085 9.68019 9.27097C9.84516 9.46078 10.0483 9.61364 10.2764 9.71956C10.5333 9.84868 10.8026 9.95124 11.0803 10.0256C11.3616 10.1025 11.8242 10.2173 12.4645 10.3594C13.2792 10.5291 14.0231 10.7259 14.6798 10.928C15.3473 11.1413 15.9216 11.3967 16.3917 11.6991C16.8587 11.9939 17.2473 12.3974 17.5242 12.8752C17.7923 13.3439 17.9292 13.9359 17.9292 14.6142C17.959 15.4077 17.7196 16.1879 17.25 16.8281Z" fill="black"/>
</svg>
