<svg width="24" height="24" viewBox="0 0 24 24" fill="none" xmlns="http://www.w3.org/2000/svg">
<path d="M20.5544 10.6131L20.4636 10.2277H12.0888V13.7723H17.0926C16.5731 16.2393 14.1624 17.5378 12.1933 17.5378C10.7605 17.5378 9.25017 16.9352 8.25053 15.9664C7.72312 15.4472 7.3033 14.829 7.01512 14.1472C6.72693 13.4655 6.57603 12.7337 6.57107 11.9936C6.57107 10.5005 7.24205 9.0071 8.21839 8.02473C9.19473 7.04236 10.6693 6.49272 12.1354 6.49272C13.8145 6.49272 15.0178 7.38429 15.4678 7.7909L17.9866 5.28536C17.2478 4.63607 15.2179 3 12.0542 3C9.61339 3 7.27299 3.93495 5.56219 5.64014C3.87388 7.31919 3 9.74719 3 12C3 14.2528 3.82688 16.5595 5.46295 18.2518C7.21112 20.0566 9.68692 21 12.2362 21C14.5557 21 16.7543 20.0912 18.3213 18.4422C19.8617 16.819 20.6585 14.5731 20.6585 12.2186C20.6585 11.2274 20.5588 10.6388 20.5544 10.6131Z" fill="currentColor"/>
</svg>
