<svg width="24" height="24" viewBox="0 0 24 24" fill="none" xmlns="http://www.w3.org/2000/svg">
<g clip-path="url(#clip0_2834_143)">
<path fill-rule="evenodd" clip-rule="evenodd" d="M3.68508 15.4442C3.23279 14.3522 3 13.1819 3 12C3 10.8181 3.23279 9.64778 3.68508 8.55585C4.13738 7.46392 4.80031 6.47177 5.63604 5.63604C6.47177 4.80031 7.46392 4.13738 8.55585 3.68508C9.64778 3.23279 10.8181 3 12 3C13.1819 3 14.3522 3.23279 15.4442 3.68508C16.5361 4.13738 17.5282 4.80031 18.364 5.63604C19.1997 6.47177 19.8626 7.46392 20.3149 8.55585C20.7672 9.64778 21 10.8181 21 12C21 13.1819 20.7672 14.3522 20.3149 15.4442C19.8626 16.5361 19.1997 17.5282 18.364 18.364C17.5282 19.1997 16.5361 19.8626 15.4442 20.3149C14.3522 20.7672 13.1819 21 12 21C10.8181 21 9.64778 20.7672 8.55585 20.3149C7.46392 19.8626 6.47177 19.1997 5.63604 18.364C4.80031 17.5282 4.13738 16.5361 3.68508 15.4442ZM11.8777 6.51539C11.61 6.03229 11.0014 5.85763 10.5183 6.12527C10.0352 6.39292 9.86056 7.00151 10.1282 7.48461L10.8565 8.79918L8.52271 13H7C6.44772 13 6 13.4477 6 14C6 14.5523 6.44772 15 7 15H7.4116L7.12584 15.5144C6.85763 15.9971 7.03157 16.6059 7.51436 16.8742C7.99714 17.1424 8.60594 16.9684 8.87416 16.4856L9.69951 15H14.3005L15.1258 16.4856C15.394 16.9684 16.0028 17.1424 16.4856 16.8742C16.9683 16.606 17.1423 15.9972 16.8741 15.5144L16.5883 15H17C17.5523 15 18 14.5523 18 14C18 13.4477 17.5523 13 17 13H15.4773L13.144 8.79988L13.8742 7.48564C14.1424 7.00286 13.9684 6.39406 13.4856 6.12584C13.0029 5.85763 12.3941 6.03157 12.1258 6.51436L12.0013 6.73855L11.8777 6.51539ZM10.8106 13L12.0001 10.859L13.1894 13H10.8106Z" fill="black"/>
</g>
<defs>
<clipPath id="clip0_2834_143">
<rect width="24" height="24" fill="white"/>
</clipPath>
</defs>
</svg>
