<svg width="24" height="24" viewBox="0 0 24 24" fill="none" xmlns="http://www.w3.org/2000/svg">
<path d="M5.91188 14.7703C5.9115 15.2065 5.78181 15.6328 5.5392 15.9954C5.29658 16.3579 4.95193 16.6403 4.54881 16.807C4.1457 16.9737 3.70222 17.0171 3.27443 16.9318C2.84665 16.8464 2.45376 16.6362 2.14544 16.3276C1.83712 16.019 1.62722 15.626 1.54225 15.1981C1.45729 14.7702 1.50108 14.3268 1.6681 13.9238C1.83511 13.5209 2.11786 13.1764 2.48058 12.9341C2.8433 12.6918 3.26972 12.5625 3.70594 12.5625H5.91188V14.7703ZM7.02375 14.7703C7.02375 14.1853 7.25616 13.6242 7.66985 13.2105C8.08355 12.7968 8.64464 12.5644 9.22969 12.5644C9.81474 12.5644 10.3758 12.7968 10.7895 13.2105C11.2032 13.6242 11.4356 14.1853 11.4356 14.7703V20.2941C11.4356 20.8791 11.2032 21.4402 10.7895 21.8539C10.3758 22.2676 9.81474 22.5 9.22969 22.5C8.64464 22.5 8.08355 22.2676 7.66985 21.8539C7.25616 21.4402 7.02375 20.8791 7.02375 20.2941V14.7703ZM9.22969 5.91187C8.79347 5.9115 8.36716 5.78181 8.00465 5.5392C7.64213 5.29658 7.35968 4.95193 7.193 4.54881C7.02633 4.1457 6.98291 3.70222 7.06824 3.27443C7.15357 2.84665 7.36381 2.45376 7.67239 2.14544C7.98097 1.83712 8.37404 1.62721 8.80189 1.54225C9.22975 1.45729 9.6732 1.50108 10.0762 1.6681C10.4791 1.83511 10.8236 2.11786 11.0659 2.48058C11.3082 2.8433 11.4375 3.26972 11.4375 3.70594V5.91187H9.22969ZM9.22969 7.02375C9.81474 7.02375 10.3758 7.25616 10.7895 7.66985C11.2032 8.08355 11.4356 8.64464 11.4356 9.22969C11.4356 9.81474 11.2032 10.3758 10.7895 10.7895C10.3758 11.2032 9.81474 11.4356 9.22969 11.4356H3.70594C3.12089 11.4356 2.5598 11.2032 2.1461 10.7895C1.73241 10.3758 1.5 9.81474 1.5 9.22969C1.5 8.64464 1.73241 8.08355 2.1461 7.66985C2.5598 7.25616 3.12089 7.02375 3.70594 7.02375H9.22969ZM18.0881 9.22969C18.0885 8.79347 18.2182 8.36716 18.4608 8.00465C18.7034 7.64213 19.0481 7.35968 19.4512 7.193C19.8543 7.02633 20.2978 6.98291 20.7256 7.06824C21.1534 7.15357 21.5462 7.36381 21.8546 7.67239C22.1629 7.98097 22.3728 8.37404 22.4577 8.80189C22.5427 9.22975 22.4989 9.6732 22.3319 10.0762C22.1649 10.4791 21.8821 10.8236 21.5194 11.0659C21.1567 11.3082 20.7303 11.4375 20.2941 11.4375H18.0881V9.22969ZM16.9763 9.22969C16.9763 9.81474 16.7438 10.3758 16.3301 10.7895C15.9165 11.2032 15.3554 11.4356 14.7703 11.4356C14.1853 11.4356 13.6242 11.2032 13.2105 10.7895C12.7968 10.3758 12.5644 9.81474 12.5644 9.22969V3.70594C12.5644 3.12089 12.7968 2.5598 13.2105 2.1461C13.6242 1.73241 14.1853 1.5 14.7703 1.5C15.3554 1.5 15.9165 1.73241 16.3301 2.1461C16.7438 2.5598 16.9763 3.12089 16.9763 3.70594V9.22969ZM14.7703 18.0881C15.2065 18.0885 15.6328 18.2182 15.9954 18.4608C16.3579 18.7034 16.6403 19.0481 16.807 19.4512C16.9737 19.8543 17.0171 20.2978 16.9318 20.7256C16.8464 21.1534 16.6362 21.5462 16.3276 21.8546C16.019 22.1629 15.626 22.3728 15.1981 22.4577C14.7702 22.5427 14.3268 22.4989 13.9238 22.3319C13.5209 22.1649 13.1764 21.8821 12.9341 21.5194C12.6918 21.1567 12.5625 20.7303 12.5625 20.2941V18.0881H14.7703ZM14.7703 16.9762C14.1853 16.9762 13.6242 16.7438 13.2105 16.3301C12.7968 15.9165 12.5644 15.3554 12.5644 14.7703C12.5644 14.1853 12.7968 13.6242 13.2105 13.2105C13.6242 12.7968 14.1853 12.5644 14.7703 12.5644H20.2941C20.8791 12.5644 21.4402 12.7968 21.8539 13.2105C22.2676 13.6242 22.5 14.1853 22.5 14.7703C22.5 15.3554 22.2676 15.9165 21.8539 16.3301C21.4402 16.7438 20.8791 16.9762 20.2941 16.9762H14.7703Z" fill="black"/>
</svg>
