<svg width="24" height="24" viewBox="0 0 24 24" fill="none" xmlns="http://www.w3.org/2000/svg">
<path d="M22.0993 9.12282V9.11954C22.089 9.08392 22.0782 9.04829 22.0674 9.01267C22.0651 9.00376 22.0623 8.99485 22.0595 8.98642C22.0393 8.91892 22.0187 8.85142 21.9971 8.78439L21.9943 8.77501C21.8628 8.3664 21.7062 7.96627 21.5256 7.57689C21.3505 7.19123 21.1485 6.81843 20.9209 6.46126C20.0418 5.04908 18.8413 3.86469 17.4174 3.0047C15.7829 2.01749 13.9091 1.49708 11.9996 1.50001C11.6715 1.50001 11.3434 1.51595 11.0237 1.54689C9.89308 1.66595 7.98714 2.07235 6.44074 3.43032C12.0699 0.55595 19.5906 4.0172 18.9507 10.4531C18.7229 12.75 16.7729 14.3283 14.9574 14.5945C14.6345 14.6439 14.3063 14.6472 13.9824 14.6044C9.54855 13.988 9.81996 10.3538 11.1671 8.79985C9.3859 8.7886 8.00449 10.9931 8.67574 13.1592C7.13121 10.2914 8.69214 5.79985 12.0006 4.44048C8.1123 3.87798 4.4673 5.76235 3.29589 9.03751C3.43579 7.84035 3.71502 6.66363 4.12793 5.53126C4.12793 5.53126 2.00824 7.20657 1.57605 10.7297C1.56949 10.7841 1.56339 10.8384 1.55777 10.8933C1.55543 10.912 1.55355 10.9308 1.55168 10.95C1.53511 11.1141 1.52261 11.2792 1.51418 11.4455V11.4834C1.51089 11.5528 1.50808 11.6241 1.50621 11.6925V11.7511C1.50621 11.8336 1.50293 11.9161 1.50293 11.9991C1.50293 17.798 6.20402 22.4991 12.0029 22.4991C17.8018 22.4991 22.4996 17.7989 22.4996 12C22.5001 11.027 22.3654 10.0587 22.0993 9.12282Z" fill="black"/>
</svg>
