<svg width="24" height="24" viewBox="0 0 24 24" fill="none" xmlns="http://www.w3.org/2000/svg">
<g clip-path="url(#clip0_2721_142)">
<path d="M8.26708 3C8.40398 3.00006 8.53941 3.02822 8.66498 3.08275C8.79055 3.13728 8.90358 3.21701 8.99708 3.317L9.07308 3.409L13.3471 9.237L19.2931 3.293C19.473 3.11365 19.7145 3.00953 19.9685 3.00177C20.2224 2.99402 20.4698 3.08322 20.6604 3.25125C20.8509 3.41928 20.9704 3.65355 20.9945 3.90647C21.0186 4.1594 20.9455 4.41201 20.7901 4.613L20.7071 4.707L14.5441 10.869L20.8061 19.409C20.9098 19.5505 20.9744 19.7168 20.9935 19.8912C21.0126 20.0656 20.9855 20.242 20.9148 20.4026C20.8442 20.5632 20.7326 20.7024 20.5912 20.8062C20.4497 20.91 20.2835 20.9748 20.1091 20.994L20.0001 21H15.7331C15.5962 20.9999 15.4608 20.9718 15.3352 20.9172C15.2096 20.8627 15.0966 20.783 15.0031 20.683L14.9271 20.591L10.6511 14.762L4.70708 20.707C4.52712 20.8863 4.28565 20.9905 4.0317 20.9982C3.77775 21.006 3.53037 20.9168 3.3398 20.7488C3.14924 20.5807 3.02978 20.3464 3.00568 20.0935C2.98159 19.8406 3.05467 19.588 3.21008 19.387L3.29308 19.293L9.45408 13.13L3.19408 4.591C3.09039 4.44948 3.02576 4.28317 3.00667 4.10877C2.98758 3.93438 3.01471 3.75802 3.08533 3.59743C3.15596 3.43683 3.26759 3.29763 3.40902 3.19382C3.55045 3.09001 3.7167 3.02524 3.89108 3.006L4.00008 3H8.26708Z" fill="currentColor"/>
</g>
<defs>
<clipPath id="clip0_2721_142">
<rect width="24" height="24" fill="white"/>
</clipPath>
</defs>
</svg>
