<svg width="24" height="24" viewBox="0 0 24 24" fill="none" xmlns="http://www.w3.org/2000/svg">
<path d="M8.2896 20.2509C15.8368 20.2509 19.9647 13.9981 19.9647 8.57572C19.9647 8.39807 19.9647 8.22127 19.9528 8.04447C20.7558 7.46386 21.449 6.74494 22 5.92135C21.2511 6.2532 20.4566 6.47083 19.6432 6.56697C20.4998 6.05418 21.1409 5.24764 21.4471 4.29745C20.6417 4.77539 19.7604 5.11222 18.8415 5.29339C18.2229 4.63555 17.4046 4.19995 16.5134 4.054C15.6223 3.90805 14.7078 4.05988 13.9116 4.48599C13.1155 4.91211 12.4819 5.58875 12.109 6.41122C11.7361 7.23369 11.6446 8.15613 11.8488 9.0358C10.2174 8.95401 8.62145 8.53004 7.16452 7.79144C5.7076 7.05284 4.42229 6.0161 3.39203 4.74854C2.8673 5.65186 2.70658 6.7212 2.94258 7.73886C3.17859 8.75651 3.79358 9.64596 4.66234 10.2261C4.00935 10.2068 3.3706 10.0306 2.8 9.71252V9.76447C2.80025 10.7119 3.1282 11.63 3.72822 12.3632C4.32825 13.0963 5.1634 13.5993 6.09203 13.7869C5.48792 13.9516 4.85408 13.9757 4.23921 13.8573C4.50141 14.6726 5.0119 15.3856 5.69926 15.8966C6.38662 16.4075 7.21649 16.6908 8.0728 16.7069C6.61979 17.8488 4.82485 18.4688 2.9768 18.4669C2.65032 18.4662 2.32416 18.4465 2 18.4077C3.87651 19.6119 6.05993 20.2507 8.2896 20.2477" fill="black"/>
</svg>
