<svg width="24" height="24" viewBox="0 0 24 24" fill="none" xmlns="http://www.w3.org/2000/svg">
<g clip-path="url(#clip0_2725_289)">
<path fill-rule="evenodd" clip-rule="evenodd" d="M3.65901 3.65901C3.23705 4.08097 3 4.65326 3 5.25V18.75C3 19.3467 3.23705 19.919 3.65901 20.341C4.08097 20.7629 4.65326 21 5.25 21H18.75C19.3467 21 19.919 20.7629 20.341 20.341C20.7629 19.919 21 19.3467 21 18.75V5.25C21 4.65326 20.7629 4.08097 20.341 3.65901C19.919 3.23705 19.3467 3 18.75 3H5.25C4.65326 3 4.08097 3.23705 3.65901 3.65901ZM7.5 7.5C6.87868 7.5 6.375 8.00368 6.375 8.625C6.375 9.24632 6.87868 9.75 7.5 9.75V14.25C6.87868 14.25 6.375 14.7537 6.375 15.375C6.375 15.9963 6.87868 16.5 7.5 16.5H9.75C10.3713 16.5 10.875 15.9963 10.875 15.375C10.875 14.7537 10.3713 14.25 9.75 14.25V11.341L11.2045 12.7955C11.6438 13.2348 12.3562 13.2348 12.7955 12.7955L14.25 11.341V14.25C13.6287 14.25 13.125 14.7537 13.125 15.375C13.125 15.9963 13.6287 16.5 14.25 16.5H16.5C17.1213 16.5 17.625 15.9963 17.625 15.375C17.625 14.7537 17.1213 14.25 16.5 14.25V9.75C17.1213 9.75 17.625 9.24632 17.625 8.625C17.625 8.00368 17.1213 7.5 16.5 7.5H15.375C15.0766 7.5 14.7905 7.61853 14.5795 7.82951L12 10.409L9.42049 7.82951C9.20952 7.61853 8.92337 7.5 8.625 7.5H7.5Z" fill="black"/>
</g>
<defs>
<clipPath id="clip0_2725_289">
<rect width="24" height="24" fill="white"/>
</clipPath>
</defs>
</svg>
