<svg width="24" height="24" viewBox="0 0 24 24" fill="none" xmlns="http://www.w3.org/2000/svg">
<g clip-path="url(#clip0_2834_169)">
<path d="M11.4783 3V8.47826H8.73913C7.23065 8.47826 6 7.24761 6 5.73913C6 4.23065 7.23065 3 8.73913 3H11.4783ZM11.4783 9.26087V14.7391H8.73913C7.23065 14.7391 6 13.5085 6 12C6 10.4915 7.23065 9.26087 8.73913 9.26087H11.4783ZM11.4783 15.5217V18.2609C11.4783 19.7693 10.2476 21 8.73913 21C7.23065 21 6 19.7693 6 18.2609C6 16.7524 7.23065 15.5217 8.73913 15.5217H11.4783ZM17.7391 5.73913C17.7391 7.24761 16.5085 8.47826 15 8.47826H12.2609V3H15C16.5085 3 17.7391 4.23065 17.7391 5.73913ZM15 9.26087C14.2735 9.26087 13.5768 9.54946 13.0631 10.0631C12.5495 10.5768 12.2609 11.2735 12.2609 12C12.2609 12.7265 12.5495 13.4232 13.0631 13.9369C13.5768 14.4505 14.2735 14.7391 15 14.7391C15.7265 14.7391 16.4232 14.4505 16.9369 13.9369C17.4505 13.4232 17.7391 12.7265 17.7391 12C17.7391 11.2735 17.4505 10.5768 16.9369 10.0631C16.4232 9.54946 15.7265 9.26087 15 9.26087Z" fill="black"/>
</g>
<defs>
<clipPath id="clip0_2834_169">
<rect width="24" height="24" fill="white"/>
</clipPath>
</defs>
</svg>
