<svg width="24" height="24" viewBox="0 0 24 24" fill="none" xmlns="http://www.w3.org/2000/svg">
<path d="M16.3654 6.41406C14.4754 6.41406 13.6766 7.31594 12.3604 7.31594C11.0108 7.31594 9.98146 6.42063 8.34365 6.42063C6.74053 6.42063 5.03101 7.39938 3.94537 9.06672C2.42101 11.418 2.67975 15.8463 5.14865 19.6188C6.03178 20.9693 7.21115 22.4838 8.75803 22.5002H8.78615C10.1305 22.5002 10.5299 21.6199 12.3801 21.6096H12.4082C14.2307 21.6096 14.5963 22.4951 15.9351 22.4951H15.9632C17.5101 22.4786 18.7527 20.8005 19.6358 19.4552C20.2715 18.4877 20.5077 18.0021 20.9952 16.9076C17.4238 15.5519 16.8501 10.489 20.3821 8.54781C19.304 7.19781 17.789 6.41594 16.3607 6.41594L16.3654 6.41406Z" fill="black"/>
<path d="M15.9496 1.5C14.8246 1.57641 13.5121 2.29266 12.7434 3.22781C12.0459 4.07531 11.4721 5.3325 11.6971 6.55172H11.7871C12.9852 6.55172 14.2115 5.83031 14.9277 4.90594C15.6177 4.02609 16.1409 2.77922 15.9496 1.5Z" fill="black"/>
</svg>
