<svg width="24" height="24" viewBox="0 0 24 24" fill="none" xmlns="http://www.w3.org/2000/svg">
<path d="M8.84961 12.0006C8.84942 12.6237 9.03401 13.2328 9.38002 13.7509C9.72604 14.2691 10.2179 14.6729 10.7935 14.9115C11.3691 15.1501 12.0025 15.2126 12.6136 15.0911C13.2247 14.9697 13.786 14.6698 14.2267 14.2293C14.6673 13.7888 14.9674 13.2275 15.089 12.6164C15.2106 12.0054 15.1483 11.372 14.9099 10.7963C14.6715 10.2207 14.2678 9.72866 13.7497 9.38249C13.2317 9.03632 12.6226 8.85156 11.9996 8.85156C11.165 8.85378 10.3652 9.18624 9.77501 9.7763C9.18478 10.3664 8.85208 11.166 8.84961 12.0006Z" fill="black"/>
<path d="M22.3477 10.2089V10.2112C22.2708 9.75333 22.1612 9.30154 22.0195 8.85938H22.0144H14.73C15.623 9.65624 16.2 10.7423 16.2 12.0023C16.202 12.7407 16.0025 13.4657 15.623 14.0991L10.8281 22.4273C10.8284 22.4316 10.8284 22.4358 10.8281 22.44C11.2173 22.4816 11.6086 22.5022 12 22.5C12.3206 22.5 12.638 22.4817 12.9516 22.4531C13.4214 22.4107 13.8877 22.3364 14.3475 22.2309C19.0162 21.165 22.5 16.9875 22.5 11.9972C22.5001 11.3979 22.4491 10.7996 22.3477 10.2089Z" fill="black"/>
<path d="M12.0001 16.1964C10.4251 16.1964 9.11262 15.3569 8.37715 14.0969L3.56262 5.76906L3.55606 5.75781C2.51717 7.16432 1.846 8.80802 1.60345 10.5397C1.36091 12.2714 1.55468 14.0363 2.16717 15.6741C2.77966 17.3119 3.79148 18.7708 5.11079 19.9184C6.4301 21.066 8.01512 21.8659 9.72199 22.2456V22.2433L13.3637 15.9339C12.9283 16.1014 12.4666 16.1903 12.0001 16.1964Z" fill="black"/>
<path d="M4.27949 4.90458L7.90527 11.1507C8.0935 10.2027 8.60437 9.34916 9.35097 8.73538C10.0976 8.12159 11.0338 7.78543 12.0003 7.78411H21.6176C21.287 7.05765 20.8821 6.36741 20.4092 5.72442L20.4148 5.72817C20.8859 6.36999 21.289 7.059 21.6176 7.78411H21.6256C21.2971 7.05683 20.894 6.36562 20.4228 5.72161C20.417 5.71801 20.4115 5.71393 20.4064 5.70942C19.4826 4.47438 18.2979 3.45809 16.9368 2.73286C15.5756 2.00762 14.0713 1.59126 12.5309 1.51339C10.9906 1.43552 9.45196 1.69805 8.02458 2.28232C6.59721 2.86658 5.31612 3.75822 4.27246 4.8938L4.27949 4.90458Z" fill="black"/>
</svg>
