<svg width="24" height="24" viewBox="0 0 24 24" fill="none" xmlns="http://www.w3.org/2000/svg">
<path d="M3.68508 15.4442C3.23279 14.3522 3 13.1819 3 12C3 10.8181 3.23279 9.64778 3.68508 8.55585C3.90847 8.01654 4.18325 7.50157 4.50484 7.01777L8.52346 13.9786C8.69896 14.287 8.91618 14.5732 9.17148 14.8285C9.92162 15.5787 10.939 16.0001 11.9999 16.0001L9.53187 20.2751C9.4686 20.3847 9.42844 20.5013 9.40986 20.6192C9.40272 20.6171 9.39558 20.6149 9.38845 20.6128C9.10671 20.5273 8.82883 20.428 8.55585 20.3149C7.46392 19.8626 6.47177 19.1997 5.63604 18.364C4.80031 17.5282 4.13738 16.5361 3.68508 15.4442Z" fill="black"/>
<path d="M11.4331 20.9821C11.6216 20.994 11.8106 21 12 21C13.1819 21 14.3522 20.7672 15.4442 20.3149C16.5361 19.8626 17.5282 19.1997 18.364 18.364C19.1997 17.5282 19.8626 16.5361 20.3149 15.4442C20.7672 14.3522 21 13.1819 21 12C21 11.3352 20.9263 10.674 20.7814 10.0284C20.7743 9.99674 20.767 9.96509 20.7595 9.93348C20.6479 9.97651 20.5267 10.0001 20.3999 10.0001H15.464C15.8121 10.603 15.9999 11.2919 15.9999 12.0001C15.9999 12.7168 15.8076 13.4136 15.4515 14.0216L11.4331 20.9821Z" fill="black"/>
<path d="M20.0623 8.0001C19.6288 7.12636 19.0556 6.32764 18.364 5.63604C17.5282 4.80031 16.5361 4.13738 15.4442 3.68508C14.3522 3.23279 13.1819 3 12 3C10.8181 3 9.64778 3.23279 8.55585 3.68508C7.60041 4.08084 6.72136 4.63787 5.95666 5.33081C5.91432 5.36918 5.87232 5.40797 5.83069 5.44717C5.92365 5.52227 6.00461 5.61543 6.06794 5.72512L8.53588 9.99994C8.70917 9.69981 8.92217 9.42098 9.17148 9.17167C9.92162 8.42152 10.939 8.0001 11.9999 8.0001H20.0623Z" fill="black"/>
<path d="M10.2728 13.0087C10.3586 13.1555 10.4634 13.292 10.5857 13.4143C10.9608 13.7894 11.4695 14.0001 11.9999 14.0001C12.5303 14.0001 13.039 13.7894 13.4141 13.4143C13.5347 13.2937 13.6384 13.1593 13.7234 13.0147L13.7319 13.0001L13.7368 12.9916C13.9077 12.6922 13.9999 12.3509 13.9999 12.0001C13.9999 11.4697 13.7892 10.961 13.4141 10.5859C13.039 10.2108 12.5303 10.0001 11.9999 10.0001C11.4695 10.0001 10.9608 10.2108 10.5857 10.5859C10.2106 10.961 9.9999 11.4697 9.9999 12.0001C9.9999 12.3485 10.0908 12.6875 10.2594 12.9854L10.2679 13.0001L10.2728 13.0087Z" fill="black"/>
</svg>
