<svg width="24" height="24" viewBox="0 0 24 24" fill="none" xmlns="http://www.w3.org/2000/svg">
<g clip-path="url(#clip0_2721_15)">
<path fill-rule="evenodd" clip-rule="evenodd" d="M14.4139 5.87361C15.0701 5.11311 15.5124 4.05389 15.3913 3C14.4457 3.036 13.3018 3.60404 12.6238 4.36364C12.0149 5.03773 11.4834 6.11484 11.6263 7.14804C12.6811 7.22633 13.7577 6.635 14.4139 5.87361ZM16.7792 12.5626C16.8056 15.2869 19.2728 16.1931 19.3001 16.2048C19.2801 16.2687 18.9061 17.4961 18.0005 18.7651C17.217 19.8613 16.4042 20.953 15.1238 20.9764C13.866 20.9989 13.461 20.2619 12.0222 20.2619C10.5843 20.2619 10.1347 20.9529 8.94428 20.9988C7.70839 21.0429 6.76645 19.8129 5.97741 18.7203C4.36291 16.4856 3.12975 12.4052 4.78611 9.65118C5.60882 8.28409 7.07861 7.41705 8.6749 7.39545C9.88804 7.37295 11.0338 8.17768 11.7756 8.17768C12.5173 8.17768 13.9097 7.21018 15.3731 7.35238C15.9856 7.37668 17.7057 7.58901 18.8096 9.1379C18.7204 9.191 16.7574 10.2856 16.7792 12.5626Z" fill="black"/>
</g>
<defs>
<clipPath id="clip0_2721_15">
<rect width="24" height="24" fill="white"/>
</clipPath>
</defs>
</svg>
