<svg width="24" height="24" viewBox="0 0 24 24" fill="none" xmlns="http://www.w3.org/2000/svg">
<g clip-path="url(#clip0_2725_334)">
<path d="M3 12C3 13.1819 3.23279 14.3522 3.68508 15.4442C4.13738 16.5361 4.80031 17.5282 5.63604 18.364C6.47177 19.1997 7.46392 19.8626 8.55585 20.3149C9.64778 20.7672 10.8181 21 12 21C13.1819 21 14.3522 20.7672 15.4442 20.3149C16.5361 19.8626 17.5282 19.1997 18.364 18.364C19.1997 17.5282 19.8626 16.5361 20.3149 15.4442C20.7672 14.3522 21 13.1819 21 12C21 10.8181 20.7672 9.64778 20.3149 8.55585C19.8626 7.46392 19.1997 6.47177 18.364 5.63604C17.5282 4.80031 16.5361 4.13738 15.4442 3.68508C14.3522 3.23279 13.1819 3 12 3C10.8181 3 9.64778 3.23279 8.55585 3.68508C7.46392 4.13738 6.47177 4.80031 5.63604 5.63604C4.80031 6.47177 4.13738 7.46392 3.68508 8.55585C3.23279 9.64778 3 10.8181 3 12Z" stroke="currentColor" stroke-width="2" stroke-linecap="round" stroke-linejoin="round"/>
<path fill-rule="evenodd" clip-rule="evenodd" d="M3 12C3 13.1819 3.23279 14.3522 3.68508 15.4442C4.13738 16.5361 4.80031 17.5282 5.63604 18.364C6.08362 18.8115 6.57608 19.2096 7.1047 19.5522L7.08619 19.5939C6.86188 20.0985 7.08918 20.6895 7.59386 20.9138C8.08464 21.1319 8.65701 20.923 8.89444 20.4472C9.88812 20.8125 10.9394 21 12 21C13.1819 21 14.3522 20.7672 15.4442 20.3149C16.5361 19.8626 17.5282 19.1997 18.364 18.364C19.1997 17.5282 19.8626 16.5361 20.3149 15.4442C20.7672 14.3522 21 13.1819 21 12C21 10.8181 20.7672 9.64778 20.3149 8.55585C19.8626 7.46392 19.1997 6.47177 18.364 5.63604C17.5282 4.80031 16.5361 4.13738 15.4442 3.68508C14.3522 3.23279 13.1819 3 12 3C10.8181 3 9.64778 3.23279 8.55585 3.68508C7.46392 4.13738 6.47177 4.80031 5.63604 5.63604C4.80031 6.47177 4.13738 7.46392 3.68508 8.55585C3.23279 9.64778 3 10.8181 3 12ZM10.2199 17.4675L8.91381 20.4061C8.90763 20.42 8.90117 20.4337 8.89444 20.4472C8.7808 20.4054 8.66791 20.3613 8.55585 20.3149C8.04872 20.1049 7.56311 19.8494 7.1047 19.5522L11.0862 10.5939C11.3105 10.0892 11.9015 9.86188 12.4061 10.0862C12.9108 10.3105 13.1381 10.9015 12.9138 11.4061L11.8444 13.8123L11.8471 13.8135L11.4537 14.6972C11.5082 14.8442 11.5613 14.8922 11.582 14.9088C11.6094 14.9308 11.667 14.9653 11.8026 14.9907C11.9469 15.0176 12.1329 15.0261 12.3914 15.0215C12.4667 15.0202 12.5662 15.0169 12.6756 15.0133C12.8623 15.0071 13.0777 15 13.25 15C14.7474 15 16 13.9153 16 12L16 11.9988C16.0007 11.4147 15.8734 10.8375 15.6272 10.3078C15.3809 9.7781 15.0216 9.30878 14.5745 8.93281C14.1275 8.55683 13.6035 8.28334 13.0394 8.13155C12.4753 7.97976 11.8849 7.95335 11.3095 8.05419C10.7341 8.15503 10.1878 8.38066 9.70898 8.71523C9.23015 9.0498 8.8304 9.48519 8.53784 9.99078C8.24528 10.4964 8.06701 11.0599 8.01555 11.6418C7.96409 12.2237 8.04071 12.8097 8.24 13.3588C8.42842 13.878 8.16032 14.4516 7.64117 14.64C7.12202 14.8284 6.54842 14.5603 6.36 14.0412C6.06106 13.2175 5.94614 12.3384 6.02332 11.4656C6.10051 10.5928 6.36792 9.7475 6.80676 8.9891C7.2456 8.23071 7.84522 7.57763 8.56348 7.07578C9.28173 6.57392 10.1012 6.23547 10.9642 6.08422C11.8273 5.93296 12.713 5.97257 13.5591 6.20025C14.4052 6.42794 15.1912 6.83818 15.8618 7.40214C16.5324 7.9661 17.0713 8.67009 17.4407 9.46463C17.8101 10.2592 18.001 11.125 18 12.0012L17 12H18L18 12.0012C17.9994 14.9772 15.8943 17 13.25 17C13.0895 17 12.9601 17.0047 12.8161 17.0099C12.7028 17.014 12.5806 17.0185 12.4271 17.0212C12.1333 17.0264 11.7837 17.0218 11.4351 16.9566C11.1618 16.9055 10.8677 16.8135 10.586 16.646" fill="currentColor"/>
</g>
<defs>
<clipPath id="clip0_2725_334">
<rect width="24" height="24" fill="white"/>
</clipPath>
</defs>
</svg>
