<svg width="24" height="24" viewBox="0 0 24 24" fill="none" xmlns="http://www.w3.org/2000/svg">
<path d="M19 16V19M19 22V19M19 19H22M19 19H16" stroke="black" stroke-width="2" stroke-linecap="round" stroke-linejoin="round"/>
<path d="M4 7V9H20V7C20 5.89543 19.1046 5 18 5H16H8H6C4.89543 5 4 5.89543 4 7Z" fill="black"/>
<path d="M16 5H18C19.1046 5 20 5.89543 20 7V9H4V7C4 5.89543 4.89543 5 6 5H8M16 5V3M16 5H8M8 3V5M4 9.5V19C4 20.1046 4.89543 21 6 21H13M20 9.5V12.25" stroke="black" stroke-width="2" stroke-linecap="round" stroke-linejoin="round"/>
</svg>
