<svg width="24" height="24" viewBox="0 0 24 24" fill="none" xmlns="http://www.w3.org/2000/svg">
<path d="M19 16V19M19 22V19M19 19H16M19 19H22" stroke="black" stroke-width="2" stroke-linecap="round" stroke-linejoin="round"/>
<path fill-rule="evenodd" clip-rule="evenodd" d="M12 2C6.47715 2 2 6.47715 2 12C2 17.5228 6.47715 22 12 22C12.5866 22 13.1613 21.9495 13.7202 21.8526C13.2608 21.0042 13 20.0326 13 19C13 17.2541 13.7457 15.6824 14.9359 14.586L12.6584 13.4472C11.642 12.939 11 11.9002 11 10.7639V7C11 6.44772 11.4477 6 12 6C12.5523 6 13 6.44772 13 7V10.7639C13 11.1427 13.214 11.489 13.5528 11.6584L16.4472 13.1056C16.596 13.18 16.7181 13.2865 16.8094 13.4124C17.4881 13.1462 18.227 13 19 13C20.0326 13 21.0042 13.2608 21.8526 13.7202C21.9495 13.1613 22 12.5866 22 12C22 6.47715 17.5228 2 12 2Z" fill="black"/>
</svg>
