<svg width="24" height="24" viewBox="0 0 24 24" fill="none" xmlns="http://www.w3.org/2000/svg">
<path fill-rule="evenodd" clip-rule="evenodd" d="M8 3C8 2.44772 8.44772 2 9 2H15C15.5523 2 16 2.44772 16 3C16 3.55228 15.5523 4 15 4H9C8.44772 4 8 3.55228 8 3ZM3 14C3 9.02944 7.02944 5 12 5C14.1246 5 16.0784 5.73715 17.6176 6.96815L18.2929 6.29289C18.6834 5.90237 19.3166 5.90237 19.7071 6.29289C20.0976 6.68342 20.0976 7.31658 19.7071 7.70711L19.0319 8.38236C20.2628 9.92157 21 11.8754 21 14C21 18.9706 16.9706 23 12 23C7.02944 23 3 18.9706 3 14ZM13 10C13 9.44772 12.5523 9 12 9C11.4477 9 11 9.44772 11 10V14C11 14.5523 11.4477 15 12 15C12.5523 15 13 14.5523 13 14V10Z" fill="black"/>
</svg>
