<svg width="24" height="24" viewBox="0 0 24 24" fill="none" xmlns="http://www.w3.org/2000/svg">
<mask id="path-1-outside-1_2862_230" maskUnits="userSpaceOnUse" x="3" y="2" width="19" height="19" fill="black">
<rect fill="white" x="3" y="2" width="19" height="19"/>
<path d="M20.3424 8.81804C19.9507 7.88567 19.1964 6.94682 18.5781 6.6166C18.5288 6.58819 18.473 6.57323 18.4162 6.57323C18.3594 6.57323 18.3035 6.58819 18.2543 6.6166C18.2071 6.64828 18.17 6.69296 18.1476 6.74523C18.1252 6.79751 18.1184 6.85515 18.1281 6.91121C17.8691 6.58747 17.6004 6.28962 17.3252 5.98207C16.7329 5.35352 16.1926 4.67792 15.7097 3.96193L15.5252 3.66085C15.4637 3.55725 15.4669 3.55725 15.4442 3.51193C15.4039 3.43214 15.3714 3.34867 15.3471 3.26265C15.3352 3.19837 15.304 3.13923 15.2578 3.093C15.2115 3.04677 15.1524 3.01562 15.0881 3.00365C15.0549 2.99878 15.021 2.99878 14.9878 3.00365C14.9435 3.00779 14.9005 3.02101 14.8615 3.0425C14.0703 3.52816 13.3964 4.18294 12.8882 4.95984C12.3799 5.73675 12.05 6.61652 11.9219 7.53603C11.664 7.57744 11.4119 7.64916 11.1709 7.7497C11.1349 7.7652 11.1024 7.78763 11.0751 7.81571C11.0479 7.84379 11.0264 7.87697 11.012 7.91335C10.9975 7.94973 10.9904 7.9886 10.991 8.02774C10.9916 8.06687 10.9999 8.1055 11.0155 8.14142C11.0309 8.17736 11.0534 8.20986 11.0815 8.23702C11.1097 8.26418 11.143 8.28547 11.1794 8.29963C11.2159 8.3138 11.2548 8.32056 11.2939 8.31952C11.333 8.31848 11.3715 8.30966 11.4072 8.29358C11.6029 8.21011 11.8085 8.15243 12.0191 8.122C12.2682 8.10924 12.5178 8.10924 12.7669 8.122H12.9935C13.068 8.122 13.1424 8.14466 13.2137 8.16085H13.2558L13.4371 8.20293L13.4986 8.21912L13.6799 8.27416H13.7155C13.7867 8.29682 13.8547 8.32596 13.9227 8.35186L13.9777 8.37452L14.1331 8.44898L14.1914 8.47488C14.2561 8.51049 14.3241 8.54286 14.3856 8.58171L14.6284 8.73387L14.8065 8.86337L14.9781 9.00581L15.0978 9.11588L14.9683 9.08998H14.1719L14.0392 9.10941C13.9873 9.1172 13.9381 9.13748 13.8958 9.16849C13.8536 9.19951 13.8194 9.24034 13.7964 9.28747C13.7673 9.35685 13.7658 9.43475 13.7923 9.50518C13.8188 9.57562 13.8712 9.63324 13.9388 9.66624C14.5566 9.98867 15.0436 10.5152 15.3168 11.1562C15.5901 11.7972 15.6329 12.5131 15.4378 13.1821C15.4129 13.2797 15.3827 13.3759 15.3471 13.4702C15.3147 13.5587 15.2791 13.6429 15.2403 13.7227V13.7486C15.203 13.8245 15.163 13.899 15.1205 13.972L15.1011 14.0011C15.0606 14.0705 15.0163 14.1375 14.9683 14.2019L14.9489 14.231C14.901 14.2918 14.8514 14.3512 14.8 14.409L14.7773 14.4349C14.7269 14.4913 14.674 14.5453 14.6187 14.5968L14.5928 14.6195L14.3953 14.7814C14.3371 14.8234 14.2755 14.8688 14.214 14.9076H14.1881C14.1256 14.9481 14.0608 14.9849 13.9939 15.0177H13.9745C13.907 15.0533 13.8378 15.0857 13.7673 15.1148L13.5471 15.1957L13.3108 15.267L13.0939 15.3155H13.0712L12.8576 15.3479H12.8284C12.7604 15.3479 12.6892 15.3479 12.6212 15.3673H12.1939C11.8627 15.3547 11.5354 15.2925 11.2227 15.1828C11.1472 15.1551 11.0727 15.1249 10.9993 15.0921L10.8763 15.0339C10.4123 14.8124 10.0095 14.4811 9.70256 14.0687C9.39566 13.6563 9.19401 13.1753 9.11511 12.6673C9.19604 12.4537 9.66871 11.5278 11.5205 11.5278C11.9122 11.5278 12.6924 10.7767 12.7896 10.4076V10.317C12.7896 10.1195 12.6763 10.0677 12.2424 9.85725C11.6959 9.61997 11.1823 9.31312 10.7144 8.9443L10.627 8.86013C10.5881 8.81804 10.5493 8.78243 10.5169 8.75006L10.4198 8.65617C10.3622 8.56227 10.2913 8.47721 10.2094 8.40365C10.1376 8.34256 10.0619 8.28632 9.98273 8.23531C9.8475 7.68668 9.8475 7.11343 9.98273 6.5648C10.0038 6.49751 10 6.42489 9.97211 6.36014C9.94419 6.29539 9.89397 6.2428 9.83058 6.21193C9.7884 6.19269 9.74258 6.18273 9.69622 6.18273C9.64987 6.18273 9.60405 6.19269 9.56187 6.21193C8.91206 6.51793 8.32305 6.93912 7.82338 7.45509C7.73809 6.96577 7.70876 6.46832 7.73597 5.97236C7.74094 5.94452 7.74094 5.91602 7.73597 5.88819C7.72508 5.84065 7.70293 5.79643 7.67138 5.75924C7.63983 5.72206 7.5998 5.693 7.55468 5.67452C7.47698 5.64538 7.37014 5.60329 7.00108 5.85257C6.70014 6.06601 6.41848 6.30541 6.15935 6.56804C5.8681 6.86282 5.60173 7.18117 5.36295 7.51984C4.81491 8.29218 4.4264 9.16605 4.22014 10.0903V10.1486C4.18735 10.3259 4.15929 10.504 4.13597 10.6828C4.06405 11.0666 4.01861 11.455 4 11.845V11.8871C4.01015 14.0099 4.81469 16.0519 6.25519 17.6111C7.6957 19.1703 9.66777 20.1337 11.7831 20.3116C13.8984 20.4894 16.0036 19.8689 17.6843 18.5721C19.3649 17.2754 20.4992 15.3963 20.8637 13.3051C20.8637 13.2274 20.8831 13.1497 20.8928 13.0688V12.9878C21.0576 11.5738 20.8685 10.1409 20.3424 8.81804ZM14.1914 7.84682H14.1558L13.9583 7.77236L13.8838 7.74646L13.6928 7.68819L13.6313 7.66876L13.3788 7.61049H13.3302L13.1198 7.55545H13.0453L12.8317 7.53279H12.5403C12.7263 6.40196 13.2382 5.34998 14.0133 4.50581C14.0133 4.53171 14.0133 4.56085 13.9874 4.58675C13.9615 4.61265 13.9712 4.63207 13.9647 4.65797C13.9583 4.68387 13.9421 4.73243 13.9324 4.77128L13.913 4.83927C13.913 4.88459 13.8903 4.92668 13.8806 4.972C13.8709 5.01732 13.8806 5.01085 13.8806 5.02703L13.8417 5.22128V5.77811C13.84 5.78992 13.84 5.80192 13.8417 5.81373V6.63603C13.8417 6.64898 13.8417 6.73639 13.8676 6.78495C13.8676 6.83675 13.8903 6.89178 13.9032 6.94358V6.98567C13.9032 7.02775 13.9259 7.07308 13.9388 7.11516V7.15078L13.9874 7.31265V7.34502L14.036 7.47775C14.0428 7.49342 14.0482 7.50968 14.0522 7.52632C14.0748 7.57488 14.0942 7.62668 14.1169 7.67847C14.1396 7.73351 14.1687 7.78855 14.1946 7.84358V7.86301L14.1914 7.84682ZM14.35 5.7166L14.3694 5.51912C14.3679 5.50189 14.3679 5.48455 14.3694 5.46732C14.3694 5.41552 14.3694 5.36373 14.3921 5.31516C14.3905 5.30226 14.3905 5.28922 14.3921 5.27632C14.3921 5.2148 14.4115 5.15653 14.4245 5.09826V5.05617C14.4245 5.01085 14.4439 4.96552 14.4568 4.9202C14.455 4.90515 14.455 4.88993 14.4568 4.87488C14.4696 4.81995 14.4858 4.76589 14.5054 4.71301C14.504 4.70661 14.504 4.69998 14.5054 4.69358C14.5054 4.64826 14.5345 4.60293 14.5507 4.56085V4.51552C14.5672 4.47614 14.5824 4.43619 14.596 4.39574V4.37308L14.6543 4.24358V4.20797C14.6705 4.1756 14.6835 4.14322 14.6996 4.11409L14.7158 4.08495C14.7353 4.0461 14.7547 4.01049 14.7709 3.97488C14.7718 3.96844 14.7718 3.96189 14.7709 3.95545L14.8162 3.87775V3.85186C14.8153 3.84541 14.8153 3.83887 14.8162 3.83243C14.8356 3.86804 14.855 3.90689 14.8809 3.94898C14.9457 4.05905 15.0104 4.16265 15.0784 4.27272C15.5725 5.01723 16.1269 5.71995 16.736 6.3738C17.5324 7.2738 18.2867 8.122 18.8209 9.42344C18.8338 9.51409 18.8435 9.60473 18.85 9.69538C18.8517 9.71693 18.8517 9.73858 18.85 9.76013V10.3785C18.85 10.4141 18.85 10.5112 18.8273 10.576L18.9471 10.686C18.9471 10.7799 18.9147 10.8706 18.8953 10.9644C18.8759 11.0616 18.85 11.1555 18.8241 11.2493L18.795 11.34C18.7755 11.4047 18.7529 11.4695 18.7302 11.5342C18.7076 11.599 18.7076 11.6022 18.6946 11.6346L18.6234 11.8191C18.6113 11.8513 18.5973 11.8826 18.5813 11.913C18.5489 11.9875 18.5133 12.0587 18.4777 12.1299L18.4486 12.1882C18.401 12.2806 18.3503 12.3713 18.2964 12.4601L18.2543 12.5249L18.1248 12.7256C18.0795 12.7903 18.0827 12.7839 18.0633 12.8162L17.9338 12.9911L17.8658 13.0785C17.8173 13.14 17.7687 13.2015 17.7169 13.2598C17.6651 13.318 17.6748 13.3083 17.6554 13.331L17.636 13.3537C17.636 13.2954 17.636 13.2371 17.6586 13.1756C17.6813 13.1141 17.6586 13.1432 17.6586 13.127V12.2562C17.6586 12.2303 17.6586 12.1364 17.636 12.0749C17.6374 12.0576 17.6374 12.0403 17.636 12.0231C17.6143 11.8835 17.5851 11.7452 17.5486 11.6087V11.5569C17.5486 11.4954 17.513 11.4339 17.4935 11.3756V11.3465C17.4719 11.2774 17.446 11.2094 17.4158 11.1425C17.4096 11.1257 17.402 11.1095 17.3932 11.0939C17.37 11.0356 17.344 10.9783 17.3155 10.9224L17.296 10.8803C17.2637 10.8155 17.2248 10.7475 17.186 10.6796L17.1633 10.6407L17.0565 10.4756L17.0241 10.4303C16.9784 10.3634 16.9298 10.2986 16.8784 10.236L16.8558 10.2101L16.6809 10.0385L16.6356 9.98998C16.5765 9.92713 16.515 9.86666 16.4511 9.80869L16.3896 9.75689L16.3572 9.7148C16.3151 9.63711 16.2665 9.56265 16.218 9.48819C16.2094 9.47818 16.2018 9.46733 16.1953 9.45581C16.1435 9.38243 16.0885 9.30797 16.0302 9.23243L16.0108 9.20653C15.8845 9.04698 15.7483 8.8956 15.6029 8.75329C15.1828 8.37376 14.8533 7.90473 14.6387 7.38082C14.4241 6.85691 14.3298 6.2915 14.363 5.72632L14.35 5.7166ZM14.8065 15.2443C14.8809 15.1843 14.9533 15.1216 15.0234 15.0565L15.0428 15.0371C15.1076 14.9756 15.1723 14.9076 15.2306 14.8429L15.2532 14.817C15.3118 14.7519 15.3669 14.6838 15.4183 14.613L15.4378 14.5871C15.4896 14.5159 15.5381 14.4447 15.5835 14.3734L15.6029 14.3443C15.6481 14.2728 15.6902 14.1993 15.7291 14.1242V14.0983C15.768 14.0206 15.8068 13.9429 15.8392 13.8652V13.8457C15.8716 13.7648 15.904 13.6806 15.9331 13.5997C15.9622 13.5155 15.9881 13.4281 16.0108 13.3439C16.1843 12.7209 16.1895 12.063 16.0257 11.4374C15.8619 10.8118 15.535 10.2408 15.0784 9.78279C15.3623 9.85994 15.6314 9.98355 15.8748 10.1486L15.904 10.1713L16.0043 10.2522L16.1532 10.3979L16.1953 10.4465C16.2272 10.4784 16.2575 10.5119 16.286 10.5468L16.3345 10.6051C16.3604 10.6342 16.3831 10.6666 16.4058 10.6957L16.4543 10.7605C16.4737 10.7896 16.4964 10.8188 16.5158 10.8511L16.5579 10.9159L16.6809 11.0098C16.6941 11.0317 16.706 11.0544 16.7165 11.0778L16.7651 11.1684L16.8396 11.327C16.8496 11.3491 16.8583 11.3718 16.8655 11.395C16.8655 11.4242 16.8914 11.4565 16.9011 11.4857L16.927 11.5537L16.9561 11.6443L16.9755 11.709C16.9755 11.7414 16.9755 11.7738 17.0014 11.8062C17.0273 11.8385 17.0014 11.8483 17.0014 11.8677C17.0014 11.8871 17.0014 11.9357 17.0241 11.9713V12.0231C17.0337 12.0646 17.0402 12.1068 17.0435 12.1493V12.9004C17.0419 12.9166 17.0419 12.9328 17.0435 12.949V13.2112C17.0451 13.2392 17.0451 13.2673 17.0435 13.2954C17.0451 13.3083 17.0451 13.3213 17.0435 13.3342C17.0453 13.3612 17.0453 13.3882 17.0435 13.4152V13.4508C17.0435 13.4637 17.0435 13.5058 17.0273 13.5317V13.5608L17.0079 13.645C16.9827 13.7549 16.9502 13.8631 16.9108 13.9688L16.8914 14.027V14.0885L16.5644 14.3346L16.3054 14.5159L16.0496 14.681L15.891 14.7716L15.7939 14.8299L15.6353 14.9141L15.5414 14.9626L15.386 15.0242L15.2953 15.0695L15.1529 15.1278L14.8777 15.2346L14.8065 15.2605V15.2443ZM11.6209 10.9288L11.5011 11.0098H11.1288L10.8763 11.0324H10.8536C10.7662 11.0324 10.6853 11.0583 10.6011 11.0713H10.5428L10.3388 11.1166H10.3065C10.232 11.136 10.164 11.1587 10.096 11.1814H10.0475C9.99155 11.1994 9.93646 11.2199 9.88237 11.2429H9.85C9.79057 11.2673 9.73224 11.2943 9.67518 11.3238L9.63633 11.3432L9.50683 11.4144L9.47446 11.4339L9.30612 11.5439L9.20252 11.6249L9.17662 11.6475C9.13777 11.6767 9.10216 11.709 9.06655 11.7414L8.94353 11.8644L8.86259 11.9583C8.83993 11.9842 8.8205 12.0134 8.80108 12.0393L8.78489 12.0619L8.72662 12.1461L8.68453 12.2173V12.0619C8.68612 12.0534 8.68612 12.0446 8.68453 12.036V11.5569C8.68972 11.5155 8.68574 11.4734 8.67288 11.4337C8.66001 11.394 8.63857 11.3576 8.61007 11.327C8.58285 11.2953 8.54906 11.27 8.51104 11.2526C8.47303 11.2353 8.4317 11.2264 8.38993 11.2267C8.08603 11.2347 7.78509 11.1652 7.51549 11.0247C7.24588 10.8843 7.01648 10.6775 6.84892 10.4238C7.23909 10.2435 7.66476 10.1531 8.09452 10.1593C8.52428 10.1655 8.94717 10.268 9.33201 10.4594L9.49712 10.5306L9.55863 10.5565L9.66223 10.5954L9.73345 10.6213L9.8241 10.6504L9.89856 10.6731L9.98597 10.699L10.0604 10.7184L10.1446 10.7378H10.2191L10.3 10.7573H11.6953L11.6209 10.9288ZM9.31259 7.08279C9.28214 7.37769 9.28214 7.67494 9.31259 7.96984H9.2964L9.09892 7.90833H9.06331C8.99532 7.88891 8.92734 7.87596 8.85935 7.85977H8.83345C8.69689 7.82366 8.55858 7.79448 8.41906 7.77236C8.6932 7.51332 8.99253 7.28231 9.31259 7.08279ZM4.65396 12.0911C4.61654 11.828 4.61654 11.561 4.65396 11.2979C4.67338 11.136 4.69928 10.9742 4.72518 10.8511C4.72367 10.8447 4.72367 10.8381 4.72518 10.8317V10.8123C4.72518 10.7346 4.78993 10.3882 4.80288 10.3299V10.2781C4.99302 9.43593 5.34725 8.63946 5.84532 7.93423L5.86475 7.90509C6.08259 7.59875 6.32512 7.31074 6.58993 7.04394C6.76468 6.86601 6.95067 6.69948 7.14676 6.54538C7.14676 7.08927 7.22122 7.87919 7.50288 8.23207C7.52066 8.25739 7.54389 8.27841 7.57086 8.29358L7.60324 8.31301C7.62435 8.32096 7.64598 8.32745 7.66799 8.33243H8.19245C8.61022 8.34495 9.02019 8.44882 9.39353 8.63675C9.44893 8.67012 9.50293 8.70576 9.5554 8.74358C9.62117 8.78553 9.68391 8.83205 9.74317 8.88279C9.84676 8.9702 9.97302 9.09322 10.2029 9.31984L10.2903 9.40401L10.4392 9.53675C10.4813 9.56912 10.5234 9.60473 10.5719 9.63711L10.5978 9.65653L10.7273 9.74718H10.7565C10.805 9.78279 10.8568 9.81193 10.9086 9.8443L10.9475 9.8702L11.1061 9.96085L11.2971 10.0677L11.4558 10.1486L11.4849 10.168L11.6306 10.2393H10.8536C10.7694 10.2393 10.682 10.2393 10.5946 10.2134H10.4101L10.3259 10.1939H10.2709L10.1867 10.1745L10.1317 10.1583L10.0475 10.1357L9.98921 10.1162L9.88237 10.1421C9.86339 10.1376 9.84494 10.1311 9.82734 10.1227L9.73022 10.0871L9.68489 10.0677L9.55863 10.0062C9.04022 9.74471 8.46324 9.62107 7.88321 9.64716C7.30318 9.67324 6.73962 9.84816 6.24676 10.1551C6.19229 10.1929 6.15234 10.2481 6.1335 10.3117C6.11467 10.3753 6.11808 10.4434 6.14317 10.5047C6.31265 10.8803 6.577 11.2053 6.91022 11.4477C7.24343 11.6901 7.63401 11.8415 8.04353 11.8871C8.00144 13.4087 8.94029 14.8299 10.4942 15.568L10.6011 15.6231H10.6173C11.3328 16.0087 12.1355 16.2038 12.9482 16.1896H13.0162C13.888 16.1745 14.7475 15.9806 15.5414 15.6198L15.5996 15.5939L15.8068 15.4968L15.9169 15.4385L16.0853 15.3511L16.3701 15.186L16.6615 14.9983L16.9561 14.7911C17.057 14.7165 17.1563 14.6398 17.254 14.5612L17.2863 14.5256C17.3737 14.4544 17.4579 14.3832 17.5388 14.3087L17.5939 14.2569C17.6813 14.176 17.7655 14.095 17.8464 14.0108L17.8853 13.9752L18.1378 13.6968C18.2155 13.6094 18.2867 13.522 18.3579 13.4314C18.371 13.4133 18.385 13.396 18.4 13.3796C18.468 13.2889 18.536 13.195 18.5975 13.1044C18.6044 13.0853 18.613 13.0668 18.6234 13.0493L18.8014 12.7709V12.745C18.8597 12.6479 18.9147 12.5475 18.9665 12.4504C18.9665 12.4342 18.9665 12.418 18.9924 12.4051C19.041 12.3047 19.0928 12.2011 19.1349 12.1008V12.0781C19.1835 11.9713 19.2255 11.8612 19.2644 11.7544C19.2946 11.681 19.3205 11.6065 19.3421 11.531V11.9972C19.3437 12.0101 19.3437 12.0231 19.3421 12.036C19.3421 12.1299 19.3421 12.2206 19.3259 12.3112C19.3275 12.3349 19.3275 12.3587 19.3259 12.3824C19.3259 12.4796 19.3065 12.5799 19.2968 12.6738V12.7321C19.2968 12.8162 19.2741 12.8972 19.2579 12.9814V13.0429C19.2579 13.1367 19.2223 13.2274 19.2029 13.318V13.3796L19.1446 13.6126C19.1461 13.6288 19.1461 13.6451 19.1446 13.6612C19.1222 13.7461 19.0973 13.8303 19.0701 13.9137L19.0507 13.9752C19.0278 14.0493 19.003 14.1227 18.9763 14.1954V14.2278C18.9471 14.3055 18.918 14.3832 18.8856 14.4576C18.8856 14.4738 18.8856 14.4932 18.863 14.5126C18.8338 14.5871 18.8014 14.6583 18.7691 14.7296C17.882 16.6234 15.7097 18.6144 12.2748 18.5141C8.55827 18.4072 5.30144 15.6522 4.69604 12.104L4.65396 12.0911ZM20.3004 12.9911V13.0752C20.3004 13.1497 20.2842 13.2242 20.2777 13.2889C19.9831 14.9301 19.1775 16.4362 17.9759 17.5923C16.7744 18.7484 15.2383 19.4954 13.587 19.7266C11.9357 19.9578 10.2535 19.6614 8.78069 18.8797C7.30786 18.098 6.11962 16.871 5.38561 15.3738L5.48597 15.513C5.54101 15.5907 5.59928 15.6652 5.65432 15.7396L5.67698 15.7688L5.87446 16.0116L5.93273 16.0796L6.09784 16.2673L6.14964 16.3224C6.21871 16.3957 6.28993 16.4702 6.36331 16.5457L6.42158 16.6008C6.47986 16.659 6.53813 16.7173 6.59964 16.7724L6.64496 16.8371L6.92014 17.0799L7.2018 17.3033L7.45755 17.4943C7.54173 17.5558 7.62914 17.6141 7.71655 17.6724L8.06942 17.8925C8.16007 17.9465 8.25072 17.9983 8.34137 18.0479L8.41583 18.0867C8.48705 18.1288 8.56151 18.1644 8.63597 18.2033L8.71367 18.2421L9.0536 18.3975L9.30288 18.5011L9.38705 18.5367L9.67518 18.6403L9.99892 18.7407L10.0831 18.7634L10.3421 18.8346H10.4036L10.7273 18.909H10.805C10.8907 18.9286 10.9771 18.9448 11.064 18.9576H11.145C11.2524 18.9761 11.3603 18.9912 11.4687 19.0029H11.527L11.8054 19.0288H11.8928L12.2165 19.0483H12.4723C13.8781 19.1025 15.2694 18.7467 16.4765 18.0241C17.6836 17.3016 18.6545 16.2435 19.2709 14.9788C20.0823 13.2244 20.198 11.2275 19.5946 9.39106C19.5946 9.35545 19.5719 9.32308 19.559 9.2907C19.4935 8.88545 19.396 8.48601 19.2676 8.0961C19.4833 8.39878 19.6647 8.72452 19.8083 9.06732C20.2988 10.3133 20.468 11.6626 20.3004 12.9911Z"/>
</mask>
<path d="M20.3424 8.81804C19.9507 7.88567 19.1964 6.94682 18.5781 6.6166C18.5288 6.58819 18.473 6.57323 18.4162 6.57323C18.3594 6.57323 18.3035 6.58819 18.2543 6.6166C18.2071 6.64828 18.17 6.69296 18.1476 6.74523C18.1252 6.79751 18.1184 6.85515 18.1281 6.91121C17.8691 6.58747 17.6004 6.28962 17.3252 5.98207C16.7329 5.35352 16.1926 4.67792 15.7097 3.96193L15.5252 3.66085C15.4637 3.55725 15.4669 3.55725 15.4442 3.51193C15.4039 3.43214 15.3714 3.34867 15.3471 3.26265C15.3352 3.19837 15.304 3.13923 15.2578 3.093C15.2115 3.04677 15.1524 3.01562 15.0881 3.00365C15.0549 2.99878 15.021 2.99878 14.9878 3.00365C14.9435 3.00779 14.9005 3.02101 14.8615 3.0425C14.0703 3.52816 13.3964 4.18294 12.8882 4.95984C12.3799 5.73675 12.05 6.61652 11.9219 7.53603C11.664 7.57744 11.4119 7.64916 11.1709 7.7497C11.1349 7.7652 11.1024 7.78763 11.0751 7.81571C11.0479 7.84379 11.0264 7.87697 11.012 7.91335C10.9975 7.94973 10.9904 7.9886 10.991 8.02774C10.9916 8.06687 10.9999 8.1055 11.0155 8.14142C11.0309 8.17736 11.0534 8.20986 11.0815 8.23702C11.1097 8.26418 11.143 8.28547 11.1794 8.29963C11.2159 8.3138 11.2548 8.32056 11.2939 8.31952C11.333 8.31848 11.3715 8.30966 11.4072 8.29358C11.6029 8.21011 11.8085 8.15243 12.0191 8.122C12.2682 8.10924 12.5178 8.10924 12.7669 8.122H12.9935C13.068 8.122 13.1424 8.14466 13.2137 8.16085H13.2558L13.4371 8.20293L13.4986 8.21912L13.6799 8.27416H13.7155C13.7867 8.29682 13.8547 8.32596 13.9227 8.35186L13.9777 8.37452L14.1331 8.44898L14.1914 8.47488C14.2561 8.51049 14.3241 8.54286 14.3856 8.58171L14.6284 8.73387L14.8065 8.86337L14.9781 9.00581L15.0978 9.11588L14.9683 9.08998H14.1719L14.0392 9.10941C13.9873 9.1172 13.9381 9.13748 13.8958 9.16849C13.8536 9.19951 13.8194 9.24034 13.7964 9.28747C13.7673 9.35685 13.7658 9.43475 13.7923 9.50518C13.8188 9.57562 13.8712 9.63324 13.9388 9.66624C14.5566 9.98867 15.0436 10.5152 15.3168 11.1562C15.5901 11.7972 15.6329 12.5131 15.4378 13.1821C15.4129 13.2797 15.3827 13.3759 15.3471 13.4702C15.3147 13.5587 15.2791 13.6429 15.2403 13.7227V13.7486C15.203 13.8245 15.163 13.899 15.1205 13.972L15.1011 14.0011C15.0606 14.0705 15.0163 14.1375 14.9683 14.2019L14.9489 14.231C14.901 14.2918 14.8514 14.3512 14.8 14.409L14.7773 14.4349C14.7269 14.4913 14.674 14.5453 14.6187 14.5968L14.5928 14.6195L14.3953 14.7814C14.3371 14.8234 14.2755 14.8688 14.214 14.9076H14.1881C14.1256 14.9481 14.0608 14.9849 13.9939 15.0177H13.9745C13.907 15.0533 13.8378 15.0857 13.7673 15.1148L13.5471 15.1957L13.3108 15.267L13.0939 15.3155H13.0712L12.8576 15.3479H12.8284C12.7604 15.3479 12.6892 15.3479 12.6212 15.3673H12.1939C11.8627 15.3547 11.5354 15.2925 11.2227 15.1828C11.1472 15.1551 11.0727 15.1249 10.9993 15.0921L10.8763 15.0339C10.4123 14.8124 10.0095 14.4811 9.70256 14.0687C9.39566 13.6563 9.19401 13.1753 9.11511 12.6673C9.19604 12.4537 9.66871 11.5278 11.5205 11.5278C11.9122 11.5278 12.6924 10.7767 12.7896 10.4076V10.317C12.7896 10.1195 12.6763 10.0677 12.2424 9.85725C11.6959 9.61997 11.1823 9.31312 10.7144 8.9443L10.627 8.86013C10.5881 8.81804 10.5493 8.78243 10.5169 8.75006L10.4198 8.65617C10.3622 8.56227 10.2913 8.47721 10.2094 8.40365C10.1376 8.34256 10.0619 8.28632 9.98273 8.23531C9.8475 7.68668 9.8475 7.11343 9.98273 6.5648C10.0038 6.49751 10 6.42489 9.97211 6.36014C9.94419 6.29539 9.89397 6.2428 9.83058 6.21193C9.7884 6.19269 9.74258 6.18273 9.69622 6.18273C9.64987 6.18273 9.60405 6.19269 9.56187 6.21193C8.91206 6.51793 8.32305 6.93912 7.82338 7.45509C7.73809 6.96577 7.70876 6.46832 7.73597 5.97236C7.74094 5.94452 7.74094 5.91602 7.73597 5.88819C7.72508 5.84065 7.70293 5.79643 7.67138 5.75924C7.63983 5.72206 7.5998 5.693 7.55468 5.67452C7.47698 5.64538 7.37014 5.60329 7.00108 5.85257C6.70014 6.06601 6.41848 6.30541 6.15935 6.56804C5.8681 6.86282 5.60173 7.18117 5.36295 7.51984C4.81491 8.29218 4.4264 9.16605 4.22014 10.0903V10.1486C4.18735 10.3259 4.15929 10.504 4.13597 10.6828C4.06405 11.0666 4.01861 11.455 4 11.845V11.8871C4.01015 14.0099 4.81469 16.0519 6.25519 17.6111C7.6957 19.1703 9.66777 20.1337 11.7831 20.3116C13.8984 20.4894 16.0036 19.8689 17.6843 18.5721C19.3649 17.2754 20.4992 15.3963 20.8637 13.3051C20.8637 13.2274 20.8831 13.1497 20.8928 13.0688V12.9878C21.0576 11.5738 20.8685 10.1409 20.3424 8.81804ZM14.1914 7.84682H14.1558L13.9583 7.77236L13.8838 7.74646L13.6928 7.68819L13.6313 7.66876L13.3788 7.61049H13.3302L13.1198 7.55545H13.0453L12.8317 7.53279H12.5403C12.7263 6.40196 13.2382 5.34998 14.0133 4.50581C14.0133 4.53171 14.0133 4.56085 13.9874 4.58675C13.9615 4.61265 13.9712 4.63207 13.9647 4.65797C13.9583 4.68387 13.9421 4.73243 13.9324 4.77128L13.913 4.83927C13.913 4.88459 13.8903 4.92668 13.8806 4.972C13.8709 5.01732 13.8806 5.01085 13.8806 5.02703L13.8417 5.22128V5.77811C13.84 5.78992 13.84 5.80192 13.8417 5.81373V6.63603C13.8417 6.64898 13.8417 6.73639 13.8676 6.78495C13.8676 6.83675 13.8903 6.89178 13.9032 6.94358V6.98567C13.9032 7.02775 13.9259 7.07308 13.9388 7.11516V7.15078L13.9874 7.31265V7.34502L14.036 7.47775C14.0428 7.49342 14.0482 7.50968 14.0522 7.52632C14.0748 7.57488 14.0942 7.62668 14.1169 7.67847C14.1396 7.73351 14.1687 7.78855 14.1946 7.84358V7.86301L14.1914 7.84682ZM14.35 5.7166L14.3694 5.51912C14.3679 5.50189 14.3679 5.48455 14.3694 5.46732C14.3694 5.41552 14.3694 5.36373 14.3921 5.31516C14.3905 5.30226 14.3905 5.28922 14.3921 5.27632C14.3921 5.2148 14.4115 5.15653 14.4245 5.09826V5.05617C14.4245 5.01085 14.4439 4.96552 14.4568 4.9202C14.455 4.90515 14.455 4.88993 14.4568 4.87488C14.4696 4.81995 14.4858 4.76589 14.5054 4.71301C14.504 4.70661 14.504 4.69998 14.5054 4.69358C14.5054 4.64826 14.5345 4.60293 14.5507 4.56085V4.51552C14.5672 4.47614 14.5824 4.43619 14.596 4.39574V4.37308L14.6543 4.24358V4.20797C14.6705 4.1756 14.6835 4.14322 14.6996 4.11409L14.7158 4.08495C14.7353 4.0461 14.7547 4.01049 14.7709 3.97488C14.7718 3.96844 14.7718 3.96189 14.7709 3.95545L14.8162 3.87775V3.85186C14.8153 3.84541 14.8153 3.83887 14.8162 3.83243C14.8356 3.86804 14.855 3.90689 14.8809 3.94898C14.9457 4.05905 15.0104 4.16265 15.0784 4.27272C15.5725 5.01723 16.1269 5.71995 16.736 6.3738C17.5324 7.2738 18.2867 8.122 18.8209 9.42344C18.8338 9.51409 18.8435 9.60473 18.85 9.69538C18.8517 9.71693 18.8517 9.73858 18.85 9.76013V10.3785C18.85 10.4141 18.85 10.5112 18.8273 10.576L18.9471 10.686C18.9471 10.7799 18.9147 10.8706 18.8953 10.9644C18.8759 11.0616 18.85 11.1555 18.8241 11.2493L18.795 11.34C18.7755 11.4047 18.7529 11.4695 18.7302 11.5342C18.7076 11.599 18.7076 11.6022 18.6946 11.6346L18.6234 11.8191C18.6113 11.8513 18.5973 11.8826 18.5813 11.913C18.5489 11.9875 18.5133 12.0587 18.4777 12.1299L18.4486 12.1882C18.401 12.2806 18.3503 12.3713 18.2964 12.4601L18.2543 12.5249L18.1248 12.7256C18.0795 12.7903 18.0827 12.7839 18.0633 12.8162L17.9338 12.9911L17.8658 13.0785C17.8173 13.14 17.7687 13.2015 17.7169 13.2598C17.6651 13.318 17.6748 13.3083 17.6554 13.331L17.636 13.3537C17.636 13.2954 17.636 13.2371 17.6586 13.1756C17.6813 13.1141 17.6586 13.1432 17.6586 13.127V12.2562C17.6586 12.2303 17.6586 12.1364 17.636 12.0749C17.6374 12.0576 17.6374 12.0403 17.636 12.0231C17.6143 11.8835 17.5851 11.7452 17.5486 11.6087V11.5569C17.5486 11.4954 17.513 11.4339 17.4935 11.3756V11.3465C17.4719 11.2774 17.446 11.2094 17.4158 11.1425C17.4096 11.1257 17.402 11.1095 17.3932 11.0939C17.37 11.0356 17.344 10.9783 17.3155 10.9224L17.296 10.8803C17.2637 10.8155 17.2248 10.7475 17.186 10.6796L17.1633 10.6407L17.0565 10.4756L17.0241 10.4303C16.9784 10.3634 16.9298 10.2986 16.8784 10.236L16.8558 10.2101L16.6809 10.0385L16.6356 9.98998C16.5765 9.92713 16.515 9.86666 16.4511 9.80869L16.3896 9.75689L16.3572 9.7148C16.3151 9.63711 16.2665 9.56265 16.218 9.48819C16.2094 9.47818 16.2018 9.46733 16.1953 9.45581C16.1435 9.38243 16.0885 9.30797 16.0302 9.23243L16.0108 9.20653C15.8845 9.04698 15.7483 8.8956 15.6029 8.75329C15.1828 8.37376 14.8533 7.90473 14.6387 7.38082C14.4241 6.85691 14.3298 6.2915 14.363 5.72632L14.35 5.7166ZM14.8065 15.2443C14.8809 15.1843 14.9533 15.1216 15.0234 15.0565L15.0428 15.0371C15.1076 14.9756 15.1723 14.9076 15.2306 14.8429L15.2532 14.817C15.3118 14.7519 15.3669 14.6838 15.4183 14.613L15.4378 14.5871C15.4896 14.5159 15.5381 14.4447 15.5835 14.3734L15.6029 14.3443C15.6481 14.2728 15.6902 14.1993 15.7291 14.1242V14.0983C15.768 14.0206 15.8068 13.9429 15.8392 13.8652V13.8457C15.8716 13.7648 15.904 13.6806 15.9331 13.5997C15.9622 13.5155 15.9881 13.4281 16.0108 13.3439C16.1843 12.7209 16.1895 12.063 16.0257 11.4374C15.8619 10.8118 15.535 10.2408 15.0784 9.78279C15.3623 9.85994 15.6314 9.98355 15.8748 10.1486L15.904 10.1713L16.0043 10.2522L16.1532 10.3979L16.1953 10.4465C16.2272 10.4784 16.2575 10.5119 16.286 10.5468L16.3345 10.6051C16.3604 10.6342 16.3831 10.6666 16.4058 10.6957L16.4543 10.7605C16.4737 10.7896 16.4964 10.8188 16.5158 10.8511L16.5579 10.9159L16.6809 11.0098C16.6941 11.0317 16.706 11.0544 16.7165 11.0778L16.7651 11.1684L16.8396 11.327C16.8496 11.3491 16.8583 11.3718 16.8655 11.395C16.8655 11.4242 16.8914 11.4565 16.9011 11.4857L16.927 11.5537L16.9561 11.6443L16.9755 11.709C16.9755 11.7414 16.9755 11.7738 17.0014 11.8062C17.0273 11.8385 17.0014 11.8483 17.0014 11.8677C17.0014 11.8871 17.0014 11.9357 17.0241 11.9713V12.0231C17.0337 12.0646 17.0402 12.1068 17.0435 12.1493V12.9004C17.0419 12.9166 17.0419 12.9328 17.0435 12.949V13.2112C17.0451 13.2392 17.0451 13.2673 17.0435 13.2954C17.0451 13.3083 17.0451 13.3213 17.0435 13.3342C17.0453 13.3612 17.0453 13.3882 17.0435 13.4152V13.4508C17.0435 13.4637 17.0435 13.5058 17.0273 13.5317V13.5608L17.0079 13.645C16.9827 13.7549 16.9502 13.8631 16.9108 13.9688L16.8914 14.027V14.0885L16.5644 14.3346L16.3054 14.5159L16.0496 14.681L15.891 14.7716L15.7939 14.8299L15.6353 14.9141L15.5414 14.9626L15.386 15.0242L15.2953 15.0695L15.1529 15.1278L14.8777 15.2346L14.8065 15.2605V15.2443ZM11.6209 10.9288L11.5011 11.0098H11.1288L10.8763 11.0324H10.8536C10.7662 11.0324 10.6853 11.0583 10.6011 11.0713H10.5428L10.3388 11.1166H10.3065C10.232 11.136 10.164 11.1587 10.096 11.1814H10.0475C9.99155 11.1994 9.93646 11.2199 9.88237 11.2429H9.85C9.79057 11.2673 9.73224 11.2943 9.67518 11.3238L9.63633 11.3432L9.50683 11.4144L9.47446 11.4339L9.30612 11.5439L9.20252 11.6249L9.17662 11.6475C9.13777 11.6767 9.10216 11.709 9.06655 11.7414L8.94353 11.8644L8.86259 11.9583C8.83993 11.9842 8.8205 12.0134 8.80108 12.0393L8.78489 12.0619L8.72662 12.1461L8.68453 12.2173V12.0619C8.68612 12.0534 8.68612 12.0446 8.68453 12.036V11.5569C8.68972 11.5155 8.68574 11.4734 8.67288 11.4337C8.66001 11.394 8.63857 11.3576 8.61007 11.327C8.58285 11.2953 8.54906 11.27 8.51104 11.2526C8.47303 11.2353 8.4317 11.2264 8.38993 11.2267C8.08603 11.2347 7.78509 11.1652 7.51549 11.0247C7.24588 10.8843 7.01648 10.6775 6.84892 10.4238C7.23909 10.2435 7.66476 10.1531 8.09452 10.1593C8.52428 10.1655 8.94717 10.268 9.33201 10.4594L9.49712 10.5306L9.55863 10.5565L9.66223 10.5954L9.73345 10.6213L9.8241 10.6504L9.89856 10.6731L9.98597 10.699L10.0604 10.7184L10.1446 10.7378H10.2191L10.3 10.7573H11.6953L11.6209 10.9288ZM9.31259 7.08279C9.28214 7.37769 9.28214 7.67494 9.31259 7.96984H9.2964L9.09892 7.90833H9.06331C8.99532 7.88891 8.92734 7.87596 8.85935 7.85977H8.83345C8.69689 7.82366 8.55858 7.79448 8.41906 7.77236C8.6932 7.51332 8.99253 7.28231 9.31259 7.08279ZM4.65396 12.0911C4.61654 11.828 4.61654 11.561 4.65396 11.2979C4.67338 11.136 4.69928 10.9742 4.72518 10.8511C4.72367 10.8447 4.72367 10.8381 4.72518 10.8317V10.8123C4.72518 10.7346 4.78993 10.3882 4.80288 10.3299V10.2781C4.99302 9.43593 5.34725 8.63946 5.84532 7.93423L5.86475 7.90509C6.08259 7.59875 6.32512 7.31074 6.58993 7.04394C6.76468 6.86601 6.95067 6.69948 7.14676 6.54538C7.14676 7.08927 7.22122 7.87919 7.50288 8.23207C7.52066 8.25739 7.54389 8.27841 7.57086 8.29358L7.60324 8.31301C7.62435 8.32096 7.64598 8.32745 7.66799 8.33243H8.19245C8.61022 8.34495 9.02019 8.44882 9.39353 8.63675C9.44893 8.67012 9.50293 8.70576 9.5554 8.74358C9.62117 8.78553 9.68391 8.83205 9.74317 8.88279C9.84676 8.9702 9.97302 9.09322 10.2029 9.31984L10.2903 9.40401L10.4392 9.53675C10.4813 9.56912 10.5234 9.60473 10.5719 9.63711L10.5978 9.65653L10.7273 9.74718H10.7565C10.805 9.78279 10.8568 9.81193 10.9086 9.8443L10.9475 9.8702L11.1061 9.96085L11.2971 10.0677L11.4558 10.1486L11.4849 10.168L11.6306 10.2393H10.8536C10.7694 10.2393 10.682 10.2393 10.5946 10.2134H10.4101L10.3259 10.1939H10.2709L10.1867 10.1745L10.1317 10.1583L10.0475 10.1357L9.98921 10.1162L9.88237 10.1421C9.86339 10.1376 9.84494 10.1311 9.82734 10.1227L9.73022 10.0871L9.68489 10.0677L9.55863 10.0062C9.04022 9.74471 8.46324 9.62107 7.88321 9.64716C7.30318 9.67324 6.73962 9.84816 6.24676 10.1551C6.19229 10.1929 6.15234 10.2481 6.1335 10.3117C6.11467 10.3753 6.11808 10.4434 6.14317 10.5047C6.31265 10.8803 6.577 11.2053 6.91022 11.4477C7.24343 11.6901 7.63401 11.8415 8.04353 11.8871C8.00144 13.4087 8.94029 14.8299 10.4942 15.568L10.6011 15.6231H10.6173C11.3328 16.0087 12.1355 16.2038 12.9482 16.1896H13.0162C13.888 16.1745 14.7475 15.9806 15.5414 15.6198L15.5996 15.5939L15.8068 15.4968L15.9169 15.4385L16.0853 15.3511L16.3701 15.186L16.6615 14.9983L16.9561 14.7911C17.057 14.7165 17.1563 14.6398 17.254 14.5612L17.2863 14.5256C17.3737 14.4544 17.4579 14.3832 17.5388 14.3087L17.5939 14.2569C17.6813 14.176 17.7655 14.095 17.8464 14.0108L17.8853 13.9752L18.1378 13.6968C18.2155 13.6094 18.2867 13.522 18.3579 13.4314C18.371 13.4133 18.385 13.396 18.4 13.3796C18.468 13.2889 18.536 13.195 18.5975 13.1044C18.6044 13.0853 18.613 13.0668 18.6234 13.0493L18.8014 12.7709V12.745C18.8597 12.6479 18.9147 12.5475 18.9665 12.4504C18.9665 12.4342 18.9665 12.418 18.9924 12.4051C19.041 12.3047 19.0928 12.2011 19.1349 12.1008V12.0781C19.1835 11.9713 19.2255 11.8612 19.2644 11.7544C19.2946 11.681 19.3205 11.6065 19.3421 11.531V11.9972C19.3437 12.0101 19.3437 12.0231 19.3421 12.036C19.3421 12.1299 19.3421 12.2206 19.3259 12.3112C19.3275 12.3349 19.3275 12.3587 19.3259 12.3824C19.3259 12.4796 19.3065 12.5799 19.2968 12.6738V12.7321C19.2968 12.8162 19.2741 12.8972 19.2579 12.9814V13.0429C19.2579 13.1367 19.2223 13.2274 19.2029 13.318V13.3796L19.1446 13.6126C19.1461 13.6288 19.1461 13.6451 19.1446 13.6612C19.1222 13.7461 19.0973 13.8303 19.0701 13.9137L19.0507 13.9752C19.0278 14.0493 19.003 14.1227 18.9763 14.1954V14.2278C18.9471 14.3055 18.918 14.3832 18.8856 14.4576C18.8856 14.4738 18.8856 14.4932 18.863 14.5126C18.8338 14.5871 18.8014 14.6583 18.7691 14.7296C17.882 16.6234 15.7097 18.6144 12.2748 18.5141C8.55827 18.4072 5.30144 15.6522 4.69604 12.104L4.65396 12.0911ZM20.3004 12.9911V13.0752C20.3004 13.1497 20.2842 13.2242 20.2777 13.2889C19.9831 14.9301 19.1775 16.4362 17.9759 17.5923C16.7744 18.7484 15.2383 19.4954 13.587 19.7266C11.9357 19.9578 10.2535 19.6614 8.78069 18.8797C7.30786 18.098 6.11962 16.871 5.38561 15.3738L5.48597 15.513C5.54101 15.5907 5.59928 15.6652 5.65432 15.7396L5.67698 15.7688L5.87446 16.0116L5.93273 16.0796L6.09784 16.2673L6.14964 16.3224C6.21871 16.3957 6.28993 16.4702 6.36331 16.5457L6.42158 16.6008C6.47986 16.659 6.53813 16.7173 6.59964 16.7724L6.64496 16.8371L6.92014 17.0799L7.2018 17.3033L7.45755 17.4943C7.54173 17.5558 7.62914 17.6141 7.71655 17.6724L8.06942 17.8925C8.16007 17.9465 8.25072 17.9983 8.34137 18.0479L8.41583 18.0867C8.48705 18.1288 8.56151 18.1644 8.63597 18.2033L8.71367 18.2421L9.0536 18.3975L9.30288 18.5011L9.38705 18.5367L9.67518 18.6403L9.99892 18.7407L10.0831 18.7634L10.3421 18.8346H10.4036L10.7273 18.909H10.805C10.8907 18.9286 10.9771 18.9448 11.064 18.9576H11.145C11.2524 18.9761 11.3603 18.9912 11.4687 19.0029H11.527L11.8054 19.0288H11.8928L12.2165 19.0483H12.4723C13.8781 19.1025 15.2694 18.7467 16.4765 18.0241C17.6836 17.3016 18.6545 16.2435 19.2709 14.9788C20.0823 13.2244 20.198 11.2275 19.5946 9.39106C19.5946 9.35545 19.5719 9.32308 19.559 9.2907C19.4935 8.88545 19.396 8.48601 19.2676 8.0961C19.4833 8.39878 19.6647 8.72452 19.8083 9.06732C20.2988 10.3133 20.468 11.6626 20.3004 12.9911Z" fill="black"/>
<path d="M20.3424 8.81804C19.9507 7.88567 19.1964 6.94682 18.5781 6.6166C18.5288 6.58819 18.473 6.57323 18.4162 6.57323C18.3594 6.57323 18.3035 6.58819 18.2543 6.6166C18.2071 6.64828 18.17 6.69296 18.1476 6.74523C18.1252 6.79751 18.1184 6.85515 18.1281 6.91121C17.8691 6.58747 17.6004 6.28962 17.3252 5.98207C16.7329 5.35352 16.1926 4.67792 15.7097 3.96193L15.5252 3.66085C15.4637 3.55725 15.4669 3.55725 15.4442 3.51193C15.4039 3.43214 15.3714 3.34867 15.3471 3.26265C15.3352 3.19837 15.304 3.13923 15.2578 3.093C15.2115 3.04677 15.1524 3.01562 15.0881 3.00365C15.0549 2.99878 15.021 2.99878 14.9878 3.00365C14.9435 3.00779 14.9005 3.02101 14.8615 3.0425C14.0703 3.52816 13.3964 4.18294 12.8882 4.95984C12.3799 5.73675 12.05 6.61652 11.9219 7.53603C11.664 7.57744 11.4119 7.64916 11.1709 7.7497C11.1349 7.7652 11.1024 7.78763 11.0751 7.81571C11.0479 7.84379 11.0264 7.87697 11.012 7.91335C10.9975 7.94973 10.9904 7.9886 10.991 8.02774C10.9916 8.06687 10.9999 8.1055 11.0155 8.14142C11.0309 8.17736 11.0534 8.20986 11.0815 8.23702C11.1097 8.26418 11.143 8.28547 11.1794 8.29963C11.2159 8.3138 11.2548 8.32056 11.2939 8.31952C11.333 8.31848 11.3715 8.30966 11.4072 8.29358C11.6029 8.21011 11.8085 8.15243 12.0191 8.122C12.2682 8.10924 12.5178 8.10924 12.7669 8.122H12.9935C13.068 8.122 13.1424 8.14466 13.2137 8.16085H13.2558L13.4371 8.20293L13.4986 8.21912L13.6799 8.27416H13.7155C13.7867 8.29682 13.8547 8.32596 13.9227 8.35186L13.9777 8.37452L14.1331 8.44898L14.1914 8.47488C14.2561 8.51049 14.3241 8.54286 14.3856 8.58171L14.6284 8.73387L14.8065 8.86337L14.9781 9.00581L15.0978 9.11588L14.9683 9.08998H14.1719L14.0392 9.10941C13.9873 9.1172 13.9381 9.13748 13.8958 9.16849C13.8536 9.19951 13.8194 9.24034 13.7964 9.28747C13.7673 9.35685 13.7658 9.43475 13.7923 9.50518C13.8188 9.57562 13.8712 9.63324 13.9388 9.66624C14.5566 9.98867 15.0436 10.5152 15.3168 11.1562C15.5901 11.7972 15.6329 12.5131 15.4378 13.1821C15.4129 13.2797 15.3827 13.3759 15.3471 13.4702C15.3147 13.5587 15.2791 13.6429 15.2403 13.7227V13.7486C15.203 13.8245 15.163 13.899 15.1205 13.972L15.1011 14.0011C15.0606 14.0705 15.0163 14.1375 14.9683 14.2019L14.9489 14.231C14.901 14.2918 14.8514 14.3512 14.8 14.409L14.7773 14.4349C14.7269 14.4913 14.674 14.5453 14.6187 14.5968L14.5928 14.6195L14.3953 14.7814C14.3371 14.8234 14.2755 14.8688 14.214 14.9076H14.1881C14.1256 14.9481 14.0608 14.9849 13.9939 15.0177H13.9745C13.907 15.0533 13.8378 15.0857 13.7673 15.1148L13.5471 15.1957L13.3108 15.267L13.0939 15.3155H13.0712L12.8576 15.3479H12.8284C12.7604 15.3479 12.6892 15.3479 12.6212 15.3673H12.1939C11.8627 15.3547 11.5354 15.2925 11.2227 15.1828C11.1472 15.1551 11.0727 15.1249 10.9993 15.0921L10.8763 15.0339C10.4123 14.8124 10.0095 14.4811 9.70256 14.0687C9.39566 13.6563 9.19401 13.1753 9.11511 12.6673C9.19604 12.4537 9.66871 11.5278 11.5205 11.5278C11.9122 11.5278 12.6924 10.7767 12.7896 10.4076V10.317C12.7896 10.1195 12.6763 10.0677 12.2424 9.85725C11.6959 9.61997 11.1823 9.31312 10.7144 8.9443L10.627 8.86013C10.5881 8.81804 10.5493 8.78243 10.5169 8.75006L10.4198 8.65617C10.3622 8.56227 10.2913 8.47721 10.2094 8.40365C10.1376 8.34256 10.0619 8.28632 9.98273 8.23531C9.8475 7.68668 9.8475 7.11343 9.98273 6.5648C10.0038 6.49751 10 6.42489 9.97211 6.36014C9.94419 6.29539 9.89397 6.2428 9.83058 6.21193C9.7884 6.19269 9.74258 6.18273 9.69622 6.18273C9.64987 6.18273 9.60405 6.19269 9.56187 6.21193C8.91206 6.51793 8.32305 6.93912 7.82338 7.45509C7.73809 6.96577 7.70876 6.46832 7.73597 5.97236C7.74094 5.94452 7.74094 5.91602 7.73597 5.88819C7.72508 5.84065 7.70293 5.79643 7.67138 5.75924C7.63983 5.72206 7.5998 5.693 7.55468 5.67452C7.47698 5.64538 7.37014 5.60329 7.00108 5.85257C6.70014 6.06601 6.41848 6.30541 6.15935 6.56804C5.8681 6.86282 5.60173 7.18117 5.36295 7.51984C4.81491 8.29218 4.4264 9.16605 4.22014 10.0903V10.1486C4.18735 10.3259 4.15929 10.504 4.13597 10.6828C4.06405 11.0666 4.01861 11.455 4 11.845V11.8871C4.01015 14.0099 4.81469 16.0519 6.25519 17.6111C7.6957 19.1703 9.66777 20.1337 11.7831 20.3116C13.8984 20.4894 16.0036 19.8689 17.6843 18.5721C19.3649 17.2754 20.4992 15.3963 20.8637 13.3051C20.8637 13.2274 20.8831 13.1497 20.8928 13.0688V12.9878C21.0576 11.5738 20.8685 10.1409 20.3424 8.81804ZM14.1914 7.84682H14.1558L13.9583 7.77236L13.8838 7.74646L13.6928 7.68819L13.6313 7.66876L13.3788 7.61049H13.3302L13.1198 7.55545H13.0453L12.8317 7.53279H12.5403C12.7263 6.40196 13.2382 5.34998 14.0133 4.50581C14.0133 4.53171 14.0133 4.56085 13.9874 4.58675C13.9615 4.61265 13.9712 4.63207 13.9647 4.65797C13.9583 4.68387 13.9421 4.73243 13.9324 4.77128L13.913 4.83927C13.913 4.88459 13.8903 4.92668 13.8806 4.972C13.8709 5.01732 13.8806 5.01085 13.8806 5.02703L13.8417 5.22128V5.77811C13.84 5.78992 13.84 5.80192 13.8417 5.81373V6.63603C13.8417 6.64898 13.8417 6.73639 13.8676 6.78495C13.8676 6.83675 13.8903 6.89178 13.9032 6.94358V6.98567C13.9032 7.02775 13.9259 7.07308 13.9388 7.11516V7.15078L13.9874 7.31265V7.34502L14.036 7.47775C14.0428 7.49342 14.0482 7.50968 14.0522 7.52632C14.0748 7.57488 14.0942 7.62668 14.1169 7.67847C14.1396 7.73351 14.1687 7.78855 14.1946 7.84358V7.86301L14.1914 7.84682ZM14.35 5.7166L14.3694 5.51912C14.3679 5.50189 14.3679 5.48455 14.3694 5.46732C14.3694 5.41552 14.3694 5.36373 14.3921 5.31516C14.3905 5.30226 14.3905 5.28922 14.3921 5.27632C14.3921 5.2148 14.4115 5.15653 14.4245 5.09826V5.05617C14.4245 5.01085 14.4439 4.96552 14.4568 4.9202C14.455 4.90515 14.455 4.88993 14.4568 4.87488C14.4696 4.81995 14.4858 4.76589 14.5054 4.71301C14.504 4.70661 14.504 4.69998 14.5054 4.69358C14.5054 4.64826 14.5345 4.60293 14.5507 4.56085V4.51552C14.5672 4.47614 14.5824 4.43619 14.596 4.39574V4.37308L14.6543 4.24358V4.20797C14.6705 4.1756 14.6835 4.14322 14.6996 4.11409L14.7158 4.08495C14.7353 4.0461 14.7547 4.01049 14.7709 3.97488C14.7718 3.96844 14.7718 3.96189 14.7709 3.95545L14.8162 3.87775V3.85186C14.8153 3.84541 14.8153 3.83887 14.8162 3.83243C14.8356 3.86804 14.855 3.90689 14.8809 3.94898C14.9457 4.05905 15.0104 4.16265 15.0784 4.27272C15.5725 5.01723 16.1269 5.71995 16.736 6.3738C17.5324 7.2738 18.2867 8.122 18.8209 9.42344C18.8338 9.51409 18.8435 9.60473 18.85 9.69538C18.8517 9.71693 18.8517 9.73858 18.85 9.76013V10.3785C18.85 10.4141 18.85 10.5112 18.8273 10.576L18.9471 10.686C18.9471 10.7799 18.9147 10.8706 18.8953 10.9644C18.8759 11.0616 18.85 11.1555 18.8241 11.2493L18.795 11.34C18.7755 11.4047 18.7529 11.4695 18.7302 11.5342C18.7076 11.599 18.7076 11.6022 18.6946 11.6346L18.6234 11.8191C18.6113 11.8513 18.5973 11.8826 18.5813 11.913C18.5489 11.9875 18.5133 12.0587 18.4777 12.1299L18.4486 12.1882C18.401 12.2806 18.3503 12.3713 18.2964 12.4601L18.2543 12.5249L18.1248 12.7256C18.0795 12.7903 18.0827 12.7839 18.0633 12.8162L17.9338 12.9911L17.8658 13.0785C17.8173 13.14 17.7687 13.2015 17.7169 13.2598C17.6651 13.318 17.6748 13.3083 17.6554 13.331L17.636 13.3537C17.636 13.2954 17.636 13.2371 17.6586 13.1756C17.6813 13.1141 17.6586 13.1432 17.6586 13.127V12.2562C17.6586 12.2303 17.6586 12.1364 17.636 12.0749C17.6374 12.0576 17.6374 12.0403 17.636 12.0231C17.6143 11.8835 17.5851 11.7452 17.5486 11.6087V11.5569C17.5486 11.4954 17.513 11.4339 17.4935 11.3756V11.3465C17.4719 11.2774 17.446 11.2094 17.4158 11.1425C17.4096 11.1257 17.402 11.1095 17.3932 11.0939C17.37 11.0356 17.344 10.9783 17.3155 10.9224L17.296 10.8803C17.2637 10.8155 17.2248 10.7475 17.186 10.6796L17.1633 10.6407L17.0565 10.4756L17.0241 10.4303C16.9784 10.3634 16.9298 10.2986 16.8784 10.236L16.8558 10.2101L16.6809 10.0385L16.6356 9.98998C16.5765 9.92713 16.515 9.86666 16.4511 9.80869L16.3896 9.75689L16.3572 9.7148C16.3151 9.63711 16.2665 9.56265 16.218 9.48819C16.2094 9.47818 16.2018 9.46733 16.1953 9.45581C16.1435 9.38243 16.0885 9.30797 16.0302 9.23243L16.0108 9.20653C15.8845 9.04698 15.7483 8.8956 15.6029 8.75329C15.1828 8.37376 14.8533 7.90473 14.6387 7.38082C14.4241 6.85691 14.3298 6.2915 14.363 5.72632L14.35 5.7166ZM14.8065 15.2443C14.8809 15.1843 14.9533 15.1216 15.0234 15.0565L15.0428 15.0371C15.1076 14.9756 15.1723 14.9076 15.2306 14.8429L15.2532 14.817C15.3118 14.7519 15.3669 14.6838 15.4183 14.613L15.4378 14.5871C15.4896 14.5159 15.5381 14.4447 15.5835 14.3734L15.6029 14.3443C15.6481 14.2728 15.6902 14.1993 15.7291 14.1242V14.0983C15.768 14.0206 15.8068 13.9429 15.8392 13.8652V13.8457C15.8716 13.7648 15.904 13.6806 15.9331 13.5997C15.9622 13.5155 15.9881 13.4281 16.0108 13.3439C16.1843 12.7209 16.1895 12.063 16.0257 11.4374C15.8619 10.8118 15.535 10.2408 15.0784 9.78279C15.3623 9.85994 15.6314 9.98355 15.8748 10.1486L15.904 10.1713L16.0043 10.2522L16.1532 10.3979L16.1953 10.4465C16.2272 10.4784 16.2575 10.5119 16.286 10.5468L16.3345 10.6051C16.3604 10.6342 16.3831 10.6666 16.4058 10.6957L16.4543 10.7605C16.4737 10.7896 16.4964 10.8188 16.5158 10.8511L16.5579 10.9159L16.6809 11.0098C16.6941 11.0317 16.706 11.0544 16.7165 11.0778L16.7651 11.1684L16.8396 11.327C16.8496 11.3491 16.8583 11.3718 16.8655 11.395C16.8655 11.4242 16.8914 11.4565 16.9011 11.4857L16.927 11.5537L16.9561 11.6443L16.9755 11.709C16.9755 11.7414 16.9755 11.7738 17.0014 11.8062C17.0273 11.8385 17.0014 11.8483 17.0014 11.8677C17.0014 11.8871 17.0014 11.9357 17.0241 11.9713V12.0231C17.0337 12.0646 17.0402 12.1068 17.0435 12.1493V12.9004C17.0419 12.9166 17.0419 12.9328 17.0435 12.949V13.2112C17.0451 13.2392 17.0451 13.2673 17.0435 13.2954C17.0451 13.3083 17.0451 13.3213 17.0435 13.3342C17.0453 13.3612 17.0453 13.3882 17.0435 13.4152V13.4508C17.0435 13.4637 17.0435 13.5058 17.0273 13.5317V13.5608L17.0079 13.645C16.9827 13.7549 16.9502 13.8631 16.9108 13.9688L16.8914 14.027V14.0885L16.5644 14.3346L16.3054 14.5159L16.0496 14.681L15.891 14.7716L15.7939 14.8299L15.6353 14.9141L15.5414 14.9626L15.386 15.0242L15.2953 15.0695L15.1529 15.1278L14.8777 15.2346L14.8065 15.2605V15.2443ZM11.6209 10.9288L11.5011 11.0098H11.1288L10.8763 11.0324H10.8536C10.7662 11.0324 10.6853 11.0583 10.6011 11.0713H10.5428L10.3388 11.1166H10.3065C10.232 11.136 10.164 11.1587 10.096 11.1814H10.0475C9.99155 11.1994 9.93646 11.2199 9.88237 11.2429H9.85C9.79057 11.2673 9.73224 11.2943 9.67518 11.3238L9.63633 11.3432L9.50683 11.4144L9.47446 11.4339L9.30612 11.5439L9.20252 11.6249L9.17662 11.6475C9.13777 11.6767 9.10216 11.709 9.06655 11.7414L8.94353 11.8644L8.86259 11.9583C8.83993 11.9842 8.8205 12.0134 8.80108 12.0393L8.78489 12.0619L8.72662 12.1461L8.68453 12.2173V12.0619C8.68612 12.0534 8.68612 12.0446 8.68453 12.036V11.5569C8.68972 11.5155 8.68574 11.4734 8.67288 11.4337C8.66001 11.394 8.63857 11.3576 8.61007 11.327C8.58285 11.2953 8.54906 11.27 8.51104 11.2526C8.47303 11.2353 8.4317 11.2264 8.38993 11.2267C8.08603 11.2347 7.78509 11.1652 7.51549 11.0247C7.24588 10.8843 7.01648 10.6775 6.84892 10.4238C7.23909 10.2435 7.66476 10.1531 8.09452 10.1593C8.52428 10.1655 8.94717 10.268 9.33201 10.4594L9.49712 10.5306L9.55863 10.5565L9.66223 10.5954L9.73345 10.6213L9.8241 10.6504L9.89856 10.6731L9.98597 10.699L10.0604 10.7184L10.1446 10.7378H10.2191L10.3 10.7573H11.6953L11.6209 10.9288ZM9.31259 7.08279C9.28214 7.37769 9.28214 7.67494 9.31259 7.96984H9.2964L9.09892 7.90833H9.06331C8.99532 7.88891 8.92734 7.87596 8.85935 7.85977H8.83345C8.69689 7.82366 8.55858 7.79448 8.41906 7.77236C8.6932 7.51332 8.99253 7.28231 9.31259 7.08279ZM4.65396 12.0911C4.61654 11.828 4.61654 11.561 4.65396 11.2979C4.67338 11.136 4.69928 10.9742 4.72518 10.8511C4.72367 10.8447 4.72367 10.8381 4.72518 10.8317V10.8123C4.72518 10.7346 4.78993 10.3882 4.80288 10.3299V10.2781C4.99302 9.43593 5.34725 8.63946 5.84532 7.93423L5.86475 7.90509C6.08259 7.59875 6.32512 7.31074 6.58993 7.04394C6.76468 6.86601 6.95067 6.69948 7.14676 6.54538C7.14676 7.08927 7.22122 7.87919 7.50288 8.23207C7.52066 8.25739 7.54389 8.27841 7.57086 8.29358L7.60324 8.31301C7.62435 8.32096 7.64598 8.32745 7.66799 8.33243H8.19245C8.61022 8.34495 9.02019 8.44882 9.39353 8.63675C9.44893 8.67012 9.50293 8.70576 9.5554 8.74358C9.62117 8.78553 9.68391 8.83205 9.74317 8.88279C9.84676 8.9702 9.97302 9.09322 10.2029 9.31984L10.2903 9.40401L10.4392 9.53675C10.4813 9.56912 10.5234 9.60473 10.5719 9.63711L10.5978 9.65653L10.7273 9.74718H10.7565C10.805 9.78279 10.8568 9.81193 10.9086 9.8443L10.9475 9.8702L11.1061 9.96085L11.2971 10.0677L11.4558 10.1486L11.4849 10.168L11.6306 10.2393H10.8536C10.7694 10.2393 10.682 10.2393 10.5946 10.2134H10.4101L10.3259 10.1939H10.2709L10.1867 10.1745L10.1317 10.1583L10.0475 10.1357L9.98921 10.1162L9.88237 10.1421C9.86339 10.1376 9.84494 10.1311 9.82734 10.1227L9.73022 10.0871L9.68489 10.0677L9.55863 10.0062C9.04022 9.74471 8.46324 9.62107 7.88321 9.64716C7.30318 9.67324 6.73962 9.84816 6.24676 10.1551C6.19229 10.1929 6.15234 10.2481 6.1335 10.3117C6.11467 10.3753 6.11808 10.4434 6.14317 10.5047C6.31265 10.8803 6.577 11.2053 6.91022 11.4477C7.24343 11.6901 7.63401 11.8415 8.04353 11.8871C8.00144 13.4087 8.94029 14.8299 10.4942 15.568L10.6011 15.6231H10.6173C11.3328 16.0087 12.1355 16.2038 12.9482 16.1896H13.0162C13.888 16.1745 14.7475 15.9806 15.5414 15.6198L15.5996 15.5939L15.8068 15.4968L15.9169 15.4385L16.0853 15.3511L16.3701 15.186L16.6615 14.9983L16.9561 14.7911C17.057 14.7165 17.1563 14.6398 17.254 14.5612L17.2863 14.5256C17.3737 14.4544 17.4579 14.3832 17.5388 14.3087L17.5939 14.2569C17.6813 14.176 17.7655 14.095 17.8464 14.0108L17.8853 13.9752L18.1378 13.6968C18.2155 13.6094 18.2867 13.522 18.3579 13.4314C18.371 13.4133 18.385 13.396 18.4 13.3796C18.468 13.2889 18.536 13.195 18.5975 13.1044C18.6044 13.0853 18.613 13.0668 18.6234 13.0493L18.8014 12.7709V12.745C18.8597 12.6479 18.9147 12.5475 18.9665 12.4504C18.9665 12.4342 18.9665 12.418 18.9924 12.4051C19.041 12.3047 19.0928 12.2011 19.1349 12.1008V12.0781C19.1835 11.9713 19.2255 11.8612 19.2644 11.7544C19.2946 11.681 19.3205 11.6065 19.3421 11.531V11.9972C19.3437 12.0101 19.3437 12.0231 19.3421 12.036C19.3421 12.1299 19.3421 12.2206 19.3259 12.3112C19.3275 12.3349 19.3275 12.3587 19.3259 12.3824C19.3259 12.4796 19.3065 12.5799 19.2968 12.6738V12.7321C19.2968 12.8162 19.2741 12.8972 19.2579 12.9814V13.0429C19.2579 13.1367 19.2223 13.2274 19.2029 13.318V13.3796L19.1446 13.6126C19.1461 13.6288 19.1461 13.6451 19.1446 13.6612C19.1222 13.7461 19.0973 13.8303 19.0701 13.9137L19.0507 13.9752C19.0278 14.0493 19.003 14.1227 18.9763 14.1954V14.2278C18.9471 14.3055 18.918 14.3832 18.8856 14.4576C18.8856 14.4738 18.8856 14.4932 18.863 14.5126C18.8338 14.5871 18.8014 14.6583 18.7691 14.7296C17.882 16.6234 15.7097 18.6144 12.2748 18.5141C8.55827 18.4072 5.30144 15.6522 4.69604 12.104L4.65396 12.0911ZM20.3004 12.9911V13.0752C20.3004 13.1497 20.2842 13.2242 20.2777 13.2889C19.9831 14.9301 19.1775 16.4362 17.9759 17.5923C16.7744 18.7484 15.2383 19.4954 13.587 19.7266C11.9357 19.9578 10.2535 19.6614 8.78069 18.8797C7.30786 18.098 6.11962 16.871 5.38561 15.3738L5.48597 15.513C5.54101 15.5907 5.59928 15.6652 5.65432 15.7396L5.67698 15.7688L5.87446 16.0116L5.93273 16.0796L6.09784 16.2673L6.14964 16.3224C6.21871 16.3957 6.28993 16.4702 6.36331 16.5457L6.42158 16.6008C6.47986 16.659 6.53813 16.7173 6.59964 16.7724L6.64496 16.8371L6.92014 17.0799L7.2018 17.3033L7.45755 17.4943C7.54173 17.5558 7.62914 17.6141 7.71655 17.6724L8.06942 17.8925C8.16007 17.9465 8.25072 17.9983 8.34137 18.0479L8.41583 18.0867C8.48705 18.1288 8.56151 18.1644 8.63597 18.2033L8.71367 18.2421L9.0536 18.3975L9.30288 18.5011L9.38705 18.5367L9.67518 18.6403L9.99892 18.7407L10.0831 18.7634L10.3421 18.8346H10.4036L10.7273 18.909H10.805C10.8907 18.9286 10.9771 18.9448 11.064 18.9576H11.145C11.2524 18.9761 11.3603 18.9912 11.4687 19.0029H11.527L11.8054 19.0288H11.8928L12.2165 19.0483H12.4723C13.8781 19.1025 15.2694 18.7467 16.4765 18.0241C17.6836 17.3016 18.6545 16.2435 19.2709 14.9788C20.0823 13.2244 20.198 11.2275 19.5946 9.39106C19.5946 9.35545 19.5719 9.32308 19.559 9.2907C19.4935 8.88545 19.396 8.48601 19.2676 8.0961C19.4833 8.39878 19.6647 8.72452 19.8083 9.06732C20.2988 10.3133 20.468 11.6626 20.3004 12.9911Z" stroke="black" stroke-width="0.5" mask="url(#path-1-outside-1_2862_230)"/>
</svg>
