<svg width="24" height="24" viewBox="0 0 24 24" fill="none" xmlns="http://www.w3.org/2000/svg">
<path d="M9.35645 18.2145C5.51766 19.4644 5.51766 15.9827 4 15.5363M14.7129 20V16.8754C14.7129 15.9827 14.8022 15.6256 14.2665 15.0899C16.7662 14.8221 19.1766 13.8401 19.1766 9.73347C19.1755 8.66661 18.7593 7.64205 18.016 6.87669C18.3646 5.95 18.3325 4.92304 17.9268 4.01992C17.9268 4.01992 16.9448 3.7521 14.8022 5.18049C12.9874 4.70786 11.0819 4.70786 9.26718 5.18049C7.1246 3.7521 6.14258 4.01992 6.14258 4.01992C5.73681 4.92304 5.70472 5.95 6.05331 6.87669C5.31006 7.64205 4.89383 8.66661 4.89274 9.73347C4.89274 13.8401 7.30314 14.8221 9.80282 15.0899C9.26718 15.6256 9.26718 16.1612 9.35645 16.8754V20" stroke="black" stroke-width="2" stroke-linecap="round" stroke-linejoin="round"/>
</svg>
