<svg width="24" height="24" viewBox="0 0 24 24" fill="none" xmlns="http://www.w3.org/2000/svg">
<path d="M12.3333 12C12.3333 12.7072 12.6143 13.3855 13.1144 13.8856C13.6145 14.3857 14.2928 14.6667 15 14.6667C15.7072 14.6667 16.3855 14.3857 16.8856 13.8856C17.3857 13.3855 17.6667 12.7072 17.6667 12C17.6667 11.2928 17.3857 10.6145 16.8856 10.1144C16.3855 9.61429 15.7072 9.33334 15 9.33334C14.2928 9.33334 13.6145 9.61429 13.1144 10.1144C12.6143 10.6145 12.3333 11.2928 12.3333 12Z" stroke="black" stroke-width="2" stroke-linecap="round" stroke-linejoin="round"/>
<path d="M7 6.66667C7 5.95942 7.28095 5.28115 7.78105 4.78105C8.28115 4.28095 8.95942 4 9.66667 4H15C15.7072 4 16.3855 4.28095 16.8856 4.78105C17.3857 5.28115 17.6667 5.95942 17.6667 6.66667C17.6667 7.37391 17.3857 8.05219 16.8856 8.55228C16.3855 9.05238 15.7072 9.33333 15 9.33333H9.66667C8.95942 9.33333 8.28115 9.05238 7.78105 8.55228C7.28095 8.05219 7 7.37391 7 6.66667Z" stroke="black" stroke-width="2" stroke-linecap="round" stroke-linejoin="round"/>
<path d="M9.66667 9.33333C8.95942 9.33333 8.28115 9.61428 7.78105 10.1144C7.28095 10.6145 7 11.2928 7 12C7 12.7072 7.28095 13.3855 7.78105 13.8856C8.28115 14.3857 8.95942 14.6667 9.66667 14.6667M9.66667 14.6667H12.3333M9.66667 14.6667C9.13925 14.6667 8.62368 14.8231 8.18515 15.1161C7.74662 15.4091 7.40482 15.8256 7.20299 16.3128C7.00116 16.8001 6.94835 17.3363 7.05124 17.8536C7.15413 18.3709 7.40811 18.846 7.78105 19.2189C8.15399 19.5919 8.62914 19.8459 9.14643 19.9488C9.66371 20.0517 10.1999 19.9988 10.6872 19.797C11.1744 19.5952 11.5909 19.2534 11.8839 18.8149C12.1769 18.3763 12.3333 17.8607 12.3333 17.3333V4" stroke="black" stroke-width="2" stroke-linecap="round" stroke-linejoin="round"/>
</svg>
