<svg width="24" height="24" viewBox="0 0 24 24" fill="none" xmlns="http://www.w3.org/2000/svg">
<path d="M8.44444 19.1111L12 11.1111" stroke="black" stroke-width="2" stroke-linecap="round" stroke-linejoin="round"/>
<path d="M10.8444 13.7778C11.2329 14.9004 12.1156 15.5556 13.1111 15.5556C14.952 15.5556 16.4444 14.1742 16.4444 12C16.4452 11.351 16.3038 10.7096 16.0302 10.1211C15.7565 9.53253 15.3573 9.01105 14.8606 8.59331C14.3639 8.17556 13.7817 7.87168 13.1549 7.70302C12.5282 7.53437 11.8721 7.50503 11.2328 7.61707C10.5935 7.72911 9.98647 7.97982 9.45443 8.35156C8.92239 8.7233 8.47822 9.20706 8.15316 9.76884C7.82809 10.3306 7.63001 10.9568 7.57283 11.6033C7.51566 12.2498 7.60079 12.901 7.82222 13.5111" stroke="black" stroke-width="2" stroke-linecap="round" stroke-linejoin="round"/>
<path d="M4 12C4 13.0506 4.20693 14.0909 4.60896 15.0615C5.011 16.0321 5.60028 16.914 6.34315 17.6569C7.08601 18.3997 7.96793 18.989 8.93853 19.391C9.90914 19.7931 10.9494 20 12 20C13.0506 20 14.0909 19.7931 15.0615 19.391C16.0321 18.989 16.914 18.3997 17.6569 17.6569C18.3997 16.914 18.989 16.0321 19.391 15.0615C19.7931 14.0909 20 13.0506 20 12C20 10.9494 19.7931 9.90914 19.391 8.93853C18.989 7.96793 18.3997 7.08601 17.6569 6.34315C16.914 5.60028 16.0321 5.011 15.0615 4.60896C14.0909 4.20693 13.0506 4 12 4C10.9494 4 9.90914 4.20693 8.93853 4.60896C7.96793 5.011 7.08601 5.60028 6.34315 6.34315C5.60028 7.08601 5.011 7.96793 4.60896 8.93853C4.20693 9.90914 4 10.9494 4 12Z" stroke="black" stroke-width="2" stroke-linecap="round" stroke-linejoin="round"/>
</svg>
