<svg width="24" height="24" viewBox="0 0 24 24" fill="none" xmlns="http://www.w3.org/2000/svg">
<g clip-path="url(#clip0_2721_81)">
<path d="M7.5 10.875V16.5M7.5 7.5V7.51125M12 16.5V10.875M16.5 16.5V13.125C16.5 12.5283 16.2629 11.956 15.841 11.534C15.419 11.1121 14.8467 10.875 14.25 10.875C13.6533 10.875 13.081 11.1121 12.659 11.534C12.2371 11.956 12 12.5283 12 13.125M3 5.25C3 4.65326 3.23705 4.08097 3.65901 3.65901C4.08097 3.23705 4.65326 3 5.25 3H18.75C19.3467 3 19.919 3.23705 20.341 3.65901C20.7629 4.08097 21 4.65326 21 5.25V18.75C21 19.3467 20.7629 19.919 20.341 20.341C19.919 20.7629 19.3467 21 18.75 21H5.25C4.65326 21 4.08097 20.7629 3.65901 20.341C3.23705 19.919 3 19.3467 3 18.75V5.25Z" stroke="black" stroke-width="2" stroke-linecap="round" stroke-linejoin="round"/>
</g>
<defs>
<clipPath id="clip0_2721_81">
<rect width="24" height="24" fill="white"/>
</clipPath>
</defs>
</svg>
