<svg width="24" height="24" viewBox="0 0 24 24" fill="none" xmlns="http://www.w3.org/2000/svg">
<g clip-path="url(#clip0_2721_76)">
<path d="M17.0625 6.9375V6.94875M3 7.5C3 6.30653 3.47411 5.16193 4.31802 4.31802C5.16193 3.47411 6.30653 3 7.5 3H16.5C17.6935 3 18.8381 3.47411 19.682 4.31802C20.5259 5.16193 21 6.30653 21 7.5V16.5C21 17.6935 20.5259 18.8381 19.682 19.682C18.8381 20.5259 17.6935 21 16.5 21H7.5C6.30653 21 5.16193 20.5259 4.31802 19.682C3.47411 18.8381 3 17.6935 3 16.5V7.5ZM8.625 12C8.625 12.8951 8.98058 13.7536 9.61351 14.3865C10.2464 15.0194 11.1049 15.375 12 15.375C12.8951 15.375 13.7536 15.0194 14.3865 14.3865C15.0194 13.7536 15.375 12.8951 15.375 12C15.375 11.1049 15.0194 10.2464 14.3865 9.61351C13.7536 8.98058 12.8951 8.625 12 8.625C11.1049 8.625 10.2464 8.98058 9.61351 9.61351C8.98058 10.2464 8.625 11.1049 8.625 12Z" stroke="black" stroke-width="2" stroke-linecap="round" stroke-linejoin="round"/>
</g>
<defs>
<clipPath id="clip0_2721_76">
<rect width="24" height="24" fill="white"/>
</clipPath>
</defs>
</svg>
