<svg width="24" height="24" viewBox="0 0 24 24" fill="none" xmlns="http://www.w3.org/2000/svg">
<g clip-path="url(#clip0_2725_309)">
<path d="M12.0001 2.99991C13.4089 2.9996 14.7981 3.33003 16.056 3.96462C17.3138 4.59921 18.4051 5.52023 19.242 6.65355C20.0789 7.78687 20.638 9.10084 20.8744 10.4897C21.1108 11.8786 21.0179 13.3035 20.6031 14.6499C20.9792 15.483 21.0926 16.4109 20.9284 17.3101C20.7641 18.2093 20.33 19.0371 19.6836 19.6835C19.0373 20.3298 18.2094 20.764 17.3102 20.9282C16.411 21.0925 15.4832 20.979 14.6501 20.6029C13.0858 21.0854 11.4196 21.1322 9.83082 20.7382C8.242 20.3441 6.79073 19.5242 5.63323 18.3667C4.47573 17.2092 3.65584 15.758 3.26181 14.1691C2.86779 12.5803 2.91455 10.9141 3.39706 9.34991C3.02063 8.51676 2.9069 7.58872 3.071 6.68934C3.2351 5.78995 3.66926 4.96188 4.31567 4.31536C4.96207 3.66884 5.79007 3.23455 6.68943 3.0703C7.58879 2.90604 8.51685 3.01962 9.35006 3.39591C10.2086 3.13223 11.1019 2.99875 12.0001 2.99991Z" stroke="currentColor" stroke-width="2" stroke-linecap="round" stroke-linejoin="round"/>
<path d="M8 14.5C8.5 16.5 10.358 17 12 17C14.905 17 16 15.813 16 14.5C16 12.997 14.073 12 12 12C9.927 12 8 11 8 9.5C8 8.187 9.095 7 12 7C13.642 7 15.5 7.5 16 9.5" stroke="currentColor" stroke-width="2" stroke-linecap="round" stroke-linejoin="round"/>
</g>
<defs>
<clipPath id="clip0_2725_309">
<rect width="24" height="24" fill="white"/>
</clipPath>
</defs>
</svg>
