<svg width="24" height="24" viewBox="0 0 24 24" fill="none" xmlns="http://www.w3.org/2000/svg">
<path d="M8.77778 7.72222C5.94444 7.72222 5 10.5556 5 12.9167C5 15.75 6.88889 20 8.77778 20C9.80533 19.9566 10.3635 19.5278 11.6111 19.5278C12.8502 19.5278 13.0278 20 14.4444 20C15.8611 20 18.2222 17.1667 18.2222 15.2778C18.1958 15.2683 15.8876 14.8972 15.8611 12.4444C15.8432 10.395 18.1429 9.65456 18.2222 9.61111C17.2561 8.202 15.4352 7.75717 14.9167 7.72222C13.5633 7.61739 12.2439 8.66667 11.6111 8.66667C10.9689 8.66667 9.81667 7.72222 8.77778 7.72222Z" stroke="black" stroke-width="2" stroke-linecap="round" stroke-linejoin="round"/>
<path d="M11.6111 4.88889C12.1121 4.88889 12.5925 4.68988 12.9468 4.33565C13.301 3.98141 13.5 3.50096 13.5 3C12.999 3 12.5186 3.19901 12.1644 3.55324C11.8101 3.90748 11.6111 4.38792 11.6111 4.88889Z" stroke="black" stroke-width="2" stroke-linecap="round" stroke-linejoin="round"/>
</svg>
