<svg width="24" height="24" viewBox="0 0 24 24" fill="none" xmlns="http://www.w3.org/2000/svg">
<path d="M12 4.00252C13.2519 4.00225 14.4864 4.29587 15.6041 4.85978C16.7218 5.42368 17.6915 6.2421 18.4352 7.24918C19.1789 8.25625 19.6758 9.42385 19.8858 10.658C20.0959 11.8922 20.0133 13.1584 19.6447 14.3548C19.9789 15.0951 20.0797 15.9196 19.9338 16.7187C19.7878 17.5177 19.402 18.2533 18.8277 18.8277C18.2533 19.402 17.5177 19.7878 16.7187 19.9338C15.9197 20.0797 15.0951 19.9789 14.3548 19.6447C12.9648 20.0734 11.4842 20.115 10.0724 19.7649C8.66057 19.4147 7.37096 18.6862 6.3424 17.6576C5.31384 16.629 4.58528 15.3394 4.23515 13.9276C3.88501 12.5158 3.92656 11.0352 4.35532 9.64518C4.02083 8.90484 3.91976 8.08018 4.06559 7.28097C4.21141 6.48177 4.5972 5.74594 5.1716 5.17144C5.74601 4.59694 6.48177 4.21103 7.28095 4.06507C8.08013 3.91911 8.90481 4.02004 9.6452 4.35441C10.4081 4.1201 11.2019 4.00149 12 4.00252Z" stroke="black" stroke-width="2" stroke-linecap="round" stroke-linejoin="round"/>
<path d="M8.44559 14.2215C8.88989 15.9987 10.5409 16.443 12 16.443C14.5814 16.443 15.5544 15.3882 15.5544 14.2215C15.5544 12.8859 13.8421 12 12 12C10.1579 12 8.44559 11.1114 8.44559 9.77847C8.44559 8.61173 9.41861 7.55695 12 7.55695C13.4591 7.55695 15.1101 8.00126 15.5544 9.77847" stroke="black" stroke-width="2" stroke-linecap="round" stroke-linejoin="round"/>
</svg>
