<svg width="24" height="24" viewBox="0 0 24 24" fill="none" xmlns="http://www.w3.org/2000/svg">
<path d="M19.9804 11.441C19.8485 9.55798 19.055 7.78227 17.7403 6.42783C16.4255 5.0734 14.6741 4.2275 12.7959 4.0397C10.9176 3.85191 9.03348 4.33432 7.47658 5.40163C5.91967 6.46894 4.79032 8.0524 4.28822 9.87202C3.78611 11.6916 3.9436 13.6302 4.73284 15.3449C5.52207 17.0596 6.89221 18.44 8.60098 19.242C10.3097 20.044 12.2471 20.216 14.0704 19.7274C15.8937 19.2389 17.4855 18.1214 18.5644 16.5725" stroke="black" stroke-width="2" stroke-linecap="round" stroke-linejoin="round"/>
<path d="M19.9804 11.441C20.1671 14.1014 15.5058 13.5859 13.8355 12.7619C15.0729 11.3397 14.1929 9.17255 11.8142 9.33877C10.2631 9.44721 9.21244 10.3672 9.33955 12.185C9.58844 15.7316 13.2898 17.7005 18.5484 16.4428" stroke="black" stroke-width="2" stroke-linecap="round" stroke-linejoin="round"/>
<path d="M4.01956 12.5574C3.76801 8.96365 11.768 6.13254 14.0178 10.1681" stroke="black" stroke-width="2" stroke-linecap="round" stroke-linejoin="round"/>
<path d="M12.5582 19.9796C9.89778 20.1663 7.96978 15.7796 9.38756 11.3148" stroke="black" stroke-width="2" stroke-linecap="round" stroke-linejoin="round"/>
</svg>
