<svg width="24" height="24" viewBox="0 0 24 24" fill="none" xmlns="http://www.w3.org/2000/svg">
<g clip-path="url(#clip0_2721_50)">
<path d="M20.978 11.3721C20.8296 9.25371 19.9369 7.25603 18.4578 5.73229C16.9787 4.20855 15.0084 3.25691 12.8954 3.04564C10.7824 2.83437 8.66267 3.37709 6.91115 4.57781C5.15964 5.77854 3.88911 7.55994 3.32425 9.60701C2.75938 11.6541 2.93655 13.8349 3.82444 15.764C4.71233 17.693 6.25374 19.246 8.17611 20.1482C10.0985 21.0505 12.278 21.244 14.3292 20.6944C16.3804 20.1448 18.1712 18.8876 19.385 17.1451" stroke="currentColor" stroke-width="2" stroke-linecap="round" stroke-linejoin="round"/>
<path d="M20.9781 11.3722C21.1881 14.3652 15.9441 13.7852 14.0651 12.8582C15.4571 11.2582 14.4671 8.82022 11.7911 9.00722C10.0461 9.12922 8.86406 10.1642 9.00706 12.2092C9.28706 16.1992 13.4511 18.4142 19.3671 16.9992" stroke="currentColor" stroke-width="2" stroke-linecap="round" stroke-linejoin="round"/>
<path d="M3.02191 12.6279C2.73891 8.58487 11.7389 5.39987 14.2699 9.93987" stroke="currentColor" stroke-width="2" stroke-linecap="round" stroke-linejoin="round"/>
<path d="M12.628 20.978C9.63504 21.188 7.46604 16.253 9.06104 11.23" stroke="currentColor" stroke-width="2" stroke-linecap="round" stroke-linejoin="round"/>
</g>
<defs>
<clipPath id="clip0_2721_50">
<rect width="24" height="24" fill="white"/>
</clipPath>
</defs>
</svg>
