<svg width="24" height="24" viewBox="0 0 24 24" fill="none" xmlns="http://www.w3.org/2000/svg">
<path d="M20.496 6.69406C20.4256 6.71753 20.3492 6.73514 20.2788 6.75862C19.8914 6.86427 19.4923 6.94057 19.0873 6.98753C18.9347 7.00514 18.7997 6.89362 18.7821 6.74101C18.7704 6.62362 18.8291 6.51211 18.9289 6.46515C19.2986 6.24211 19.6273 5.95451 19.8914 5.61409C20.003 5.47322 20.1027 5.32649 20.1966 5.16801C20.0264 5.25018 19.8504 5.32062 19.6684 5.39105C19.2458 5.55539 18.7997 5.67865 18.3478 5.77256C18.248 5.79017 18.1482 5.75495 18.0837 5.67865C17.7491 5.32649 17.3441 5.03888 16.8863 4.84519C16.4461 4.65737 15.9589 4.55172 15.4424 4.55172C14.4446 4.55172 13.5349 4.95671 12.8834 5.61409C12.226 6.27146 11.821 7.17535 11.821 8.17315C11.821 8.31988 11.8269 8.45488 11.8445 8.58988C11.8621 8.73074 11.8856 8.86574 11.9149 8.99486C11.9501 9.1416 11.8562 9.2942 11.7095 9.32355C11.6801 9.32942 11.6508 9.32942 11.6214 9.32942C9.98975 9.24725 8.45196 8.81878 7.07852 8.12032C5.78139 7.46295 4.62511 6.55906 3.6684 5.47322C3.5921 5.64343 3.5334 5.81365 3.48645 5.9956C3.40428 6.30081 3.36319 6.61775 3.36319 6.94057C3.36319 7.55686 3.51579 8.1438 3.78579 8.64857C4.06752 9.17682 4.47251 9.62289 4.97141 9.95158C5.10053 10.0337 5.13575 10.2098 5.04771 10.3331C4.98902 10.4211 4.88924 10.4622 4.79533 10.4563C4.46664 10.4446 4.14382 10.3977 3.83861 10.3096C3.6684 10.2627 3.50993 10.2098 3.35145 10.1394C3.42775 10.8555 3.71535 11.507 4.14969 12.0352C4.67207 12.6691 5.39987 13.1269 6.2392 13.2913C6.3918 13.3206 6.48571 13.4674 6.45637 13.62C6.43289 13.7315 6.35072 13.8078 6.25094 13.8371C6.08073 13.8841 5.89877 13.9193 5.71095 13.9428C5.52313 13.9663 5.34118 13.978 5.15923 13.978C5.05945 13.978 4.9538 13.9721 4.84815 13.9663C5.1064 14.518 5.49378 14.9934 5.97508 15.3514C6.56202 15.7858 7.28395 16.0499 8.06458 16.0675C8.21719 16.0675 8.34045 16.1966 8.33458 16.3492C8.33458 16.4373 8.29349 16.5136 8.22893 16.5605C7.5246 17.1123 6.72636 17.5525 5.86943 17.8459C5.10053 18.1101 4.27882 18.2627 3.42188 18.2861C3.99709 18.5737 4.60164 18.8144 5.22379 18.9963C5.22966 18.9963 5.22966 18.9963 5.23553 19.0022C6.19224 19.2839 7.20765 19.4307 8.26414 19.4307C11.4806 19.4307 14.0279 18.204 15.8357 16.3962C17.9663 14.2656 19.0815 11.325 19.0815 8.61335V8.36684C19.0815 8.29054 19.0756 8.20836 19.0756 8.12032C19.0697 8.02641 19.1167 7.93837 19.193 7.88555C19.5569 7.62142 19.8973 7.32795 20.2143 7.00514C20.314 6.89949 20.4079 6.79384 20.5019 6.68819L20.496 6.69406ZM20.1321 6.2245C20.4842 6.13059 20.8305 6.00734 21.1592 5.8606C21.2649 5.80191 21.3999 5.81952 21.4879 5.90756C21.5877 6.00734 21.5936 6.17168 21.5055 6.27733C21.2355 6.67645 20.9362 7.05209 20.6016 7.39252C20.3023 7.7036 19.9736 7.9912 19.6273 8.25532V8.36684C19.6273 8.48423 19.6332 8.57227 19.6332 8.62509C19.6332 11.4776 18.4593 14.5649 16.2231 16.8012C14.3155 18.7087 11.6391 20 8.25827 20C7.15483 20 6.08659 19.8415 5.07706 19.5481C5.07119 19.5481 5.06532 19.5481 5.06532 19.5422C4.02056 19.237 3.04037 18.785 2.14235 18.2098C2.04844 18.157 1.98975 18.0514 2.00149 17.934C2.0191 17.7814 2.15996 17.6757 2.3067 17.6933C2.4593 17.7109 2.60604 17.7227 2.75277 17.7344C2.89364 17.7403 3.04624 17.7461 3.20472 17.7461C4.07339 17.7461 4.90097 17.5994 5.67574 17.3353C6.25094 17.1357 6.79679 16.8716 7.29569 16.5488C6.6794 16.4255 6.11594 16.1673 5.62878 15.8092C4.93619 15.2927 4.40794 14.5708 4.13795 13.7315C4.12621 13.6904 4.12034 13.6434 4.12621 13.5965C4.15556 13.4439 4.29643 13.3441 4.44903 13.3734C4.56055 13.391 4.67794 13.4087 4.78946 13.4204C4.84228 13.4263 4.90097 13.4321 4.9538 13.4321C4.47251 13.1739 4.04404 12.8158 3.69775 12.3991C3.11081 11.6772 2.75277 10.7557 2.75277 9.75202V9.70506C2.75277 9.65811 2.76451 9.61702 2.78799 9.57007C2.85842 9.43507 3.02863 9.38811 3.16363 9.45855C3.39254 9.5818 3.62731 9.68158 3.8797 9.75789C3.64492 9.5055 3.44536 9.2179 3.28102 8.91269C2.96407 8.32575 2.78799 7.65077 2.78799 6.94644C2.78799 6.57667 2.83494 6.21277 2.93472 5.8606C3.02863 5.50844 3.1695 5.16801 3.35732 4.84519C3.37493 4.81585 3.39254 4.79237 3.42188 4.76889C3.53927 4.67498 3.71535 4.69259 3.80927 4.80998C4.76011 5.97799 5.9516 6.94644 7.3133 7.63316C8.52827 8.24945 9.87236 8.6427 11.2986 8.76009C11.2928 8.72487 11.2869 8.68966 11.2869 8.65444C11.2693 8.49596 11.2575 8.33162 11.2575 8.17315C11.2575 7.02274 11.7271 5.97799 12.4784 5.22084C13.2355 4.46368 14.2744 4 15.4307 4C16.0176 4 16.5811 4.12326 17.0917 4.34043C17.573 4.54585 18.0015 4.83933 18.3713 5.20323C18.741 5.12106 19.1049 5.01541 19.4571 4.88041C19.8621 4.72781 20.2495 4.53999 20.6134 4.32282C20.6779 4.28173 20.7601 4.26999 20.8364 4.29934C20.9831 4.34629 21.0594 4.4989 21.0125 4.64563C20.854 5.1328 20.6134 5.57887 20.3023 5.96625C20.226 6.06016 20.1497 6.15407 20.0675 6.24211L20.1086 6.23037L20.1321 6.2245Z" fill="black" stroke="black"/>
</svg>
