<svg width="24" height="24" viewBox="0 0 24 24" fill="none" xmlns="http://www.w3.org/2000/svg">
<rect x="3.9" y="3.9" width="16.2" height="16.2" rx="3.1" stroke="black" stroke-width="1.8"/>
<path d="M9.35834 7.92191C9.74642 7.92191 10.1007 7.95647 10.4211 8.02487C10.7415 8.09327 11.0151 8.20559 11.2433 8.36183C11.4715 8.51807 11.6487 8.72543 11.7747 8.98463C11.9007 9.24383 11.9633 9.56351 11.9633 9.94439C11.9633 10.3555 11.8697 10.6982 11.6832 10.9725C11.4967 11.2469 11.2203 11.4715 10.8552 11.6465C11.3578 11.7912 11.7329 12.0446 11.9806 12.4061C12.2283 12.7675 12.3521 13.2038 12.3521 13.7143C12.3521 14.1254 12.2722 14.4818 12.1123 14.7828C11.9525 15.0837 11.7372 15.3293 11.4665 15.5193C11.1958 15.7101 10.8876 15.8505 10.5413 15.942C10.1928 16.0334 9.83354 16.0795 9.47354 16.0788H5.52002V7.92191H9.35834ZM9.1301 11.2231C9.44978 11.2231 9.71258 11.1468 9.9185 10.9949C10.1244 10.8422 10.2274 10.5953 10.2267 10.2525C10.2267 10.0625 10.1921 9.90623 10.1237 9.78455C10.0553 9.66287 9.96386 9.56711 9.84938 9.49871C9.7349 9.43031 9.60386 9.38279 9.45554 9.35615C9.3029 9.32951 9.1481 9.31583 8.99258 9.31655H7.31426V11.2245L9.1301 11.2231ZM9.23306 14.6841C9.40226 14.6849 9.57074 14.6676 9.73562 14.633C9.89546 14.5985 10.0366 14.5416 10.1583 14.4617C10.2799 14.3817 10.3771 14.273 10.4499 14.1362C10.5219 13.9994 10.5586 13.8237 10.5586 13.6106C10.5586 13.1923 10.4405 12.8928 10.2043 12.7142C9.96818 12.5349 9.6557 12.4457 9.26762 12.4457H7.31426V14.6849L9.23306 14.6841ZM14.6086 14.5128C14.8519 14.7489 15.2026 14.867 15.6598 14.867C15.9874 14.867 16.2689 14.7849 16.5051 14.6215C16.7412 14.4581 16.8859 14.2845 16.9392 14.1017H18.367C18.1387 14.8101 17.7881 15.3163 17.3158 15.6209C16.8435 15.9254 16.2725 16.0781 15.6022 16.0781C15.1378 16.0781 14.7187 16.0039 14.3458 15.8556C13.9728 15.7073 13.6567 15.4956 13.3975 15.2213C13.1383 14.9469 12.9382 14.6201 12.7978 14.2392C12.6574 13.8583 12.5868 13.4393 12.5868 12.9828C12.5868 12.5414 12.6588 12.1303 12.8035 11.7494C12.9483 11.3685 13.1542 11.0395 13.4206 10.7616C13.687 10.4837 14.0052 10.2648 14.3746 10.1049C14.7439 9.94511 15.1536 9.86519 15.6029 9.86519C16.1055 9.86519 16.5432 9.96239 16.9169 10.1568C17.2899 10.3512 17.5966 10.6118 17.8363 10.9394C18.0761 11.267 18.2496 11.64 18.3562 12.059C18.4627 12.4781 18.5009 12.9158 18.4707 13.373H14.2097C14.232 13.8965 14.3652 14.2773 14.6086 14.5128ZM16.4424 11.406C16.248 11.1929 15.9528 11.0863 15.5568 11.0863C15.2976 11.0863 15.0823 11.1302 14.9117 11.2173C14.7403 11.3052 14.6035 11.4132 14.5006 11.5428C14.3976 11.6724 14.3256 11.8092 14.2839 11.9539C14.2421 12.0986 14.2169 12.2282 14.2097 12.342H16.8485C16.7715 11.9316 16.6361 11.6191 16.4424 11.406ZM13.9318 8.33591H17.2287V9.25031H13.9318V8.33591Z" fill="black"/>
</svg>
