<svg width="24" height="24" viewBox="0 0 24 24" fill="none" xmlns="http://www.w3.org/2000/svg">
<path d="M14.7889 9.3303L5.44495 19.5641M5.44495 4.43586L14.7889 14.6697M5 4.62274V19.3773C5.00003 19.4866 5.02884 19.594 5.08353 19.6887C5.13822 19.7833 5.21686 19.8619 5.31155 19.9166C5.40624 19.9712 5.51365 20 5.62298 20C5.73231 20 5.83971 19.9712 5.93439 19.9165L18.9465 12.4236C19.021 12.3807 19.0828 12.3189 19.1259 12.2444C19.1689 12.17 19.1915 12.0855 19.1915 11.9996C19.1915 11.9136 19.1689 11.8291 19.1259 11.7547C19.0828 11.6803 19.021 11.6185 18.9465 11.5755L5.93439 4.08346C5.83965 4.02875 5.73216 3.99997 5.62276 4C5.51335 4.00003 5.40588 4.02887 5.31116 4.08363C5.21645 4.13839 5.13782 4.21712 5.0832 4.31192C5.02857 4.40671 4.99988 4.51333 5 4.62274Z" stroke="black" stroke-width="2" stroke-linecap="round" stroke-linejoin="round"/>
</svg>
