<svg width="24" height="24" viewBox="0 0 24 24" fill="none" xmlns="http://www.w3.org/2000/svg">
<path d="M4 6C4 5.46957 4.21071 4.96086 4.58579 4.58579C4.96086 4.21071 5.46957 4 6 4H18C18.5304 4 19.0391 4.21071 19.4142 4.58579C19.7893 4.96086 20 5.46957 20 6V18C20 18.5304 19.7893 19.0391 19.4142 19.4142C19.0391 19.7893 18.5304 20 18 20H6C5.46957 20 4.96086 19.7893 4.58579 19.4142C4.21071 19.0391 4 18.5304 4 18V6Z" stroke="black" stroke-width="2" stroke-linecap="round" stroke-linejoin="round"/>
<path d="M12.2758 11.6559C12.2758 13.1228 11.0948 14.312 9.63788 14.312C8.18093 14.312 7 13.1231 7 11.6559C7 10.1887 8.18104 9 9.63788 9C11.0947 9 12.2758 10.1891 12.2758 11.6559ZM15.1696 11.6559C15.1696 13.0368 14.5791 14.1561 13.8507 14.1561C13.1223 14.1561 12.5317 13.0365 12.5317 11.6559C12.5317 10.2754 13.1223 9.15574 13.8507 9.15574C14.5791 9.15574 15.1696 10.2754 15.1696 11.6559ZM16.3533 11.6559C16.3533 12.8931 16.1455 13.896 15.8894 13.896C15.6332 13.896 15.4255 12.8928 15.4255 11.6559C15.4255 10.4191 15.6332 9.4159 15.8895 9.4159C16.1458 9.4159 16.3533 10.4188 16.3533 11.6559Z" fill="black"/>
</svg>
