<svg width="24" height="24" viewBox="0 0 24 24" fill="none" xmlns="http://www.w3.org/2000/svg">
<path d="M20 12C20 16.4183 16.4183 20 12 20C7.58172 20 4 16.4183 4 12C4 7.58172 7.58172 4 12 4C16.4183 4 20 7.58172 20 12Z" stroke="black" stroke-width="2" stroke-linejoin="round"/>
<path d="M15.772 8.17772L14.2504 15.8491C14.242 15.8605 14.2328 15.8704 14.2243 15.8772C14.2157 15.8841 14.2122 15.8847 14.2086 15.8852L14.2085 15.8852C14.2058 15.8856 14.1824 15.8888 14.1321 15.8726L10.4829 13.075C10.4559 13.0543 10.4269 13.0364 10.3963 13.0216L9.04886 12.3704C9.03003 12.3613 9.01064 12.3534 8.99082 12.3467L6.92076 11.6498L15.772 8.17772ZM6.6514 11.5347C6.65155 11.5347 6.65282 11.5359 6.65473 11.5383C6.6522 11.536 6.65124 11.5347 6.6514 11.5347Z" stroke="black" stroke-linejoin="round"/>
<path d="M10.19 13.4044L9.85575 13.0326C9.76528 13.1139 9.70756 13.2254 9.6934 13.3462L9.64387 13.7688L9.42074 13.0387L10.8787 12.1128L10.5004 12.453L10.0326 12.8736L9.90193 12.9911L9.86754 13.022L9.85872 13.0299L9.8565 13.0319L9.85593 13.0324L9.85579 13.0325L10.19 13.4044Z" stroke="black" stroke-linejoin="round"/>
<path d="M10.8251 14.5905L10.5168 14.8716L10.571 14.392L10.8251 14.5905Z" stroke="black"/>
</svg>
