<svg width="24" height="24" viewBox="0 0 24 24" fill="none" xmlns="http://www.w3.org/2000/svg">
<path d="M4.00094 4.94118V15.2941C4.00094 15.5437 4.1001 15.7831 4.27661 15.9596C4.45311 16.1361 4.6925 16.2353 4.94212 16.2353H6.82447V20L10.5892 16.2353H15.8447C16.0951 16.2353 16.3341 16.1365 16.5101 15.9595L18.7831 13.6875C18.9591 13.5106 19.0588 13.2715 19.0588 13.0212V4.94118C19.0588 4.69156 18.9597 4.45217 18.7832 4.27566C18.6067 4.09916 18.3673 4 18.1176 4H4.94118C4.69156 4 4.45217 4.09916 4.27566 4.27566C4.09916 4.45217 4.00094 4.69156 4.00094 4.94118Z" stroke="black" stroke-width="2" stroke-linecap="round" stroke-linejoin="round"/>
<path d="M15.2951 7.76471V11.5294" stroke="black" stroke-width="2" stroke-linecap="round" stroke-linejoin="round"/>
<path d="M11.5304 7.76471V11.5294" stroke="black" stroke-width="2" stroke-linecap="round" stroke-linejoin="round"/>
</svg>
