<svg width="24" height="24" viewBox="0 0 24 24" fill="none" xmlns="http://www.w3.org/2000/svg">
<path d="M12 22C17.5228 22 22 17.5228 22 12C22 6.47715 17.5228 2 12 2C6.47715 2 2 6.47715 2 12C2 17.5228 6.47715 22 12 22Z" stroke="black" stroke-width="2" stroke-linecap="round" stroke-linejoin="round"/>
<path d="M8 8H13M14 12C14.6667 12 16 11.6 16 10C16 8.4 14.6667 8 14 8H13M14 12C14.6667 12 16 12.4 16 14C16 15.6 14.6667 16 14 16H13M14 12H10M8 16H13M10 6V12M10 18V12M13 6V8M13 16V18" stroke="black" stroke-width="2" stroke-linecap="round" stroke-linejoin="round"/>
</svg>
